<svg id="Слой_1" data-name="Слой 1" xmlns="http://www.w3.org/2000/svg" viewBox="0 0 514.94 358.18"><defs><style>.cls-1{fill:#fdc653;}.cls-2{fill:#151515;}.cls-3{fill:#fcc93e;}.cls-4{fill:#59e1cd;}.cls-5{fill:#fefefe;}.cls-6{fill:#fbfcfc;}.cls-7{fill:#fff;}</style></defs><rect class="cls-1" x="87.3" y="121.12" width="186.28" height="127.28"/><path class="cls-2" d="M376.34,108.09c2,0,3.88.32,5.85.31,1.5,0,3-.23,4.56-.09a66.58,66.58,0,0,0,6.78.15c1.89,0,4-.68,5.8.75.37.3.52-.22.71-.46s.65-.61,1-.36c1.37.87,3-.2,4.42.68.35.22,1.2,0,1.18.67a1.19,1.19,0,0,1-1.2,1,55.84,55.84,0,0,1-8.17.11c-3.09-.25-6.17,0-9.23-.13a79.66,79.66,0,0,0-8,0c-3.4.23-6.79-.07-10.19-.13q-6.62-.12-13.25.07c-5.88.15-10.88,2.62-15.16,6.53a20.16,20.16,0,0,0-3.89,5.69A15,15,0,0,0,336,130.1a14,14,0,0,0,3.59,8.75c2,2.47,4.82,3.69,7.51,5,2.94,1.46,6.25,1.15,9.44,1.33,1.3.07,2.77-.42,3.82,0,1.49.53,3.28-.32,4.51,1.07.07.08.71-.14.85-.36.65-1.08,1.66-.64,2.54-.67.62,0,1.23.06,1.84.05.81,0,1.18-.1,1-1.25a14.22,14.22,0,0,1,.26-4.86,4.89,4.89,0,0,1,2.39-3.11,10.29,10.29,0,0,1,7-.88c1.84.41,3.72-.23,5.43.61l.17-.3a13,13,0,0,0-7.62-4.37c-1.69-.3-3.36-.67-5.08-.88a49,49,0,0,0-10.9,0,4.49,4.49,0,0,1-2.8-.67c-.72-.44.45-.89.23-1.43l4.61-.74c.08.07.16.19.24.2.92.14,1.8-.34,2.82.29.55.34,1.79-.17,2.71,0s2.43.78,2.91.55c1.57-.77,2.91-.24,4.34,0,.19.3.46.25.73.17l.38,0c.62.55,1.23.9,1.75-.11.84.44.83-1,1.61-.72l-.87,1.57c1.58-.11,2.42,1.46,3.87,1.52h0c0,.14,0,.4,0,.4,1.55,0,2.18,1.33,3.15,2.2,1.51,1.38,2.22,3.41,3.91,4.61-.18.86.37,1.53.64,2.27.06.45.43.69.72,1l-.11.07.07.14a.77.77,0,0,0,0,.33c.36,1.2-.15,2.48.18,3.62.47,1.57-2.1,1.21-1.5,2.69-1.22.26-1.37,1-.95,2-1,.46-2-.89-3.07.14,1,.74,2,1.58,3.41,1.17l0,1.11c-.68-.19-1.79.84-1.75,1.57,0,.45.46.93,0,1.37-.64.16-.42-.27-.38-.56.08-.63-.06-1.42-.7-1.35-1.88.21-1.37-1.2-1.61-2.11.17-.31,1.13,0,.69-.7a1.92,1.92,0,0,1,.26-2.4.53.53,0,0,1,.43,0c1.14.47,1.22.46,1.92-.11.16-.13.08-.67.49-.36s.61.07.64-.29a.52.52,0,0,0-.51-.56c-1.76.21-3.65-.43-5.28.73-.13-.17-.26-.51-.37-.5a51.26,51.26,0,0,1-6.32,0c-.53,0-.95.71-.74.77,1,.28.85,1.5,1.71,1.76,1,.32,1.5,1.22,2.2,2.19-.05-1,1.52-.77,1.14-2-.08-.25.47-.33.67-.21,2,1.25,1.61-.45,1.79-1.45.68.91.78,1.7-.42,2.26-.56.26-.51.77-.48,1.27-.29-.1-.69.46-.83,0s0-.77-.43-.58a1.52,1.52,0,0,0-.56.93c1.14,1,.66,2.92,2.37,3.71.74.34.22,2.13,1.41,2.72-.62,1.56.15,2.61,1.35,3.45.26.18.56.29.16.51-.81.45-.22.81-.07,1.31a10.81,10.81,0,0,1,.85,4.32c0,.32-.13,1,.44,1.06s.68-.4.67-.95,1.14-1.31-.32-1.69c-.26-.07.18-.61.33-.54,1.41.61,1.29-1.75,2.58-1.3.1-1.84,2.24-2.69,2.21-4.62,0-.73.75-.76,1.24-.79a2,2,0,0,0,2-1.11c.54-1,1.56-2.76,2.11-2.53,2,.83,2.72-1,4.1-1.37s2.53-1.28,3.94-1.73c.95-.3,2.48.29,3-1.17,1.24-.05,2.49,0,3.71-.18a1.3,1.3,0,0,1,1.5,1.09c.18.71-.55.86-1.17,1.07-2,.69-4.22.52-6.2,1.43-1.41.65-2.73,1.53-4.08,2.12a17.38,17.38,0,0,0-5.45,3.58c-2.28,2.33-4.77,4.52-6.51,7.39-1.88,3.12-3.2,6.33-3,10,0,.39.54,1.3-.59,1.42-.95.1-1.13-.44-1.18-1.16A59.69,59.69,0,0,0,387,167.81c-1.43-5.46-3.25-10.56-7.15-14.78a13.87,13.87,0,0,0-5.17-3.87c-1-.38-1.46-.08-1.08.92.57,1.46,0,3,.61,4.53.88,2.19.6,4.72.06,7.1a8.52,8.52,0,0,1-.69,2.95c-1.05,1.63-2.66,2.14-4.42,2.47-1.13.21-1.87.78-1.53,2.09.59,2.33.2,4.6-.09,6.94-.1.86-.64,2.12-.24,2.7,1.07,1.55.53,3.29.63,4.8.18,2.49-.21,5,.41,7.52a37.55,37.55,0,0,0,1.27,5,9.66,9.66,0,0,0,4,4.48q0,20.49,0,41c0,8.41-5.72,14.15-14.11,14.15h-294c-8.19,0-14-5.76-14-13.91q0-77.53,0-155.08c0-8,5.82-13.84,13.9-13.84h294.3c8.05,0,13.85,5.82,13.87,13.88q0,9.91,0,19.82c0,1.24-.16,2.65,1.78,1.37C375.7,107.88,376,108.4,376.34,108.09Zm-47,50.92c0-.45.55-.85.17-1.35-.75.17-.64,1.06-1.2,1.38-.3-.22-.8-.12-.91-.62.38,0,.32-.6.39-.55,1.47,1.14,1.11-.62,1.3-1,.39-.69-.3-1.13-.92-1.24s-.48-.64-.59-1a21,21,0,0,1-.85-2c-.14-.67.34-1.83-.25-1.89-.92-.1-1.39,1-2,1.7a1.44,1.44,0,0,0-.43.87l-.45.39c-.87.18-1,.92-1.17,1.59-.22,1,.11,2.19-1,2.93-.05,0,.17.48.26.73a10,10,0,0,0-1.1,5.49c0,.66-.41,1.37-.07,1.92.85,1.37,1.11,3,2,4.39a17.62,17.62,0,0,0,10.06,7.63c.62.21,1.53,0,1.7,1,.76-.42,1.53,1.63,2.29,0,0-.09.36-.18.4-.13,1,1,2.29.34,3.42.54l.33,0,1.37,0c.4,1.18,1.15-.17,1.66.23.25,0,.51.12.67-.19.39-.05.52.67,1,.34.29.17.5,0,.72-.17a1.93,1.93,0,0,0,2-.14l1.36,0,.16.26.12-.25,0,0c.66.27,1.32.63,2,.06.74.17,1.52.18,2.27.28,1.85.27,3.78.55,5.48-.65,0,.29.1.56.48.55,1.55,0,3.11,0,4.67-.08s1.64-.47,1-1.85a4,4,0,0,1-.18-.62c1-2.07-.61-4-.28-6.06a5.36,5.36,0,0,0,.23-4c.45-1.78-1.07.06-1.21-.63,0-.53.48-.38.75-.52a1,1,0,0,0,.24-1.69c-1.14-1.08-5.73-1.16-7.09-.22l0,0a11.89,11.89,0,0,0-5.62-.32,2.33,2.33,0,0,0,.11-.28.57.57,0,0,0,0-.14l-.13.42-.09,0v.1l-2.39,0c-1.59-.12-3.2-.55-4.74.27-.59-.76-1.33-.2-2-.24a.32.32,0,0,0-.48-.15c-1.33-.11-2.36-1.51-3.87-.92-1-.51-1.94-1-2.88-1.54s-2-.65-2.62-1.67c-.48-.76-2.23,0-2.26-1.62,0-.2-.73-.21-.75.18,0,.71-.79.23-.91.68Zm35.16,36-.05.07,0-.07c.95.25,1.85-.2,2.78-.19.36,0,.84-.36.67-.52-1-.91.15-1.47.29-2.2-.6-.2-1.62.39-1.7-.87,0-.11-.58-.17-.9-.25-.62-.55.9-.78.2-1.34.18-.52,1.07-1.15-.29-1.43-.34-.07-.31-.72,0-.73,1.28,0,.75-.76.63-1.35a5.5,5.5,0,0,1-.28-2.59c.23-.87-.37-1.42-1.27-1.17a8,8,0,0,1-2.29,0c-2.71,0-5.42-.46-8.15.13-1.26.27-2.63.07-3.95.37-.92.2-2-1.64-2.88.16a1.08,1.08,0,0,1-.57-.22c-.61-.78-1.26-.37-2.07-.1,1.76.12,1.07,1.3,1.16,2.21a8,8,0,0,1-1.78-1.37c-.43-.4-1.28-1.8-1.67.13-.22,1.09-.6-.13-.88.05-.8-1.43-1.77-1.51-2.87-.34-.83.16-1.08-1.09-2-.81a1.5,1.5,0,0,0-1.56-.48c-1.43.55-2.53-.19-3.64-.8-.26-.14-.5-.52-.81-.44-2.13.55-2.82-1.48-4-2.4-1.68-1.31-3.21-2.83-5.45-2.75-1.48.05-3,.08-4.44.16s-2.69-.22-4-.08c-3.65.41-7.32.33-11,.47-4,.16-8,.12-12-.1-.75,0-1.6.32-1.51,1.34A5.93,5.93,0,0,1,287,181.2c-1.33,2.19-5.36,4-7.85,3.43-3.17-.69-6.47-.7-9.6-1.65-.77-.23-1,.12-.8.91.27,1.15,1.33,1.75,1.82,2.8a12,12,0,0,0,1.48,2.29c2,2.51,4.65,4,7.43,5.3a17.51,17.51,0,0,0,8.2,1.49c2-.05,4-.3,5.87-.22s3.78-.16,5.65-.07a48.19,48.19,0,0,0,5.17-.2c3.64-.22,7.3-.12,10.95-.16a90.7,90.7,0,0,1,11.54.23c.22,0,.46.18.65.13,3.09-.85,6.25-.46,9.35-.33s6.37-.12,9.56.07c2.53.15,5.21-.05,7.8-.14,2.42-.08,4.89-.08,7.33-.09a5.22,5.22,0,0,0,2.63-.24Zm-23.68-50.92a3.43,3.43,0,0,0-1.73-2c-.64-.22-.4-1.65-1.56-1.08-.26-.63-.14-1.35-.57-2a14.3,14.3,0,0,1-2.39-3.57,5.89,5.89,0,0,0-.69-2.48c-.69.36-.84,1-1.18,1.52C331.49,136,330,137,329.18,139a23.77,23.77,0,0,0-1.44,7.26c-.33,4.4,2.64,7.43,4.61,10.86.08.14.44.1.56.24,1.13,1.3,2.92,1.13,4.23,1.9a17.41,17.41,0,0,0,10.21,2.42,21.48,21.48,0,0,1,5.38-.11c.82.16,1.53.65,2.62.28.65-.23,2.71-1.87,3.07.78,0,.09.51.13.79.16s.26-.13.21-.32c-.38-1.38.89-1,1.31-1a17.39,17.39,0,0,1,2.94.32c1,.3,2.26-1.11,2-2.16a5.93,5.93,0,0,1-.12-3.86,1.61,1.61,0,0,0-.71-2c-1.43-.61.45-1.25-.12-1.8.93-.14.67-.85.68-1.43s-.5-1.42.15-2.16c.14-.16,0-1.17-.81-1a41.81,41.81,0,0,1-6.23.1c-2.22,0-4.48,0-6.73-.09-.83,0,0,.6-.38.92-.12-1.64-1.12-1.65-2.29-1.29-.49.13-.76-.8-1.34-.28l-.36-.26c-1.47-.34-2.73-1.48-4.38-1.13-.06-.69-.58-.85-1.12-1,.07-.3.26-.7-.16-.81A.68.68,0,0,0,340.77,144.05Zm-92.89,55.3c3.92,0,6.06-2.11,6.07-6q0-10.15,0-20.32c0-3.79-2.15-6-5.91-6H97.81c-3.75,0-5.89,2.17-5.9,6q0,9.9,0,19.82c0,4.48,2,6.47,6.42,6.47h74.6m-8.82-43h66.37c3.8,0,6-2.15,6-5.89q0-10.24,0-20.49c0-3.68-2.18-5.88-5.83-5.88q-66.45,0-132.91,0c-3.65,0-5.81,2.2-5.82,5.88q0,10,0,20c0,4.37,2,6.39,6.33,6.39Zm-17.75,53.77H98c-3.91,0-6.06,2.12-6.06,6q0,10.16,0,20.32c0,3.79,2.15,6,5.91,6h97.11c3.75,0,5.9-2.18,5.9-6q0-10,0-20c0-4.24-2-6.3-6.25-6.3Zm231.76-72.73c-2.88-.18-3.59.45-4.64,2.41-.66,1.23-.14,2.39-.42,3.55-.35,1.43.07,1.92,1.53,1.92,1.93,0,3.81-.51,5.79-.17a13,13,0,0,0,2.6.26c2.39-.07,4.79-.84,7.18.21.74.33,1.82-.92,1.62-1.78-.31-1.37-.32-2.73-1.62-3.85-.56-.49-.66-1.43-1.79-1.64C384.79,137.63,381.17,137.67,378.12,137.38Zm-305,53.91A8.07,8.07,0,1,0,65,183.18,8.07,8.07,0,0,0,73.07,191.29ZM81.15,141a8.07,8.07,0,1,0-8.22,7.95A8.08,8.08,0,0,0,81.15,141Zm0,85.36a8.07,8.07,0,1,0-8.22,8A8.08,8.08,0,0,0,81.15,226.35Zm189.2-49.57c-1.34-.31-1.76,0-1.33,1.23a11.67,11.67,0,0,1,.34,2.45c.1.86.35,1.49,1.43,1.35,2.47-.33,4.9.26,7.29.65,1.73.27,3.28-.21,4.92-.26.22,0,.44,0,.5-.3.26-1.16,1.3-1.34,2.18-1.65.34-.12.79-.18.42-.53a1.63,1.63,0,0,1-.09-2c.84-1.42-.45-1.19-1-1.46a1.83,1.83,0,0,0-1,0C279.42,177,274.76,176,270.35,176.78Zm97.33-29.07c-.08,2-.2,4.06-.26,6.07s.73,4.19.1,6.43c-.26.92.34,2.3-.16,3.56a1.58,1.58,0,0,0,.85,1.69c1.49.32,3.52-1.74,3.84-3.34.77-3.79-.23-7.49-.32-11.23C371.67,148.63,370.24,147.53,367.68,147.71Z"/><path class="cls-3" d="M392.46,138.18c-1.69-1.2-2.4-3.23-3.91-4.61-1-.87-1.6-2.16-3.15-2.2,0,0,0-.26,0-.4a8.2,8.2,0,0,0,1.06-2.84c.06-.28.28-.49-.11-.62s-.39.11-.54.29a2.47,2.47,0,0,0-.41,3.16c-1.45-.06-2.29-1.63-3.87-1.52l.87-1.57c-.78-.29-.77,1.16-1.61.72-.15-.52-.77-.82-.71-1.45l.41-.18s-.08-.12-.09-.11l-.36.23a3.52,3.52,0,0,0-1,1.62l-.38,0-.73-.17c-1.43-.23-2.77-.76-4.34,0-.48.23-1.92-.33-2.91-.55s-2.16.31-2.71,0c-1-.63-1.9-.15-2.82-.29-.08,0-.16-.13-.24-.2a8.65,8.65,0,0,1,.54-.84c.2-.26,1.05-.35.58-.69s-1-.7-1.49-1.07c-.7,1.07-2.21-.77-2.77.77-1.13-.45-1.76.71-3.13.71,1.07.69,1.89.28,2.53.53.3.88-1.65.12-.87,1.33.22.54-.95,1-.23,1.43a4.49,4.49,0,0,0,2.8.67,49,49,0,0,1,10.9,0c1.72.21,3.39.58,5.08.88a13,13,0,0,1,7.62,4.37l-.17.3c-1.71-.84-3.59-.2-5.43-.61a10.29,10.29,0,0,0-7,.88,4.89,4.89,0,0,0-2.39,3.11,14.22,14.22,0,0,0-.26,4.86c.16,1.15-.21,1.24-1,1.25-.61,0-1.22-.07-1.84-.05-.88,0-1.89-.41-2.54.67-.14.22-.78.44-.85.36-1.23-1.39-3-.54-4.51-1.07-1-.38-2.52.11-3.82,0-3.19-.18-6.5.13-9.44-1.33-2.69-1.33-5.51-2.55-7.51-5A14,14,0,0,1,336,130.1a15,15,0,0,1,1.52-7.26,20.16,20.16,0,0,1,3.89-5.69c4.28-3.91,9.28-6.38,15.16-6.53q6.63-.18,13.25-.07c3.4.06,6.79.36,10.19.13a79.66,79.66,0,0,1,8,0c3.06.09,6.14-.12,9.23.13a55.84,55.84,0,0,0,8.17-.11,1.19,1.19,0,0,0,1.2-1c0-.67-.83-.45-1.18-.67-1.42-.88-3.05.19-4.42-.68-.39-.25-.7.22-1,.36-.42-3.54-.35-7.12-.54-10.68-.12-2.18-.23-4.4-.14-6.55.17-4-.17-8,0-12a44,44,0,0,0-.15-8.27,5,5,0,0,1,.39-2.85c.46-1.07-.2-2.23-.3-3.35-.25-2.77.28-5.54-.23-8.32-.2-1.07.48-1.83,1.89-2,4-.36,8-.38,11.94-.6,3-.16,6-.25,8.93-.23,5,0,10,0,15-.15,3.32-.07,6.66.18,9.93,0,3.64-.23,7.3.1,10.94-.47,2-.32,4.07.31,6.14,0,1-.16,1.56.55,1.54,1.55-.05,3.2.26,6.39.1,9.59-.12,2.36.14,4.73.19,7.1,0,.56.32,1.27-.52,1.59a.55.55,0,0,0-.22.36c1.5,1.36.52,3.15.73,4.71s-.13,3.46-.09,5.16c.05,2.43,0,4.9.22,7.32.12,1.22-.21,2.35-.14,3.56.2,4,.29,8.11.27,12.15,0,3.72.16,7.46-.13,11.19-.09,1.26.37,2.53.12,3.81-.05.27-.13.4-.41.38-.28-.84-.55-1.68-.84-2.54-.43.31-.05.85-.49,1a7.65,7.65,0,0,0-4.23-1.77c-.7,0-.93-.31-.89-1.06.06-1.29-.12-2.54-1.66-3-.36-.1-.34-.38-.29-.67a.76.76,0,0,0-.69-1c-1.56-.29-3.06-1.12-4.7-.09-1.35.84-2.73,1.45-3,3.33a31.28,31.28,0,0,0,0,6.91,33.35,33.35,0,0,1,.16,5,1.6,1.6,0,0,0,1.2,1.86c1,.4,1.95-.06,2.93.08a18.52,18.52,0,0,0,8.52-.68,10.71,10.71,0,0,0,1.32-.74c.83-.4,1.57-1.72,2.81-.8.63,2-.13,4.11.21,6.14a5.34,5.34,0,0,1-.17,3.09c-.47,1.15-1.25.51-1.95.33l0,0a4.52,4.52,0,0,0,.55-.61c.32-.46,1.32-.54.7-1.52-.72-1.15-1.84-1-2.8-.86-.73.15-1,1-.56,1.77a1.38,1.38,0,0,1-.07,1.66c-.59,0-.27-.85-.81-.83-.9.6.35,2-1,2.39-.11-.65-.48-.62-.94-.35a1.42,1.42,0,0,1-1.74.08c.73,1.41,1.71.57,2.61.37.7.17,1,1.18,1.85,1,.39-.81,1.37-.91,1.91-1.56l-.05-.06.54-.07.26.05.17.27a1.06,1.06,0,0,1,.49,1.26c-.17,1,.42.63.89.43-.11,2.27.71,4.52.14,6.8-.23-.28-.36-.7-.83-.61a.44.44,0,0,0-.23.36c0,.59.42.8,1,.84a.78.78,0,0,1-.29.76c-.85,0-1.56.76-2.48.3.74.8.74,2.18,2.09,2.29a32.69,32.69,0,0,1-2.69,10.89c-1.28,2.68-2.14,5.55-3.38,8.24a26.25,26.25,0,0,1-4.93,7.91,31.66,31.66,0,0,0-3.59,4.47c-2,2.95-4.86,4.69-7.71,6.61-1.48,1-2.65,2.51-4.29,3.46-2.8,1.61-5.37,3.71-8.31,5a23.71,23.71,0,0,1-5.46,2c-1.5.24-2.93,1.32-4.5,1.54-2.69.38-5.05,1.84-8,1.72-2.09-.08-4.26.82-6.47.9s-4.22.56-6.24.28c-2.29-.33-4.6.09-6.84-.51a5.94,5.94,0,0,0-2.78.39c-3.15.7-6.1-.38-9.14-.49-1.59-.06-2.91-1.09-4.45-1.34-.8-.71-2-.79-2.7-1.66a9.66,9.66,0,0,1-4-4.48,37.55,37.55,0,0,1-1.27-5c-.62-2.49-.23-5-.41-7.52-.1-1.51.44-3.25-.63-4.8-.4-.58.14-1.84.24-2.7.29-2.34.68-4.61.09-6.94-.34-1.31.4-1.88,1.53-2.09,1.76-.33,3.37-.84,4.42-2.47a8.52,8.52,0,0,0,.69-2.95c.54-2.38.82-4.91-.06-7.1-.62-1.57,0-3.07-.61-4.53-.38-1,.09-1.3,1.08-.92a13.87,13.87,0,0,1,5.17,3.87c3.9,4.22,5.72,9.32,7.15,14.78a59.69,59.69,0,0,1,1.72,10.65c0,.72.23,1.26,1.18,1.16,1.13-.12.61-1,.59-1.42-.22-3.72,1.1-6.93,3-10,1.74-2.87,4.23-5.06,6.51-7.39a17.38,17.38,0,0,1,5.45-3.58c1.35-.59,2.67-1.47,4.08-2.12,2-.91,4.18-.74,6.2-1.43.62-.21,1.35-.36,1.17-1.07a1.3,1.3,0,0,0-1.5-1.09c-1.22.15-2.47.13-3.71.18-.39-.06-.84.15-.81-.66.05-1-1.32-1.43-1.58-1.18-1.15,1.11-2.14.21-3.17.05-.37-.06-1-.37-1,0,.14,1.86-1.27.8-1.92,1.11a.77.77,0,0,1-1-.58c-.73.69.11.82.4,1.14-.05.39.12.93-.49,1s-.75-.67-1.2-.92l0-.05c0-.31.08-.56-.29-.83-1.4-1.07-3.08-1.17-4.7-1.49-.59.31-.3-.94-.86-.49-.1.08-1,.51-.16,1v.1c-.44.51-.67,1.26-1.72,1.26,1.12,0,1.36.4,1,1.23l0,0-.71,0c0-.06,0-.12,0-.18l-1.06-.46,0,0c-.12-.63.66-1.94-1-1.37l0,0c-.42-1-.27-1.78.95-2-.6-1.48,2-1.12,1.5-2.69-.33-1.14.18-2.42-.18-3.62a.77.77,0,0,1,0-.33,1.55,1.55,0,0,1,0-.21c-.29-.28-.66-.52-.72-1C392.88,139.7,393.78,138.62,392.46,138.18ZM435.18,189a.58.58,0,0,0,.25-.67s-.08-.06-.12-.09l-.18.72-.05.17Zm23.17-47.06.36.24a.65.65,0,0,0,.09-.11l-.41-.18c-.13-.16-.29-.29-.5-.15-.06,0-.06.16-.08.24ZM412.62,195l-.72.16s.05.11.09.13a.61.61,0,0,0,.68-.24l.51-.28-.14-.2Zm44.71-48.74c-.32.07-.65.17-.57.6,0,.11.23.28.29.26.4-.14.26-.53.33-.82l.05-.17Zm1.69,13.5.16.12-.11-.17c-.14-.63-.53-.75-1.1-.55C458.18,159.6,458.62,159.63,459,159.73Zm-66.57-30.59.17.06-.13-.1c-.11-.5-.21-1-.87-1.23C391.57,128.62,391.82,129,392.45,129.14ZM457.06,160c-.08-.18,0-.49-.37-.4a.17.17,0,0,0-.11.11c-.09.36.22.29.4.37.13.32-.21.8.26,1,.13,0,.51-.3.56-.52C458,159.84,457.34,160.13,457.06,160Zm-10.52-1-1.26,1c.81.17,1.36,0,1.34-.91.39-.07.77-.18.85-.63,0-.26-.2-.39-.43-.35C446.53,158.17,446.63,158.64,446.54,159ZM416,199.67l-.52-.37c-.07.61-1.06,1.09-.23,1.93.22-.59.78-.89.79-1.52l.06-.17Zm11.08-3.37c-.33-.3-.68-.68-1.09-.17s.15,1.06.22,1.63c.59-.38,1-.75.94-1.39.21-.06.45-.08.47-.36,0-.06-.12-.19-.19-.19C427.13,195.84,427.11,196.09,427.06,196.3Zm37.33-54.05.17.06-.12-.1c-.11-.34-.16-1.05-.21-1-.5.58-1.58-.06-1.83.88-.11.4-.57.84-.16,1.22s.81-.1,1.15-.32S463.83,142.2,464.39,142.25Zm-5.4,13c-.58,0-1,0-1.2-.76a4.78,4.78,0,0,0-1.41-2.26c-.06-.29-.15-.55-.53-.36-.09,0-.23.16-.22.19.12.34.45.15.67.25.18.91,0,1.63-1.4,1.69,1.18.77,2.45.63,3.1,1.73.28.46.79,0,1.07-.39.29-.18.77.4.93-.21,0-.18-.06-.55-.14-.56C459.35,154.52,459.09,154.82,459,155.29ZM454,170.75c-.11-.4,0-.94-.52-1.07-.3-.07-.47.22-.49.51,0,.66.53.55.92.65.45,1.47-.53,1.41-1.87,1.19l1.28.89c-.28.53-1.3-.16-1.2.71.07.62.65.37,1.08.32.12,0,.29.12.4.23s.4.65.77.44.16-.67.13-1.05c-.09-.84-.35-1.73.36-2.45.68.46.93-.09,1.23-.61-.29.82-1.09-1.51-1.21.29ZM397.11,147c-.39.26-.74.67-.5,1.07.15.23.73.29,1.11.27.74,0,.19-.73.44-1,1.06.31.8-1.14,1.45-1.15,1.2,0,.69-.86.52-1.18s-.54-1.22-1.37-.94c-.47.16-.4.46-.06.72.69.54.1.64-.16,1.09C398.16,146.48,397.29,146.27,397.11,147Zm48.17,18.14c.68-.08,1.53-.75,1.74.61.07.42.51.39.82.18s.1-.46-.1-.65c-.62-.56-.26-1.37-.39-2.09-.61.29-.44,1.39-1.19,1-.59-.27-.44-.77-.08-1.48.47-.94-1.3-.54-1.41-1.44,0-.11-.38-.5-.38-.1,0,1.4-1.22.2-1.64.91.74.63,1.06,1.77,2.22,2,.85.13.32.63.34,1h-.79c.06.12.09.3.19.36C445,165.62,445.22,165.59,445.28,165.11ZM459,142.87c-1.81.15-1.7-1.16-1.69-2.39-.47.19-.83.5-1.31.38-.24-.29-.52-.39-.83-.12,0,0,0,.19,0,.29l.77-.11c0,.1,0,.24.1.31a2.12,2.12,0,0,1,.17,2.81.37.37,0,0,0,.17.65c1.18.45,2.45,0,3.69.38.47.13,1.17-.9,1.46-1.63.17-.43-.25-.56-.53-.7-.43-.22-.56.1-.76.38s.6.83-.18.85c-.59,0-1-.46-1-1.06l.12-.16ZM412.8,60.52a3.12,3.12,0,0,0-.25-1.13c-.4-.62-.64-1.62-1.76-1.17s-1.5,1.09-.75,2.18a11.87,11.87,0,0,1,.6,1.18c-.54.26-.85.89-1.53.91-.75-.78-1.66-1.88-2.7-1s0,1.8.65,2.57a6.05,6.05,0,0,0,.6.52,1.25,1.25,0,0,1-.4,1.23,9.71,9.71,0,0,1-1.12-.33c-.94-.39-1.47.19-2,.78a1,1,0,0,0-.1,1.37,2,2,0,0,0,2.19.29c.28-.12.48-.43.72-.66.67,1.21,0,2.67.69,3.87-.41.61-2,1-.82,1.94,1,.75.59,1.28.41,2s-.52,1.44.48,2c1.21.65,1.2-.53,1.66-1,.19-.18.2-.52.36-.74a2,2,0,0,1,1.45-.9c.77,0,.59.76.75,1.25a2.83,2.83,0,0,1,.26,1.28c-.06.37-.26.84.34.91a1.09,1.09,0,0,0,1-.39,2.43,2.43,0,0,0,.64-1.84c-.29-1.76,1.37-1.79,2.16-2.18s.51,1.1,1,1.59c.1.11.09.33.18.46a1.48,1.48,0,0,0,1.84.75c.91-.32.87-1,.59-1.78a3,3,0,0,0-.63-1.35,1.1,1.1,0,0,1,.11-1.64,1,1,0,0,1,1.6.16,4.7,4.7,0,0,0,.69.72,1.44,1.44,0,0,0,2-.09c.72-.61.27-1.19-.2-1.71a9.75,9.75,0,0,0-1.05-1.08c-.43-.35-.18-.62-.08-1s.35-.64.79-.59c.67.07,1.41,0,1.8.7s1,.33,1.45.22c.71-.17.75-.83.76-1.35,0-.81-.65-1-1.31-1.24S424,66,424,64.6c.05-3.29-.41-3.65-3.44-3-1.13-.91-2.77-.84-3.77-2-.1-.81-.1-2-1.15-1.87s-1.48,1.17-1.11,2.31a1,1,0,0,1,0,.33A3.5,3.5,0,0,1,412.8,60.52Zm40.54,39.39c.94.39-.16.84.05,1.34A3.42,3.42,0,0,0,456,99.78a1.49,1.49,0,0,1,2.27-.54c.75.46,1.55.64,2-.15a1.68,1.68,0,0,0-.51-1.55c-1.49-.87-1.29-1.68-.2-2.7.38-.36.86-.85.6-1.44a1.29,1.29,0,0,0-1.25-.7,1.6,1.6,0,0,0-1.53,1c-.61,1.34-1.54,2.1-3.17,1.41-.54-.22-1.48-.55-1.71.29a1.21,1.21,0,0,0,1,1.56c1,.14.89.8.36,1.45-.37.45-1,.82-.54,1.56l-.41,0,0,.13Zm9.94-36.65-.3-1.37c.22-.74.74-1.51-.26-2.1a3.46,3.46,0,0,1,.35-1.43c.68-1.56-.31-3-1.95-2.7a29.49,29.49,0,0,1-4.3.15c-.88-.76-1.42.42-2.18.39h0l-.34-.29c-.3-.34-.86-.8-1.09-.55-1.65,1.82-3.58.22-5.23.21-2.24,0-4.43-.39-6.62.39a3.67,3.67,0,0,0-3.71.2c-2,1.24-2.79,4.41-1.1,6a6,6,0,0,0,5.58,1.93c.28-.06.85-.39,1.16.23s-.14.76-.48,1a8.3,8.3,0,0,0-1,.88c-1.14,1.21-1.24,4.32-.18,5.16a4.84,4.84,0,0,0,5.51-.35,5.56,5.56,0,0,1,3.13-1.25A15.52,15.52,0,0,0,447.78,75a4,4,0,0,0,1.33,3.72c1,1.08,1.92.14,2.73-.17a9.59,9.59,0,0,0,5.06-5c.2-.38.24-1.17,1-.87.5.21.14.79.16,1.21.17,2.61-.25,5.33,1.36,7.69a2.59,2.59,0,0,0,2.55,1.34c1.28-.23.75-1.38.75-2.21v-.17c.3-4.07.87-8.13.57-12.23C463.25,66.61,463.27,64.94,463.28,63.26Zm-15,30.19a9.38,9.38,0,0,0-2.18-5.92,19.61,19.61,0,0,0-8.56-7.27,20.12,20.12,0,0,0-10.19-1.2c-2.57.28-4.9,1.85-7.21,3.13-1.14.64-2,1.81-3.33,2a2.56,2.56,0,0,0-2,1.23c-.41.61-1,2-2.13,1.26s-1.47.06-1.72.6a1,1,0,0,0,1,1.49c.54,0,.67.25.58.73-.32,1.9-.49,3.81-.95,5.71a5.84,5.84,0,0,0,0,3.87,8.71,8.71,0,0,0,5.28,4.49,21.06,21.06,0,0,0,6.67,1.11c.74,0,2.28-.49,2.08,1.3s-.3,3.78.88,5.46c.78,1.12,1.37,2.52,2.41,3.29a8.7,8.7,0,0,0,3.7,1c2.3.33,4.41-.74,6.58-1.26a9.27,9.27,0,0,1,3.74-.07c.55.09,1.17.38,1.5,0s0-.9-.24-1.38c-1-1.69-.47-3.3.42-4.84a23.2,23.2,0,0,0,3.07-6.63C448.33,98.79,449.06,95.92,448.32,93.45Zm-75.1,79.73a3.75,3.75,0,0,0-1.77-2.56c-.66-.31-2.19,2.13-2.2,3.29s1.65.78,1.92,1.83C371.22,175.9,373.24,174,373.22,173.18Zm-9.75-31.1c0,.93,1.22,2.33,2.06,2.06s2.21-.29,2.28-1.73c0-.95-1.48-2.78-2.24-2.78S363.48,141.3,363.47,142.08Zm90-5.28A1.42,1.42,0,0,0,453,138c.11.8-.59.91-1,1.13s-.66-.27-.86-.64c-.41-.76-1.09-.38-1.75-.34a14.76,14.76,0,0,0,1.49,1.56c.49.51,3.19.65,3.58.12a.38.38,0,0,0,.08-.3C454.18,138.61,454.53,137.41,453.43,136.8Zm-23.57,55.26c-1.43.1-2.62-.69-4-.42.91.43,1.74.77,1.26,2.05-.29.78.38.77,1,.86s1.32,0,1.28-.82A2,2,0,0,1,429.86,192.06Zm-23-121.78c-.38-1-1.24-1-2-1.13a1.09,1.09,0,0,0-1.52,1,1,1,0,0,0,1.05,1.15A3.47,3.47,0,0,0,406.87,70.28Zm45.75,107.88c-.67-.18-1.42.35-1.82-.2-.53-.71-.93-.6-1.47-.11s-.36,1.23-.32,1.87c0,.33.31.43.61.44s.62-.13.61-.43c-.06-1.06.42-1,1.21-.76A.9.9,0,0,0,452.62,178.16ZM420.7,198.09c-.86-.84-1.88-.64-2.73-.92-.45-.15-.55.18-.67.51s-.47.91,0,1.38.54.2.64-.21C419.09,199.49,419.62,198.14,420.7,198.09Zm31.48-36c1.1-.76,3.28-.86,1.78-3.18.56.18.88.63,1.38.27-.76-.51-1.22-1.43-2.5-1.67C454.2,159.45,453.5,160.83,452.18,162.13Zm5.7,1.14a2.85,2.85,0,0,0-.86,2.91c0,.22.13.4.43.4a4.85,4.85,0,0,0,2.39-1.8C458.57,165.26,457.54,165.34,457.88,163.27Zm-4.26-14.88c-1-.1-1.68-.13-2.35-.27-.23-.05.16-1.13-.71-.47-.48.37-1.1.59-1.07,1.31,0,.46.21.85.81.63Zm8.63,0c-.74,0-1.49.13-1.14-1a.66.66,0,0,0-.6-.83c-.35,0-.81,0-.79.39,0,.74.06,1.58.78,2S461.84,149.5,462.25,148.42Zm-32,36.41c.58-.49,1.89-.4,1.27-1.35-.38-.58-.88-1.91-1.62-1.64s0,1.35.15,2.07C430.12,184.16,430.18,184.42,430.27,184.83ZM450,174.37c.22-1.54.23-1.54,1.52-3,.18-.2.44-.38.17-.7-.6.54-.87-.71-1.45-.27S449.56,173.75,450,174.37ZM374.8,124.58c-.16-.64-.51-1-1-1-1,.19-.65,1.27-1,1.91-.17.32.11.75.57.85a.36.36,0,0,0,.16,0A2.44,2.44,0,0,1,374.8,124.58Zm19.35,5.69c-.69,1.4.39,2,.45,2.86,0,.51.76.12,1.16.22s.45-.33.38-.58c-.24-.82-.5.24-.79,0-.12-.09-.3-.06-.19-.31C395.68,131.37,394.42,131.27,394.15,130.27Zm48.92,38.33a3.16,3.16,0,0,1,2,1c.64.55,1.12.11,1.66-.07.22-.07.39-.22.3-.49s-.23-.45-.46-.37C445.38,169.09,444.33,168.15,443.07,168.6Zm4.84-6.31c.8.18.48-.71,1-.76a1.19,1.19,0,0,0,1.1-.65C448.32,159.6,448.32,159.6,447.91,162.29Zm-12.06,18c-.7.43-.7,1.53-1.68,1.67-.32.05,0,.48,0,.72s.06.24.31.2C435.93,182.7,436.36,182,435.85,180.3Zm-5.15,5.38c.31.71,1.56-.21,1.33,1.11-.07.44.49.21.8.16.52-.08.3-.3.26-.66-.08-.77-1.1-.76-1.08-1.51Zm-33.2,3.59c.61.35.9.93,1.56,1a.92.92,0,0,0,1-.49.7.7,0,0,0,0-.6.66.66,0,0,0-.9-.14C398.65,189.38,398.15,189,397.5,189.27ZM369.79,124c.08-.45-.16-.58-.45-.57-.89,0-.95.91-1.27,1.46-.09.16.19.8.51.67C369.26,125.29,369.52,124.57,369.79,124Zm57.66,58.09c1.28-2.22-1.4-1.25-1.43-2.7C425.21,181.51,427.29,181,427.45,182.09Zm17.38,4.36c-.3-.83-.61-1.49-1.52-1.62-.21,0-.45-.13-.53.17a.88.88,0,0,0,.05.45C443.64,185.43,443.75,186.59,444.83,186.45Zm-31.07,8.76c-.61.62-1.55.11-1.74,1-.12.57-.27,1.3,1.08,1.91C411.67,196.35,413.7,196.52,413.76,195.21Zm.89-11.66c-.37.09-.89.12-.87.71s.41.6.83.62a.82.82,0,0,0,.89-.79C415.59,183.46,415.06,183.63,414.65,183.55Zm49-35.92c-.21-1.42-.21-1.42-1.34-1.86C462.1,146.82,462.5,147.45,463.69,147.63Zm-24.62,32.5c1.11-.31.49-1.11.78-1.56s.38-.59-.15-.68-.86,0-.77.56A3.83,3.83,0,0,1,439.07,180.13Zm-21.59,9.23c-1-.64-1.59-.73-2.2-.13-.18.18-.24.45,0,.56C416,190.17,416.56,189.61,417.48,189.36Zm19.9,1.91c-.08-.58-.61-.8-1-1s-.7.34-.75.66.35.65.76.66S437.18,191.76,437.38,191.27Zm-27.46-1.06c.19.47-.34,1.32.69,1.34.26,0,.64-.41.42-.51-.78-.37-.27-1.49-.84-1.64S410.06,189.92,409.92,190.21Zm49.26-57.48a2.07,2.07,0,0,0,2.12,0c.05,0,0-.37-.11-.43C460.43,131.84,459.86,132.52,459.18,132.73Zm-17.52,41.84c-.6.29-.56.71-.69,1.05-.06.15-.39.18-.52.33-.31.38-.36.79.28.71a1.08,1.08,0,0,0,.79-1C441.58,175.36,441.6,175,441.66,174.57Zm14.12-40.91c.56.43.8,1.14,1.59,1.06a.35.35,0,0,0,.22-.53A1.35,1.35,0,0,0,455.78,133.66Zm-59,62.91-.84.73c-.63.55-.57,1.09.08.93C396.79,198,397,197.44,396.74,196.57ZM454,156.82c0-.66,1.45-.29.94-1.22-.06-.12-.25-.18-.38-.27C454.41,155.82,454.22,156.32,454,156.82ZM429.2,191.59a1.1,1.1,0,0,0-1.19-1.18c-.14,0-.45.34-.42.41C427.89,191.53,428.53,191.51,429.2,191.59Zm11.56-11.81c-.09,1.4-.09,1.4.85,1.89C441.46,180.46,441.46,180.46,440.76,179.78ZM435,156.87c.4.63-.37,1.51.5,2.16C435.76,158.14,436.07,157.36,435,156.87Zm25,.59c-.47,0-.85.15-1.33-.1-.28-.15-.94.31-.38.73S459.41,157.82,460,157.46Zm-18.51,29.36c.84.09,1.57.65,2.45.34C443.2,186.39,442.45,186,441.47,186.82ZM424.81,194c1.45.54,1.45.54,1.61-.69Zm31-45.86a4.4,4.4,0,0,0,.31-1,.39.39,0,0,0-.57-.38.68.68,0,0,0-.36.83C455.28,147.82,455.35,148.13,455.83,148.12Zm-8.52-12.48a1,1,0,0,0-.62,1.19.3.3,0,0,0,.52.14A.84.84,0,0,0,447.31,135.64Zm-21.44,51a3.39,3.39,0,0,0-2.12-.41C424.3,187.1,424.9,187,425.87,186.63Zm19.4-20.39c0,1,.2,1.7,1.4,1.32A2.85,2.85,0,0,1,445.27,166.24Zm-.73,6.71c.27.46.19,1.16.95,1.45C445.54,173.57,445.43,173,444.54,173Zm9-38.1c-.71-.3-1.08-.77-1.51-.22-.13.17-.16.67-.07.72C452.57,135.7,452.72,134.87,453.52,134.85Zm-56.25,6.89c.2,1.2.2,1.2.87,1.8A1.87,1.87,0,0,0,397.27,141.74Zm21.37,54c-.05-.29-.18-.56-.5-.53s-.43.33-.41.63a.41.41,0,0,0,.42.42A.45.45,0,0,0,418.64,195.75Zm29.14-55.31c.12.82.19,1.32.28,2C448.62,141.66,448.79,141.12,447.78,140.44Zm-11.25,46.19a1.09,1.09,0,0,0-.58.84c-.06.3.21.43.39.3a2.19,2.19,0,0,0,.57-.74C437,186.79,436.88,186.63,436.53,186.63Zm15.94-15.8c0-.5.42-1.05-.24-1.3-.1,0-.27.1-.41.16Zm-28.1,16.34-.49.36c.09.11.15.29.26.32s.44,0,.43-.27A1.29,1.29,0,0,0,424.37,187.17Zm-14.71,1.17c.24,0,.27-.16.27-.31s.06-.48-.23-.5c-.11,0-.28.18-.32.31A.4.4,0,0,0,409.66,188.34Zm33.68-23.27c-.11.13-.28.24-.27.33s.17.26.28.28.44-.05.37-.34C443.69,165.24,443.5,165.18,443.34,165.07Zm6.75-23.1c-.15.23-.3.36-.28.46a.62.62,0,0,0,.3.34c.15.07.33,0,.28-.2A2.36,2.36,0,0,0,450.09,142Zm4.17-1.42-.35.13a2.41,2.41,0,0,0,.36.29c.06,0,.18-.06.27-.1Zm9.29.14-.35-.22c0,.09-.13.22-.1.29a2.3,2.3,0,0,0,.3.33Zm-55.41,49.5c-.1,0-.21-.13-.28-.11s-.08.17-.13.27.21.13.28.11S408.1,190.28,408.14,190.19Zm-45.36-66.44a1.2,1.2,0,0,0-.23-.11s-.11.09-.1.11a1.48,1.48,0,0,0,.13.21Zm-1.3.56.27-.13a1.35,1.35,0,0,0-.14-.22s-.12,0-.13.08A1.22,1.22,0,0,0,361.48,124.31Zm98.32,13c-.09,0-.18-.13-.26-.13s-.17.08-.26.13c.09.05.17.13.26.13S459.71,137.4,459.8,137.35Zm-50.55,53.38.14-.26a1.32,1.32,0,0,0-.28,0s-.07.12-.06.13A1,1,0,0,0,409.25,190.73Zm7.18,7.79c-.09-.05-.18-.14-.26-.13s-.17.08-.25.13c.08,0,.16.12.25.13S416.34,198.57,416.43,198.52Zm-23.51-68.24-.14-.26a1.49,1.49,0,0,0-.2.15s0,.12.06.12A.87.87,0,0,0,392.92,130.28Zm60.6,19.09a.23.23,0,0,0,0-.14l-.11,0a.39.39,0,0,0-.05.14S453.48,149.36,453.52,149.37Zm9.12-9.11a.34.34,0,0,0-.05-.14s-.08,0-.12,0,0,.11,0,.14S462.6,140.27,462.64,140.26ZM445,175.34l-.26,0s.08.09.12.09S445,175.36,445,175.34Zm.12,1.17-.07-.13s-.09.08-.09.12,0,.08.07.13Zm-50-28.42c-.05,0-.09-.1-.12-.1a1.07,1.07,0,0,0-.22.1s.08.1.11.1A2,2,0,0,0,395.17,148.09Zm3.18,1.11s.09-.07.09-.11-.05-.07-.08-.11-.09.07-.09.1S398.32,149.16,398.35,149.2Z"/><path class="cls-1" d="M373.65,200.68c.71.87,1.9.95,2.7,1.66q0,18,0,36a51.11,51.11,0,0,1-.22,6.2c-1.25,8.39-7.87,14-16.43,14h-177c-.67,0-1.34,0-2,0s-1.45,0-2.18,0H65.86c-10.11,0-17-6.87-17-17V87.28c0-10.11,6.87-17,17-17H359.33c10.12,0,17,6.86,17,17q0,10.41,0,20.83c-.32.31-.64-.21-.92,0-1.94,1.28-1.78-.13-1.78-1.37q0-9.91,0-19.82c0-8.06-5.82-13.88-13.87-13.88H65.47c-8.08,0-13.9,5.8-13.9,13.84q0,77.54,0,155.08c0,8.15,5.81,13.91,14,13.91h294c8.39,0,14.1-5.74,14.11-14.15Q373.64,221.18,373.65,200.68Z"/><path class="cls-1" d="M236.52,242.91c-2.62-5.56-4.24-10.56-3.82-16.07.72-9.48,10.59-17,18.9-14.14,5.62,1.9,7.94,6.47,9.15,11.78.5,2.2.61,4.49.95,7.15a39.62,39.62,0,0,1,14-10.55c4.13-1.76,8.36-3,12.9-1.71,5.62,1.57,7.91,5.51,6.45,11.15a57.21,57.21,0,0,1-5.87,14.11c-1.21,2.1-1.15,3,1.43,3.61a34.12,34.12,0,0,1,9.74,4c8.17,4.85,8.38,15.57.36,20.75-6,3.86-12.27,3.39-18.66,1.23l-3-1a39.18,39.18,0,0,1,1.58,14.71A22.49,22.49,0,0,1,276.52,300c-5.52,7.48-15.46,6.38-19.22-2.11-1.51-3.4-2.14-7.08-3.27-11.25-1.84,2.54-3.25,4.67-4.86,6.65-3.15,3.87-6.83,7.11-12,7.6-7.58.71-12.84-5.86-11.63-14.32a39.15,39.15,0,0,1,5.16-15c1.24-2,2-3-1.5-3.68-7.35-1.38-12.94-5.46-15-13.12-1.79-6.57,1.44-11,8.26-12C226.91,242,231.39,242.42,236.52,242.91Zm54.55,27.27a10.71,10.71,0,0,0,6.68-1.94c3.69-2.68,4.53-7.48,1.4-9.93-4.37-3.41-9.43-5.5-15.13-5.2-1.71.1-3.43.84-4.5-1.12s.37-3.17,1.33-4.57a58.61,58.61,0,0,0,8.77-18.35c.69-2.63-.49-3.89-2.81-4.45a9,9,0,0,0-4.39.14A29.12,29.12,0,0,0,263,240.55c-.84,1.66-1.44,3.64-3.73,3.27s-2.41-2.39-2.78-4.22c-.93-4.59-.09-9.32-1.15-13.9-.82-3.59-2.14-7-6.09-7.89s-6.68,1.49-8.95,4.38a9.64,9.64,0,0,0-2,6c-.08,6.35,2.93,11.57,6,16.76.8,1.34,1.44,2.67.46,4.1-1.11,1.62-2.63,1.26-4.28.81-5.5-1.47-11-2.56-16.82-1.64-4.41.69-5.47,2.39-3.66,6.52,2.76,6.32,11,9.62,17.93,7.13,1.82-.65,3.73-1.79,5.16.44,1.54,2.39-.76,3.41-2,4.73-5.58,5.85-9.2,12.65-9.91,20.8-.23,2.66,0,5.46,2.55,7s4.89.35,7-1.14a19.87,19.87,0,0,0,3.75-3.46,50.84,50.84,0,0,0,8.19-14.07c.77-2,.92-5.07,4.1-4.46,2.94.56,2,3.36,2.17,5.4.4,6.25,1.19,12.44,3.47,18.33,1.44,3.73,4.07,4.86,7.24,3.24,2.63-1.33,3.9-3.78,4.61-6.46A29.05,29.05,0,0,0,270.8,269c-1.12-1.86-3.47-3.74-1.14-6s4.13.39,5.92,1.47C280.26,267.31,284.88,270.24,291.07,270.18Z"/><path class="cls-2" d="M465.66,127.64c-1.24-.92-2,.4-2.81.8a10.71,10.71,0,0,1-1.32.74,18.52,18.52,0,0,1-8.52.68c-1-.14-1.95.32-2.93-.08a1.6,1.6,0,0,1-1.2-1.86,33.35,33.35,0,0,0-.16-5,31.28,31.28,0,0,1,0-6.91c.3-1.88,1.68-2.49,3-3.33,1.64-1,3.14-.2,4.7.09a.76.76,0,0,1,.69,1c-.05.29-.07.57.29.67,1.54.45,1.72,1.7,1.66,3,0,.75.19,1,.89,1.06a7.65,7.65,0,0,1,4.23,1.77c.44-.2.06-.74.49-1,.29.86.56,1.7.84,2.54Zm-14.15.07c1.87.28,3.58-.38,5.35-.4,2.18,0,4.08-.55,5.43-2.5A1.89,1.89,0,0,0,462,122a4.41,4.41,0,0,0-4.95-.66c-1.3.5-1.33-.23-1.32-1a6.75,6.75,0,0,1,.94-2.49c.53-1.25-1.22-3.66-2.54-3.34-.9.21-2,.08-2.66,1.14a6.35,6.35,0,0,0-.93,4.2C451.16,122.46,451,125.13,451.51,127.71Z"/><path class="cls-3" d="M459.74,139.17c1.34-.38.09-1.79,1-2.39.54,0,.22.86.81.83a1.38,1.38,0,0,0,.07-1.66c-.47-.81-.17-1.62.56-1.77,1-.19,2.08-.29,2.8.86.62,1-.38,1.06-.7,1.52a4.52,4.52,0,0,1-.55.61l-.06.16.09-.13c.7.18,1.48.82,1.95-.33,0,.66,0,1.32,0,2-1,.39-.23.87-.06,1.31,0,.13,0,.26,0,.38-.47.2-1.06.54-.89-.43a1.06,1.06,0,0,0-.49-1.26l-.17-.27-.26-.05c-.22-.28-.42-.43-.54.07l.05.06a1,1,0,0,0-1.39.59c-.16.33.19.93-.52,1-.89.22-1.15-.79-1.85-1Z"/><path class="cls-3" d="M465.08,151.29c-1.35-.11-1.35-1.49-2.09-2.29.92.46,1.63-.35,2.48-.3A9.08,9.08,0,0,1,465.08,151.29Z"/><path class="cls-3" d="M465.76,147.94c-.54,0-.94-.25-1-.84a.44.44,0,0,1,.23-.36c.47-.09.6.33.83.61C465.82,147.54,465.79,147.74,465.76,147.94Z"/><path class="cls-3" d="M465.68,140.17c-.17-.44-.92-.92.06-1.31Z"/><path class="cls-3" d="M338.6,183.37c1.1-1.17,2.07-1.09,2.87.34.28-.18.66,1,.88-.05.39-1.93,1.24-.53,1.67-.13a8,8,0,0,0,1.78,1.37c-.09-.91.6-2.09-1.16-2.21.81-.27,1.46-.68,2.07.1a1.08,1.08,0,0,0,.57.22c.89-1.8,2,0,2.88-.16,1.32-.3,2.69-.1,3.95-.37,2.73-.59,5.44-.11,8.15-.13a8,8,0,0,0,2.29,0c.9-.25,1.5.3,1.27,1.17a5.5,5.5,0,0,0,.28,2.59c.12.59.65,1.33-.63,1.35-.31,0-.34.66,0,.73,1.36.28.47.91.29,1.43-.23-.35-.42-.79-1-.6s-.83-.19-.88-.73c.08-.12.17-.24.24-.36s-.07-.06-.11-.09l-.19.4-.95-.15c-1.34.06-2.52,1.09-4.08.58,1.77.38.31,1.11.35,1.64l-.31,0-2-1.75c-.09,1.65.87,1.82,2,1.81a1.42,1.42,0,0,0,.06,1.83c.49.42,1.11,0,1.65-.55-.64-.35-1.16-.67-1.34-1.3,1.71.25,3.4.46,4.9-.71.66.26.76,1.15,1.48,1.34.32.08.9.14.9.25.08,1.26,1.1.67,1.7.87-.14.73-1.25,1.29-.29,2.2.17.16-.31.53-.67.52-.93,0-1.83.44-2.78.19h0l-.27-.22c-.21-.14-.72-.28-.44-.52.91-.8.83-1.92,1.14-2.91l.16.12-.12-.16c-.53-.53-1.13.05-1.72-.14-1-.34-1.63.45-2.22,1.09s-.06,1.05,0,1.57c0,.1.32.26.34.24.28-.28.57-.92.92-.22.24.46-.22.92-.7,1.17-2.44,0-4.91,0-7.33.09-2.59.09-5.27.29-7.8.14-3.19-.19-6.37.06-9.56-.07s-6.26-.52-9.35.33c-.19.05-.43-.1-.65-.13a90.7,90.7,0,0,0-11.54-.23c-3.65,0-7.31-.06-10.95.16a48.19,48.19,0,0,1-5.17.2c-1.87-.09-3.78.16-5.65.07s-3.91.17-5.87.22a17.51,17.51,0,0,1-8.2-1.49c-2.78-1.34-5.45-2.79-7.43-5.3a12,12,0,0,1-1.48-2.29c-.49-1.05-1.55-1.65-1.82-2.8-.19-.79,0-1.14.8-.91,3.13,1,6.43,1,9.6,1.65,2.49.54,6.52-1.24,7.85-3.43a5.93,5.93,0,0,0,1.26-3.72c-.09-1,.76-1.39,1.51-1.34,4,.22,8,.26,12,.1,3.64-.14,7.31-.06,11-.47,1.29-.14,2.64.15,4,.08s3-.11,4.44-.16c2.24-.08,3.77,1.44,5.45,2.75,1.19.92,1.88,2.95,4,2.4.31-.08.55.3.81.44,1.11.61,2.21,1.35,3.64.8a1.5,1.5,0,0,1,1.56.48c-.24.13-.59.48-.37.56,1.29.48,1.08,1.68,1.33,2.87C338.37,185.1,337.16,183.73,338.6,183.37Zm19.91,4.41c.36-1.05.89-.4,1.53.13-.13-.88-.21-1.49-.3-2.13-.64.19-.9.82-1.54.81-1.45,0-.61.68-.36,1.2-.52.34-.08.63.14.68C358.55,188.62,358.59,188.21,358.51,187.78Zm-67-6.88a11.13,11.13,0,0,1,1.16,0,1.83,1.83,0,0,0,.91-3.53,2.21,2.21,0,0,0-2.72.59,1.36,1.36,0,0,0,.37,2.24c.14.1.14.41.2.63-.21.36.09.86-.35,1.18-.74.53-.71.54,0,1,.41.27.79.61,1.42.13A2.93,2.93,0,0,1,291.48,180.9Zm32-1.18c.4-.26,1.17-.15.73-.73s-.88-1.79-2.13-1.71c-.34,0-.68-.11-.82.3a.86.86,0,0,0,.18.93C322.05,179.09,323.24,178.56,323.48,179.72Zm37.11,4.3c.08.43.58.63.36,1.18-.33.83.43,1,1,1.19.27.1.72.15.72-.09,0-.46-.44-.82-.63-1.18A2.18,2.18,0,0,0,360.59,184Zm-85,5.09a10.27,10.27,0,0,0,1.54,1.11.91.91,0,0,0,1.17-.36.74.74,0,0,0,.08-.61c-.21-.43-.68-.38-1-.26A4.12,4.12,0,0,1,275.55,189.11Zm73.38-1.62c-.17-.8-.57-1.72.76-1.77a.87.87,0,0,0-1.5.26C347.92,186.51,348,187.17,348.93,187.49Z"/><path class="cls-3" d="M323.56,153.74l.45-.39a3.54,3.54,0,0,0,3.52,1.3c.11.38-.1.89.59,1s1.31.55.92,1.24c-.19.34.17,2.1-1.3,1-.07-.05,0,.53-.39.55.11.5.61.4.91.62l0,0c.1.45.72.78.35,1.36l-.76.14c.06.13.1.32.2.37.46.23.66-.13.87-.44a.53.53,0,0,1,.72-.08c-.05.34,0,.91.22.86a2.61,2.61,0,0,0,1.08-.78c.21-.19.06-.42-.13-.54-.56-.35-.44.56-.87.47a1.27,1.27,0,0,0-.33,0,.63.63,0,0,1,0-.74v-.52c.12-.45.88,0,.91-.68,0-.39.75-.38.75-.18,0,1.67,1.78.86,2.26,1.62.65,1,1.72,1.16,2.62,1.67s1.92,1,2.88,1.54c0,.79-.19,1.28-1.05.57-.42-.34-.67-.91-1.3-1-.12-.08-.24-.17-.36-.24a.65.65,0,0,0-.09.11l.41.18c.35.55.59,1.3,1.1,1.6.67.41.55.61.13,1s-.69.7-1.09,0a1.34,1.34,0,0,0-1.07-.68c-.28-.59,1.06-1.15.22-1.52s-1.36.34-1.27,1.26c.05.46-.71.61-.37,1.16.64,0,.68-.93,1.34-.82.24,1.15-.1,2.83,2,2.3-.16.69,1.09.51.78,1.29a3,3,0,0,0-2.37.84c-.83.57-1,.31-.45,1.27.08.31.17.62.59.58.08,0,.21-.13.2-.17-.07-.4-.42-.4-.72-.49a4.13,4.13,0,0,1,2.38-1.14c.28-.06.8.52,1.06,0s-.73-.34-.72-.85c.09-1.41,1.25-.67,2-1-1.28,0-1-1.09-1.43-1.7,1.15-.89,2.65-1,3.87-1.67a.32.32,0,0,1,.48.15A1.78,1.78,0,0,0,343,167c.08.11,0,.32.08.48-.77-.32-.42,1-1.05.75-.39-.15-.86-.36-.88.17s.68.3,1,.4a3,3,0,0,0,1.13-.12l.13.12a2.14,2.14,0,0,1,.82,1.92c.84-.47-.4-1,.21-1.33.95-.53.41-1.21.24-1.86,0-.35.05-.71.08-1.07.33-.06.72,0,1-.32.74.12,1.52.89,2.19-.09-.66-1-1.92-.17-2.61-1-1.15,0-.29.93-.61,1.32-1.27.34-.57-.73-.61-1-.12-.88.6-1,1.27-.94,1.55-.82,3.16-.39,4.75-.27,1.29.47.89,1.66.89,2.52,0,.69-.89.32-1.38.42-.2-.24-.29-.61-.77-.56a6.74,6.74,0,0,1,.2,3.59h-.94c-.06-.36.08-.83-.48-.92a.41.41,0,0,0-.48.34c-.12.53.05.87.62.95.11.2.23.17.33,0l1,0c.42.29.83.59,1.27,0,.17-.22.47-.48.68-.19s.25,1.06.83.71-.42-.78-.2-1.27a6.08,6.08,0,0,0,.21-.6c.85-.16-.18-1.13.57-1.33l.36.24s.07-.07.1-.11l-.41-.19-.55-1c2.21-.61,1.09,2.42,2.82,2.29-.31.4-.51.26-.72.24a1,1,0,0,0-1.06,1,2.6,2.6,0,0,0,1,1.47,1.09,1.09,0,0,0,1.36-.37c.57-.71-.17-3.78-1-4.31.68-1,2.13.28,2.84-1.06-.93.11-1.8-1.46-2.59.24-.14.31-.66.14-.72-.28a9,9,0,0,1,0-1.48c-.75.7-1.4,1.27-1.36-.3v-.1l.1,0h0a11.89,11.89,0,0,1,5.62.32.4.4,0,0,0-.52.27s.06.12.09.18l.4-.48c1.36-.94,5.95-.86,7.09.22a1,1,0,0,1-.24,1.69c-.27.14-.71,0-.75.52.14.69,1.66-1.15,1.21.63-.71,1.12-1.88.9-3,1l.6-1.37c-.63.14-1.22.32-1.43,1h0c-1.28-1.1-1.43-1.12-1.45-.93-.17,1.72-1.43.69-2.17.87-.12.74.71,1.16.53,1.88-1.63.77-1.72,1.5-.43,3.26h0c-.27-.08-.7-.41-.78,0s.44.2.69.29c-.09,1.52,1.24,2.41,2.1,2.07,1.23-.47.74.37,1,.7,0,.42-.74.87.13,1.25.38.16.67.4,1,0s.19-1,.17-1.44c.09-.32-.09-.74.33-1s.3-.49.48-.62c1.73-1.16,1-2.09-.23-3-.13-.09-.37-.21-.36-.27.49-1.87-.78-.56-1.24-.69-.27.29.09,1.19-.57,1s-1.91,0-2.4-1l.12-.53c1.08-.22,2.33.21,3.22-.79.9.09,1.68.95,3.06,0-.6,1.27-.61,2,.34,2.38-.33,2,1.26,4,.28,6.06a2.08,2.08,0,0,0-.25,0l-.11-.08,0-.13c0-.27.2-.57-.12-.8l-.16.71c-.36.44.48.89,0,1.33l0-.05-.71-.12c-.75-.34-1.74-.45-2.16.15-.69,1-1.56.93-2.5,1-1.7,1.2-3.63.92-5.48.65-.75-.1-1.53-.11-2.27-.28.07-1.46-1.78-.23-2-1.38v1.32l0,0h-.28l-1.36,0c-.81-2-1.31.3-2,.14-.22.16-.43.34-.72.17-.14-.71-.45-.89-1-.34-.16.31-.42.22-.67.19-.35-1.54-1.08-.37-1.66-.23l-1.37,0-.19-.37-.14.41c-1.13-.2-2.41.5-3.42-.54,0-.05-.36,0-.4.13-.76,1.65-1.53-.4-2.29,0-.17-1-1.08-.8-1.7-1a17.62,17.62,0,0,1-10.06-7.63c-.87-1.42-1.13-3-2-4.39-.34-.55.08-1.26.07-1.92a10,10,0,0,1,1.1-5.49c.69-.62.75-1.65,1.3-2.28,1-1.12,1.17-1.38.62-2.48A1.3,1.3,0,0,1,323.56,153.74Zm33.9,13.65c-.5.72-2,.82-1.33,2.37.65-.7,1.46-1.21,1.4-2.3.21-.06.46-.07.48-.36,0-.06-.13-.19-.19-.18C357.54,166.94,357.52,167.19,357.46,167.39ZM326.91,161a3.32,3.32,0,0,0-2.05-.81c-.55-.06-.32.66-.15,1.16.12.33-.33.34-.59.29s-.58,0-.49.35a.62.62,0,0,0,.48.35,14.05,14.05,0,0,0,1.43-.32l0,0a1.46,1.46,0,0,1,.17,1c-.25.85.3.37.59.32A6.57,6.57,0,0,1,329,163C328.59,161.92,327.17,162.1,326.91,161Zm5.82,4.88c-.17.36-.43.66-.37.85.2.57-.16,1.27.55,1.74s1.32-.18,2-.25.27-.35.24-.59,0-.59-.29-.42C333.39,168.14,333.43,166.63,332.73,165.89Zm11.11,12.68-.26-.19a1.37,1.37,0,0,0-.05.28s.1.09.12.08A1.45,1.45,0,0,0,343.84,178.57Zm-16.68-18.81s0-.11-.05-.14-.08,0-.12,0a.39.39,0,0,0,.05.14S327.12,159.77,327.16,159.76Zm19.57,11.62.14-.07s-.08-.09-.12-.09-.09,0-.13.06Zm.6.81a.58.58,0,0,0-.05-.14s-.08,0-.12,0a.29.29,0,0,0,0,.14S347.29,172.2,347.33,172.19Z"/><path class="cls-3" d="M349.08,146.94c1.17-.36,2.17-.35,2.29,1.29.35-.32-.45-1,.38-.92,2.25.1,4.51.11,6.73.09a41.81,41.81,0,0,0,6.23-.1c.78-.12,1,.89.81,1-.65.74-.14,1.45-.15,2.16s.25,1.29-.68,1.43c.57.55-1.31,1.19.12,1.8a1.61,1.61,0,0,1,.71,2,5.93,5.93,0,0,0,.12,3.86c.29,1.05-.95,2.46-2,2.16a17.39,17.39,0,0,0-2.94-.32c-.42,0-1.69-.41-1.31,1,.05.19,0,.34-.21.32s-.78-.07-.79-.16c-.36-2.65-2.42-1-3.07-.78-1.09.37-1.8-.12-2.62-.28a21.48,21.48,0,0,0-5.38.11,17.41,17.41,0,0,1-10.21-2.42c-1.31-.77-3.1-.6-4.23-1.9-.12-.14-.48-.1-.56-.24-2-3.43-4.94-6.46-4.61-10.86a23.77,23.77,0,0,1,1.44-7.26c.77-1.95,2.31-3,3.47-4.44.39.76,1.23.68,1.87,1a14.3,14.3,0,0,0,2.39,3.57c.43.6.31,1.32.57,2,1.16-.57.92.86,1.56,1.08a3.43,3.43,0,0,1,1.73,2c.32.31.74.14,1.11.21.54.16,1.06.32,1.12,1-.83.06-1.11.52-1,1.3-1.24,2-1.19,2.18.64,2.31.5.62.44,1.64,1.44,2.13a14.26,14.26,0,0,1-.58-1.5c-.13-.54.09-1.16.62-1.15.86,0,.23.54.18.9-.07.56.46.26.71.38l.15.42.12-.09c-.07-.12-.15-.24-.23-.36.08-.82.72-.59,1.21-.68s1.33,0,.8-1l0-.06c0-.53-.53-1.16.33-1.49l.36.26c0,1,.83,1.28,1.58,1.93Zm5.42,2.65c-.33-.53-.86-1-.92-1.64-1.09.14-.24,1.35-.91,1.7h1.78a3,3,0,0,1-.32,1.7c-.35.79.3.56.67.6l0,.05c0,.43-.13,1,.47,1.08.38.06.48-.39.54-.72s.62-1.18-.06-1.26C354.73,151,355,150.06,354.5,149.59Zm8.94,7.61c.54-1.43-.53-2.14-1.42-2.68-.55-.33-2.66,1.66-2.68,2.33a3,3,0,0,0,3.18,2.69C363.38,159.37,363.74,158.23,363.44,157.2Zm-10.32-4.88c-.61-.56-1.21-1.47-2-1.71s-.93.91-.93,1.47c0,1.55,1.73.07,2.23,1.09C352.5,153.37,353,152.91,353.12,152.32ZM334.43,138a4.93,4.93,0,0,0-1.2,1c-.25.36.25.52.56.61s.39.38.34.76a.91.91,0,0,0,1,1c.69-.09.32-.6.12-1s.25-.35.43-.5.26-.67.07-.57c-1.19.56-.68-.46-.82-.83A.5.5,0,0,0,334.43,138Zm24.84,14.68a4.5,4.5,0,0,0,2.67-3.29c-1.74-.34-1.76-.33-1.31,1,.14.42-.1.47-.36.56C359.6,151.21,359.38,151.74,359.27,152.66Zm-9.82-3.27c1.14.9,1.16.9,2.11-.31C350.87,148.89,350.32,149.35,349.45,149.39Zm-8.74-3.64c-.3,0-.34.25-.33.47s.07.42.14.43c.25,0,.39-.17.44-.39S341,145.83,340.71,145.75Zm.29-.49.4-.16c-.08,0-.16-.15-.24-.16s-.41-.11-.47.18A1.64,1.64,0,0,0,341,145.26Zm-7.58-9.52a1,1,0,0,0,0,.14s.08,0,.12.05a.28.28,0,0,0,0-.15Z"/><path class="cls-3" d="M403.18,151c.65-.31,2.06.75,1.92-1.11,0-.38.64-.07,1,0,1,.16,2,1.06,3.17-.05.26-.25,1.63.19,1.58,1.18,0,.81.42.6.81.66-.53,1.46-2.06.87-3,1.17-1.41.45-2.56,1.4-3.94,1.73s-2.12,2.2-4.1,1.37c-.55-.23-1.57,1.53-2.11,2.53a2,2,0,0,1-2,1.11c-.49,0-1.25.06-1.24.79,0,1.93-2.11,2.78-2.21,4.62-1.29-.45-1.17,1.91-2.58,1.3-.15-.07-.59.47-.33.54,1.46.38.31,1.11.32,1.69s-.17,1-.67.95-.47-.74-.44-1.06a10.81,10.81,0,0,0-.85-4.32c-.15-.5-.74-.86.07-1.31.4-.22.1-.33-.16-.51-1.2-.84-2-1.89-1.35-3.45-1.19-.59-.67-2.38-1.41-2.72-1.71-.79-1.23-2.72-2.37-3.71a1.52,1.52,0,0,1,.56-.93c.45-.19.33.28.43.58s.54-.11.83,0,.58.91.79.34c.31-.84,1-.4,1.39-.7.24.91-.27,2.32,1.61,2.11.64-.07.78.72.7,1.35,0,.29-.26.72.38.56s1.41,0,1.27-.6c-.2-.94.45-1.54.51-2.34l0-1.11,0,0h.71l0,0,1.06.46c0,.06,0,.12,0,.18l.31.84.4-.81,0,0a2.29,2.29,0,0,1,2.54-.15c.85.55,1.13.17,1.6-.26,0-.14.16-.34.11-.41-.25-.3-.48,0-.71.07-.4-.65-1.2-1.46-1.65-1.23-.86.44-.94,0-1.2-.51v-.1c.37-.09.81,0,1-.46,1.62.32,3.3.42,4.7,1.49.37.27.28.52.3.83-.3.08-.68-.07-.85.32,0,0,0,.13.07.13a.85.85,0,0,0,.81-.4c.45.25.52,1,1.2.92s.44-.64.49-1c.5,0,.46,1.09,1.4.52C403.07,152,403.08,151.53,403.18,151Zm-14.8,4.75-.07-.15.1.12c-.24.83-1.1.91-1.68,1.35a7,7,0,0,0,1.68-.33C389.31,156.39,389.07,156,388.38,155.73Zm11.23-2.46c-1.37-.69-1.5.63-2,1.29-.15.21.18.61.44.4.53-.43,1.58-.23,1.6-1.28.3.14.55.19.54-.27a2.76,2.76,0,0,0-.07-.49Zm-7.86,6h1c-.23-1.16.65-1.66,1.34-2.3.26-.24-.17-.65-.28-.5-.75,1-1-.27-1.41-.32-.37.46.1.86,0,1.4-1.27-.63-1.45.13-1.43,1.12a2.61,2.61,0,0,1-1.81.57C390,160.45,391.13,160.41,391.75,159.23Zm-4.45-4.14a3.61,3.61,0,0,0-.08-.86c-.17-.3-.42-.63-.71-.18C386.45,154.15,386.88,154.55,387.3,155.09Zm17.56-2.67a1.87,1.87,0,0,0-.28-.39c-.24-.17-.26.07-.27.2s0,.46.23.5C404.62,152.75,404.73,152.55,404.86,152.42Zm4-1.34c-.44,0-.36.2-.37.41s0,.44.3.44.45-.14.39-.4A1.52,1.52,0,0,0,408.83,151.08Zm-1.07.08-.17-.42a1.54,1.54,0,0,0-.29.34c0,.07.06.19.1.29Zm-22.06,3.43c-.06-.08-.13-.24-.25-.3s-.42,0-.43.27.08.35.17.37A.4.4,0,0,0,385.7,154.59Zm.88-1.74a1.21,1.21,0,0,0,.24-.2c.15-.18,0-.26-.14-.25a.3.3,0,0,0-.19.19C386.47,152.66,386.55,152.76,386.58,152.85Z"/><path class="cls-4" d="M378.12,137.38c3.05.29,6.67.25,10.25.91,1.13.21,1.23,1.15,1.79,1.64,1.3,1.12,1.31,2.48,1.62,3.85.2.86-.88,2.11-1.62,1.78-2.39-1.05-4.79-.28-7.18-.21a13,13,0,0,1-2.6-.26c-2-.34-3.86.17-5.79.17-1.46,0-1.88-.49-1.53-1.92.28-1.16-.24-2.32.42-3.55C374.53,137.83,375.24,137.2,378.12,137.38Z"/><path class="cls-5" d="M73.07,191.29a8.07,8.07,0,1,1,8.08-8.1A8.07,8.07,0,0,1,73.07,191.29Zm-5.37-8.06a5.38,5.38,0,1,0,5.46-5.38A5.4,5.4,0,0,0,67.7,183.23Z"/><path class="cls-5" d="M81.15,141a8.07,8.07,0,1,1-8-8.18A8.07,8.07,0,0,1,81.15,141Zm-8.08,5.27a5.38,5.38,0,1,0-5.37-5.47A5.4,5.4,0,0,0,73.07,146.26Z"/><path class="cls-5" d="M81.15,226.35a8.07,8.07,0,1,1-8-8.17A8.08,8.08,0,0,1,81.15,226.35Zm-2.69,0a5.38,5.38,0,1,0-5.53,5.31A5.4,5.4,0,0,0,78.46,226.31Z"/><path class="cls-4" d="M270.35,176.78c4.41-.74,9.07.2,13.67-.5a1.83,1.83,0,0,1,1,0c.55.27,1.84,0,1,1.46a1.63,1.63,0,0,0,.09,2c.37.35-.08.41-.42.53-.88.31-1.92.49-2.18,1.65-.06.29-.28.29-.5.3-1.64.05-3.19.53-4.92.26-2.39-.39-4.82-1-7.29-.65-1.08.14-1.33-.49-1.43-1.35A11.67,11.67,0,0,0,269,178C268.59,176.75,269,176.47,270.35,176.78Z"/><path class="cls-4" d="M367.68,147.71c2.56-.18,4,.92,4.05,3.18.09,3.74,1.09,7.44.32,11.23-.32,1.6-2.35,3.66-3.84,3.34a1.58,1.58,0,0,1-.85-1.69c.5-1.26-.1-2.64.16-3.56.63-2.24-.16-4.3-.1-6.43S367.6,149.74,367.68,147.71Z"/><path class="cls-3" d="M386,148.48c-.18,1,.22,2.7-1.79,1.45-.2-.12-.75,0-.67.21.38,1.24-1.19,1-1.14,2-.7-1-1.15-1.87-2.2-2.19-.86-.26-.74-1.48-1.71-1.76-.21-.06.21-.8.74-.77a51.26,51.26,0,0,0,6.32,0c.11,0,.24.33.37.5C385.74,148.16,386,148.31,386,148.48Z"/><path class="cls-3" d="M352.45,167.78c-.75.2.28,1.17-.57,1.33a.47.47,0,0,0-.36-.39c-.8-.32-2.36.17-1.91-1.63.49-.1,1.37.27,1.38-.42,0-.86.4-2-.89-2.52l2.39,0c0,1.57.61,1,1.36.3a9,9,0,0,0,0,1.48c.06.42.58.59.72.28.79-1.7,1.66-.13,2.59-.24-.71,1.34-2.16.08-2.84,1.06.87.53,1.61,3.6,1,4.31a1.09,1.09,0,0,1-1.36.37,2.6,2.6,0,0,1-1-1.47,1,1,0,0,1,1.06-1c.21,0,.41.16.72-.24-1.73.13-.61-2.9-2.82-2.29l.55,1Z"/><path class="cls-3" d="M347.38,146.4c-.86.33-.36,1-.33,1.49l-.77-.11c0,.1-.07.26,0,.29.32.28.6.18.84-.12.53,1-.28.89-.8,1s-1.13-.14-1.21.68l0,0c-.25-.12-.78.18-.71-.38.05-.36.68-.88-.18-.9-.53,0-.75.61-.62,1.15a14.26,14.26,0,0,0,.58,1.5c-1-.49-.94-1.51-1.44-2.13-1.37-.3-.42-1.19-.28-1.65s.43-.76-.36-.66c-.14-.78.14-1.24,1-1.3C344.65,144.92,345.91,146.06,347.38,146.4Z"/><path class="cls-3" d="M360.28,128.16c-.78-1.21,1.17-.45.87-1.33-.64-.25-1.46.16-2.53-.53,1.37,0,2-1.16,3.13-.71.56-1.54,2.07.3,2.77-.77.48.37,1,.73,1.49,1.07s-.38.43-.58.69a8.65,8.65,0,0,0-.54.84Z"/><path class="cls-3" d="M336.66,162.71c.63.06.88.63,1.3,1,.86.71,1,.22,1.05-.57,1.51-.59,2.54.81,3.87.92-1.22.7-2.72.78-3.87,1.67-1-.07-1.49.35-1.36,1.39-2.14.53-1.8-1.15-2-2.3l.08-.08a1.34,1.34,0,0,1,1.07.68c.4.71.71.41,1.09,0s.54-.63-.13-1c-.51-.3-.75-1.05-1.1-1.6Z"/><path class="cls-3" d="M386,148.48c0-.17-.29-.32-.08-.54,1.63-1.16,3.52-.52,5.28-.73a.52.52,0,0,1,.51.56c0,.36-.2.61-.64.29s-.33.23-.49.36c-.7.57-.78.58-1.92.11a.53.53,0,0,0-.43,0A1.92,1.92,0,0,0,388,151c.44.72-.52.39-.69.7-.41.3-1.08-.14-1.39.7-.21.57-.48-.29-.79-.34,0-.5-.08-1,.48-1.27C386.81,150.18,386.71,149.39,386,148.48Z"/><path class="cls-3" d="M364.88,191.32c-.31,1-.23,2.11-1.14,2.91-.28.24.23.38.44.52a5.22,5.22,0,0,1-2.63.24c.48-.25.94-.71.7-1.17-.35-.7-.64-.06-.92.22,0,0-.33-.14-.34-.24-.07-.52-.48-1.07,0-1.57s1.18-1.43,2.22-1.09c.59.19,1.19-.39,1.72.14Zm-2.32.62-.17-.06.13.1c.23.44-.5,1.06.25,1.41.22.11.5.1.54-.12.1-.53-.43-.8-.63-1.23C362.66,192,362.6,192,362.56,191.94Z"/><path class="cls-3" d="M359.54,179.52c.94-.06,1.81,0,2.5-1,.42-.6,1.41-.49,2.16-.15,0,.3-.44.7-.05.84a.61.61,0,0,0,.76-.72l0,.05.39-1a2.08,2.08,0,0,1,.25,0,4,4,0,0,0,.18.62c.63,1.38.4,1.82-1,1.85s-3.12.06-4.67.08C359.64,180.08,359.58,179.81,359.54,179.52Z"/><path class="cls-3" d="M327.53,154.65a3.54,3.54,0,0,1-3.52-1.3,1.44,1.44,0,0,1,.43-.87c.6-.67,1.07-1.8,2-1.7.59.06.11,1.22.25,1.89A21,21,0,0,0,327.53,154.65Z"/><path class="cls-3" d="M361.73,168.11h0c.09.55.53.27.83.34,1.07-.09,2.24.13,3-1a5.36,5.36,0,0,1-.23,4c-.95-.37-.94-1.11-.34-2.38-1.38,1-2.16.13-3.06,0-.47,0-.84-.08-.88-.62S361.43,168.17,361.73,168.11Z"/><path class="cls-3" d="M323.56,153.74a1.3,1.3,0,0,0,0,.49c.55,1.1.36,1.36-.62,2.48-.55.63-.61,1.66-1.3,2.28-.09-.25-.31-.69-.26-.73,1.08-.74.75-1.92,1-2.93C322.54,154.66,322.69,153.92,323.56,153.74Z"/><path class="cls-3" d="M344.76,166.46c0,.36-.06.72-.08,1.07-.54-.1-1.12.8-1.63-.05,0-.16,0-.37-.08-.48a1.78,1.78,0,0,1,.39-2.82c.67,0,1.41-.52,2,.24-.68,0-1.4.06-1.28.94,0,.3-.66,1.37.61,1Z"/><path class="cls-3" d="M363.9,188.27c.05.54.17,1,.88.73s.75.25,1,.6c.7.56-.82.79-.2,1.34-.72-.19-.82-1.08-1.48-1.34a1.43,1.43,0,0,1-1.19-1.53l.95.15Z"/><path class="cls-3" d="M391.78,152.73c-.06.8-.71,1.4-.51,2.34.14.62-.74.58-1.27.6.49-.44.05-.92,0-1.37C390,153.57,391.1,152.54,391.78,152.73Z"/><path class="cls-3" d="M391.81,151.62c-1.42.41-2.37-.43-3.41-1.17,1.05-1,2.08.32,3.07-.14l0,0c.6.34.56.83.33,1.38Z"/><path class="cls-3" d="M334.52,135.5c-.64-.28-1.48-.2-1.87-1,.34-.5.49-1.16,1.18-1.52A5.89,5.89,0,0,1,334.52,135.5Z"/><path class="cls-3" d="M338.6,183.37c-1.44.36-.23,1.73-1,2.62-.25-1.19,0-2.39-1.33-2.87-.22-.08.13-.43.37-.56C337.52,182.28,337.77,183.53,338.6,183.37Z"/><path class="cls-3" d="M349.78,179.83v-1.32c.23,1.15,2.08-.08,2,1.38C351.1,180.46,350.44,180.1,349.78,179.83Z"/><path class="cls-3" d="M380.06,127.14c-.06.63.56.93.71,1.45-.52,1-1.13.66-1.75.11a3.52,3.52,0,0,1,1-1.62Z"/><path class="cls-3" d="M349.08,146.94l.24,1.65c-.75-.65-1.58-.92-1.58-1.93C348.32,146.14,348.59,147.07,349.08,146.94Z"/><path class="cls-3" d="M346.12,180c.67.16,1.17-2.19,2-.14A1.93,1.93,0,0,1,346.12,180Z"/><path class="cls-3" d="M392.46,138.18c1.32.44.42,1.52.64,2.27C392.83,139.71,392.28,139,392.46,138.18Z"/><path class="cls-3" d="M342.06,179.82c.58-.14,1.31-1.31,1.66.23C343.21,179.65,342.46,181,342.06,179.82Z"/><path class="cls-3" d="M341.88,144.26c-.37-.07-.79.1-1.11-.21a.68.68,0,0,1,1-.6C342.14,143.56,342,144,341.88,144.26Z"/><path class="cls-3" d="M328.26,159c.56-.32.45-1.21,1.2-1.38.38.5-.14.9-.17,1.35l-.36.22c-.35.29-.51,0-.69-.22Z"/><path class="cls-3" d="M344.39,179.86c.56-.55.87-.37,1,.34C344.91,180.53,344.78,179.81,344.39,179.86Z"/><path class="cls-3" d="M352.57,164.1h0l.12-.42a.57.57,0,0,1,0,.14A2.33,2.33,0,0,1,352.57,164.1Z"/><path class="cls-3" d="M328.93,159.23l.36-.22.3.13c0,.17,0,.34,0,.52Z"/><path class="cls-3" d="M377.91,128.48l.73.17C378.37,128.73,378.1,128.78,377.91,128.48Z"/><path class="cls-3" d="M340.36,179.82l.14-.41.19.37Z"/><path class="cls-3" d="M349.46,179.87h.28l-.12.25Z"/><path class="cls-3" d="M393.82,141.42a1.55,1.55,0,0,0,0,.21l-.07-.14Z"/><path class="cls-3" d="M364.45,195h0l0,.07Z"/><path class="cls-2" d="M448.32,93.45c.74,2.47,0,5.34-.6,8.12a23.2,23.2,0,0,1-3.07,6.63c-.89,1.54-1.46,3.15-.42,4.84.29.48.48,1.09.24,1.38s-1,.12-1.5,0a9.27,9.27,0,0,0-3.74.07c-2.17.52-4.28,1.59-6.58,1.26a8.7,8.7,0,0,1-3.7-1c-1-.77-1.63-2.17-2.41-3.29-1.18-1.68-1.09-3.55-.88-5.46s-1.34-1.3-2.08-1.3a21.06,21.06,0,0,1-6.67-1.11,8.71,8.71,0,0,1-5.28-4.49,5.84,5.84,0,0,1,0-3.87c.46-1.9.63-3.81.95-5.71.09-.48,0-.7-.58-.73a1,1,0,0,1-1-1.49c.25-.54.66-1.29,1.72-.6s1.72-.65,2.13-1.26a2.56,2.56,0,0,1,2-1.23c1.36-.21,2.19-1.38,3.33-2,2.31-1.28,4.64-2.85,7.21-3.13a20.12,20.12,0,0,1,10.19,1.2,19.61,19.61,0,0,1,8.56,7.27A9.38,9.38,0,0,1,448.32,93.45Zm-20.59,13.33h0a2.94,2.94,0,0,0-.07.65c.39,4,3.05,7.51,7.16,5.88a9.42,9.42,0,0,1,4.26-1.09,1,1,0,0,0,.95-.59c.24-.49-.2-.7-.49-.92a12.27,12.27,0,0,1-3.21-4.39c-1.08-2.12-2.79-3.64-4-5.57A5.32,5.32,0,0,0,430.85,99c-3.46-2.07-6.32-5-9.87-6.94-1.71-.94-3.82-.88-5.31-2.3-.2-.19-.55-.06-.61.31-.44,2.3-1,4.58-1.24,6.9a2.74,2.74,0,0,0,1,2.51,11.81,11.81,0,0,0,6.58,3,6.89,6.89,0,0,0,2.37,0c.85-.3.9,1.39,1.66.42.6-.77,1.26-.31,1.88,0s.65.86.57,1.5C427.78,105.13,427.77,106,427.73,106.78ZM442,110.56a13.82,13.82,0,0,1,1-3.94,24,24,0,0,0,3.21-11,11.89,11.89,0,0,0-1.07-5.13A14.19,14.19,0,0,0,440,84.46c-1.35-.85-2.24-2.55-4.15-2.41a4.28,4.28,0,0,1-1.79-.39,10.88,10.88,0,0,0-5.65-.4c-3.14.56-5.78,2.16-8.52,3.57a41.21,41.21,0,0,0-3.76,2.47,20.41,20.41,0,0,0,6.19-1.72,10.29,10.29,0,0,1,7.22-.59A15.52,15.52,0,0,1,438,90.6c.48.63,1.41.39,1.68,1.51A11,11,0,0,0,441.14,96c1.82,2.41.79,4.91.64,7.29S440.68,108.13,442,110.56Zm-3.34-13.8c0-1.49-.63-1.89-2.11-1.11-.91.48-1.8,1-2.67,1.59s-.72,1.33,0,1.86a7.4,7.4,0,0,1,2.23,2.8c.23.47.45,1.07,1.15,1s.75-.7.95-1.2C438.8,100.14,438,98.45,438.64,96.76Zm-7.82-7c-.06-.85-.21-1.52-1.39-1-1.48.65-3,1.19-4.5,1.82-.37.16-1,.13-1,.72s.51.73.93.85a14.77,14.77,0,0,1,4.29,2.24c.72.51,1.11.11,1.2-.68C430.5,92.42,430.66,91.12,430.82,89.77ZM421,83.89l-.11-.11a.78.78,0,0,0-.11.2s.06.07.1.11Z"/><path class="cls-2" d="M462.72,59.79c1,.59.48,1.36.26,2.1-.22.17-.63.33-.64.5-.09,2.23-1.27,4.17-1.62,6.32a29.7,29.7,0,0,0-.19,10.47c.25,1.31.78,1.93,2.14,1.34v.17c0,.83.53,2-.75,2.21a2.59,2.59,0,0,1-2.55-1.34c-1.61-2.36-1.19-5.08-1.36-7.69,0-.42.34-1-.16-1.21-.71-.3-.75.49-1,.87a9.59,9.59,0,0,1-5.06,5c-.81.31-1.73,1.25-2.73.17A4,4,0,0,1,447.78,75a15.52,15.52,0,0,1,2.53-5.17,5.56,5.56,0,0,0-3.13,1.25,4.84,4.84,0,0,1-5.51.35c-1.06-.84-1-4,.18-5.16a8.3,8.3,0,0,1,1-.88c.34-.27.77-.43.48-1s-.88-.29-1.16-.23a6,6,0,0,1-5.58-1.93c-1.69-1.63-.9-4.8,1.1-6a3.67,3.67,0,0,1,3.71-.2c-.37.52-1.06.66-1.43,1.07-.77.84-2.58,1-2.06,2.76.48,1.56,1.73,2.13,3.29,2.22a13.65,13.65,0,0,0,3.86-.66c1.79-.41,3.3-1.45,5.1-1.91a6.64,6.64,0,0,0,4.49-3.24c.76,0,1.3-1.15,2.18-.39A5.09,5.09,0,0,0,462.72,59.79ZM444.11,69.93a3.23,3.23,0,0,0,1.73-.51c1.23-.74,2.48-1.48,3.75-2.18a29.17,29.17,0,0,0,7-5.7,1.06,1.06,0,0,0,0-1.51c-.37-.46-.76-.83-1.42-.52s-1.1.53-1.67.74c-2.34.86-4.17,2.57-6.22,3.88a9.62,9.62,0,0,0-3.94,4.53C443.05,69.51,443.12,70,444.11,69.93Zm16-8.29a19,19,0,0,0-3,2.88A52.89,52.89,0,0,0,452,71.45c-.74,1.21-1.75,2.43-1.74,4,0,.41-.4.91.19,1.17a1.24,1.24,0,0,0,1.39-.29c.9-.93,1.73-1.92,2.59-2.9,1.3-1.48,2-3.35,3.14-4.91C459,66.57,459.21,64.26,460.14,61.64Z"/><path class="cls-2" d="M420.55,61.61c3-.66,3.49-.3,3.44,3,0,1.4,1.09,1.34,1.88,1.64s1.32.43,1.31,1.24c0,.52-.05,1.18-.76,1.35-.49.11-1,.5-1.45-.22s-1.13-.63-1.8-.7c-.44,0-.66.11-.79.59s-.35.65.08,1a9.75,9.75,0,0,1,1.05,1.08c.47.52.92,1.1.2,1.71a1.44,1.44,0,0,1-2,.09,4.7,4.7,0,0,1-.69-.72,1,1,0,0,0-1.6-.16,1.1,1.1,0,0,0-.11,1.64,3,3,0,0,1,.63,1.35c.28.75.32,1.46-.59,1.78a1.48,1.48,0,0,1-1.84-.75c-.09-.13-.08-.35-.18-.46-.47-.49-.24-2-1-1.59s-2.45.42-2.16,2.18a2.43,2.43,0,0,1-.64,1.84,1.09,1.09,0,0,1-1,.39c-.6-.07-.4-.54-.34-.91a2.83,2.83,0,0,0-.26-1.28c-.16-.49,0-1.27-.75-1.25a2,2,0,0,0-1.45.9c-.16.22-.17.56-.36.74-.46.45-.45,1.63-1.66,1-1-.54-.65-1.27-.48-2s.55-1.3-.41-2c-1.2-1,.41-1.33.82-1.94l.92,0c.62.55,1.65.24,2.18,1,.06.09.41,0,.59,0s.27-.47.07-.53c-1.23-.36-1-2.07-2.31-2.36.08-1.22-.47-2.58.47-3.61a11.28,11.28,0,0,1,4.73-3.08c1.87.61,3.95.87,4.52,3.35.11.5.37,1.54,1.11,1.43s1.19-1,1.54-1.77c.15-.33,0-.78.1-1.15s.36-.77,0-1.06-.83-.12-1.22.16c-.66.48-1.27.79-1.12-.52C419.33,62.22,420.1,62.06,420.55,61.61Zm-3.41,7.84c0-2.34-1.14-4.09-2.52-4.06a3.36,3.36,0,0,0-2.95,2.34c-.22,1.35,1.88,1.39,1.42,2.77.79-.4,1.47.14,2.16.21S417.21,70.48,417.14,69.45Z"/><path class="cls-6" d="M454.64,56.2a6.64,6.64,0,0,1-4.49,3.24c-1.8.46-3.31,1.5-5.1,1.91a13.65,13.65,0,0,1-3.86.66c-1.56-.09-2.81-.66-3.29-2.22-.52-1.73,1.29-1.92,2.06-2.76.37-.41,1.06-.55,1.43-1.07,2.19-.78,4.38-.41,6.62-.39,1.65,0,3.58,1.61,5.23-.21.23-.25.79.21,1.09.55l.34.29Z"/><path class="cls-6" d="M462.67,80.52c-1.36.59-1.89,0-2.14-1.34a29.7,29.7,0,0,1,.19-10.47c.35-2.15,1.53-4.09,1.62-6.32,0-.17.42-.33.64-.5l.3,1.37a13.51,13.51,0,0,0,0,5C463.54,72.39,463,76.45,462.67,80.52Z"/><path class="cls-2" d="M453.37,99.94c-.44-.74.17-1.11.54-1.56.53-.65.63-1.31-.36-1.45a1.21,1.21,0,0,1-1-1.56c.23-.84,1.17-.51,1.71-.29,1.63.69,2.56-.07,3.17-1.41a1.6,1.6,0,0,1,1.53-1,1.29,1.29,0,0,1,1.25.7c.26.59-.22,1.08-.6,1.44-1.09,1-1.29,1.83.2,2.7a1.68,1.68,0,0,1,.51,1.55c-.47.79-1.27.61-2,.15a1.49,1.49,0,0,0-2.27.54,3.42,3.42,0,0,1-2.63,1.47c-.21-.5.89-1-.05-1.34Z"/><path class="cls-5" d="M414.29,62.55a11.28,11.28,0,0,0-4.73,3.08c-.94,1-.39,2.39-.48,3.61-.17.63-.34,1.27-.52,1.9l-.92,0c-.7-1.2,0-2.66-.69-3.87a2.24,2.24,0,0,0,.31-1.45,1.25,1.25,0,0,0,.4-1.23c1.45,0,1.57-.94,1.45-2.05.68,0,1-.65,1.53-.91,1.32.88,1.59-.4,2.16-1.06a3.5,3.5,0,0,0,1.7-.13c.93,1.4,1.16,1.4,1.92-.07l.36-.7c1,1.15,2.64,1.08,3.77,2-.45.45-1.22.61-1.35,1.38C417.57,62.75,416,61.86,414.29,62.55Z"/><path class="cls-5" d="M462.72,59.79a5.09,5.09,0,0,1-5.9-4,29.49,29.49,0,0,0,4.3-.15c1.64-.28,2.63,1.14,1.95,2.7A3.46,3.46,0,0,0,462.72,59.79Z"/><path class="cls-2" d="M373.22,173.18c0,.81-2,2.72-2.05,2.56-.27-1.05-1.94-.53-1.92-1.83s1.54-3.6,2.2-3.29A3.75,3.75,0,0,1,373.22,173.18Z"/><path class="cls-2" d="M363.47,142.08c0-.78,1.44-2.44,2.1-2.45s2.28,1.83,2.24,2.78c-.07,1.44-1.4,1.44-2.28,1.73S363.45,143,363.47,142.08Z"/><path class="cls-3" d="M456,140.86c.48.12.84-.19,1.31-.38,0,1.23-.12,2.54,1.69,2.39l.05,0c.09.6.45,1.07,1,1.06.78,0,0-.56.18-.85s.33-.6.76-.38c.28.14.7.27.53.7-.29.73-1,1.76-1.46,1.63-1.24-.34-2.51.07-3.69-.38a.37.37,0,0,1-.17-.65,2.12,2.12,0,0,0-.17-2.81c-.07-.07-.07-.21-.1-.31Z"/><path class="cls-2" d="M409.11,62.49c.12,1.11,0,2.06-1.45,2.05a6.05,6.05,0,0,1-.6-.52c-.62-.77-1.77-1.67-.65-2.57S408.36,61.71,409.11,62.49Z"/><path class="cls-2" d="M412.8,60.52c-.57.66-.84,1.94-2.16,1.06a11.87,11.87,0,0,0-.6-1.18c-.75-1.09-.3-1.75.75-2.18s1.36.55,1.76,1.17A3.12,3.12,0,0,1,412.8,60.52Z"/><path class="cls-3" d="M445.21,165c0-.35.51-.85-.34-1-1.16-.19-1.48-1.33-2.22-2,.42-.71,1.63.49,1.64-.91,0-.4.36,0,.38.1.11.9,1.88.5,1.41,1.44-.36.71-.51,1.21.08,1.48.75.35.58-.75,1.19-1,.13.72-.23,1.53.39,2.09.2.19.46.41.1.65s-.75.24-.82-.18c-.21-1.36-1.06-.69-1.74-.61Z"/><path class="cls-3" d="M453.43,136.8c1.1.61.75,1.81,1.09,2.73a.38.38,0,0,1-.08.3c-.39.53-3.09.39-3.58-.12a14.76,14.76,0,0,1-1.49-1.56c.66,0,1.34-.42,1.75.34.2.37.41.88.86.64s1.12-.33,1-1.13A1.42,1.42,0,0,1,453.43,136.8Z"/><path class="cls-2" d="M407.26,65.77a2.24,2.24,0,0,1-.31,1.45c-.24.23-.44.54-.72.66a2,2,0,0,1-2.19-.29,1,1,0,0,1,.1-1.37c.53-.59,1.06-1.17,2-.78A9.71,9.71,0,0,0,407.26,65.77Z"/><path class="cls-2" d="M416.78,59.62l-.36.7c-.76,1.47-1,1.47-1.92.07a1,1,0,0,0,0-.33c-.37-1.14,0-2.19,1.11-2.31S416.68,58.81,416.78,59.62Z"/><path class="cls-3" d="M429.86,192.06a2,2,0,0,0-.47,1.67c0,.79-.53.92-1.28.82s-1.27-.08-1-.86c.48-1.28-.35-1.62-1.26-2.05C427.24,191.37,428.43,192.16,429.86,192.06Z"/><path class="cls-2" d="M406.87,70.28a3.47,3.47,0,0,1-2.5,1,1,1,0,0,1-1.05-1.15,1.09,1.09,0,0,1,1.52-1C405.63,69.32,406.49,69.23,406.87,70.28Z"/><path class="cls-2" d="M398.27,151.92c-.47.43-.75.81-1.6.26a2.29,2.29,0,0,0-2.54.15c.33-.83.09-1.28-1-1.23,1,0,1.28-.75,1.72-1.26.26.5.34.95,1.2.51.45-.23,1.25.58,1.65,1.23C397.56,152.25,398,151.88,398.27,151.92Z"/><path class="cls-3" d="M452.62,178.16a.9.9,0,0,1-1.18.81c-.79-.22-1.27-.3-1.21.76,0,.3-.29.44-.61.43s-.59-.11-.61-.44c0-.64-.31-1.32.32-1.87s.94-.6,1.47.11C451.2,178.51,452,178,452.62,178.16Z"/><path class="cls-3" d="M397.11,147c.18-.7,1.05-.49,1.43-1.16.26-.45.85-.55.16-1.09-.34-.26-.41-.56.06-.72.83-.28,1.11.48,1.37.94s.68,1.17-.52,1.18c-.65,0-.39,1.46-1.45,1.15-.31.21-.53.73-.92.6S397.07,147.29,397.11,147Z"/><path class="cls-3" d="M454.9,171.12c-.71.72-.45,1.61-.36,2.45,0,.38.27.81-.13,1.05s-.55-.21-.77-.44-.28-.25-.4-.23c-.43.05-1,.3-1.08-.32-.1-.87.92-.18,1.2-.71l-1.28-.89c1.34.22,2.32.28,1.87-1.19l.09-.09.88.05Z"/><path class="cls-3" d="M420.7,198.09c-1.08,0-1.61,1.4-2.8.76-.1.41-.3.58-.64.21s-.11-.92,0-1.38.22-.66.67-.51C418.82,197.45,419.84,197.25,420.7,198.09Z"/><path class="cls-3" d="M452.18,162.13c1.32-1.3,2-2.68.66-4.58,1.28.24,1.74,1.16,2.5,1.67-.5.36-.82-.09-1.38-.27C455.46,161.27,453.28,161.37,452.18,162.13Z"/><path class="cls-3" d="M457.88,163.27c-.34,2.07.69,2,2,1.51a4.85,4.85,0,0,1-2.39,1.8c-.3,0-.39-.18-.43-.4A2.85,2.85,0,0,1,457.88,163.27Z"/><path class="cls-3" d="M453.62,148.39l-3.32,1.2c-.6.22-.79-.17-.81-.63,0-.72.59-.94,1.07-1.31.87-.66.48.42.71.47C451.94,148.26,452.63,148.29,453.62,148.39Z"/><path class="cls-3" d="M456.38,152.27a4.78,4.78,0,0,1,1.41,2.26c.24.79.62.79,1.2.76l.08.09c-.28.37-.79.85-1.07.39-.65-1.1-1.92-1-3.1-1.73,1.43-.06,1.58-.78,1.4-1.69Z"/><path class="cls-3" d="M462.25,148.42c-.41,1.08-1.08,1-1.75.62s-.74-1.29-.78-2c0-.36.44-.42.79-.39a.66.66,0,0,1,.6.83C460.76,148.55,461.51,148.46,462.25,148.42Z"/><path class="cls-3" d="M430.27,184.83c-.09-.41-.15-.67-.2-.92-.16-.72-.83-1.82-.15-2.07s1.24,1.06,1.62,1.64C432.16,184.43,430.85,184.34,430.27,184.83Z"/><path class="cls-3" d="M450,174.37c-.41-.62-.24-3.57.24-3.92s.85.81,1.45.27c.27.32,0,.5-.17.7C450.2,172.83,450.19,172.83,450,174.37Z"/><path class="cls-3" d="M374.8,124.58a2.44,2.44,0,0,0-1.22,1.78.36.36,0,0,1-.16,0c-.46-.1-.74-.53-.57-.85.34-.64,0-1.72,1-1.91C374.29,123.53,374.64,123.94,374.8,124.58Z"/><path class="cls-3" d="M394.15,130.27c.27,1,1.53,1.1,1,2.2-.11.25.07.22.19.31.29.23.55-.83.79,0,.07.25-.05.66-.38.58s-1.12.29-1.16-.22C394.54,132.25,393.46,131.67,394.15,130.27Z"/><path class="cls-3" d="M443.07,168.6c1.26-.45,2.31.49,3.48.07.23-.08.39.16.46.37s-.08.42-.3.49c-.54.18-1,.62-1.66.07A3.16,3.16,0,0,0,443.07,168.6Z"/><path class="cls-2" d="M447.91,162.29c.41-2.69.41-2.69,2.12-1.41a1.17,1.17,0,0,1-1.09.65C448.39,161.58,448.71,162.47,447.91,162.29Z"/><path class="cls-3" d="M464.39,142.25c-.56-.05-.65.53-1,.75s-.74.7-1.15.32.05-.82.16-1.22c.25-.94,1.33-.3,1.83-.88,0-.06.1.65.21,1Z"/><path class="cls-3" d="M385.38,131a2.47,2.47,0,0,1,.41-3.16c.15-.18.29-.37.54-.29s.17.34.11.62a8.2,8.2,0,0,1-1.06,2.84Z"/><path class="cls-3" d="M435.85,180.3c.51,1.67.08,2.4-1.38,2.59-.25,0-.29-.06-.31-.2s-.31-.67,0-.72C435.15,181.83,435.15,180.73,435.85,180.3Z"/><path class="cls-3" d="M430.7,185.68l1.31-.9c0,.75,1,.74,1.08,1.51,0,.36.26.58-.26.66-.31.05-.87.28-.8-.16C432.26,185.47,431,186.39,430.7,185.68Z"/><path class="cls-2" d="M463.24,68.29a13.51,13.51,0,0,1,0-5C463.27,64.94,463.25,66.61,463.24,68.29Z"/><path class="cls-5" d="M397.5,189.27c.65-.29,1.15.11,1.61-.24a.66.66,0,0,1,.9.14.7.7,0,0,1,0,.6.92.92,0,0,1-1,.49C398.4,190.2,398.11,189.62,397.5,189.27Z"/><path class="cls-3" d="M369.79,124c-.27.57-.53,1.29-1.21,1.56-.32.13-.6-.51-.51-.67.32-.55.38-1.41,1.27-1.46C369.63,123.42,369.87,123.55,369.79,124Z"/><path class="cls-3" d="M427.45,182.09c-.16-1.07-2.24-.58-1.43-2.7C426.05,180.84,428.73,179.87,427.45,182.09Z"/><path class="cls-2" d="M444.83,186.45c-1.08.14-1.19-1-2-1a.88.88,0,0,1-.05-.45c.08-.3.32-.2.53-.17C444.22,185,444.53,185.62,444.83,186.45Z"/><path class="cls-3" d="M413.76,195.21c-.06,1.31-2.09,1.14-.66,2.9-1.35-.61-1.2-1.34-1.08-1.91C412.21,195.32,413.15,195.83,413.76,195.21Z"/><path class="cls-3" d="M414.65,183.55c.41.08.94-.09.85.54a.82.82,0,0,1-.89.79c-.42,0-.82-.15-.83-.62S414.28,183.64,414.65,183.55Z"/><path class="cls-3" d="M463.69,147.63c-1.19-.18-1.59-.81-1.34-1.86C463.48,146.21,463.48,146.21,463.69,147.63Z"/><path class="cls-3" d="M439.07,180.13a3.83,3.83,0,0,0-.14-1.68c-.09-.53.35-.63.77-.56s.36.35.15.68S440.18,179.82,439.07,180.13Z"/><path class="cls-3" d="M417.48,189.36c-.92.25-1.47.81-2.22.43-.22-.11-.16-.38,0-.56C415.89,188.63,416.52,188.72,417.48,189.36Z"/><path class="cls-3" d="M437.38,191.27c-.2.49-.63.35-1,.33s-.83-.21-.76-.66.46-.8.75-.66S437.3,190.69,437.38,191.27Z"/><path class="cls-3" d="M459.66,139.27c-.9.2-1.88,1-2.61-.37a1.42,1.42,0,0,0,1.74-.08c.46-.27.83-.3.94.35Z"/><path class="cls-3" d="M427.13,196.37c.05.64-.35,1-.94,1.39-.07-.57-.7-1-.22-1.63s.76-.13,1.09.17Z"/><path class="cls-3" d="M409.92,190.21c.14-.29-.44-1,.27-.81s.06,1.27.84,1.64c.22.1-.16.51-.42.51C409.58,191.53,410.11,190.68,409.92,190.21Z"/><path class="cls-3" d="M459.18,132.73c.68-.21,1.25-.89,2-.39.1.06.16.4.11.43A2.07,2.07,0,0,1,459.18,132.73Z"/><path class="cls-2" d="M403.18,151c-.1.55-.11,1.05.78,1.08-.94.57-.9-.49-1.4-.52-.29-.32-1.13-.45-.4-1.14A.77.77,0,0,0,403.18,151Z"/><path class="cls-3" d="M441.66,174.57c-.06.47-.08.79-.14,1.11a1.08,1.08,0,0,1-.79,1c-.64.08-.59-.33-.28-.71.13-.15.46-.18.52-.33C441.1,175.28,441.06,174.86,441.66,174.57Z"/><path class="cls-3" d="M455.78,133.66a1.35,1.35,0,0,1,1.81.53.35.35,0,0,1-.22.53C456.58,134.8,456.34,134.09,455.78,133.66Z"/><path class="cls-3" d="M396.74,196.57c.23.87.05,1.46-.76,1.66-.65.16-.71-.38-.08-.93Z"/><path class="cls-2" d="M454,156.82c.18-.5.37-1,.56-1.49.13.09.32.15.38.27C455.49,156.53,454,156.16,454,156.82Z"/><path class="cls-2" d="M397.11,147c0,.32-.18.79.13.9s.61-.39.92-.6c-.25.31.3,1-.44,1-.38,0-1,0-1.11-.27C396.37,147.64,396.72,147.23,397.11,147Z"/><path class="cls-3" d="M429.2,191.59c-.67-.08-1.31-.06-1.61-.77,0-.07.28-.42.42-.41A1.1,1.1,0,0,1,429.2,191.59Z"/><path class="cls-3" d="M440.76,179.78c.7.68.7.68.85,1.89C440.67,181.18,440.67,181.18,440.76,179.78Z"/><path class="cls-3" d="M435,156.87c1.05.49.74,1.27.5,2.16C434.65,158.38,435.42,157.5,435,156.87Z"/><path class="cls-2" d="M460,157.46c-.57.36-1.07,1.13-1.71.63s.1-.88.38-.73C459.13,157.61,459.51,157.42,460,157.46Z"/><path class="cls-3" d="M441.47,186.82c1-.85,1.73-.43,2.45.34C443,187.47,442.31,186.91,441.47,186.82Z"/><path class="cls-2" d="M461.51,140.23c.71,0,.36-.64.52-1a1,1,0,0,1,1.39-.59C462.88,139.32,461.9,139.42,461.51,140.23Z"/><path class="cls-3" d="M424.81,194l1.61-.69C426.26,194.52,426.26,194.52,424.81,194Z"/><path class="cls-2" d="M454.9,171.12l0-.32c.12-1.8.92.53,1.21-.29C455.83,171,455.58,171.58,454.9,171.12Z"/><path class="cls-3" d="M455.83,148.12c-.48,0-.55-.3-.62-.54a.68.68,0,0,1,.36-.83.39.39,0,0,1,.57.38A4.4,4.4,0,0,1,455.83,148.12Z"/><path class="cls-3" d="M416,199.71c0,.63-.57.93-.79,1.52-.83-.84.16-1.32.23-1.93l.52.37Z"/><path class="cls-2" d="M391.77,151.66c.23-.55.27-1-.33-1.38,1.7-.57.92.74,1,1.37Z"/><path class="cls-3" d="M447.31,135.64a.84.84,0,0,1-.1,1.33.3.3,0,0,1-.52-.14A1,1,0,0,1,447.31,135.64Z"/><path class="cls-3" d="M425.87,186.63c-1,.36-1.57.47-2.12-.41A3.39,3.39,0,0,1,425.87,186.63Z"/><path class="cls-3" d="M445.27,166.24a2.85,2.85,0,0,0,1.4,1.32C445.47,167.94,445.23,167.23,445.27,166.24Z"/><path class="cls-3" d="M444.54,173c.89.07,1,.62.95,1.45C444.73,174.11,444.81,173.41,444.54,173Z"/><path class="cls-3" d="M453.52,134.85c-.8,0-.95.85-1.58.5-.09,0-.06-.55.07-.72C452.44,134.08,452.81,134.55,453.52,134.85Z"/><path class="cls-3" d="M397.27,141.74a1.87,1.87,0,0,1,.87,1.8C397.47,142.94,397.47,142.94,397.27,141.74Z"/><path class="cls-3" d="M418.64,195.75a.45.45,0,0,1-.49.52.41.41,0,0,1-.42-.42c0-.3.09-.6.41-.63S418.59,195.46,418.64,195.75Z"/><path class="cls-3" d="M454,170.84c-.39-.1-.94,0-.92-.65,0-.29.19-.58.49-.51.55.13.41.67.52,1.07Z"/><path class="cls-3" d="M447.78,140.44c1,.68.84,1.22.28,2C448,141.76,447.9,141.26,447.78,140.44Z"/><path class="cls-3" d="M436.53,186.63c.35,0,.5.16.38.4a2.19,2.19,0,0,1-.57.74c-.18.13-.45,0-.39-.3A1.09,1.09,0,0,1,436.53,186.63Z"/><path class="cls-2" d="M395.84,149.28c-.21.44-.65.37-1,.46-.8-.44.06-.87.16-1C395.54,148.34,395.25,149.59,395.84,149.28Z"/><path class="cls-3" d="M452.47,170.83l-.65-1.14c.14-.06.31-.2.41-.16C452.89,169.78,452.51,170.33,452.47,170.83Z"/><path class="cls-3" d="M446.62,159.06c0,.93-.53,1.08-1.34.91l1.26-1Z"/><path class="cls-3" d="M457.06,160c.28.13.9-.16.74.52-.05.22-.43.56-.56.52-.47-.16-.13-.64-.26-1Z"/><path class="cls-3" d="M392.45,129.14c-.63-.13-.88-.52-.83-1.27.66.23.76.73.87,1.23Z"/><path class="cls-3" d="M459,155.29c.1-.47.36-.77.87-.68.08,0,.18.38.14.56-.16.61-.64,0-.93.21Z"/><path class="cls-3" d="M446.54,159c.09-.35,0-.82.5-.91.23,0,.47.09.43.35-.08.45-.46.56-.85.63Z"/><path class="cls-2" d="M394.17,152.29l-.4.81-.31-.84Z"/><path class="cls-3" d="M459,159.73c-.4-.1-.84-.13-1-.6.57-.2,1-.08,1.1.55Z"/><path class="cls-3" d="M457.38,146.27c-.07.29.07.68-.33.82-.06,0-.28-.15-.29-.26-.08-.43.25-.53.57-.6Z"/><path class="cls-3" d="M424.37,187.17a1.29,1.29,0,0,1,.2.41c0,.29-.23.33-.43.27s-.17-.21-.26-.32Z"/><path class="cls-3" d="M409.66,188.34a.4.4,0,0,1-.28-.5c0-.13.21-.32.32-.31.29,0,.24.3.23.5S409.9,188.35,409.66,188.34Z"/><path class="cls-3" d="M443.34,165.07c.16.11.35.17.38.27.07.29-.16.37-.37.34s-.28-.18-.28-.28S443.23,165.2,443.34,165.07Z"/><path class="cls-3" d="M450.09,142a2.36,2.36,0,0,1,.3.6c.05.2-.13.27-.28.2a.62.62,0,0,1-.3-.34C449.79,142.33,449.94,142.2,450.09,142Z"/><path class="cls-3" d="M456,140.92l-.77.11c0-.1-.07-.25,0-.29.31-.27.59-.17.83.12Z"/><path class="cls-3" d="M445.28,165.11c-.06.48-.33.51-.67.27-.1-.06-.13-.24-.19-.36h.79Z"/><path class="cls-3" d="M456.3,152.35c-.22-.1-.55.09-.67-.25,0,0,.13-.15.22-.19.38-.19.47.07.53.36Z"/><path class="cls-3" d="M454.26,140.55l.28.32c-.09,0-.21.13-.27.1a2.41,2.41,0,0,1-.36-.29Z"/><path class="cls-3" d="M427.06,196.3c.05-.21.07-.46.35-.48.07,0,.2.13.19.19,0,.28-.26.3-.47.36Z"/><path class="cls-3" d="M463.55,140.69l-.15.4a2.3,2.3,0,0,1-.3-.33c0-.07.06-.2.1-.29Z"/><path class="cls-3" d="M408.14,190.19c0,.09-.06.24-.13.27s-.18-.07-.28-.11.07-.24.13-.27S408,190.15,408.14,190.19Z"/><path class="cls-3" d="M457,160.08c-.18-.08-.49,0-.4-.37a.17.17,0,0,1,.11-.11c.36-.09.29.22.37.4Z"/><path class="cls-3" d="M362.78,123.75l-.2.21a1.48,1.48,0,0,1-.13-.21s.07-.11.1-.11A1.2,1.2,0,0,1,362.78,123.75Z"/><path class="cls-3" d="M361.48,124.31a1.22,1.22,0,0,1,0-.27s.12-.08.13-.08a1.35,1.35,0,0,1,.14.22Z"/><path class="cls-2" d="M393.5,152.08l-1.06-.46Z"/><path class="cls-3" d="M459.8,137.35c-.09.05-.18.13-.26.13s-.17-.08-.26-.13c.09,0,.17-.13.26-.13S459.71,137.3,459.8,137.35Z"/><path class="cls-3" d="M409.25,190.73a1,1,0,0,1-.2-.15s0-.13.06-.13a1.32,1.32,0,0,1,.28,0C409.34,190.55,409.3,190.64,409.25,190.73Z"/><path class="cls-3" d="M416.43,198.52c-.09,0-.18.13-.26.13s-.17-.09-.25-.13c.08-.05.16-.13.25-.13S416.34,198.47,416.43,198.52Z"/><path class="cls-3" d="M392.92,130.28a.87.87,0,0,1-.28,0s-.07-.11-.06-.12a1.49,1.49,0,0,1,.2-.15C392.83,130.11,392.88,130.19,392.92,130.28Z"/><path class="cls-3" d="M412.67,195a.61.61,0,0,1-.68.24s-.06-.09-.09-.13l.72-.16Z"/><path class="cls-3" d="M458.35,141.9l-.54,0c0-.08,0-.21.08-.24.21-.14.37,0,.5.15Z"/><path class="cls-3" d="M412.62,195l.42-.43.14.2-.51.28Z"/><path class="cls-3" d="M435.13,188.92l.18-.72s.11.05.12.09a.58.58,0,0,1-.25.67Z"/><path class="cls-3" d="M453.52,149.37s-.12,0-.12,0a.39.39,0,0,1,.05-.14l.11,0A.23.23,0,0,1,453.52,149.37Z"/><path class="cls-3" d="M380,127.08l.36-.23s.06.07.09.11l-.41.18Z"/><path class="cls-2" d="M453.34,99.91l-.34.19,0-.13.41,0Z"/><path class="cls-3" d="M458.39,141.85l.41.18a.65.65,0,0,1-.09.11l-.36-.24Z"/><path class="cls-3" d="M462.64,140.26s-.11.05-.12,0,0-.09,0-.14.11,0,.12,0A.34.34,0,0,1,462.64,140.26Z"/><path class="cls-3" d="M445,175.34c-.05,0-.09.07-.14.06s-.08-.05-.12-.09Z"/><path class="cls-3" d="M445.16,176.51l-.09.12s-.07-.09-.07-.13.06-.08.09-.12Z"/><path class="cls-2" d="M464.17,138.59l.17.27C464.29,138.77,464.23,138.68,464.17,138.59Z"/><path class="cls-3" d="M459,142.87l.17-.12-.12.16Z"/><path class="cls-3" d="M464.44,142.21l.12.1-.17-.06Z"/><path class="cls-3" d="M392.49,129.1l.13.1-.17-.06Z"/><path class="cls-2" d="M454.67,56.2l-.34-.29Z"/><path class="cls-3" d="M435.18,189l-.1.13.05-.17Z"/><path class="cls-3" d="M459.07,159.68l.11.17-.16-.12Z"/><path class="cls-2" d="M463.37,138.61c.12-.5.32-.35.54-.07Z"/><path class="cls-2" d="M395.17,148.09a2,2,0,0,1-.23.1s-.07-.07-.11-.1a1.07,1.07,0,0,1,.22-.1S395.12,148.05,395.17,148.09Z"/><path class="cls-3" d="M457.33,146.23l.1-.13-.05.17Z"/><path class="cls-2" d="M398.35,149.2s-.08-.08-.08-.12.06-.07.09-.1.08.07.08.11S398.38,149.16,398.35,149.2Z"/><path class="cls-3" d="M416,199.67l.1-.13-.06.17Z"/><path class="cls-7" d="M291.07,270.18c-6.19.06-10.81-2.87-15.49-5.71-1.79-1.08-3.57-3.72-5.92-1.47s0,4.1,1.14,6a29.05,29.05,0,0,1,3.38,23.27c-.71,2.68-2,5.13-4.61,6.46-3.17,1.62-5.8.49-7.24-3.24-2.28-5.89-3.07-12.08-3.47-18.33-.13-2,.77-4.84-2.17-5.4-3.18-.61-3.33,2.48-4.1,4.46a50.84,50.84,0,0,1-8.19,14.07,19.87,19.87,0,0,1-3.75,3.46c-2.09,1.49-4.55,2.62-7,1.14s-2.78-4.33-2.55-7c.71-8.15,4.33-14.95,9.91-20.8,1.25-1.32,3.55-2.34,2-4.73-1.43-2.23-3.34-1.09-5.16-.44-6.91,2.49-15.17-.81-17.93-7.13-1.81-4.13-.75-5.83,3.66-6.52,5.78-.92,11.32.17,16.82,1.64,1.65.45,3.17.81,4.28-.81,1-1.43.34-2.76-.46-4.1-3.1-5.19-6.11-10.41-6-16.76a9.64,9.64,0,0,1,2-6c2.27-2.89,5-5.3,8.95-4.38s5.27,4.3,6.09,7.89c1.06,4.58.22,9.31,1.15,13.9.37,1.83.58,3.86,2.78,4.22s2.89-1.61,3.73-3.27a29.12,29.12,0,0,1,19.47-15.79,9,9,0,0,1,4.39-.14c2.32.56,3.5,1.82,2.81,4.45a58.61,58.61,0,0,1-8.77,18.35c-1,1.4-2.36,2.67-1.33,4.57s2.79,1.22,4.5,1.12c5.7-.3,10.76,1.79,15.13,5.2,3.13,2.45,2.29,7.25-1.4,9.93A10.71,10.71,0,0,1,291.07,270.18Z"/><path class="cls-4" d="M451.51,127.71c-.56-2.58-.35-5.25-.94-7.88a6.35,6.35,0,0,1,.93-4.2c.62-1.06,1.76-.93,2.66-1.14,1.32-.32,3.07,2.09,2.54,3.34a6.75,6.75,0,0,0-.94,2.49c0,.79,0,1.52,1.32,1A4.41,4.41,0,0,1,462,122a1.89,1.89,0,0,1,.26,2.81c-1.35,2-3.25,2.47-5.43,2.5C455.09,127.33,453.38,128,451.51,127.71Z"/><path class="cls-3" d="M463.75,137.2l-.09.13.06-.16Z"/><path class="cls-2" d="M291.4,180.88c-.06-.22-.06-.53-.2-.63a1.36,1.36,0,0,1-.37-2.24,2.21,2.21,0,0,1,2.72-.59,1.83,1.83,0,0,1-.91,3.53,11.13,11.13,0,0,0-1.16,0Z"/><path class="cls-2" d="M362.89,188.07a1.43,1.43,0,0,0,1.19,1.53c-1.5,1.17-3.19,1-4.9.71l0,0c0-.53,1.42-1.26-.35-1.64C360.37,189.16,361.55,188.13,362.89,188.07Z"/><path class="cls-3" d="M323.48,179.72c-.24-1.16-1.43-.63-2-1.21a.86.86,0,0,1-.18-.93c.14-.41.48-.28.82-.3,1.25-.08,1.59,1,2.13,1.71S323.88,179.46,323.48,179.72Z"/><path class="cls-3" d="M357.84,187.79c-.25-.52-1.09-1.23.36-1.2.64,0,.9-.62,1.54-.81.09.64.17,1.25.3,2.13-.64-.53-1.17-1.18-1.53-.13Z"/><path class="cls-2" d="M360.59,184a2.18,2.18,0,0,1,1.46,1.1c.19.36.64.72.63,1.18,0,.24-.45.19-.72.09-.58-.2-1.34-.36-1-1.19C361.17,184.65,360.67,184.45,360.59,184Z"/><path class="cls-5" d="M291.4,180.88l.08,0a2.93,2.93,0,0,0,1,2.32c-.63.48-1,.14-1.42-.13-.73-.49-.76-.5,0-1C291.49,181.74,291.19,181.24,291.4,180.88Z"/><path class="cls-5" d="M275.55,189.11a4.12,4.12,0,0,0,1.77-.12c.34-.12.81-.17,1,.26a.74.74,0,0,1-.08.61.91.91,0,0,1-1.17.36A10.27,10.27,0,0,1,275.55,189.11Z"/><path class="cls-3" d="M358.85,190.27l.31,0,0,0c.18.63.7.95,1.34,1.3-.54.52-1.16,1-1.65.55a1.42,1.42,0,0,1-.06-1.83Z"/><path class="cls-2" d="M348.93,187.49c-.89-.32-1-1-.74-1.51a.87.87,0,0,1,1.5-.26C348.36,185.77,348.76,186.69,348.93,187.49Z"/><path class="cls-3" d="M358.81,190.33c-1.12,0-2.08-.16-2-1.81l2,1.75Z"/><path class="cls-2" d="M357.84,187.79h.67c.08.43,0,.84-.53.69C357.76,188.42,357.32,188.13,357.84,187.79Z"/><path class="cls-3" d="M363.84,188.22l.19-.4s.12.08.11.09-.16.24-.24.36Z"/><path class="cls-3" d="M364.92,191.28l.12.16-.16-.12Z"/><path class="cls-2" d="M362.82,175.1c-.42.21-.24.63-.33,1-.38.45-.84.28-1.3.2-.22-.33.27-1.17-1-.7-.86.34-2.19-.55-2.1-2.07a.21.21,0,0,0,.09-.3h0a3.4,3.4,0,0,1,2.42-.78c.87.07,1.44,1.08,2.42.75C363,173.81,362.9,174.45,362.82,175.1Z"/><path class="cls-3" d="M362.82,175.1c.08-.65.15-1.29.23-1.94-1,.33-1.55-.68-2.42-.75a3.4,3.4,0,0,0-2.42.78c-1.29-1.76-1.2-2.49.43-3.26l-.1.06.08-.08-.12.53c-.07,1.38,1.07,1.13,1.82,1.28.41.08.8.65,1.39,0s-.81-.68-.24-1.17c.46.13,1.73-1.18,1.24.69,0,.06.23.18.36.27,1.22.92,2,1.85.23,3C363.12,174.61,363.14,175,362.82,175.1Z"/><path class="cls-2" d="M361.73,168.11c-.3.06-.82-.29-.77.39s.41.66.88.62c-.89,1-2.14.57-3.22.79l-.08.08.1-.06c.18-.72-.65-1.14-.53-1.88.74-.18,2,.85,2.17-.87C360.3,167,360.45,167,361.73,168.11Z"/><path class="cls-2" d="M349.61,167.09c-.45,1.8,1.11,1.31,1.91,1.63a.47.47,0,0,1,.36.39,6.08,6.08,0,0,1-.21.6c-.22.49.82.9.2,1.27s-.59-.38-.83-.71-.51,0-.68.19c-.44.58-.85.28-1.27,0a.61.61,0,0,0,0-.33,6.74,6.74,0,0,0-.2-3.59C349.32,166.48,349.41,166.85,349.61,167.09Z"/><path class="cls-2" d="M343.05,167.48c.51.85,1.09,0,1.63.05.17.65.71,1.33-.24,1.86-.61.35.63.86-.21,1.33a2.14,2.14,0,0,0-.82-1.92l.36-.13-.16-.23-.33.24a3,3,0,0,1-1.13.12c-.35-.1-1.06.22-1-.4s.49-.32.88-.17C342.63,168.46,342.28,167.16,343.05,167.48Z"/><path class="cls-3" d="M326.35,163.34c-.29,0-.84.53-.59-.32a1.46,1.46,0,0,0-.17-1l.05-.17-.1.13a14.05,14.05,0,0,1-1.43.32.62.62,0,0,1-.48-.35c-.09-.39.16-.42.49-.35s.71,0,.59-.29c-.17-.5-.4-1.22.15-1.16a3.32,3.32,0,0,1,2.05.81C326.26,161.68,326.89,162.65,326.35,163.34Z"/><path class="cls-3" d="M332.73,165.89c.7.74.66,2.25,2.11,1.33.26-.17.27.22.29.42s.27.54-.24.59-1.19.77-2,.25-.35-1.17-.55-1.74C332.3,166.55,332.56,166.25,332.73,165.89Z"/><path class="cls-2" d="M337.65,167.09c-.13-1,.36-1.46,1.36-1.39.39.61.15,1.68,1.43,1.7-.79.31-1.95-.43-2,1h0C338.74,167.6,337.49,167.78,337.65,167.09Z"/><path class="cls-3" d="M335.61,170.49c-.56-1-.38-.7.45-1.27a3,3,0,0,1,2.37-.84h0c0,.51,1,.26.72.85s-.78,0-1.06,0a4.13,4.13,0,0,0-2.38,1.14Z"/><path class="cls-2" d="M326.35,163.34c.54-.69-.09-1.66.56-2.33.26,1.09,1.68.91,2,2A6.57,6.57,0,0,0,326.35,163.34Z"/><path class="cls-2" d="M361.47,170.51c-.57.49.86.46.24,1.17s-1,.12-1.39,0c-.75-.15-1.89.1-1.82-1.28.49,1,1.6.72,2.4,1S361.2,170.8,361.47,170.51Z"/><path class="cls-2" d="M345.3,165.07c.69.81,1.95,0,2.61,1-.67,1-1.45.21-2.19.09S344.79,165.68,345.3,165.07Z"/><path class="cls-3" d="M335.61,164.79c-.66-.11-.7.85-1.34.82-.34-.55.42-.7.37-1.16-.09-.92.54-1.57,1.27-1.26s-.5.93-.22,1.52Z"/><path class="cls-3" d="M361.19,176.25c.46.08.92.25,1.3-.2,0,.49.17,1-.17,1.44s-.62.17-1,0C360.45,177.12,361.15,176.67,361.19,176.25Z"/><path class="cls-3" d="M357.53,167.46c.06,1.09-.75,1.6-1.4,2.3-.67-1.55.83-1.65,1.33-2.37Z"/><path class="cls-2" d="M362.52,168.44c-.3-.07-.74.21-.83-.34.21-.71.8-.89,1.43-1Z"/><path class="cls-2" d="M329.59,160.4a1.27,1.27,0,0,1,.33,0c.43.09.31-.82.87-.47.19.12.34.35.13.54a2.61,2.61,0,0,1-1.08.78c-.26.05-.27-.52-.22-.86Z"/><path class="cls-3" d="M347.76,170.48c-.57-.08-.74-.42-.62-.95a.41.41,0,0,1,.48-.34c.56.09.42.56.48.92l0,0-.22.24Z"/><path class="cls-2" d="M328.93,159.23l.67.43a.63.63,0,0,0,0,.74l0,0a.53.53,0,0,0-.72.08l-.31-.07c.37-.58-.25-.91-.35-1.36C328.42,159.21,328.58,159.52,328.93,159.23Z"/><path class="cls-3" d="M345.3,165.07c-.51.61-.27.92.42,1.07-.24.34-.63.26-1,.32l-.07-.07C345,166,344.15,165.08,345.3,165.07Z"/><path class="cls-3" d="M328.59,160.37l.31.07c-.21.31-.41.67-.87.44-.1,0-.14-.24-.2-.37Z"/><path class="cls-2" d="M364.91,178.5a.61.61,0,0,1-.76.72c-.39-.14.09-.54.05-.84Z"/><path class="cls-2" d="M365.27,177.52l-.39,1c.5-.44-.34-.89,0-1.33a.25.25,0,0,0,.28.09l0,.13Z"/><path class="cls-3" d="M335.68,170.41c.3.09.65.09.72.49,0,0-.12.16-.2.17-.42,0-.51-.27-.59-.58Z"/><path class="cls-3" d="M358.22,173.18a.21.21,0,0,1-.09.3c-.25-.09-.78.17-.69-.29S358,173.1,358.22,173.18Z"/><path class="cls-3" d="M357.46,167.39c.06-.2.08-.45.36-.47.06,0,.2.12.19.18,0,.29-.27.3-.48.36Z"/><path class="cls-2" d="M358.16,164.39l-.4.48c0-.06-.11-.14-.09-.18a.4.4,0,0,1,.52-.27Z"/><path class="cls-3" d="M343.84,178.57a1.45,1.45,0,0,1-.19.17s-.12-.05-.12-.08a1.37,1.37,0,0,1,.05-.28Z"/><path class="cls-3" d="M349,170.12a.61.61,0,0,1,0,.33l-1,0,0-.05a.82.82,0,0,0,0-.27l0,0Z"/><path class="cls-3" d="M365.18,177.31a.25.25,0,0,1-.28-.09l.16-.71C365.38,176.74,365.15,177,365.18,177.31Z"/><path class="cls-3" d="M352.5,167.72l.41.19s-.09.12-.1.11l-.36-.24Z"/><path class="cls-3" d="M336.62,162.76l-.41-.18a.65.65,0,0,1,.09-.11c.12.07.24.16.36.24Z"/><path class="cls-3" d="M327.16,159.76s-.11,0-.12,0a.39.39,0,0,1-.05-.14s.11-.05.12,0S327.14,159.71,327.16,159.76Z"/><path class="cls-3" d="M346.73,171.38l-.11-.1s.09-.07.13-.06.08.05.12.09Z"/><path class="cls-3" d="M347.33,172.19s-.11.05-.12,0a.29.29,0,0,1,0-.14s.11,0,.12,0A.58.58,0,0,1,347.33,172.19Z"/><path class="cls-3" d="M348.09,170.47c-.1.18-.22.21-.33,0l.08-.09.1,0h.11Z"/><path class="cls-2" d="M363.44,157.2c.3,1-.06,2.17-.92,2.34a3,3,0,0,1-3.18-2.69c0-.67,2.13-2.66,2.68-2.33C362.91,155.06,364,155.77,363.44,157.2Z"/><path class="cls-3" d="M353.12,152.32c-.1.59-.62,1.05-.71.85-.5-1-2.21.46-2.23-1.09,0-.56.21-1.69.93-1.47S352.51,151.76,353.12,152.32Z"/><path class="cls-3" d="M334.43,138a.5.5,0,0,1,.53.4c.14.37-.37,1.39.82.83.19-.1.14.4-.07.57s-.64.09-.43.5.57.92-.12,1a.91.91,0,0,1-1-1c.05-.38.09-.64-.34-.76s-.81-.25-.56-.61A4.93,4.93,0,0,1,334.43,138Z"/><path class="cls-3" d="M359.27,152.66c.11-.92.33-1.45,1-1.68.26-.09.5-.14.36-.56-.45-1.38-.43-1.39,1.31-1A4.5,4.5,0,0,1,359.27,152.66Z"/><path class="cls-3" d="M354.51,149.59c.44.47.22,1.37,1.28,1.51.68.08.13.82.06,1.26s-.16.78-.54.72c-.6-.09-.48-.65-.47-1.08l.42-.17-.09-.11c-.13.07-.25.15-.37.23-.37,0-1,.19-.67-.6a3,3,0,0,0,.32-1.7Z"/><path class="cls-2" d="M342,146.57c.79-.1.52.13.36.66s-1.09,1.35.28,1.65C340.84,148.75,340.79,148.54,342,146.57Z"/><path class="cls-3" d="M354.45,149.65h-1.78c.67-.35-.18-1.56.91-1.7.06.69.59,1.11.93,1.64Z"/><path class="cls-3" d="M349.45,149.39c.87,0,1.42-.5,2.11-.31C350.61,150.29,350.59,150.29,349.45,149.39Z"/><path class="cls-3" d="M340.71,145.75c.27.08.31.28.25.51s-.19.43-.44.39c-.07,0-.14-.28-.14-.43S340.41,145.76,340.71,145.75Z"/><path class="cls-3" d="M341,145.26a1.64,1.64,0,0,1-.31-.14c.06-.29.3-.19.47-.18s.16.11.24.16Z"/><path class="cls-3" d="M345.08,149.61c.08.12.16.24.23.36l-.12.09-.15-.42Z"/><path class="cls-3" d="M333.42,135.74l.12,0a.28.28,0,0,1,0,.15s-.12,0-.12-.05A1,1,0,0,1,333.42,135.74Z"/><path class="cls-2" d="M390.94,158.62c0-1,.16-1.75,1.43-1.12.1-.54-.37-.94,0-1.4.44.05.66,1.34,1.41.32.11-.15.54.26.28.5-.69.64-1.57,1.14-1.34,2.3h-1C391.74,158.67,391.65,158.23,390.94,158.62Z"/><path class="cls-3" d="M390.94,158.62c.71-.39.8,0,.81.61-.62,1.18-1.72,1.22-2.62,0A2.61,2.61,0,0,0,390.94,158.62Z"/><path class="cls-2" d="M399.65,153.68c0,1-1.07.85-1.6,1.28-.26.21-.59-.19-.44-.4.5-.66.63-2,2-1.29C399.62,153.4,399.64,153.54,399.65,153.68Z"/><path class="cls-2" d="M388.38,155.73c.69.31.93.66,0,1a7,7,0,0,1-1.68.33c.58-.44,1.44-.52,1.68-1.35Z"/><path class="cls-2" d="M387.3,155.09c-.42-.54-.85-.94-.79-1,.29-.45.54-.12.71.18A3.61,3.61,0,0,1,387.3,155.09Z"/><path class="cls-2" d="M404.86,152.42c-.13.13-.24.33-.32.31-.26,0-.25-.3-.23-.5s0-.37.27-.2A1.87,1.87,0,0,1,404.86,152.42Z"/><path class="cls-3" d="M408.83,151.08a1.52,1.52,0,0,1,.32.45c.06.26-.15.39-.39.4s-.31-.21-.3-.44S408.39,151,408.83,151.08Z"/><path class="cls-3" d="M398.27,151.92c-.24,0-.71.33-.6-.34.23-.1.46-.37.71-.07C398.43,151.58,398.31,151.78,398.27,151.92Z"/><path class="cls-3" d="M399.65,153.68c0-.14,0-.28,0-.41l.51-.35a2.76,2.76,0,0,1,.07.49C400.2,153.87,400,153.82,399.65,153.68Z"/><path class="cls-3" d="M400.87,151.65a.85.85,0,0,1-.81.4s-.08-.1-.07-.13c.17-.39.55-.24.85-.32Z"/><path class="cls-3" d="M407.76,151.16l-.36.21c0-.1-.14-.22-.1-.29a1.54,1.54,0,0,1,.29-.34Z"/><path class="cls-2" d="M385.7,154.59a.4.4,0,0,1-.51.34c-.09,0-.18-.25-.17-.37s.17-.41.43-.27S385.64,154.51,385.7,154.59Z"/><path class="cls-2" d="M386.58,152.85c0-.09-.11-.19-.09-.26a.3.3,0,0,1,.19-.19c.17,0,.29.07.14.25A1.21,1.21,0,0,1,386.58,152.85Z"/><path class="cls-2" d="M388.41,155.7l-.1-.12a1,1,0,0,1,.07.15Z"/><path class="cls-2" d="M67.7,183.23A5.38,5.38,0,1,1,73,188.6,5.39,5.39,0,0,1,67.7,183.23ZM73,180.54a2.69,2.69,0,1,0,2.75,2.58A2.71,2.71,0,0,0,73,180.54Z"/><path class="cls-2" d="M73.07,146.26A5.38,5.38,0,1,1,78.46,141,5.4,5.4,0,0,1,73.07,146.26Z"/><path class="cls-2" d="M78.46,226.31a5.38,5.38,0,1,1-5.23-5.44A5.4,5.4,0,0,1,78.46,226.31Z"/><path class="cls-2" d="M326.68,98.48c-.06,1-.06,2.11-1.44,2.18s-1.57-1.09-1.56-2.09.08-2.17,1.51-2.15C326.46,96.43,326.64,97.41,326.68,98.48Z"/><path class="cls-2" d="M205.18,98.55c0-1.09.17-2.18,1.53-2.14s1.5,1.15,1.49,2.21-.26,2-1.49,2C205.33,100.69,205.19,99.61,205.18,98.55Z"/><path class="cls-2" d="M155.44,98.57c-.07,1-.23,2.13-1.6,2.08s-1.44-1.17-1.43-2.22.21-2,1.47-2S155.39,97.48,155.44,98.57Z"/><path class="cls-2" d="M249.39,99.77a1.19,1.19,0,0,1-1.34,1.15c-.52,0-.92-.21-.81-.77.17-.83,1-.71,1.59-.9C249.22,99.12,249.44,99.35,249.39,99.77Z"/><path class="cls-2" d="M187.52,99.25c.54-.1.65.14.62.55-.06.85-.66,1.06-1.37,1.11-.42,0-.81-.08-.79-.59C186,99.28,187,99.54,187.52,99.25Z"/><path class="cls-2" d="M221.66,97.87c-.46-.22-1.28.38-1.37-.43s.59-1.15,1.32-1.19,1.38.4,1.35,1.14C222.93,98.31,222.08,97.61,221.66,97.87Z"/><path class="cls-2" d="M335,97.88c-.44-.25-1.29.41-1.29-.52,0-.76.68-1.12,1.41-1.1s1.29.36,1.25,1.06C336.27,98.32,335.38,97.59,335,97.88Z"/><path class="cls-2" d="M84.56,98.69c0,.87,0,2.08-1.53,2.06-1.33,0-1.5-1.13-1.48-2.18s.09-2.27,1.57-2.26S84.54,97.45,84.56,98.69Z"/><path class="cls-2" d="M130.9,98.47c-.12,1-.05,2.28-1.55,2.28-1.34,0-1.5-1.06-1.5-2.13s.05-2.28,1.5-2.3S130.78,97.44,130.9,98.47Z"/><path class="cls-2" d="M310.44,98.57c-.07,1-.12,2.15-1.48,2.17s-1.55-1.17-1.56-2.29.21-2.15,1.55-2.13S310.4,97.47,310.44,98.57Z"/><path class="cls-3" d="M347.09,148c-.24.3-.52.4-.84.12,0,0,0-.19,0-.29l.77.11Z"/><path class="cls-3" d="M362.56,191.94s.1.06.12.1c.2.43.73.7.63,1.23,0,.22-.32.23-.54.12-.75-.35,0-1-.25-1.41Z"/><path class="cls-3" d="M362.52,192l-.13-.1.17.06Z"/><path class="cls-4" d="M427.73,106.78c0-.82,0-1.65.15-2.47.08-.64.08-1.2-.57-1.5s-1.28-.75-1.88,0c-.76,1-.81-.72-1.66-.42a6.89,6.89,0,0,1-2.37,0,11.81,11.81,0,0,1-6.58-3,2.74,2.74,0,0,1-1-2.51c.24-2.32.8-4.6,1.24-6.9.06-.37.41-.5.61-.31,1.49,1.42,3.6,1.36,5.31,2.3,3.55,2,6.41,4.87,9.87,6.94a5.32,5.32,0,0,1,1.52,1.76c1.22,1.93,2.93,3.45,4,5.57a12.27,12.27,0,0,0,3.21,4.39c.29.22.73.43.49.92a1,1,0,0,1-.95.59,9.42,9.42,0,0,0-4.26,1.09c-4.11,1.63-6.77-1.83-7.16-5.88a2.94,2.94,0,0,1,.07-.65Z"/><path class="cls-4" d="M442,110.56c-1.3-2.43-.35-4.8-.2-7.23s1.18-4.88-.64-7.29a11,11,0,0,1-1.47-3.93c-.27-1.12-1.2-.88-1.68-1.51A15.52,15.52,0,0,0,429.57,85a10.29,10.29,0,0,0-7.22.59,20.41,20.41,0,0,1-6.19,1.72,41.21,41.21,0,0,1,3.76-2.47c2.74-1.41,5.38-3,8.52-3.57a10.88,10.88,0,0,1,5.65.4,4.28,4.28,0,0,0,1.79.39c1.91-.14,2.8,1.56,4.15,2.41a14.19,14.19,0,0,1,5.14,6.08,11.89,11.89,0,0,1,1.07,5.13,24,24,0,0,1-3.21,11A13.82,13.82,0,0,0,442,110.56Z"/><path class="cls-5" d="M438.64,96.76c-.6,1.69.16,3.38-.47,4.94-.2.5-.26,1.13-.95,1.2s-.92-.53-1.15-1a7.4,7.4,0,0,0-2.23-2.8c-.7-.53-.87-1.28,0-1.86s1.76-1.11,2.67-1.59C438,94.87,438.65,95.27,438.64,96.76Z"/><path class="cls-5" d="M430.82,89.77c-.16,1.35-.32,2.65-.47,4-.09.79-.48,1.19-1.2.68a14.77,14.77,0,0,0-4.29-2.24c-.42-.12-.93-.36-.93-.85s.63-.56,1-.72c1.49-.63,3-1.17,4.5-1.82C430.61,88.25,430.76,88.92,430.82,89.77Z"/><path class="cls-4" d="M421,83.89l-.12.2s-.11-.08-.1-.11a.78.78,0,0,1,.11-.2Z"/><path class="cls-6" d="M444.11,69.93c-1,0-1.06-.42-.73-1.27a9.62,9.62,0,0,1,3.94-4.53c2.05-1.31,3.88-3,6.22-3.88.57-.21,1.12-.48,1.67-.74s1.05.06,1.42.52a1.06,1.06,0,0,1,0,1.51,29.17,29.17,0,0,1-7,5.7c-1.27.7-2.52,1.44-3.75,2.18A3.23,3.23,0,0,1,444.11,69.93Z"/><path class="cls-6" d="M460.14,61.64c-.93,2.62-1.1,4.93-2.54,6.9-1.14,1.56-1.84,3.43-3.14,4.91-.86,1-1.69,2-2.59,2.9a1.24,1.24,0,0,1-1.39.29c-.59-.26-.19-.76-.19-1.17,0-1.59,1-2.81,1.74-4a52.89,52.89,0,0,1,5.08-6.93A19,19,0,0,1,460.14,61.64Z"/><path class="cls-4" d="M417.14,69.45c.07,1-1.19,1.33-1.89,1.26s-1.37-.61-2.16-.21c.46-1.38-1.64-1.42-1.42-2.77a3.36,3.36,0,0,1,2.95-2.34C416,65.36,417.18,67.11,417.14,69.45Z"/><path class="cls-3" d="M414.29,62.55c1.71-.69,3.28.2,4.91.44-.15,1.31.46,1,1.12.52.39-.28.81-.47,1.22-.16s.12.69,0,1.06.05.82-.1,1.15c-.35.72-.72,1.66-1.54,1.77s-1-.93-1.11-1.43C418.24,63.42,416.16,63.16,414.29,62.55Z"/><path class="cls-3" d="M408.56,71.14c.18-.63.35-1.27.52-1.9,1.27.29,1.09,2,2.32,2.36.2.06.17.42-.07.53s-.53.12-.59,0C410.21,71.38,409.18,71.69,408.56,71.14Z"/><path class="cls-3" d="M343.28,168.68l.33-.24.16.23-.36.13Z"/><path class="cls-3" d="M325.54,162l.1-.13-.05.17Z"/><path class="cls-3" d="M348.05,170.42h-.11l-.1,0,.22-.24A.82.82,0,0,1,348.05,170.42Z"/><path class="cls-3" d="M354.8,152c.12-.08.24-.16.37-.23l.09.11-.42.17Z"/><path class="cls-3" d="M73,180.54a2.69,2.69,0,1,1-2.62,2.7A2.72,2.72,0,0,1,73,180.54Z"/></svg>