<svg id="Слой_1" data-name="Слой 1" xmlns="http://www.w3.org/2000/svg" viewBox="0 0 514.94 358.18"><defs><style>.cls-1{fill:#00e6cd;}.cls-2{fill:#fec844;}.cls-3{fill:#252525;}.cls-4{fill:#fa7afd;}.cls-5{fill:#fefdfd;}.cls-6{fill:#141415;}.cls-7{fill:#f673f8;}.cls-8{fill:#fdd44e;}.cls-9{fill:#18a8fd;}.cls-10{fill:#fdf9ed;}.cls-11{fill:#fefefe;}</style></defs><path class="cls-1" d="M80.47,141.87a68,68,0,0,0-17.65-8.35,56.87,56.87,0,0,0-15.61-2.44,38,38,0,0,0-8,.8,35.5,35.5,0,0,0-6.69,2.1,21.67,21.67,0,0,0-5.11,3,14.73,14.73,0,0,0-3.24,3.51,13.07,13.07,0,0,0-2.27,6.82,24.79,24.79,0,0,0,.91,5q.9,3.52,7.49,7.72t18.51,7q11.91,2.73,30.08,2.72h1.48v44.39H46a42.15,42.15,0,0,1-15-3.57A39.48,39.48,0,0,1,17.58,201,49.18,49.18,0,0,1,8,184.72q-3.69-9.81-3.69-23.44a74.41,74.41,0,0,1,1.37-14,76.13,76.13,0,0,1,4-13.91,65.73,65.73,0,0,1,6.64-12.66,49.47,49.47,0,0,1,9.25-10.33,42,42,0,0,1,11.81-7,38.8,38.8,0,0,1,14.24-2.56H80.47Z"/><path class="cls-1" d="M86.15,100.77h44.27v21.68c.08.84.29,2.31.63,4.43a28,28,0,0,0,1.93,6.53,17.09,17.09,0,0,0,4.14,5.9,10,10,0,0,0,7.15,2.56q6.14,0,9.31-2.56a15.28,15.28,0,0,0,4.6-5.84,18.7,18.7,0,0,0,1.59-6.47c.11-2.12.17-3.64.17-4.55V100.77h22.82V120.3a35.8,35.8,0,0,1-4.15,17,36.61,36.61,0,0,1-11.63,13c-2.43,1.59-4.54,3-6.36,4.26s-3.48,2.37-5,3.35v56.19h-44V156.74q-1.93-1.25-4.15-2.73c-1.47-1-3.16-2.11-5.05-3.4a34.7,34.7,0,0,1-12-13.17,36.81,36.81,0,0,1-4.2-17.26Z"/><path class="cls-1" d="M188.66,100.77h22.25c4.55,0,8.23.76,11.07,2.27a21.53,21.53,0,0,1,7.33,6.53,51,51,0,0,1,5.56,10.33q2.49,6.07,5.9,13.68,3.63,8.4,7.55,11.75c2.61,2.23,4.9,3.24,6.87,3a5.2,5.2,0,0,0,4-2.67,11.47,11.47,0,0,0,1.53-6.19c0-.22,0-1-.05-2.21s-.06-2.8-.06-4.65,0-3.94-.06-6.25-.05-4.63-.05-7q-.12-4.2-.12-8.8v-9.82l106.83.11v21.91L283,122.68v91.5H266.77a14.1,14.1,0,0,1-8.57-2.89,32.07,32.07,0,0,1-7.21-7.66,70.61,70.61,0,0,1-6.07-10.85q-2.79-6.06-5.23-12.37T235,168.21q-2.22-5.91-4.32-10.45a35.13,35.13,0,0,0-4.2-7.15c-1.4-1.74-2.85-2.46-4.37-2.16-.83.15-1.34.78-1.53,1.88a14.54,14.54,0,0,0,0,4.08,41.28,41.28,0,0,0,1,5.34q.74,2.9,1.59,5.62c.57,1.81,1.12,3.48,1.65,5s.94,2.65,1.25,3.41c1.06,3,1.91,5.52,2.55,7.49s1.14,3.73,1.48,5.28a27.19,27.19,0,0,1,.62,4.48c.08,1.44.13,3.15.17,5.11s0,4.37,0,7.21,0,6.46.06,10.84H188.66Zm101.5,113.41V129.72h77.08v16c-1.21,0-2.91,0-5.11-.06s-4.54-.06-7-.06-5,.1-7.6.29a42,42,0,0,0-6.87,1,15.17,15.17,0,0,0-4.88,2,3.31,3.31,0,0,0-1.65,3.29,9.81,9.81,0,0,0,.68,2.89,6.22,6.22,0,0,0,1.87,2.5,10.87,10.87,0,0,0,3.58,1.82,21.52,21.52,0,0,0,5.79.85h7.38v10.67H352.2a6.42,6.42,0,0,1-1.19-.11,24.6,24.6,0,0,0-2.56-.12c-.95,0-1.91,0-2.89-.11a18.19,18.19,0,0,0-7.27.79,8.41,8.41,0,0,0-3.69,2.45,4.29,4.29,0,0,0-1,3,3.29,3.29,0,0,0,1,2.39,7.12,7.12,0,0,0,5,1.81h27.59v33.15Z"/><path class="cls-1" d="M372.92,214.18V100.77h88.55v21.68c-1.52-.07-3.49-.15-5.91-.22s-5-.12-7.83-.12c-3.48,0-7,.12-10.67.34a73.07,73.07,0,0,0-9.88,1.24A22.13,22.13,0,0,0,420,126.4a4.92,4.92,0,0,0-2.61,4.18V131a11.39,11.39,0,0,0,.91,3.9,8.81,8.81,0,0,0,2.55,3.32,13.28,13.28,0,0,0,4.83,2.37,29.78,29.78,0,0,0,7.72,1h9.65v14.42h-1.54a12.54,12.54,0,0,1-1.64-.12c-1,0-2.12,0-3.41-.05s-2.57-.1-3.86-.17a5.25,5.25,0,0,0-1.08-.12h-1.08q-6.81,0-10.16,2.5T417,163.66v50.52Z"/><path class="cls-1" d="M510.51,100.54V121.6a17.42,17.42,0,0,1-.11,2,30.47,30.47,0,0,1-.91,5.39,55.73,55.73,0,0,1-1.82,5.56q-1.12,3-2.78,7t-3.8,9.76a15.2,15.2,0,0,0-1,5.34,11.67,11.67,0,0,0,.45,3.4,47.78,47.78,0,0,0,2.61,8q1.59,3.71,3.18,7.33a72,72,0,0,1,2.78,7.43,33.18,33.18,0,0,1,1.42,8.35q.23,3.86.06,9.14t.05,13.9H467.26v-24.4a32.7,32.7,0,0,1,1.53-7.67q1.18-3.57,2.67-7l3-7a50.22,50.22,0,0,0,2.55-7.66,11.65,11.65,0,0,0,.46-3.4,15.22,15.22,0,0,0-1-5.34q-2-5.44-3.69-9.31c-1.09-2.57-2-4.86-2.83-6.87a55,55,0,0,1-1.88-5.45,27.79,27.79,0,0,1-.91-5V100.54Z"/><path class="cls-1" d="M6.41,220.64H64a34.73,34.73,0,0,1,15.42,3.18,30.44,30.44,0,0,1,10.64,8.44,32.49,32.49,0,0,1,5.69,11.38,45.06,45.06,0,0,1,1.65,11.74c0,.82-.08,2.57-.24,5.26a39.87,39.87,0,0,1-2.7,10.65,40.05,40.05,0,0,1-6.85,12,33.26,33.26,0,0,1-10.76,8.44,31.87,31.87,0,0,1-14.44,3.18,42.88,42.88,0,0,1-7.34-1.1,1.92,1.92,0,0,0-.79-.31,2.36,2.36,0,0,1-.68-.18V343H6.41Zm50.65,31.2a6.31,6.31,0,0,0-.12,1.22v1.22a18.61,18.61,0,0,0,1.83,8.81,11.83,11.83,0,0,0,2.51,3.06,5.27,5.27,0,0,0,3.61,1.35,5.84,5.84,0,0,0,3.67-1.23,11.16,11.16,0,0,0,4.16-5.81,30.43,30.43,0,0,0,1.47-7.16,5.94,5.94,0,0,0,.12-1.16V251a17.93,17.93,0,0,0-2-8.93,11.29,11.29,0,0,0-2.51-3.18,5.27,5.27,0,0,0-3.61-1.35,7.14,7.14,0,0,0-3.67,1.1,11.47,11.47,0,0,0-4.09,5.94A31.38,31.38,0,0,0,57.06,251.84Z"/><path class="cls-1" d="M150.89,220.88v27.9q0,11.13.06,19.76a108.15,108.15,0,0,0,.92,14.49q.85,5.88,3,8.93a7.18,7.18,0,0,0,6.3,3.06A6.58,6.58,0,0,0,167,291.6a27.73,27.73,0,0,0,3.3-8.57,68.15,68.15,0,0,0,1.53-10.95q.38-5.81.37-10.58V220.76h23.36v84.42a32.79,32.79,0,0,1-3.91,16.21,36.87,36.87,0,0,1-10.34,11.8,46.69,46.69,0,0,1-14.56,7.22A60.68,60.68,0,0,1,150,343H148a60.87,60.87,0,0,1-16.27-2.45,44.32,44.32,0,0,1-14.13-6.91,34.8,34.8,0,0,1-9.91-11.44,33.09,33.09,0,0,1-3.73-16V220.88Z"/><path class="cls-1" d="M201.42,343V321.42a33,33,0,0,1,3.36-14.7,65.57,65.57,0,0,1,8.44-13A135.45,135.45,0,0,1,224.17,282q5.88-5.58,11-10.84a73.61,73.61,0,0,0,8.44-10.35,18.36,18.36,0,0,0,3.37-10.23,4.3,4.3,0,0,0-1.84-3.67,13.57,13.57,0,0,0-5-2.09,42.66,42.66,0,0,0-7.34-.92c-2.78-.12-5.71-.18-8.81-.18l-6.55.06c-3.3.05-8.3.06-15,.06V220.76l83.06.12v21.78a5.24,5.24,0,0,1-.24.86,5.14,5.14,0,0,1-.37,1c-.16.32-.32.69-.49,1.1L261,274.47a10.06,10.06,0,0,0-.92,1,11.39,11.39,0,0,1-.92,1v.12a45.58,45.58,0,0,0-5.26,7.4,16.85,16.85,0,0,0-2.45,8.51,5.07,5.07,0,0,0,1.1,3.3,3.74,3.74,0,0,0,3.06,1.34,45.32,45.32,0,0,0,4.84-.36c2.08-.25,4.34-.49,6.79-.74l7.4-.73c2.48-.25,4.71-.37,6.66-.37,1.63,0,3.35,0,5.14.06s3.67.06,5.63.06V343Z"/><path class="cls-1" d="M298.43,343V321.42a32.83,32.83,0,0,1,3.37-14.7,65.12,65.12,0,0,1,8.44-13A132.4,132.4,0,0,1,321.19,282q5.87-5.58,10.95-10.84a74.32,74.32,0,0,0,8.44-10.35,18.42,18.42,0,0,0,3.36-10.23,4.32,4.32,0,0,0-1.83-3.67,13.7,13.7,0,0,0-5-2.09,42.53,42.53,0,0,0-7.34-.92q-4.15-.18-8.81-.18l-6.54.06c-3.31.05-8.3.06-15,.06V220.76l83.07.12v21.78a4.74,4.74,0,0,1-.25.86,5.08,5.08,0,0,1-.36,1,10.55,10.55,0,0,0-.49,1.1L358,274.47a11.39,11.39,0,0,0-.92,1,10.06,10.06,0,0,1-.92,1v.12a46.2,46.2,0,0,0-5.26,7.4,16.83,16.83,0,0,0-2.44,8.51,5,5,0,0,0,1.1,3.3,3.71,3.71,0,0,0,3.06,1.34,45.17,45.17,0,0,0,4.83-.36c2.08-.25,4.34-.49,6.79-.74l7.4-.73q3.74-.37,6.67-.37c1.63,0,3.34,0,5.14.06s3.67.06,5.62.06V343Z"/><path class="cls-1" d="M436.18,220.64v17.74q-.24,3.92-.42,7.71a18.26,18.26,0,0,1-2.63,8.07,99.61,99.61,0,0,0-6.37,13.58,106.63,106.63,0,0,0-4.46,14.68,86.16,86.16,0,0,0-2,14.13,41,41,0,0,0,.92,12,17.28,17.28,0,0,0,4.4,8.32A11.33,11.33,0,0,0,434,320a28.44,28.44,0,0,0,22.82-10.09,27.37,27.37,0,0,0,4.83-8.38,22.49,22.49,0,0,0,1.47-6.86h46V343H395.45V220.64ZM444,289.76V220.64H509.1v12.23q-2.21,0-6.36-.12a68.76,68.76,0,0,0-8.26.25,29.94,29.94,0,0,0-7.1,1.4c-2,.7-2.91,1.82-2.75,3.37a6.2,6.2,0,0,0,1.84,4.1q1.71,1.77,6.85,1.89H499v8.08h-1.84c-.57,0-1.21,0-1.9-.07s-1.4-.1-2.14-.18a14.34,14.34,0,0,0-5.44.61,5.73,5.73,0,0,0-2.69,1.84,3.22,3.22,0,0,0-.68,2.26,2.84,2.84,0,0,0,.74,1.78,5,5,0,0,0,3.79,1.46H509.1v30.22Z"/><path class="cls-2" d="M169.15,132.29c-1.31-2-1.72-3.76-.81-5.89h0a6.84,6.84,0,0,0,1-2.86,2.17,2.17,0,0,0-.36,0,2.17,2.17,0,0,1,.36,0,.37.37,0,0,0,.06-.21.55.55,0,0,0,.15-.57,9.93,9.93,0,0,0,.87-3.38.09.09,0,0,0,0-.14c-2.84-.09-3-.41-3.45-3.3a47.44,47.44,0,0,1,0-9.23c.06-1.14-.14-2.45.78-3.44-.55-1-.73-2.11-1.57-2.91h0a34.11,34.11,0,0,0-12.31-11.57,15.07,15.07,0,0,0-6.44-2.16,4.77,4.77,0,0,0,1,.45,4.77,4.77,0,0,1-1-.45.54.54,0,0,0-.22,0h0c-.17-.37-.52-.39-.86-.46a33.14,33.14,0,0,0-10.33-.19,1.85,1.85,0,0,0-1.48.65l0,0a.72.72,0,0,1-.42.29.72.72,0,0,0,.42-.29c-.43,0-.89-.06-1.24.3-.4,0-.83-.11-1.18.2h0a8,8,0,0,0-3,1.1,4.92,4.92,0,0,0-2.23.91,2.36,2.36,0,0,1-.09.59,2.36,2.36,0,0,0,.09-.59c-.91.5-2,.73-2.65,1.67l-1.48,1h0c-.17,0-.32,0-.29.27l0,0h0a6.7,6.7,0,0,0-3.11,2.6c-.35,0-.49.22-.52.54-.38.11-.65.29-.54.76-.55,0-.66.39-.76.8h0a.24.24,0,0,0-.27.26h0A3,3,0,0,0,116,98.57c-.68,1.05-.89,2.41-2.11,3.1h0a.55.55,0,0,1-.32.82c-.08.15-.43.28,0,.47,1.24.58,1.49,1.63,1.49,2.88,0,2.7.13,5.41,0,8.11,0,1.39.38,3-.5,4.16a2,2,0,0,0,0,2.55,7.15,7.15,0,0,0,1.59,2.94l0,0a3.89,3.89,0,0,0,2.15,2.31h0a1.05,1.05,0,0,0,.81.54,10.36,10.36,0,0,0,5.62,1.91,2.91,2.91,0,0,0,1-.21l5.35,2.39a2.34,2.34,0,0,1,1.38,1.09,2.34,2.34,0,0,0-1.38-1.09,4.16,4.16,0,0,1-4.77-.46,1.9,1.9,0,0,0-1.08-.35,18.76,18.76,0,0,1-5.49-1.32,8.7,8.7,0,0,1-3.57-2.48,18.86,18.86,0,0,1-2.87-6.19,2.4,2.4,0,0,0-.94-1.56A2,2,0,0,0,111,118c0,1.25.08,2.61.23,4,.1,1,.24,2,.39,2.86a9.55,9.55,0,0,0-1.87,1.78h0c-.56.14-.77.6-1,1.06a.18.18,0,0,0-.07.18l-.27.34v0l-.27.24a9.88,9.88,0,0,0-2.36,4.44.69.69,0,0,1,.21.13.69.69,0,0,0-.21-.13,4.87,4.87,0,0,0-.73,2h0a3.07,3.07,0,0,0,1.39,3,3.19,3.19,0,0,0,3.91-1.48c1.2-.65,2.38-1.34,3.6-1.93,2-.94,2.4-.83,3.88.68,0,.06.15.08.22.12l1.3,1.05-.24.22a14.56,14.56,0,0,0,6.19,4.78,6.7,6.7,0,0,0,3.15,1.8,3.76,3.76,0,0,0,2.14.74,6.3,6.3,0,0,0,2.48,1c5.54,1.8,11,.83,16.46-.47a23.13,23.13,0,0,0,11.16-6.49,1,1,0,0,1,1.51-.13,31.91,31.91,0,0,1,4.62,4.06h0c1.07,1.74,2.36,2.84,3.11,2.56.55-.2,1-1.13,1.43-2.83.07-.28.16-.54.25-.81l.07,0A14,14,0,0,0,169.15,132.29ZM116.3,98.48a1.92,1.92,0,0,0,.59-.3A1.92,1.92,0,0,1,116.3,98.48Zm1-1.48.27-.27h0Zm1-1.08a.53.53,0,0,0,.42-.11A.53.53,0,0,1,118.33,95.92Zm8.87,24.49ZM131.1,102Zm-25.39,32.5a.36.36,0,0,1,.05-.21A.36.36,0,0,0,105.71,134.45Zm27.1-40.88a.27.27,0,0,0-.3-.17A.27.27,0,0,1,132.81,93.57Zm-.31,36.79.09-.22h0Zm2.09-5.94c-1.28,0-1.91-.59-2-2a1.71,1.71,0,0,1,1.78-1.58,1.89,1.89,0,0,1,1.89,1.76A1.84,1.84,0,0,1,134.59,124.42Zm4.76,20.7a8.8,8.8,0,0,0,1.15-.13A8.8,8.8,0,0,1,139.35,145.12Zm2.42-.51-.41.14.41-.14Zm0,0c.15,0,.3-.17.45-.18C142.07,144.44,141.92,144.58,141.77,144.61Zm3.63-18.05c-.22,2.34-1.76,3.88-4.4,4.39-1.26.24-3.83-1.24-4.53-2.68a4,4,0,0,1-.37-2.15,1.36,1.36,0,0,1,1.51-1.3h3.23v0c1,0,2,0,3,0C145.18,124.85,145.52,125.26,145.4,126.56Zm2.4-2.08a2,2,0,0,1-2.18-1.73,1.9,1.9,0,0,1,1.74-1.86,1.61,1.61,0,0,1,1.89,1.62C149.28,123.51,148.57,124.48,147.8,124.48Zm3.08,14.4Zm10.75-36.6.1-.22h0Z"/><path class="cls-2" d="M170.73,110.64c-.5,14.26-13.38,28.61-30,28.61-16.39,0-29.76-14-30-28.61-.18-9.78,5.5-18.82,12.9-23.79A30.13,30.13,0,0,1,140.71,82c3.17,0,12.42,0,20.35,6.85C161.7,89.43,171.18,98,170.73,110.64Z"/><path class="cls-3" d="M175.31,107.45c-.46-1.94-1.14-3.65-3.52-3.88a1,1,0,0,1-.89-.94A21.17,21.17,0,0,0,169.14,97a25.44,25.44,0,0,0-15.69-14.37,29,29,0,0,0-7.22-1c-1.79-.14-3.6,0-5.39-.12a30.25,30.25,0,0,0-13.12,1.67A24.21,24.21,0,0,0,117.05,91a27.51,27.51,0,0,0-5,10.8,1.7,1.7,0,0,1-1.58,1.53c-2.86.66-4,1-3.86,3.83,0,.07-.08.14-.13.22,0,2.5.09,5,.13,7.51,0,.42,0,.84,0,1.26.07,1.38.25,1.92,1.1,2.26h6.68a3,3,0,0,1,.21-.33c.88-1.21.45-2.77.5-4.16.09-2.7,0-5.41,0-8.11,0-1.25-.25-2.3-1.49-2.88-.38-.19,0-.32,0-.47,0-.31-.1-.67.32-.82h0a5.37,5.37,0,0,1,.09-1.28,24.56,24.56,0,0,1,7.87-11.81A27.42,27.42,0,0,1,130.28,84c2.17-.73,4.44-.53,6.67-.69a78.65,78.65,0,0,1,11.07,0,22.62,22.62,0,0,1,7.44,2,24.49,24.49,0,0,1,10,8.5,22.92,22.92,0,0,1,3.23,8.38c.18.81-.36.94-.93,1.07-.92,1-.72,2.3-.78,3.44a47.44,47.44,0,0,0,0,9.23c.42,2.89.61,3.21,3.45,3.3,1-.14,1.93-.33,2.91-.42a1.44,1.44,0,0,0,1.48-1.17,10.47,10.47,0,0,0,.53-2.47Zm-65.79,8.1c0,.32-.14.48-.47.46s-.31-.35-.31-.58c0-1.47,0-2.93,0-4.4h0c0-1.43,0-2.85,0-4.28,0-.33,0-.8.39-.85s.44.44.46.75A50.87,50.87,0,0,1,109.52,115.55Zm63.32.83c-.69,0-.64-.81-.65-1.33,0-2.41,0-4.82.06-7.22a4.66,4.66,0,0,1,0-.65c.08-.44-.38-1.22.36-1.26.56,0,.55.84.57,1.28.09,1.42,0,2.85,0,4.27h.07c0,1.21,0,2.41,0,3.62C173.3,115.6,173.46,116.36,172.84,116.38Z"/><path class="cls-4" d="M175.37,115.18l-.06-7.73a1.78,1.78,0,0,1,1.9,1.93c.07,1.07.2,2.14.19,3.22C177.37,114.44,177.18,114.68,175.37,115.18Z"/><path class="cls-4" d="M106.43,107.41c0,2.5.09,5,.13,7.51-1.25.14-1.86-.4-2.08-1.68a15.9,15.9,0,0,1-.12-3.71A2,2,0,0,1,106.43,107.41Z"/><path class="cls-3" d="M140.84,124.8c1,0,2,0,3,0,1.35,0,1.69.46,1.57,1.76-.22,2.34-1.76,3.88-4.4,4.39-1.26.24-3.83-1.24-4.53-2.68a4,4,0,0,1-.37-2.15,1.36,1.36,0,0,1,1.51-1.3h3.23ZM141,130a3.33,3.33,0,0,0,2.7-1.52c.22-.3.6-.64.33-1a1.1,1.1,0,0,0-1.22-.54,4.2,4.2,0,0,0-2.61,1.5c-.23.34-.69.66-.47,1.13S140.54,129.88,141,130Z"/><path class="cls-3" d="M149.25,122.51c0,1-.68,2-1.45,2a2,2,0,0,1-2.18-1.73,1.9,1.9,0,0,1,1.74-1.86A1.61,1.61,0,0,1,149.25,122.51Z"/><path class="cls-3" d="M136.29,122.64a1.84,1.84,0,0,1-1.69,1.78c-1.29,0-1.92-.59-2-2a1.71,1.71,0,0,1,1.78-1.58A1.89,1.89,0,0,1,136.29,122.64Z"/><path class="cls-4" d="M173.3,111.47c0,1.21,0,2.41,0,3.62,0,.51.16,1.27-.46,1.29s-.64-.81-.65-1.33c0-2.41,0-4.82.06-7.22a4.66,4.66,0,0,1,0-.65c.08-.44-.38-1.22.36-1.26.56,0,.55.84.57,1.28.09,1.42,0,2.85,0,4.27Z"/><path class="cls-4" d="M108.74,111c0-1.43,0-2.85,0-4.28,0-.33,0-.8.39-.85s.44.44.46.75a50.87,50.87,0,0,1-.08,8.9c0,.32-.14.48-.47.46s-.31-.35-.31-.58c0-1.47,0-2.93,0-4.4Z"/><path class="cls-5" d="M113.91,101.67a.55.55,0,0,1-.32.82C113.6,102.18,113.49,101.82,113.91,101.67Z"/><path class="cls-4" d="M141,130c-.46-.07-1,.05-1.27-.46s.24-.79.47-1.13a4.2,4.2,0,0,1,2.61-1.5,1.1,1.1,0,0,1,1.22.54c.27.39-.11.73-.33,1A3.33,3.33,0,0,1,141,130Z"/><path class="cls-6" d="M224.43,159.73a9.4,9.4,0,0,1,5.3-1.4c-1.1,8.66,2,16.49,4.88,24.34a12.53,12.53,0,0,0,14.59,8.22,43,43,0,0,0,13.21-5.29,136.37,136.37,0,0,0,29.72-24.22c-.21,2.25.86,4.3.77,6.6-.29,6.63-.31,13.27-.31,19.91q0,30.65.07,61.29c0,5.7,0,11.41,0,17.11,0,12.37.61,24.75-.28,37.12-13.25-.1-26.5-.37-39.75-.25-9.42.09-18.86-.62-28.25.66a19,19,0,0,1-.21-2q0-30.6,0-61.21c0-10.36,0-20.71,0-31.07Q224.27,184.65,224.43,159.73Z"/><path class="cls-7" d="M292.13,161.38a136.37,136.37,0,0,1-29.72,24.22,43,43,0,0,1-13.21,5.29,12.53,12.53,0,0,1-14.59-8.22c-2.88-7.85-6-15.68-4.88-24.34,1.8-1.56,4.13-1.79,6.29-2.36a8.2,8.2,0,0,0,6.12-5.12c1.67.13,3.06-.73,4.53-1.3,7.17-2.74,13.18-7.32,19.32-11.79a34.45,34.45,0,0,0,10.81-12.65c.63-1.27,2-2.84-.32-4-2.11-1.11-2.58.51-3.41,1.81-3.94,6.13-8,11.92-14.8,15.58a116.9,116.9,0,0,1-14.89,6.23c-4.84-1.24-9.58-2.44-14-5.11a27.59,27.59,0,0,1-11.51-13.77c-3.49-8.32-4.47-17.13-5.63-25.92Q211,91,209.91,82.16c1.75-.51,3.61.5,5.37-.62,5-3.17,10.27-5.9,13.87-10.8a2.11,2.11,0,0,1,2.65-1c7.34,2,12.93-.7,17.18-6.73.56-.8.74-2.32,2.23-1.5,5,2.74,10.76,3.72,15.06,7.8A42.38,42.38,0,0,1,275.61,82c1.94,4.06,3.62,4.53,7.41,2.59a10.63,10.63,0,0,1,5-.85c4.73-.09,7.86,2.58,10.61,6,1.87,5.07,2.44,10-1.26,14.62-.86.53-1.9.9-2,2.15l-4,1.32c-1.82-1.16.57-5-1.93-4.64s-.41,3.74-1.3,5.59c-2.79.1-3.47,1.58-3.07,4.19a100.61,100.61,0,0,1,1.33,17.12c-.07,3.56,1.61,7.55,2.13,11.41.42,3.15,1.16,6.28,1.43,9.39.21,2.36,1,3,2.9,3.31C292.52,156.58,293.5,159.11,292.13,161.38ZM236,124.13c-1.4-.24-3.3-1-4,1-.57,1.64.79,2.92,2,4.07,3.07,3,6.56,4.27,10.88,3.17,4.72-1.21,7.81-4.35,10.31-8.24,1.15-1.79,2.5-3.92.76-5.84s-3.59,0-5.34.72C245.8,120.82,241.75,124.67,236,124.13Zm1.89-4.38c2.78.33,4.73-1.77,7-2.94a1.68,1.68,0,0,0,.64-2.44c-.73-1.22-1.78-.52-2.35,0a8.26,8.26,0,0,1-3.89,1.88c-3.58,1-6.07-1.22-5.23-4.65,1.54-6.31,3.12-12.62,5-18.83,2-6.4,7.43-7.7,12-3,.82.85,1.32,2.37,2.71,1.26s.37-2.45-.41-3.5c-4.26-5.7-13.07-4.63-16.21,1.81-3.47,7.12-4.1,15-6.37,22.46C229.48,116.37,233,119.83,237.91,119.75Zm-5.55-26.88c-1.23-4.79-3.33-6.12-6.86-5.38s-7.16,4.44-6.85,6.81c.06.45-.1,1.22.65,1.14a2.65,2.65,0,0,0,1.75-.76C223.86,90.77,227.14,88.89,232.36,92.87Zm-3.37,9c-.32-2.11-.7-4.71-3.39-4.93-2.42-.2-3.17,2-3.08,4.17.1,2.38.31,5.26,3.39,5.34C228.29,106.48,228.68,104,229,101.83Zm20.17-2.94c-.1-2.76-1.28-4.56-4-4.72-2.37-.14-2.81,1.72-2.6,3.56.27,2.41.08,5.54,3.7,5.45C248.92,103.12,249,100.73,249.16,98.89Zm38.12-3.26c1.06-1.78,1.88-3,2.51-4.28.47-.95.8-2.14-.48-2.74-1-.49-1.74.24-2.23,1.12-.91,1.62-1.57,3.46-2.77,4.82-2.71,3-1,3.82,1.87,4.25a13,13,0,0,0,2.76.29c1.25-.09,3,.1,3-1.79,0-1.67-1.52-1.48-2.7-1.53Z"/><path class="cls-6" d="M298.64,89.74c-2.75-3.38-5.88-6-10.61-6a10.63,10.63,0,0,0-5,.85c-3.79,1.94-5.47,1.47-7.41-2.59a42.38,42.38,0,0,0-9.34-12.7c-4.3-4.08-10.11-5.06-15.06-7.8-1.49-.82-1.67.7-2.23,1.5-4.25,6-9.84,8.72-17.18,6.73a2.11,2.11,0,0,0-2.65,1c-3.6,4.9-8.91,7.63-13.87,10.8-1.76,1.12-3.62.11-5.37.62-8.56-1-15.58-4.11-20.44-12-7.06-11.43-1.18-24.11,9.66-28.6,1.67-.69,1.93-1.13,2-2.87.55-9.09,4.82-15.26,14.76-12.06,2.83.91,3.1-1,3.67-2.77,1.36-4.33,2.82-8.62,6.24-11.86A14.41,14.41,0,0,1,238.72,8.1c7,1.28,13.72,3.43,18,9.86.89,1.34,1.53,1.82,3.4.9,8-3.94,14.09-2.11,18.67,5.46.8,1.31,1.63,1,2.66.93,6.74-.42,10.35,3,9.92,9.64-.09,1.36.17,1.79,1.37,2.24,7.79,2.95,10.53,8.51,8.37,16.58-.24.9-1.65,2,.57,2.75,4.89,1.6,6.92,6.15,4.66,11.11a4.94,4.94,0,0,0,.32,5.05c1.46,2.6,1.57,5.2-.74,7.25a13,13,0,0,0-4.4,7.38A3.34,3.34,0,0,1,298.64,89.74ZM266.73,38.33a9.08,9.08,0,0,0-4.61,1.25c-6.14,3.24-8.54,9-10.63,15.13-.68,2-.36,2.78,1.59,3.54a71.86,71.86,0,0,1,9,4.17A37.57,37.57,0,0,1,278,79.75c1.85,4,4,.61,5.87.45,2.35-.2,1.38-2,1-3.36-2.95-11-9.79-18.62-20-23.31-1.11-.51-2.57-.8-2-2.37s2.06-.94,3.06-.42a49.63,49.63,0,0,1,7.17,4.1c7.86,5.92,13.8,13.23,14.7,23.44C288,80.4,289,79.76,290,80c1.44.43,2.85.39,3-1.44.54-5.83,3-11.52,0-17.54-3.38-6.89-7.32-13.27-13.67-17.68A34.74,34.74,0,0,0,266.73,38.33Zm-53,8.44c1.87.67,1.59,2.31,2.31,3.33.83,1.18,2,1.27,2.41,0a4.87,4.87,0,0,0-1.27-4.79c-1-1.17-1.92-2.85-3.85-2.18-1.49.51-3.37,2.07-3.17,3.08.72,3.82-.42,5.06-4.27,5.27-2.21.12-3.41,2.41-3.24,4.82.24,3.2,2.55,4.34,5.24,5.17,1.56.48,3.68,1.2,4.19-.41s-1.92-1-2.92-1.6a13.54,13.54,0,0,0-1.45-.67c-1.33-.61-3.08-1.42-2.29-3s2.51-1.78,4-.4c.27.25.74.27,1.08.46,2.47,1.33,3.44.47,3.31-2.18C213.7,51.44,212.68,49.25,213.69,46.77Zm20.8-22.89c-1.27,1.57-2.94,3-1.21,4.63,1.46,1.39,3.15.54,4.36-.42,1.62-1.27,2.46-1.37,3.84.48,1.65,2.19,4.14,3.25,6.49.84s.32-4.91-.65-7.28c-.34-.83-1-1.52-1.82-1-2.39,1.59.36,2.93.37,4.43,0,.12.09.25.11.38.14.67.19,1.49-.53,1.68-.53.14-1.59-.13-1.75-.51-2.4-5.7-5.16-4.78-8.21-.57-.07.1-.45,0-.69-.05ZM233,21.34c-1-2.78,2.24-2.19,2.93-3.89C231.58,17.63,231.3,18,233,21.34Z"/><path class="cls-6" d="M75.08,199.59c-3.43-10.4-6.89-20.79-10.26-31.2-.95-2.95,1-4.77,3.11-6.2a13.33,13.33,0,0,1,7.23-1.88c12.09-.35,24.18-.55,36.26-1,6.65-.24,11,2.24,13.59,8.67,3.2,8.05,5.22,16.45,8,24.6,4.17,12,7.89,24.2,11.82,36.31a12,12,0,0,1,.77,5.51c-.15,1.13,1.65,3.33,2.46,5.17,2,4.62.56,8.35-4.21,10.12-5.19,1.94-10.54,1-15.81,1.32,1.43-2.05,4.45-1.69,5.81-3.86.48-.76,1.47-1.41,1.07-2.41-.47-1.21-1.6-.55-2.44-.48-9.35.74-18.69,1.55-28,2.26a49.38,49.38,0,0,1-14.27-.47c5.16-2.07,9.82-1.72,14.26-2.31,9.27-1.22,18.63-1.78,28-2.58,1.09-.09,2.13,0,2.16-1.58s-1.15-1.41-2.17-1.46c-8-.4-16-.7-24-1.26-6.67-.47-13.43-.27-20.73-2.19a21.2,21.2,0,0,1,6.67-.92c11.94-.62,23.85.64,35.78.48,1.09,0,3.5,1.41,3.15-1.17-.22-1.61.17-4.33-3.27-4.47-10-.4-19.91-1.06-29.85-1.87-5.27-.43-10.68-.41-16.72-2.66,4.45-1.17,7.91-.7,11.32-.51,10.74.62,21.47,1.41,32.22,2,1.07.06,2.61.57,3.25-.63.55-1-.7-1.86-1.22-2.76-2.19-3.79-6.33-3.83-9.8-4.57-6.88-1.46-13.9-2.23-20.86-3.31-4.88-.75-9.83-1.29-14.7-.51-3.3.53-4.21-.86-4.69-3.57C78.28,206.49,77.69,202.66,75.08,199.59Zm33.07-7a14.34,14.34,0,0,0-4.67-9.55c-4.11-3.84-8.88-3.63-12.47.63-3.19,3.78-3,8.12-1.55,12.45,1.76,5.43,7,9.05,11.72,8.33C105.15,203.87,108.1,199.49,108.15,192.63Z"/><path class="cls-7" d="M75.08,199.59c2.61,3.07,3.2,6.9,3.87,10.67.48,2.71,1.39,4.1,4.69,3.57,4.87-.78,9.82-.24,14.7.51,7,1.08,14,1.85,20.86,3.31,3.47.74,7.61.78,9.8,4.57.52.9,1.77,1.73,1.22,2.76-.64,1.2-2.18.69-3.25.63-10.75-.63-21.48-1.42-32.22-2-3.41-.19-6.87-.66-11.32.51,6,2.25,11.45,2.23,16.72,2.66,9.94.81,19.89,1.47,29.85,1.87,3.44.14,3.05,2.86,3.27,4.47.35,2.58-2.06,1.16-3.15,1.17-11.93.16-23.84-1.1-35.78-.48a21.2,21.2,0,0,0-6.67.92c7.3,1.92,14.06,1.72,20.73,2.19,8,.56,16,.86,24,1.26,1,.05,2.19-.29,2.17,1.46s-1.07,1.49-2.16,1.58c-9.33.8-18.69,1.36-28,2.58-4.44.59-9.1.24-14.26,2.31a49.38,49.38,0,0,0,14.27.47c9.35-.71,18.69-1.52,28-2.26.84-.07,2-.73,2.44.48.4,1-.59,1.65-1.07,2.41-1.36,2.17-4.38,1.81-5.81,3.86l-3.12,1.1-2.53,1c-4.12,1-8.21,2.42-12.39,2.77-10.26.86-20.62,2.16-30.64-1.75a5.2,5.2,0,0,0-3-2.35c-5.91-7.08-7.62-15.79-9.68-24.41a49.77,49.77,0,0,1-1-13.81C66,207.06,70.55,203.32,75.08,199.59Z"/><path class="cls-7" d="M308.65,349.91c-1.32.07-2.63.17-3.94.21-5.91.18-6.06,0-6.9-5.85.52-1.22,1-2.43,1.57-3.65,6.34-8.36,14.61-14.78,22.14-21.95a24.45,24.45,0,0,1,17-7.22,18.46,18.46,0,0,0,7.06-.44c1.68,1.12,3.62.77,5.42.77,13,0,23.63,14.35,23.09,26.28-.15,3.39-1.81,6-2.91,9-.74.69-1.69,1.19-2,2.27-1.82,1-3.83.88-5.82.87L339.12,350c.07-.51.39-1.31.17-1.5-3.47-3-1.32-5.72.4-8.5,2.8-4.53,7.14-8,9.49-13a3.9,3.9,0,0,0-3.1.94,52.85,52.85,0,0,0-10.49,12.72c-1.69,2.8-3.23,6.32.27,9.31A74.51,74.51,0,0,1,322,350c1.13-3.06,1.28-6.43,3.44-9.18a78,78,0,0,1,7.82-8.44c2.37-2.24,5.4-4,6.56-7.66-6.89,2.67-17.23,12.69-19.56,18.87-.82,2.18-1.18,4.4.64,6.36a45.44,45.44,0,0,1-10.49,0c2.65-12,12.61-18.46,21-26.09-1.05-.84-1.55-.63-2-.39a44,44,0,0,0-20.79,21.5A5.86,5.86,0,0,0,308.65,349.91Zm44.78-6.09a5.31,5.31,0,0,0-4.32-4.71c-.87-.21-2-.25-2.43.77-.59,1.27.62,1.53,1.37,1.91,2.14,1.09,3.25,2.42,1.08,4.48-.91.87-1.33,1.69-.12,2.56a2,2,0,0,0,2.81-.46A5.65,5.65,0,0,0,353.43,343.82Z"/><path class="cls-8" d="M369.19,349.29c.3-1.08,1.25-1.58,2-2.27,17.39-.48,34.77-.82,52.15-1.5,9.38-.37,16.48-5,20.57-13.46,6.68-13.76,1.7-26.5-5-38.39a164.78,164.78,0,0,0-21.78-30.92c-.15-.77-.06-1.72-.48-2.28-4.5-6-9.36-11.64-13.55-17.79-4.92-7.23-11.11-13.37-16.52-20.18-9.79-12.31-19.57-24.65-31.52-35.07s-25-18.82-39.87-24.37a155,155,0,0,0-16-4.7c-1.34-.35-3.78-1.23-3.65,1.88.23,5.44-.43,10.89.36,16.32-.1,7.68-.26,15.36-.29,23-.06,17.18-.06,34.36-.09,51.54l-.54.22.53.26.26,1c-1.14.45-1.12.9,0,1.37l.16,5.68a48.31,48.31,0,0,0-.59,6.54c.22,5.42.53,10.79-.19,16.23-.29,2.19-2.41,4.62-.65,6.6s.94,3.82.72,5.49a28.24,28.24,0,0,0,.07,5c.17,4.1,1.66,8.47-1.37,12.24-3-2.35-.58-5.65-1.46-8.37.89-12.37.24-24.75.28-37.12,0-5.7,0-11.41,0-17.11q0-30.65-.07-61.29c0-6.64,0-13.28.31-19.91.09-2.3-1-4.35-.77-6.6,1.37-2.27.39-4.8.78-7.18,7.56.23,14.55,3,21.58,5.29,15.4,4.91,28.81,13.54,41.08,23.89,10.51,8.85,19,19.66,27.87,30.07,5.45,6.4,10.78,12.93,15.89,19.61,7.63,10,15.32,19.91,22.81,30,5.35,7.22,10.59,14.54,15.47,22,6.75,10.36,12.66,21.34,12.75,34.28.11,14.83-13.19,30.65-28.32,30.08s-30.23.38-45.35.67A19.82,19.82,0,0,1,369.19,349.29Z"/><path class="cls-6" d="M299.38,340.62c-.53,1.22-1.05,2.43-1.57,3.65-16.85,0-33.71-.07-50.57,0-16.54,0-33.08.47-49.64.12-11.52-.25-23.06.39-34.59.55q-9.67.15-19.37-.06c-9-.2-18,.28-27,.42-6.25.09-12.5.07-18.75.17-1.65,0-3.1-.16-4.33-2,5.73-2.53,11.6-.62,17.16-1.59a7,7,0,0,0,4.57.06c13.27.09,26.53.28,39.79.24,6.85,0,13.69-.46,20.54-.71.7.68,1.38.44,2.06,0l8.09.09a2.4,2.4,0,0,0,2.39-.09c8,.09,16,.29,24-.31.63,1.52,1.43,1.59,2.4.29l6.4-.34c2,1,2.66,0,2.79-1.81.18-2.63.29-5.27.44-7.9,7.22,1.4,14.5.57,21.76.51,15.62-.15,31.24-.38,46.86-.57.05,2.38.1,4.76.13,7.14,0,1.56.39,2.69,2.33,2Z"/><path class="cls-8" d="M224.24,331.34c-.15,2.63-.26,5.27-.44,7.9-.13,1.78-.84,2.79-2.79,1.81,1-7.54.12-15.11.14-22.65.07-24.08-.15-48.16-.17-72.24q0-39.15.14-78.29c0-2.42-.49-2.88-3-2.05a64.26,64.26,0,0,0-30.24,21.35c-4.46,5.57-8.63,11.57-11,18.37-10,28.46-19.68,57-29.66,85.46-.85,2.42-1.15,4.2.76,6,.71,3.66,3.82,6.43,3.76,10.4,0,1.12.27,2.31-1,2.62s-1.3-1-1.7-1.8c-2.57-4.93-4.12-10.32-7.09-15-2.79-3.79-3.45-8.51-5.64-12.6-4.84-9-9.26-18.27-13.86-27.43l2.53-1c6.9,12.09,13,24.59,19.58,38l3.33-9.88c8.35-24.62,16.06-49.49,25.24-73.79,7.83-20.73,21.95-36.2,43.59-43.63,2.63-.9,4.89-2.7,7.72-3.1q-.13,24.92-.24,49.83c0,10.36,0,20.71,0,31.07q0,30.6,0,61.21a19,19,0,0,0,.21,2Z"/><path class="cls-8" d="M115.33,341.93a7,7,0,0,1-4.57-.06c-5.87-8.35-11.55-16.82-16.06-26-8.52-17.35-15.53-35.21-18.25-54.5a35.1,35.1,0,0,1-.07-9.55,5.2,5.2,0,0,1,3,2.35,58.24,58.24,0,0,0,.22,6.35c2.84,19.46,10,37.47,18.74,54.93,2.31,4.27,4.35,8.68,7.21,12.65C108.88,332.66,112.08,337.31,115.33,341.93Z"/><path class="cls-6" d="M243.38,144.69a116.9,116.9,0,0,0,14.89-6.23c6.76-3.66,10.86-9.45,14.8-15.58.83-1.3,1.3-2.92,3.41-1.81,2.3,1.2.95,2.77.32,4A34.45,34.45,0,0,1,266,137.76c-6.14,4.47-12.15,9.05-19.32,11.79-1.47.57-2.86,1.43-4.53,1.3C242.55,148.79,243,146.74,243.38,144.69Z"/><path class="cls-8" d="M295.39,106.51c.09-1.25,1.13-1.62,2-2.15,5.19,3.81,7.47,11.87,5.6,17.86-.8,2.55-1.19,5.09-3.06,7.19-3.49,3.94-7.18,3.48-9.23-1.37-2.29-5.4-2.25-11.16-2.38-16.88,0-.79-.08-1.59-.12-2.38.89-1.85-1.07-5.25,1.3-5.59s.11,3.48,1.93,4.64c.15,5.81,0,11.66,1.74,17.3.42,1.38.87,3.1,2.5,3.3s2.35-1.41,3.08-2.66C302.61,119.18,301.35,112,295.39,106.51Z"/><path class="cls-6" d="M308.65,349.91a5.86,5.86,0,0,1-.09-5,44,44,0,0,1,20.79-21.5c.48-.24,1-.45,2,.39-8.35,7.63-18.31,14.06-21,26.09Z"/><path class="cls-6" d="M320.91,349.9c-1.82-2-1.46-4.18-.64-6.36,2.33-6.18,12.67-16.2,19.56-18.87-1.16,3.66-4.19,5.42-6.56,7.66a78,78,0,0,0-7.82,8.44c-2.16,2.75-2.31,6.12-3.44,9.18Z"/><path class="cls-6" d="M335.86,350c-3.5-3-2-6.51-.27-9.31A52.85,52.85,0,0,1,346.08,328a3.9,3.9,0,0,1,3.1-.94c-2.35,5-6.69,8.47-9.49,13-1.72,2.78-3.87,5.46-.4,8.5.22.19-.1,1-.17,1.5A4.28,4.28,0,0,1,335.86,350Z"/><path class="cls-9" d="M142.07,171a2.5,2.5,0,0,1-1.82-2c-.5-2,2.55-7.33,4.6-7.7s3,1.12,2.42,2.55a42.78,42.78,0,0,1-4.23,6.67C142.86,170.78,142.36,170.85,142.07,171Z"/><path class="cls-9" d="M153.7,185.32c-1-.08-1.77-.1-2.55-.23s-2-.05-2.11-1.3a2.06,2.06,0,0,1,1.71-2.34c2.32-.43,4.68-.66,7-.89a1.42,1.42,0,0,1,1.5,1.06,2.42,2.42,0,0,1-.91,2.46C157.05,185.5,155.15,184.91,153.7,185.32Z"/><path class="cls-9" d="M147.47,177.33c-1.33,0-2.32,0-2.77-1s.29-1.68,1.09-2.21c1.87-1.22,3.7-2.51,5.62-3.65a1.76,1.76,0,0,1,2.47.45,1.67,1.67,0,0,1,0,2.2C152,175.11,150,177,147.47,177.33Z"/><path class="cls-7" d="M224.24,331.34l.18-27.52c9.39-1.28,18.83-.57,28.25-.66,13.25-.12,26.5.15,39.75.25.88,2.72-1.58,6,1.46,8.37l0,0a3.59,3.59,0,0,0-1.24,3c.29,5.5.21,11,.26,16.54-15.62.2-31.24.43-46.86.58C238.74,331.91,231.46,332.74,224.24,331.34Z"/><path class="cls-6" d="M236,124.13c5.73.54,9.78-3.31,14.56-5.11,1.75-.67,3.56-2.69,5.34-.72s.39,4-.76,5.84c-2.5,3.89-5.59,7-10.31,8.24-4.32,1.1-7.81-.15-10.88-3.17-1.17-1.15-2.53-2.43-2-4.07C232.72,123.12,234.62,123.89,236,124.13Z"/><path class="cls-6" d="M237.91,119.75c-4.91.08-8.43-3.38-7-7.93,2.27-7.44,2.9-15.34,6.37-22.46,3.14-6.44,12-7.51,16.21-1.81.78,1,1.84,2.36.41,3.5s-1.89-.41-2.71-1.26c-4.57-4.67-10-3.37-12,3-1.91,6.21-3.49,12.52-5,18.83-.84,3.43,1.65,5.64,5.23,4.65a8.26,8.26,0,0,0,3.89-1.88c.57-.57,1.62-1.27,2.35,0a1.68,1.68,0,0,1-.64,2.44C242.64,118,240.69,120.08,237.91,119.75Z"/><path class="cls-10" d="M295.39,106.51c6,5.45,7.22,12.67,3.35,19.26-.73,1.25-1.44,2.86-3.08,2.66s-2.08-1.92-2.5-3.3c-1.73-5.64-1.59-11.49-1.74-17.3Z"/><path class="cls-6" d="M232.36,92.87c-5.22-4-8.5-2.1-11.31,1.81a2.65,2.65,0,0,1-1.75.76c-.75.08-.59-.69-.65-1.14-.31-2.37,3.46-6.1,6.85-6.81S231.13,88.08,232.36,92.87Z"/><path class="cls-6" d="M229,101.83c-.31,2.2-.7,4.65-3.08,4.58-3.08-.08-3.29-3-3.39-5.34-.09-2.12.66-4.37,3.08-4.17C228.29,97.12,228.67,99.72,229,101.83Z"/><path class="cls-6" d="M249.16,98.89c-.18,1.84-.24,4.23-2.87,4.29-3.62.09-3.43-3-3.7-5.45-.21-1.84.23-3.7,2.6-3.56C247.88,94.33,249.06,96.13,249.16,98.89Z"/><path class="cls-6" d="M287.28,95.63l2,.14c1.18,0,2.7-.14,2.7,1.53,0,1.89-1.75,1.7-3,1.79a13,13,0,0,1-2.76-.29c-2.83-.43-4.58-1.2-1.87-4.25,1.2-1.36,1.86-3.2,2.77-4.82.49-.88,1.19-1.61,2.23-1.12,1.28.6.95,1.79.48,2.74C289.16,92.64,288.34,93.85,287.28,95.63Z"/><path class="cls-9" d="M266.73,38.33a34.74,34.74,0,0,1,12.63,5.05c6.35,4.41,10.29,10.79,13.67,17.68,3,6,.5,11.71,0,17.54-.17,1.83-1.58,1.87-3,1.44-.94-.28-2,.36-2.2-1.76-.9-10.21-6.84-17.52-14.7-23.44a49.63,49.63,0,0,0-7.17-4.1c-1-.52-2.46-1.21-3.06.42s.88,1.86,2,2.37c10.25,4.69,17.09,12.34,20,23.31.35,1.31,1.32,3.16-1,3.36-1.9.16-4,3.5-5.87-.45a37.57,37.57,0,0,0-15.9-17.33,71.86,71.86,0,0,0-9-4.17c-2-.76-2.27-1.56-1.59-3.54,2.09-6.1,4.49-11.89,10.63-15.13A9.08,9.08,0,0,1,266.73,38.33Z"/><path class="cls-7" d="M213.69,46.77c-1,2.48,0,4.67.11,6.88.13,2.65-.84,3.51-3.31,2.18-.34-.19-.81-.21-1.08-.46-1.52-1.38-3.31-1-4,.4s1,2.4,2.29,3a13.54,13.54,0,0,1,1.45.67c1,.6,3.46-.09,2.92,1.6s-2.63.89-4.19.41c-2.69-.83-5-2-5.24-5.17-.17-2.41,1-4.7,3.24-4.82,3.85-.21,5-1.45,4.27-5.27-.2-1,1.68-2.57,3.17-3.08,1.93-.67,2.83,1,3.85,2.18a4.87,4.87,0,0,1,1.27,4.79c-.45,1.28-1.58,1.19-2.41,0C215.28,49.08,215.56,47.44,213.69,46.77Z"/><path class="cls-7" d="M234.49,23.88l.31,2.61c.24,0,.62.15.69.05,3-4.21,5.81-5.13,8.21.57.16.38,1.22.65,1.75.51.72-.19.67-1,.53-1.68,0-.13-.1-.26-.11-.38,0-1.5-2.76-2.84-.37-4.43.77-.52,1.48.17,1.82,1,1,2.37,3.12,4.76.65,7.28s-4.84,1.35-6.49-.84c-1.38-1.85-2.22-1.75-3.84-.48-1.21,1-2.9,1.81-4.36.42C231.55,26.87,233.22,25.45,234.49,23.88Z"/><path class="cls-7" d="M233,21.34c-1.67-3.37-1.39-3.71,2.93-3.89C235.21,19.15,232,18.56,233,21.34Z"/><path class="cls-9" d="M108.15,192.63c-.05,6.86-3,11.24-7,11.86-4.69.72-10-2.9-11.72-8.33-1.41-4.33-1.64-8.67,1.55-12.45,3.59-4.26,8.36-4.47,12.47-.63A14.34,14.34,0,0,1,108.15,192.63Zm-16.46-2.09c.07,4.17,1.4,7.77,5.18,10.06,2.86,1.74,5.45,1,7-1.89,2.13-3.92,1.44-7.66-.78-11.29-1.68-2.75-4.13-4.45-7.31-3.48C92.9,184.84,91.53,187.33,91.69,190.54Z"/><path class="cls-11" d="M98.37,315.43C89.62,298,82.47,280,79.63,260.5a58.24,58.24,0,0,1-.22-6.35c10,3.91,20.38,2.61,30.64,1.75,4.18-.35,8.27-1.81,12.39-2.77,4.6,9.16,9,18.4,13.86,27.43,2.19,4.09,2.85,8.81,5.64,12.6-.74,1.15-1.48.88-2.2,0-1.65-2-4.13-1.1-5.54-.51s.54,2.42.85,3.75c0,.18-.22.43-.41.78-2-1.18-4-2.43-6-3.5-2.75-1.46-5.32-4.17-8.9-3.46-2.36.47-4.31.61-5.87-1.74a2,2,0,0,0-3.15-.09c-1.29,2.19-3.57,1.65-4.86,1.36-2.44-.53-2.56,1.35-3.48,2.32-1.15,1.22.08,2.09.76,3.05s2.55,1.54,1.09,2.73c-1.1.9-1.63-.84-2.31-1.54-1.11-1.15-2.42-2-3.79-.72a2.29,2.29,0,0,0,0,3.77c.7.64,2,1.83.09,2.8-2.5,1.25-1.48,2.94-.61,4.65A10.65,10.65,0,0,1,98.37,315.43Zm2.54-25.72c-.31-.85-.32-2.31-1.59-2.24s-1.37,1.45-1.47,2.47.38,1.78,1.58,1.74S101,290.86,100.91,289.71Zm31,.25c-.22-.09-.49-.31-.65-.25s-.21.41-.3.63c.22.1.49.32.65.25S131.8,290.19,131.89,290Z"/><path class="cls-10" d="M299.38,340.62l-4.05-.23q.1-12.93.2-25.86c0-1.28.47-2.83-1.69-2.79l0,0c3-3.77,1.54-8.14,1.37-12.24a28.24,28.24,0,0,1-.07-5c.22-1.67,1-3.6-.72-5.49s.36-4.41.65-6.6c.72-5.44.41-10.81.19-16.23a48.31,48.31,0,0,1,.59-6.54c2.51-2.11,6.72,0,8.71-3.52.06-.1.73.05,1,.21,3.49,1.75,7.08,3.38,9.87,6.24.63.64,1.87,1.62,1.13,2.26-3.29,2.83-1.3,3.53,1.42,4.23a2,2,0,0,1,1.39,2.19c0,1,.26,1.93,1.48,2,3.05.08,2.52,1.73,2,3.8-.31,1.19-2.17,3.15-.22,3.69,1.65.46,2-2,2.33-3.5.13-.63.21-1.27.35-2.14,2.92,1.36,4.92,2,4.25-2.59-.34-2.29.66-4.89.91-7.31.23-2.11,1.9-4.18,2.24-7.12.36-3.13-.62-4.69-1.92-6.75-1.43-2.24-2.87-3.32-4.45-.12-.7,1.42-2.21,1.62-3.42,1.71-1.64.12-.83-1.59-1.24-2.43-.6-1.23-1.78-2.21-.4-3.82.72-.85-.37-1.36-1.22-1.32-1.15,0-2.28.26-4.09.49,1.84-1.9,3.61-2.88,4.58-4.86a17.18,17.18,0,0,0,2.07-8.18c0-4.22,4.86-6.11,7.73-8.85,2.18-2.08,4.56-4.44,8.46-2.92a3.14,3.14,0,0,0,4-2.73c.12-.88.63-1.8,1.46-1.48,2.07.79,3.36,3.1,6.07,2.92.49,0,0,1.89-.3,2.9s0,1.65,1.05,1.74a4.6,4.6,0,0,0,1.49-.35c-1.36-1.69,2.31-3.33-.46-5.73-2-1.69-6-3.41-4.46-8.06.5-1.5-.79-5.36-2.47-5.61-3-.45-3.5-2.91-5.1-4.37s-2.11-4.42-5.34-3.39c-.33.1-1-.41-1.3-.81-3-4.66-8-3.89-12.42-4.47-3-.4-6.12.09-8.35-3.19a9.15,9.15,0,0,0-5.84-3.66c-3.26-.31-3-3.6-5.07-4.55-3.66-1.66-1.27-4.2-1.08-6.43,0-.45,0-.76-.59-.86-1.76.75-1.73,3.72-4.26,3.61-.79-5.43-.13-10.88-.36-16.32-.13-3.11,2.31-2.23,3.65-1.88a155,155,0,0,1,16,4.7c14.83,5.55,27.93,14,39.87,24.37s21.73,22.76,31.52,35.07c5.41,6.81,11.6,12.95,16.52,20.18,4.19,6.15,9.05,11.84,13.55,17.79.42.56.33,1.51.48,2.28.1,2.95-4.17,4.89-2,8.39a5.17,5.17,0,0,1-1.54,1.08c-2,.72-3.6,2.77-6.19,1.36a1.42,1.42,0,0,0-2,1.62c.35,1.56,0,2.45-1.51,2.49s-1.79-1.09-2.12-2.39c-.93-3.63-3.36-6.1-6.48-8a1.88,1.88,0,0,0-.25,2.07c.45,1.42-.53,1.59-1.52,1.62s-2.62.71-2.43.16c1.12-3.19-2.88-4.93-1.75-8.35A10.53,10.53,0,0,0,387,253c-1.29-1.38-3.75-1.61-3.75-4.41a1.71,1.71,0,0,0-2-1.56c-2.59.36-3.24-1.25-4.17-3.2-1.26-2.65-4-3.46-6.64-3-2.32.42-2.05,2.49-.74,5-4.42-2.32-7-2.2-7.38,2.77-.08,1.1-1.74,2-2.16,3.18-.68,1.92-5.28,3.13-1.24,6.06.41.29-.14.91-.52,1.3-1.09,1.13-1.17,2.58-1.45,4s-.27,3.64-2.68,3.84c-5.85-5.19-10-12.12-16.91-17.18-.12,2.77,1.22,4.12,2.32,5.47,5.12,6.25,10.24,12.51,15.53,18.62a7.29,7.29,0,0,1,2.07,5.75c-.56,5.81-.21,11.65-.56,17.49-.54,8.95-.22,8.79-9.33,9.41-3.47.24-7,1.32-8.88,4.84a24.45,24.45,0,0,0-17,7.22C314,325.84,305.72,332.26,299.38,340.62Z"/><path class="cls-11" d="M354.28,267.05c2.41-.2,2.37-2.28,2.68-3.84s.36-2.9,1.45-4c.38-.39.93-1,.52-1.3-4-2.93.56-4.14,1.24-6.06.42-1.17,2.08-2.08,2.16-3.18.36-5,3-5.09,7.38-2.77-1.31-2.51-1.58-4.58.74-5,2.66-.49,5.38.32,6.64,3,.93,1.95,1.58,3.56,4.17,3.2a1.71,1.71,0,0,1,2,1.56c0,2.8,2.46,3,3.75,4.41a10.53,10.53,0,0,1,2.32,9.78c-1.13,3.42,2.87,5.16,1.75,8.35-.19.55,1.57-.14,2.43-.16s2-.2,1.52-1.62a1.88,1.88,0,0,1,.25-2.07c3.12,1.91,5.55,4.38,6.48,8,.33,1.3.7,2.42,2.12,2.39s1.86-.93,1.51-2.49a1.42,1.42,0,0,1,2-1.62c2.59,1.41,4.21-.64,6.19-1.36a5.17,5.17,0,0,0,1.54-1.08c-2.19-3.5,2.08-5.44,2-8.39a164.78,164.78,0,0,1,21.78,30.92c6.68,11.89,11.66,24.63,5,38.39-4.09,8.44-11.19,13.09-20.57,13.46-17.38.68-34.76,1-52.15,1.5,1.1-2.94,2.76-5.57,2.91-9,.54-11.93-10.07-26.27-23.09-26.28-1.8,0-3.74.35-5.42-.77a12.11,12.11,0,0,1,2.21-.88c10.84-2,21.82-.93,32.72-1,5.63-.05,11.24-.28,16.85-.52,1.2,0,3.1.34,2.92-1.71-.17-1.86-1.92-1.43-3.19-1.44-3.59,0-7.18,0-10.77.05a4.17,4.17,0,0,1-3.85-2.13q-6.17-8.53-12.82-16.71C364.4,280.21,358.91,274,354.28,267.05Z"/><path class="cls-8" d="M354.28,267.05c4.63,6.92,10.12,13.16,15.37,19.6q6.64,8.16,12.82,16.71a4.17,4.17,0,0,0,3.85,2.13c3.59-.08,7.18-.07,10.77-.05,1.27,0,3-.42,3.19,1.44.18,2.05-1.72,1.66-2.92,1.71-5.61.24-11.22.47-16.85.52-10.9.09-21.88-1-32.72,1a12.11,12.11,0,0,0-2.21.88,18.46,18.46,0,0,1-7.06.44c1.91-3.52,5.41-4.6,8.88-4.84,9.11-.62,8.79-.46,9.33-9.41.35-5.84,0-11.68.56-17.49a7.29,7.29,0,0,0-2.07-5.75c-5.29-6.11-10.41-12.37-15.53-18.62-1.1-1.35-2.44-2.7-2.32-5.47C344.29,254.93,348.43,261.86,354.28,267.05Zm25.85,38.45c-4.85-6.27-9.34-12.08-13.85-17.87-1.22-1.56-2.49-3.08-3.76-4.6-.44-.53-1.06-1-1.7-.57a1.84,1.84,0,0,0-.5,1.35c-.12,6.49-.19,13-.29,19.46,0,1.69.74,2.28,2.44,2.26C368.14,305.45,373.82,305.5,380.13,305.5Z"/><path class="cls-6" d="M353.43,343.82a5.65,5.65,0,0,1-1.61,4.55,2,2,0,0,1-2.81.46c-1.21-.87-.79-1.69.12-2.56,2.17-2.06,1.06-3.39-1.08-4.48-.75-.38-2-.64-1.37-1.91.47-1,1.56-1,2.43-.77A5.31,5.31,0,0,1,353.43,343.82Z"/><path class="cls-11" d="M295.88,176.56c2.53.11,2.5-2.86,4.26-3.61.55.1.63.41.59.86-.19,2.23-2.58,4.77,1.08,6.43,2.07.95,1.81,4.24,5.07,4.55a9.15,9.15,0,0,1,5.84,3.66c2.23,3.28,5.31,2.79,8.35,3.19,4.45.58,9.41-.19,12.42,4.47.26.4,1,.91,1.3.81,3.23-1,3.73,1.91,5.34,3.39s2.07,3.92,5.1,4.37c1.68.25,3,4.11,2.47,5.61-1.54,4.65,2.51,6.37,4.46,8.06,2.77,2.4-.9,4,.46,5.73a4.6,4.6,0,0,1-1.49.35c-1-.09-1.3-.86-1.05-1.74s.79-2.93.3-2.9c-2.71.18-4-2.13-6.07-2.92-.83-.32-1.34.6-1.46,1.48a3.14,3.14,0,0,1-4,2.73c-3.9-1.52-6.28.84-8.46,2.92-2.87,2.74-7.72,4.63-7.73,8.85a17.18,17.18,0,0,1-2.07,8.18c-1,2-2.74,3-4.58,4.86,1.81-.23,2.94-.44,4.09-.49.85,0,1.94.47,1.22,1.32-1.38,1.61-.2,2.59.4,3.82.41.84-.4,2.55,1.24,2.43,1.21-.09,2.72-.29,3.42-1.71,1.58-3.2,3-2.12,4.45.12,1.3,2.06,2.28,3.62,1.92,6.75-.34,2.94-2,5-2.24,7.12-.25,2.42-1.25,5-.91,7.31.67,4.56-1.33,3.95-4.25,2.59-.14.87-.22,1.51-.35,2.14-.32,1.53-.68,4-2.33,3.5-1.95-.54-.09-2.5.22-3.69.54-2.07,1.07-3.72-2-3.8-1.22,0-1.47-1-1.48-2a2,2,0,0,0-1.39-2.19c-2.72-.7-4.71-1.4-1.42-4.23.74-.64-.5-1.62-1.13-2.26-2.79-2.86-6.38-4.49-9.87-6.24-.32-.16-1-.31-1-.21-2,3.48-6.2,1.41-8.71,3.52-.05-1.89-.1-3.78-.16-5.68.58-.44.58-.9,0-1.37-.08-.35-.17-.7-.26-1,0-.16,0-.32,0-.48,0-17.18,0-34.36.09-51.54C295.62,191.92,295.78,184.24,295.88,176.56ZM316,259.27a3.71,3.71,0,0,0,.85.74c.53.23,1.53.77,1.3-.42C318,258.73,317,258.85,316,259.27Z"/><path class="cls-10" d="M295.75,252.67c.56.47.56.93,0,1.37C294.63,253.57,294.61,253.12,295.75,252.67Z"/><path class="cls-10" d="M295.5,251.14c0,.16,0,.32,0,.48l-.53-.26Z"/><path class="cls-11" d="M148,297c-1.91-1.79-1.61-3.57-.76-6,10-28.45,19.68-57,29.66-85.46,2.38-6.8,6.55-12.8,11-18.37a64.26,64.26,0,0,1,30.24-21.35c2.51-.83,3-.37,3,2.05Q221,207,221,246.16c0,24.08.24,48.16.17,72.24,0,7.54.84,15.11-.14,22.65l-6.4.34a1.67,1.67,0,0,0-2.4-.29c-8,.6-16,.4-24,.31,4.27-4.27,9.81-4.14,15.23-4.38.75,0,1.58.52,2.09-.38.39-.69,0-1.24-.57-1.72s-.85-1-.39-1.73c3.63,1.26,6-.52,5.1-4.48s0-9.43-5.8-11.06c.12-4.28-4.59-5.9-5.34-9.79-.42-2.18-2.7-4.4-4.31-3.52-2.82,1.55-4.2.2-5.89-1.24a8.09,8.09,0,0,0-5.94-1.71c.55-6.49,1.05-13,1.66-19.47,1-11.12,2.16-22.23,3.19-33.35.59-6.36,1.15-12.73,1.47-19.11.05-1,.29-3.14-1.47-3.26-2-.14-2,1.73-2.1,3.19-.87,10.83-1.52,21.68-2.64,32.49-1.14,11.08-1.66,22.23-3.49,33.24-2.35-.24-4.28-2.51-6.83-1.58-1.64.59-5.66,6-2.67-1.51a1.49,1.49,0,0,0-.57-1.34c-2.29-.86-2.16-2.43-1.16-4.91-2.27,2.66-4.26,1.81-6.3.69-.79-.44-1.41.17-2.15.48C154.37,289,151.62,293.51,148,297Zm54.14,12.6c.22.1.49.32.65.26s.21-.41.31-.64c-.22-.1-.49-.32-.65-.26S202.21,309.37,202.11,309.59Z"/><path class="cls-10" d="M148,297c3.65-3.48,6.4-8,11.35-10,.74-.31,1.36-.92,2.15-.48,2,1.12,4,2,6.3-.69-1,2.48-1.13,4,1.16,4.91a1.49,1.49,0,0,1,.57,1.34c-3,7.54,1,2.1,2.67,1.51,2.55-.93,4.48,1.34,6.83,1.58-.05.46-.09.92-.14,1.38-.56.15-1.42,0-1.42.86s.86.71,1.43.86c0,5.67-.66,11.32-1.22,16.92-.87,8.76-1.81,17.5-2,26.31-6.85.25-13.69.68-20.54.71-13.26,0-26.52-.15-39.79-.24-3.25-4.62-6.45-9.27-9.75-13.85-2.86-4-4.9-8.38-7.21-12.65a10.65,10.65,0,0,0-.79-8.62c-.87-1.71-1.89-3.4.61-4.65,1.93-1,.61-2.16-.09-2.8a2.29,2.29,0,0,1,0-3.77c1.37-1.28,2.68-.43,3.79.72.68.7,1.21,2.44,2.31,1.54,1.46-1.19-.5-1.9-1.09-2.73s-1.91-1.83-.76-3.05c.92-1,1-2.85,3.48-2.32,1.29.29,3.57.83,4.86-1.36a2,2,0,0,1,3.15.09c1.56,2.35,3.51,2.21,5.87,1.74,3.58-.71,6.15,2,8.9,3.46,2,1.07,4,2.32,6,3.5.19-.35.45-.6.41-.78-.31-1.33-2.27-3.16-.85-3.75s3.89-1.51,5.54.51c.72.88,1.46,1.15,2.2,0,3,4.73,4.52,10.12,7.09,15,.4.77.49,2.1,1.7,1.8s1-1.5,1-2.62C151.79,303.42,148.68,300.65,148,297Z"/><path class="cls-10" d="M182.38,301.4a8.09,8.09,0,0,1,5.94,1.71c1.69,1.44,3.07,2.79,5.89,1.24,1.61-.88,3.89,1.34,4.31,3.52.75,3.89,5.46,5.51,5.34,9.79,5.78,1.63,4.86,7,5.8,11.06s-1.47,5.74-5.1,4.48c-.46.71-.13,1.26.39,1.73s1,1,.57,1.72c-.51.9-1.34.34-2.09.38-5.42.24-11,.11-15.23,4.38a2.4,2.4,0,0,1-2.39.09c.12-1.74-.57-2.63-2.44-2.54-1.67.08-3.34,0-5,0,.74-7,1.46-14,2.24-21C181.22,312.45,181.07,306.84,182.38,301.4Z"/><path class="cls-8" d="M182.38,301.4c-1.31,5.44-1.16,11.05-1.78,16.57-.78,7-1.5,14-2.24,21-.21.82-.43,1.64-.64,2.47-.68.49-1.36.73-2.06,0,.18-8.81,1.12-17.55,2-26.31.56-5.6,1.2-11.25,1.22-16.92,0-.58,0-1.15,0-1.72s.09-.92.14-1.38c1.83-11,2.35-22.16,3.49-33.24,1.12-10.81,1.77-21.66,2.64-32.49.11-1.46.11-3.33,2.1-3.19,1.76.12,1.52,2.24,1.47,3.26-.32,6.38-.88,12.75-1.47,19.11-1,11.12-2.16,22.23-3.19,33.35C183.43,288.41,182.93,294.91,182.38,301.4Z"/><path class="cls-8" d="M293.84,311.74c2.16,0,1.7,1.51,1.69,2.79q-.11,12.93-.2,25.86c-1.95.72-2.31-.41-2.34-2,0-2.38-.08-4.76-.13-7.14-.05-5.52,0-11-.26-16.55A3.59,3.59,0,0,1,293.84,311.74Z"/><path class="cls-11" d="M177.72,341.41c.21-.83.43-1.65.64-2.47,1.67,0,3.34.1,5,0,1.87-.09,2.56.8,2.44,2.54Z"/><path class="cls-10" d="M212.21,341.1a1.67,1.67,0,0,1,2.4.29C213.64,342.69,212.84,342.62,212.21,341.1Z"/><path class="cls-6" d="M91.69,190.54c-.16-3.21,1.21-5.7,4.14-6.6,3.18-1,5.63.73,7.31,3.48,2.22,3.63,2.91,7.37.78,11.29-1.6,2.92-4.19,3.63-7,1.89C93.09,198.31,91.76,194.71,91.69,190.54Z"/><path class="cls-10" d="M100.91,289.71c0,1.15-.25,1.93-1.48,2s-1.7-.66-1.58-1.74.3-2.4,1.47-2.47S100.6,288.86,100.91,289.71Z"/><path class="cls-10" d="M131.89,290c-.09.23-.14.57-.3.63s-.43-.15-.65-.25c.09-.22.14-.57.3-.63S131.67,289.87,131.89,290Z"/><path class="cls-11" d="M380.13,305.5c-6.31,0-12-.05-17.66,0-1.7,0-2.47-.57-2.44-2.26.1-6.49.17-13,.29-19.46a1.84,1.84,0,0,1,.5-1.35c.64-.42,1.26,0,1.7.57,1.27,1.52,2.54,3,3.76,4.6C370.79,293.42,375.28,299.23,380.13,305.5Z"/><path class="cls-10" d="M316,259.27c.92-.42,2-.54,2.15.32.23,1.19-.77.65-1.3.42A3.71,3.71,0,0,1,316,259.27Z"/><path class="cls-10" d="M202.11,309.59c.1-.22.15-.57.31-.64s.43.16.65.26c-.1.23-.15.57-.31.64S202.33,309.69,202.11,309.59Z"/><path class="cls-11" d="M178.86,296.51c0,.57,0,1.14,0,1.72-.57-.15-1.42,0-1.43-.86S178.3,296.66,178.86,296.51Z"/></svg>