<svg id="Слой_1" data-name="Слой 1" xmlns="http://www.w3.org/2000/svg" viewBox="0 0 514.94 358.18"><defs><style>.cls-1{fill:#161616;}.cls-2{fill:#f672f9;}.cls-3{fill:#1ea1f0;}.cls-4{fill:#f9c63c;}.cls-5{fill:#24e7d2;}.cls-6{fill:#fefefe;}</style></defs><path class="cls-1" d="M254.72,96.62c2.77-2.57,6.17-3.19,9.78-3.17.71,6.33,3.21,12.18,4.86,18.25,2.86,10.55,6.1,21,9.63,31.34a9.43,9.43,0,0,1-.27,7.7c-1.83,3.35-1.64,7.31-1.17,10.41,1.1,7.3,2.54,14.74,7.61,20.85,9.13,11,22.63,14.67,35.16,7.59a24.65,24.65,0,0,1,16.25-3.26c-.05,1.37-.16,2.4,1.95,2.38,4.58,0,4.7,0,4.79-4.36,0-1.68.11-3.37.06-5-.13-4.14-2.14-5.91-6.51-5.81l-.22,3.21c-1.13-.35-2.25-.73-3.4-1-5.55-1.5-9.8-5.43-14.29-8.54-3.95-2.74-5.2-2.11-7.8,1.2-1.9,2.42-1.44,3.48.77,4.38,2.05.83,3.52,2.44,5.46,3.37a1.62,1.62,0,0,1,.54,2.7c-.69.88-1.46.27-2.15-.25-5.7-4.23-12-7.69-16.81-13.09-2-2.29-3.53-1.82-4.44,1.21-.37,1.22-1.29,2.59-1.85,2.28a21,21,0,0,1-4.63-3.87c-.77-.8.2-1.46.75-2.08,3.79-4.35,3.79-4.35.9-9.13a5.67,5.67,0,0,1-.42-.58c-.44-.93-1.55-2.08-.4-2.85s1.77.71,2.39,1.49c3.84,4.87,7.6,9.75,12.18,14.05,3.46,3.24,4.88.45,6.91-1.28,2.69-2.3.62-3.85-.89-5.47-3.09-3.31-6.57-6.33-9.21-10-7.63-10.49-14-21.58-17.71-34.25a211.88,211.88,0,0,1-6.15-25.54,6.81,6.81,0,0,1,3.95,0c1.21,12.82,11.81,20.81,24.21,19.42,8.85-1,18.42-8.83,18.17-22.21a21.2,21.2,0,0,1,.49-3.5,31.5,31.5,0,0,1,3.2-.23c1.44,0,1.85-.36,1.52-1.89-1.36-6.14-2.84-12.23-5.49-18a2.61,2.61,0,0,1,1.9-2.14c3.72,6,4.65,13,6.57,19.59,0,.11.09.3,0,.34-3.18,2.83-.93,6.74-2,10.1a39.48,39.48,0,0,1-4.68,10.37c-1.92,2.92-4.48,5.38-6.05,8.66-2.72,5.68-1.35,10.63,2.47,14.92,4.59,5.17,2.95,10-.86,14.69a14.36,14.36,0,0,1-2.76,2.8c-3.7,2.64-4.09,6.35-3.27,10.29.6,2.93,1.24,5.77.06,8.67a1.23,1.23,0,0,0,.65,1.78c.71.26.93-.58,1.17-1a9.14,9.14,0,0,0,.85-7.33c-1.56-4.37-.7-7.78,2.76-10.8s6.39-6.73,6.83-11.78a11.25,11.25,0,0,0-3.56-9.06c-4.67-4.83-3.23-12.5.73-16.52,5.76-5.83,8.81-12.76,8-21.09-.16-1.63.39-2.14,2-2a26.73,26.73,0,0,1,6.36.89c-2.28,4.36-.91,9.1-1.43,13.64a1.67,1.67,0,0,0,1.53,2,9.5,9.5,0,0,1,3.71,1.84c2.56,1.9,4.24.71,4.36-2.48.16-4.64.51-9.26.78-13.89a1.54,1.54,0,0,1,1.7.27c1.68,6.15.78,12.33.16,18.49-.24,2.37-2.23,2.33-3.47,1.43-1.58-1.15-3.46-1.25-5.09-2.24-2.53-1.53-4.11-.34-4.11,2.66,0,5.66.16,11.31.05,17-.29,14.9-.68,29.79-1.05,44.68,0,1.55.41,2.2,2.12,2.55,4.31.88,6.31,3.54,7.08,7.8,1.13,6.23,0,12.37-.67,18.48-.43,3.9-2.36,7.35-7.21,7.53-.84,0-1.68.14-1.84,1.27-.37,2.53-1.3,5.9-.84,7.46,1.28,4.3-.08,8.39.55,12.5a50.15,50.15,0,0,1-21.17,4.41c-5,0-9.92-.88-14.88-1.33A18.71,18.71,0,0,1,288,222.88c-6.57-6.59-13-13.37-19.59-19.92-4.73-4.69-9.7-9.15-14.56-13.71l-.75-46.19c0-7.54-.1-15.09,0-22.63a2.41,2.41,0,0,0-1.52-2.47c-7.41-4.12-8.38-11.08-8-18.58a1.8,1.8,0,0,1,1.84-.9c.15,1.53.38,3.06.44,4.59a16.2,16.2,0,0,0,4,10.11c.71.83,1.73,2.12,2.89,1.55.94-.46.4-1.88.36-2.93C252.83,106.66,252.12,101.45,254.72,96.62Zm87.8,100.93a10.35,10.35,0,0,0-5.13.26c-1.61.62-1.26,1.92-1,3,.35,1.62,1.38.72,2.21.39C340.24,200.56,341.92,199.93,342.52,197.55Zm-3.09-2.94c1.18-.63,3.44.84,3.61-1.72.14-2.13-1.84-1.82-2.79-1.58-1.21.3-3.43-1.06-3.6,1.61C336.51,195.18,338.26,194.39,339.43,194.61Z"/><path class="cls-2" d="M336,225.32c-.63-4.11.73-8.2-.55-12.5-.46-1.56.47-4.93.84-7.46.16-1.13,1-1.24,1.84-1.27,4.85-.18,6.78-3.63,7.21-7.53.68-6.11,1.8-12.25.67-18.48-.77-4.26-2.77-6.92-7.08-7.8-1.71-.35-2.16-1-2.12-2.55.37-14.89.76-29.78,1.05-44.68.11-5.65,0-11.3-.05-17,0-3,1.58-4.19,4.11-2.66,1.63,1,3.51,1.09,5.09,2.24,1.24.9,3.23.94,3.47-1.43.62-6.16,1.52-12.34-.16-18.49,7.17-.1,18.71,7.14,21.14,15.94-3.07-2.27-6.31-3.11-10.06-1.7a15.05,15.05,0,0,0-5.59,24.77c4.25,4.5,11.44,6.12,15.86,3.44,1.08-.65,3-1.23,2.25-3s-2.32-.48-3.4,0c-5.27,2.07-9.64.53-13.2-3.44a11.2,11.2,0,0,1-2-12.38c1.77-4.34,4.93-6.9,9.85-7.07,2.13-.07,4.27.7,6.38-.15,2.59,6,3.13,12.44,3.48,18.83.88,15.79-1.34,31.41-3,47a6.61,6.61,0,0,0-1.63-.65c-9.81-1.08-17.82,9.18-14,18.24,2.51,5.94,1.61,10.82-2.19,16-3.56,4.82-5.85,10.58-2.28,16.36,3.32,5.38,8.63,8,15,8.07-.84,5.09-.26,10.24-1,15.37-.95,6.48-1.94,13-1.74,19.61-.19,1.31-.39,2.63-.58,3.94l-.75,11.29c0,.81,0,1.63-.07,2.44-.95,5.48-2.44,11.1-.59,16.5,2.18,6.38,4.38,12.75,6.28,19.21.25.82.53,1.25,1.34,1.34.59,1.44-1,2.6-.28,4.28a23.92,23.92,0,0,1,1.46,12.9c-.17,3.74-2.61,5.72-5.67,7.12A26.13,26.13,0,0,1,352,342.19c2.63-3,7-4.16,8.79-8.66-3.75,0-5.75,2.47-8,4.13-1.55,1.14-4.15,1.72-4,4.5H343c2.55-3.63,8.12-4.63,9.3-10.87-5,3.66-9.66,6.07-12.43,10.75l-4.26-.76c2.77-2.21,5.52-4.43,8.3-6.61.75-.59,1.2-1.28.61-2.11s-1.31-.3-1.9.05c-3.54,2.11-7.27,4-9.62,7.61-3.69-.6-5.1-3.38-6.18-6.48l.14-.23c1.25.47,2.2.66,3.44-.56a36.32,36.32,0,0,1,5.38-4.48c4.6-2.94,5.33-7,5.28-11.64.34.24.57.24.52-.27l-.47.35c-1.78-2.4-2.53-6.55-7.12-4.17-.08,0-.34-.41-.51-.41-4.16,0-8.36-.41-12.37,1.12l-.18-.25c-2.26-5.35-1.87-6,4-7,2.8-.48,5.57-1.18,8.33-1.88.83-.21,2.23-.27,1.92-1.61-.6-2.62.73-5.19,0-7.78a4,4,0,0,0,.11-2.61c.32-21.47,1-42.93.7-64.41A3.64,3.64,0,0,0,336,225.32Zm19.66-75.18c-1.26,1.85-2,2.89-2.68,4-2,3.11-5.11,5.38-6.93,8.67-.64,1.16-1.38,2.19.44,2.76,4.07,1.28,8.26.25,12.39.52,1.14.08,1.81-1.17,1.59-2.39s-1.32-.64-2-.65c-2.88,0-5.75,0-9.49,0a106.88,106.88,0,0,0,10-11.69c.76-1,1.88-2.45,1.18-3.37s-2.36-1.06-3.7-.73a16.32,16.32,0,0,1-6.73.2c1.11-1.3,1.85-2.36,2.79-3.39,2.87-3.16,5.89-6.22,8.18-9.88,1-1.53.46-2.25-1.1-2.24-4.53,0-9.07.21-13.6.38-.82,0-1.82.26-1.76,1.37s1.07,1,1.9,1c3.18.08,6.32.79,10.62.21l-12.19,14.74C348.29,149.92,351.37,150.92,355.62,150.14Zm-7.84,86.24c-3.4,0-6.65,2.92-6.74,6.08-.08,2.52,3.63,6.1,6.36,6.15a6.44,6.44,0,0,0,6.35-6A6.07,6.07,0,0,0,347.78,236.38Z"/><path class="cls-2" d="M93.43,170.15c3.77-1.67,7.78-.86,11.63-.76,4.76.13,8.78-.42,12.93-3.44,9-6.55,18.63-12.32,28-18.39,1-.64,2.1-1.12,3.15-1.66,1.07,3.93,3.54,7.21,5.21,10.85.41.89.87,1.93,2,1.51,1.62-.58.73-1.8.33-2.68-1.72-3.77-3.52-7.51-5.3-11.26l2.86-1.83c2.1,3.56,4.18,7.12,6.31,10.66.39.65.7,1.64,1.84,1.14s.73-1.38.7-2.17a4.93,4.93,0,0,0-.92-2.24c-1.67-2.81-3.2-5.7-4.77-8.56a5.21,5.21,0,0,1,3.22-2.53c1.33,3.83,3.6,7.19,5.4,10.78.57,1.13,1.43,2.27,2.76,1.52s.62-2,0-3.09c-2-3.39-3.88-6.8-5.82-10.21,5.26-3.75,10.39-7.73,16.74-9.57A47.45,47.45,0,0,0,178.67,139c.17,4.31,1.08,8.39,5.2,10.77,4.38,2.52,9,4.52,14.22,3.6,4.61-.82,8.55.16,11.81,3.58-6.55,1.87-12.65,5-19.31,6.59-3.37-4.12-8-6.75-12.13-9.89-.66-.5-1.86-1.17-2.22.4-1.22,5.29-4.08,10.2-3.68,15.87-9.11,3.62-18.92,5.26-27.92,9-7.25,3-15,4.55-21.93,8.35a4.69,4.69,0,0,0-1.9,2.49q-2.28,4.68-4.44,9.43a12.92,12.92,0,0,1-3.26,4.69c-1.7,1.43-3.69,2.61-5.87,1.72-2-.83-1-3-1.07-4.54-.15-2.39.73-5.26-.33-7-.74-1.23-4-.92-6.11-1.39Q89,190.3,78.36,187.89a24.71,24.71,0,0,1-7.51-3.33c-2.14-1.34-3.47-3.32-2.89-6.07,8,3.27,16.77,3.5,25,5.85.86.25,2.08.41,2.42-.85s-.51-1.72-1.57-1.91c-8.45-1.5-16.74-4-25.37-4.42.33-1.94,1.78-2.89,3.32-3.77,6.81,3.43,14.55,3,21.67,5.22A1.18,1.18,0,0,0,95,177.5a1.42,1.42,0,0,0-1-1.7c-1.14-.32-2.33-.47-3.49-.69l-15.47-3,5-1.68c3.95.78,7.88,1.65,11.84,2.32C94.25,173.19,94.66,172.08,93.43,170.15Z"/><path class="cls-3" d="M326.78,333.75c-8.7-.76-17.4.1-26.1.08-13.73,0-27.46-.43-41.19-.59-4.89-.06-9.77.12-14.66.19a11.86,11.86,0,0,0-5.26-.43,58.54,58.54,0,0,0-11.3-.64c-2.39-.53-4.81.61-7.19-.15-10.66-.79-21.29-1.91-31.25-6.06-4.32-1.8-6.09-5.43-5.28-9.06.89-4.07,3.3-5.74,8.5-6,5.89-.33,11.65.7,17.36,1.79,4.55.87,9,.49,13.57.48a100.29,100.29,0,0,0,14.91.56c9.66-.05,19.33-1,29,.17a10.79,10.79,0,0,0,5.49-.74c1.43.09,2.85.26,4.27.28,8.94.1,17.87-.78,26.82-.42,5.47.22,10.95,0,16.42,0l.18.24c.27,2,1.27,2.47,3.26,1.92a14.26,14.26,0,0,1,4.57-.07c.53,0,1.22.45,1.06,1.18-.08.38-.64,1-.86,1-3.36-.71-3,2.39-3.9,4-1.22-.21-.34-2.17-1.86-1.77-.29.08-.76.47-.73.62.65,2.88,1,6.42,2.51,8.32,1.36,1.74,1.92,3,1.8,4.89Zm-9.62-5.8c.86-1.52,2.16-1.75,3.3-2.15,1.67-.59-.92-1.53.29-2-.18-.48-.82-1-1-.58-1.38,3.13-2.4-.83-3.79,0Z"/><path class="cls-4" d="M276.39,89.46A211.88,211.88,0,0,0,282.54,115c3.67,12.67,10.08,23.76,17.71,34.25,2.64,3.63,6.12,6.65,9.21,10,1.51,1.62,3.58,3.17.89,5.47-2,1.73-3.45,4.52-6.91,1.28-4.58-4.3-8.34-9.18-12.18-14.05-.62-.78-1.16-2.32-2.39-1.49s0,1.92.4,2.85a5.67,5.67,0,0,0,.42.58c2.89,4.78,2.89,4.78-.9,9.13-.55.62-1.52,1.28-.75,2.08a21,21,0,0,0,4.63,3.87c.56.31,1.48-1.06,1.85-2.28.91-3,2.39-3.5,4.44-1.21,4.83,5.4,11.11,8.86,16.81,13.09.69.52,1.46,1.13,2.15.25a1.62,1.62,0,0,0-.54-2.7c-1.94-.93-3.41-2.54-5.46-3.37-2.21-.9-2.67-2-.77-4.38,2.6-3.31,3.85-3.94,7.8-1.2,4.49,3.11,8.74,7,14.29,8.54,1.15.31,2.27.69,3.4,1,0,3.21,0,6.41-.07,9.62a24.65,24.65,0,0,0-16.25,3.26c-12.53,7.08-26,3.41-35.16-7.59-5.07-6.11-6.51-13.55-7.61-20.85-.47-3.1-.66-7.06,1.17-10.41A9.43,9.43,0,0,0,279,143c-3.53-10.35-6.77-20.79-9.63-31.34-1.65-6.07-4.15-11.92-4.86-18.25a6.21,6.21,0,0,1,5-6.17C272.09,86.64,274.79,86.56,276.39,89.46Zm37.71,94.85A11.16,11.16,0,0,1,304,185.42c-2.55-1.08-5.46-2.22-7.7-4.21-.65-.58-1.66-.89-2.27-.14-.73.91.27,1.5.88,2,5.14,3.84,10.54,6.71,17.33,5C314.37,187.46,315,186.47,314.1,184.31Z"/><path class="cls-2" d="M324.34,60.94a2.61,2.61,0,0,0-1.9,2.14c-2.3,1.48-4,3.76-6.66,4.77-.7.26-1.32.69-1.32,1.52,0,4.15-.59,8.59,1.1,12.29,1.2,2.63,5.1.62,7.65,1.52a21.2,21.2,0,0,0-.49,3.5c.25,13.38-9.32,21.23-18.17,22.21-12.4,1.39-23-6.6-24.21-19.42,4.57-.27,5.92-3,6.25-7.23.37-4.81,1.37-9.57,2.1-14.35,4.06-2,6.05-5.51,6.85-9.78.73-3.9-.24-7.54-1.91-11-.61-1.27-1.3-2.42.78-2.9,2.14.22,3.9-.92,5.74-1.69,8.08-3.36,16.14-6.76,24.21-10.14,5.42,6.75,6.08,17.45,1.5,25.43A8.9,8.9,0,0,0,324.34,60.94Zm-5.57-9.84c-.87-1.86,0-5.66-3.63-5.52-2.22.09-5.6.58-6.28,3.75-.48,2.27,4.35,7.42,6.58,7.25C318.57,56.34,318.57,53.82,318.77,51.1Zm-.91-7.9c2.64-.63,3.81-2.48,4.42-4.75.22-.79.25-1.84-.73-2.15s-1.27.52-1.5,1.42c-.56,2.24-1.68,3.39-4.1,1.89-.8-.49-1.95-1.84-2.72-.59-.88,1.44.68,2.34,1.75,3A15.82,15.82,0,0,0,317.86,43.2Zm-9.7,2c-.24-.76.13-1.67-.73-2-.53-.19-1.37-.25-1.53.45-.85,3.72-2.61,2.89-4.68,1a1.12,1.12,0,0,0-1.62,0,1.42,1.42,0,0,0-.2,1.26,4.92,4.92,0,0,0,5,2.77C306.45,48.66,307.68,47.16,308.16,45.22Z"/><path class="cls-1" d="M324.36,32.35c-8.07,3.38-16.13,6.78-24.21,10.14-1.84.77-3.6,1.91-5.73,1.69-1.63.23-2.12-2.15-2.9-2-3.29.86-5.44-2.09-8.39-2.11a1.78,1.78,0,0,1-2-1.68c-.18-5.44.34-11,3.14-15.58,5.19-8.45,17.81-10.12,25.89-4.33,1.17.83,2.4,2.95,4.56,1.69a90.08,90.08,0,0,1,27.91-9.59c2.49-.45,4.91.09,6.21,2.53s.19,4.46-1.18,6.34c-2.82,3.85-7.25,5.27-11.34,7.17S328.11,30,324.36,32.35Z"/><path class="cls-2" d="M243.51,99.38c-.35,7.5.62,14.46,8,18.58a2.41,2.41,0,0,1,1.52,2.47c-.07,7.54,0,15.09,0,22.63-6.67,1.3-12.91,4-19.45,5.75-.57.15-1.15.23-1.73.34-.84-5.49-3.78-9.14-9.29-10.45s-11-.73-16.47-.52c-5.76.21-8.93-3-9.47-8.77-.41-4.42,2.06-8,3.09-12q6.9-3.09,13.79-6.18a6.51,6.51,0,0,1,3.34-1c-1.67,3.95-3.3,7.91-5,11.82-.94,2.13-.43,3.66,1.6,4.69,4.9,2.48,9.51,5.56,15.13,6.48,3.58.59,9.43-2.15,11-5.56a8.7,8.7,0,0,0-3.47-11.21c-1.63-1-1.6-1.79-1.25-3.42,1.09-5.11.28-6.89-3.5-9C235,101.55,239.31,100.55,243.51,99.38Zm-5.3,44.5,0,.06a7.06,7.06,0,0,0-.85-1.09c-.69-.64-1.39-.76-2.06.11a1.15,1.15,0,0,0,.07,1.56c1,1.43,1.2-.41,1.84-.45A8.89,8.89,0,0,0,238.21,143.88Z"/><path class="cls-3" d="M371,332.84a23.92,23.92,0,0,0-1.46-12.9c-.69-1.68.87-2.84.28-4.28.59-.75,1.1-1.56,2.31-1.28,4,.91,8.05.52,12.08.55,7.77,0,15.56.17,23.28-1,7.9-1.06,16-.24,23.78-2.36a25.1,25.1,0,0,1,7.51-.47c4,.19,7.89,3.67,8.32,7.15.46,3.72-2.14,7.71-6.11,9.11a61.28,61.28,0,0,1-14,3c-5.45.59-10.79,2.16-16.35,1.86-1.8.16-3.72-.6-5.4.65-4.3-.12-8.61-1.22-12.91,0,.84-1.06-2.23-3.18.34-3.21s3-1.6,3.8-3,1.12-2.1,3-1.92c1.39.13,3.66-.16,2.9-2.84l.3-.09-.26.14c-1.74-.09-3.13-1.51-5.27-.79-1.09.37-3.88-1-4.08-2-.43-2.1-1.22-2.89-2.59-1.45s-3.39-1.38-4.39.77c-1.58,3.4-3,1.64-4.49-.05-.58-1.84-2.33-1.05-3.51-1.5-.56-.21-1.35-.86-1.82.11a1.69,1.69,0,0,0,0,2c.54.51,1.25,1.27,2.15.61a4.82,4.82,0,0,1,3.2-1.26c-1.41,2.27-.2,5.2-2.08,7.48-.73.89.29,2.06,1.58,1.36.74-.4,1.15-.68,2,.28-1.71.57-2.51,1.92-1.4,3.32.77,1,2,1.6,3.6.27,1.33-1.08,2.42.43,2.94,1.85H386.8C381.51,333.64,376.24,332.61,371,332.84Z"/><path class="cls-1" d="M273.38,313.32a10.79,10.79,0,0,1-5.49.74c-9.67-1.16-19.34-.22-29-.17a100.29,100.29,0,0,1-14.91-.56c1.24-4.55,5.14-5.79,9-6.7,6.08-1.46,12.08-3.34,18.34-4,2.52-.26,4.32-.68,1.81-3.84-2.26-2.84-3.72-6.32-5.53-9.51l22.19-11.08c.76,3,1.53,6,2.29,9-.3,1,.4,1.67.77,2.46,0,.33-.21.85.49.74l-.13.11c.94,4,2,7.95,2.77,12S276.76,310.32,273.38,313.32Z"/><path class="cls-5" d="M314.72,20.22c-2.16,1.26-3.39-.86-4.56-1.69-8.08-5.79-20.7-4.12-25.89,4.33-2.8,4.55-3.32,10.14-3.14,15.58a1.78,1.78,0,0,0,2,1.68c2.95,0,5.1,3,8.39,2.11.78-.2,1.27,2.18,2.9,2-2.09.48-1.4,1.63-.79,2.9,1.67,3.49,2.64,7.13,1.91,11-.8,4.27-2.79,7.77-6.85,9.78-11.41,4.27-21.52-7-17.65-17.53,2.63-7.14,1.92-13.87,2.28-20.83.59-11.14,8.62-19.56,19.49-21.79C301.71,5.92,311.18,12.56,314.72,20.22ZM290.45,52.88A7.23,7.23,0,0,0,283.07,46c-3.73.17-6.64,3.78-6.48,8,.14,3.69,3.73,7.26,7.24,7.21C287.52,61.22,290.56,57.36,290.45,52.88Z"/><path class="cls-3" d="M336,225.32a3.72,3.72,0,0,1,0,2.65c-1.2.55-2.37,1.18-3.6,1.64-10.55,3.92-21.35,3.78-32.19,1.69A29.7,29.7,0,0,1,285,223.72c-12.81-12.08-24.34-25.52-38.6-36.06-8.27-6.1-17.42-8.79-27.33-6a67.6,67.6,0,0,0-23,11.45c-6,4.62-7.82,11.15-4.53,17.91,2.7,5.55,6.56,10.36,10.44,15,12.26,14.71,23.34,30.29,34.74,45.65l-2.18,2c-8.67-11.71-17.26-23.48-26-35.11-5.53-7.32-11.4-14.38-17-21.63-4.37-5.66-5.76-11.89-3.37-18.86,1.06-3.1,3.55-4.74,5.79-6.66a58.3,58.3,0,0,1,27.68-13.55c11.74-2.09,21.82,2.26,30.58,10,.53.48,1.13.87,1.7,1.31,4.86,4.56,9.83,9,14.56,13.71,6.62,6.55,13,13.33,19.59,19.92a18.71,18.71,0,0,0,11.92,5.52c5,.45,9.92,1.33,14.88,1.33A50.15,50.15,0,0,0,336,225.32Z"/><path class="cls-1" d="M407.45,314c-7.72,1.13-15.51,1-23.28,1-4,0-8.09.36-12.08-.55-1.21-.28-1.72.53-2.31,1.28-.81-.09-1.09-.52-1.34-1.34-1.9-6.46-4.1-12.83-6.28-19.21-1.85-5.4-.36-11,.59-16.5,2.28.74,4,2.49,6.15,3.49,5.19,2.39,10.19,5.17,15.27,7.79-2.22,4.58-6.6,7.61-9,12.34,6.58.89,13.14.57,19.23,2.82C399.41,306.91,405,308.14,407.45,314Z"/><path class="cls-5" d="M370.77,194.93c6-5.29,12.16-10.33,19.3-14.13,6.29-3.34,12.87-3.38,19.54-2.44,9.26,1.3,17.52,5.24,25.17,10.5a27,27,0,0,1,8.38,8.76c3.26,5.79,1.23,11.32-2.05,16.5C435.62,222.8,429.29,230.87,423,239c-8.85,11.47-17.8,22.85-26.71,34.27L394.46,272a3.74,3.74,0,0,1,.31-1c12.23-17.68,25.82-34.35,39-51.29,3.24-4.17,5-8.72,7-13.36,1.48-3.47.21-6.14-2.08-8.81-8.23-9.59-19.09-14.15-31.17-16a26.19,26.19,0,0,0-18,3.31,133.87,133.87,0,0,0-19.44,14.94A6.43,6.43,0,0,1,370.77,194.93Z"/><path class="cls-2" d="M230.35,149.78l-18.16,6.56a11.75,11.75,0,0,0-8.27-5.28c-3.45-.63-6.82-.34-10.21-.54-7.8-.45-12.31-4.75-12.39-13.06,0-4.27,2.42-8,2-12.17,4.58-1.72,8.62-4.67,13.43-5.83-5,9.18-4.05,14.23,4,21.41,0,0-.07.21-.12.32a15.55,15.55,0,0,0-2.38-.65c-2.33-.28-4.83-.48-5.6,2.44-.66,2.46.33,4.43,2.84,5.43s4.94,1.22,6.71-1.36-.92-4-1.65-5.94a53.55,53.55,0,0,0,12.31-.66c4.53-.75,9,0,12.75,3.13C227.66,145.32,228.43,148,230.35,149.78Zm-37.63-13.62c-.09-4.18-2-6.48-4.52-6.46s-4.33,2.28-4.25,5.55c.07,2.77,2.74,6,4.74,5.21S192.85,138,192.72,136.16Zm19.56,6.32c-2.88-.19-4.55,1.17-4.75,4-.16,2.23,2.87,5.1,5.17,4.89,2.66-.24,4.89-1.34,5.21-4.35C218.18,144.48,215.59,142.49,212.28,142.48Z"/><path class="cls-2" d="M370.77,194.93a6.48,6.48,0,0,0-.66,4.78c-.39,1.81.16,3.76-.82,5.49-.2.21-.41.42-.61.64l-1.19-.9h0c-3.76-.6-8.05,1.66-8.41,4.42-.56,4.36,2,7.84,6,8.2.95.08,2.09.35,2.29-1,.14-1-.65-1.41-1.6-1.54-2.11-.3-3.87-1.32-3.64-3.62a3.8,3.8,0,0,1,4.44-3.63c.22,1.18,1.93.06,2.09,1.35A65.85,65.85,0,0,1,367,224.84a4.81,4.81,0,0,0-3.72-2.22c-6.56-.81-11.33-6.93-9.8-12.93a20.54,20.54,0,0,1,3.67-7.68c4.48-5.51,4.83-11.22,2.23-17.56-2.19-5.36-1.14-7.58,3.37-11.27,2.74-2.25,6.31-2,9-4,.52,2.38-.62,4.64-.56,7-2.62-.54-5.05-.35-6.67,2.12s-1.94,5.12-.27,7.73a5.71,5.71,0,0,0,6.37,2.75Z"/><path class="cls-5" d="M234.5,273.75l2.18-2c8-3.38,15.14-8.59,23.29-11.75,1.51-.58,1.3-1.73,1-3a156.55,156.55,0,0,0-5.85-17.65c-2.18-5.74-4.61-11.38-6.86-17.09-.33-.83-1.05-2.05,0-2.63,1.36-.78,1.73.87,2.29,1.59a37.62,37.62,0,0,1,5.42,10.87c2,5.89,4.36,11.72,6.19,17.7,1,3.17.65,7.22,3.05,9.37,2.8,2.52,4.35,5.57,6.29,8.54,3,4.62,2.65,7.49-1.72,10.52l-22.19,11.08c-5.27,1.25-11.16-3.07-12.35-9.19C234.8,278,234.72,275.87,234.5,273.75Zm35.61-.29c-.29-2.76-2.12-4.65-3.14-6.93-2.32-5.17-3-5.44-8-2.83-4.76,2.48-9.36,5.27-14.19,7.59-7.39,3.55-9.72,3.36-3.38,13,1.42,2.16,2.86,2.94,5.34,1.76,7.22-3.46,14.51-6.78,21.75-10.19A3,3,0,0,0,270.11,273.46Z"/><path class="cls-2" d="M219.35,109.3c3-1.34,5.73-3.41,9-4.31,4,2.15,5,4.54,3.26,8.64-1.07,2.57-1.26,4.06,2.19,4.78,2,.42,3.25,2.44,3.47,4.92.28,3.09-1.58,4.77-3.73,6-2.65,1.46-6.1,2.07-8.5.44a49.69,49.69,0,0,0-7.41-4.13c-2.84-1.27-2.82-2.85-2-5.31C216.82,116.6,218.85,113.21,219.35,109.3Z"/><path class="cls-3" d="M394.46,272l1.86,1.27c1.44,2.37.85,4.53-.42,6.8s-2.65,4.46-4,6.68c-1.87,3.09-4.26,4.3-7.73,3.16-5.08-2.63-10.08-5.41-15.27-7.8-2.18-1-3.87-2.75-6.15-3.49,0-.81.05-1.63.07-2.44,6,2.81,11.94,5.57,17.87,8.43,6.88,3.31,7.8,3,11.25-3.94.38-.74.79-1.47,1.18-2.21,1-1.78.35-2.9-1.43-3.67-6.27-2.67-12.13-6.14-18.05-9.47-2.92-1.65-5.67-3.83-8.72-.27-.17.19-.89-.1-1.35-.16.19-1.31.39-2.63.58-3.94l2.55-1.68,2.5.05C377.6,263.57,385.78,268.28,394.46,272Z"/><path class="cls-1" d="M371.81,169.17c-2.71,2-6.28,1.76-9,4-4.51,3.69-5.56,5.91-3.37,11.27,2.6,6.34,2.25,12.05-2.23,17.56a20.54,20.54,0,0,0-3.67,7.68c-1.53,6,3.24,12.12,9.8,12.93a4.81,4.81,0,0,1,3.72,2.22L366.9,226c-6.4-.11-11.71-2.69-15-8.07-3.57-5.78-1.28-11.54,2.28-16.36,3.8-5.14,4.7-10,2.19-16-3.82-9.06,4.19-19.32,14-18.24A6.61,6.61,0,0,1,372,168C371.91,168.38,371.86,168.77,371.81,169.17Z"/><path class="cls-1" d="M219.35,109.3c-.5,3.91-2.53,7.3-3.74,11-.81,2.46-.83,4,2,5.31a49.69,49.69,0,0,1,7.41,4.13c2.4,1.63,5.85,1,8.5-.44,2.15-1.18,4-2.86,3.73-6-.22-2.48-1.45-4.5-3.47-4.92-3.45-.72-3.26-2.21-2.19-4.78,1.72-4.1.72-6.49-3.26-8.64.57-1.73,1.87-1.06,3-.93,3.78,2.11,4.59,3.89,3.5,9-.35,1.63-.38,2.44,1.25,3.42a8.7,8.7,0,0,1,3.47,11.21c-1.55,3.41-7.4,6.15-11,5.56-5.62-.92-10.23-4-15.13-6.48-2-1-2.54-2.56-1.6-4.69,1.74-3.91,3.37-7.87,5-11.82C217.7,109.89,218.3,109.05,219.35,109.3Z"/><path class="cls-5" d="M221.08,332.21c2.38.76,4.8-.38,7.19.15-2.39,3-2.87,6.45-.93,9.67a7.18,7.18,0,0,0,10.12,2,8,8,0,0,0,2.11-11,11.86,11.86,0,0,1,5.26.43c2.64,9.49-4.2,17-11.51,16.85a12.64,12.64,0,0,1-12.61-14.85C220.87,334.36,221,333.28,221.08,332.21Z"/><path class="cls-5" d="M405.21,332.87c1.68-1.25,3.6-.49,5.4-.65.18,2.26,1.46,4.29,1.22,6.67-.74,7.2-7.59,12.79-14.48,11.72-7.94-1.23-12.51-7.81-10.85-15.57.15-.69.19-1.4.29-2.1h1.39l0,.17c0,1.64-1.86,3.26.16,5.24.22-1.67,1.7-1.75,2.6-2.56l.06,0c.78.8.36,1.81.48,2.73.42,3.13,2.1,5.49,5.08,6.34s5.61.66,8-2.06C407.58,339.4,406.73,336.27,405.21,332.87Z"/><path class="cls-1" d="M200.62,141.19c0-.11.15-.29.12-.32-8-7.18-9-12.23-4-21.41.9-.84,1.59-2,3-2-1,4-3.5,7.53-3.09,12,.54,5.73,3.71,9,9.47,8.77,5.52-.21,11-.77,16.47.52s8.45,5,9.29,10.45l-1.56.63c-1.92-1.81-2.69-4.46-4.75-6.2-3.76-3.18-8.22-3.88-12.75-3.13a53.55,53.55,0,0,1-12.31.66Z"/><path class="cls-2" d="M348.58,85.48c-.27,4.63-.62,9.25-.78,13.89-.12,3.19-1.8,4.38-4.36,2.48a9.5,9.5,0,0,0-3.71-1.84,1.67,1.67,0,0,1-1.53-2c.52-4.54-.85-9.28,1.43-13.64C342.65,84.43,345.79,83.55,348.58,85.48Z"/><path class="cls-1" d="M371.5,102.1c-2.11.85-4.25.08-6.38.15-4.92.17-8.08,2.73-9.85,7.07a11.2,11.2,0,0,0,2,12.38c3.56,4,7.93,5.51,13.2,3.44,1.08-.43,2.6-1.76,3.4,0s-1.17,2.36-2.25,3c-4.42,2.68-11.61,1.06-15.86-3.44A15.05,15.05,0,0,1,361.36,100c3.75-1.41,7-.57,10.06,1.7A.84.84,0,0,0,371.5,102.1Z"/><path class="cls-1" d="M183.32,125.29c.42,4.22-2,7.9-2,12.17.08,8.31,4.59,12.61,12.39,13.06,3.39.2,6.76-.09,10.21.54a11.75,11.75,0,0,1,8.27,5.28c-.54,1-1.46.67-2.29.65-3.26-3.42-7.2-4.4-11.81-3.58-5.23.92-9.84-1.08-14.22-3.6-4.12-2.38-5-6.46-5.2-10.77a47.45,47.45,0,0,1,1.11-10.82l-.06,0c.56,0,.59-.39.59-.81C181.33,126.76,181.4,124.72,183.32,125.29Z"/><path class="cls-2" d="M254.72,96.62c-2.6,4.83-1.89,10-1.72,15.18,0,1,.58,2.47-.36,2.93-1.16.57-2.18-.72-2.89-1.55a16.2,16.2,0,0,1-4-10.11c-.06-1.53-.29-3.06-.44-4.59A34.48,34.48,0,0,1,254.72,96.62Z"/><path class="cls-1" d="M172.56,170c-.4-5.67,2.46-10.58,3.68-15.87.36-1.57,1.56-.9,2.22-.4,4.17,3.14,8.76,5.77,12.13,9.89-.23,2.08-1.63,1.43-2.84,1.21-2.84-2.44-5.67-4.89-8.53-7.31-1.32-1.12-1.5-.12-1.73.94-.72,3.36-1.49,6.71-2.24,10.07C174.45,169.14,174,170.5,172.56,170Z"/><path class="cls-1" d="M68.46,177.16c8.63.45,16.92,2.92,25.37,4.42,1.06.19,1.9.72,1.57,1.91s-1.56,1.1-2.42.85c-8.25-2.35-17-2.58-25-5.85C68.13,178,68.29,177.6,68.46,177.16Z"/><path class="cls-2" d="M175.25,168.49c.75-3.36,1.52-6.71,2.24-10.07.23-1.06.41-2.06,1.73-.94,2.86,2.42,5.69,4.87,8.53,7.31A61.08,61.08,0,0,1,175.25,168.49Z"/><path class="cls-1" d="M75,172.14l15.47,3c1.16.22,2.35.37,3.49.69a1.42,1.42,0,0,1,1,1.7,1.18,1.18,0,0,1-1.52,1.11c-7.12-2.18-14.86-1.79-21.67-5.22C72.34,171.61,73.82,172.23,75,172.14Z"/><path class="cls-1" d="M370.68,188.75a5.71,5.71,0,0,1-6.37-2.75c-1.67-2.61-1.38-5.24.27-7.73s4.05-2.66,6.67-2.12c.84.8.26,1.6,0,2.39-2.66.18-4.77,1.09-4.68,4.2.08,2.51,1.78,3.45,4.1,3.52C371.82,187.07,371.47,187.91,370.68,188.75Z"/><path class="cls-3" d="M262.45,51.61c.38-.06,1.35.3,1.42,1.94.06,1.37.72,2.93-1.51,3.35a51.67,51.67,0,0,0-5.92,1.46c-1.66.52-2.6.35-3.24-1.52s.08-2.63,1.67-3.2A30.92,30.92,0,0,1,262.45,51.61Z"/><path class="cls-3" d="M254.73,43.21a43.56,43.56,0,0,1,6.27,1.1c1.95.39,1.56,1.29,1.44,2.72-.16,1.82-.84,2.2-2.47,2a36.15,36.15,0,0,0-5.69-.34c-2.25.06-2.49-1.23-2.45-3C251.87,43.78,252.67,42.81,254.73,43.21Z"/><path class="cls-3" d="M264.57,42.79a80.17,80.17,0,0,1-7.46-5.6c-.78-.72.4-2.21,1.11-3.12a1.67,1.67,0,0,1,2.52-.3c1.76,1.24,3.57,2.4,5.31,3.66,1.31,1,1.18,2.27.52,3.49C266.14,41.7,265.66,42.61,264.57,42.79Z"/><path class="cls-1" d="M93.43,170.15c1.23,1.93.82,3-1.58,2.63-4-.67-7.89-1.54-11.84-2.32-.92-.56-2.82-.35-2.5-1.87s1.94-.93,3.06-.74C84.86,168.59,89.14,169.38,93.43,170.15Z"/><path class="cls-1" d="M157.47,141.32c1.57,2.86,3.1,5.75,4.77,8.56a4.93,4.93,0,0,1,.92,2.24c0,.79.33,1.72-.7,2.17s-1.45-.49-1.84-1.14c-2.13-3.54-4.21-7.1-6.31-10.66C154.82,140.65,156.23,141.22,157.47,141.32Z"/><path class="cls-1" d="M163,137.79c1.94,3.41,3.87,6.82,5.82,10.21.61,1.06,1.38,2.31,0,3.09s-2.19-.39-2.76-1.52c-1.8-3.59-4.07-6.95-5.4-10.78C161.09,137.54,162,137.39,163,137.79Z"/><path class="cls-1" d="M339.83,342.05c2.77-4.68,7.45-7.09,12.43-10.75-1.18,6.24-6.75,7.24-9.3,10.87C341.89,342.81,340.82,343.49,339.83,342.05Z"/><path class="cls-1" d="M151.45,144.32c1.78,3.75,3.58,7.49,5.3,11.26.4.88,1.29,2.1-.33,2.68-1.18.42-1.64-.62-2-1.51-1.67-3.64-4.14-6.92-5.21-10.85C149.2,144.31,149.93,143.74,151.45,144.32Z"/><path class="cls-1" d="M348.74,342.16c-.14-2.78,2.46-3.36,4-4.5,2.26-1.66,4.26-4.15,8-4.13-1.75,4.5-6.16,5.7-8.79,8.66C350.89,342.67,349.81,343.33,348.74,342.16Z"/><path class="cls-1" d="M333,340.23c2.35-3.61,6.08-5.5,9.62-7.61.59-.35,1.36-.82,1.9-.05s.14,1.52-.61,2.11c-2.78,2.18-5.53,4.4-8.3,6.61A1.77,1.77,0,0,1,333,340.23Z"/><path class="cls-2" d="M370.65,186.26c-2.32-.07-4-1-4.1-3.52-.09-3.11,2-4,4.68-4.2A18.47,18.47,0,0,1,370.65,186.26Z"/><path class="cls-2" d="M180.31,127.44c0,.42,0,.81-.59.81C179.61,127.76,179.9,127.56,180.31,127.44Z"/><path class="cls-6" d="M323.21,83.18c-2.55-.9-6.45,1.11-7.65-1.52-1.69-3.7-1.1-8.14-1.1-12.29,0-.83.62-1.26,1.32-1.52,2.64-1,4.36-3.29,6.66-4.77,2.65,5.75,4.13,11.84,5.49,18,.33,1.53-.08,1.93-1.52,1.89A31.5,31.5,0,0,0,323.21,83.18Z"/><path class="cls-2" d="M336.57,186.33c0-3.21.05-6.41.07-9.62.08-1.07.15-2.14.22-3.21,4.37-.1,6.38,1.67,6.51,5.81.05,1.67,0,3.36-.06,5-.09,4.4-.21,4.33-4.79,4.36C336.41,188.73,336.52,187.7,336.57,186.33Z"/><path class="cls-2" d="M342.52,197.55c-.6,2.38-2.28,3-3.95,3.66-.83.33-1.86,1.23-2.21-.39-.23-1.09-.58-2.39,1-3A10.35,10.35,0,0,1,342.52,197.55Z"/><path class="cls-2" d="M339.43,194.61c-1.17-.22-2.92.57-2.78-1.69.17-2.67,2.39-1.31,3.6-1.61.95-.24,2.93-.55,2.79,1.58C342.87,195.45,340.61,194,339.43,194.61Z"/><path class="cls-6" d="M269.74,278.2c4.37-3,4.74-5.9,1.72-10.52-1.94-3-3.49-6-6.29-8.54-2.4-2.15-2.09-6.2-3.05-9.37-1.83-6-4.2-11.81-6.19-17.7a37.62,37.62,0,0,0-5.42-10.87c-.56-.72-.93-2.37-2.29-1.59-1,.58-.3,1.8,0,2.63,2.25,5.71,4.68,11.35,6.86,17.09A156.55,156.55,0,0,1,261,257c.31,1.26.52,2.41-1,3-8.15,3.16-15.26,8.37-23.29,11.75-11.4-15.36-22.48-30.94-34.74-45.65-3.88-4.65-7.74-9.46-10.44-15-3.29-6.76-1.46-13.29,4.53-17.91a67.6,67.6,0,0,1,23-11.45c9.91-2.83,19.06-.14,27.33,6,14.26,10.54,25.79,24,38.6,36.06a29.7,29.7,0,0,0,15.22,7.58c10.84,2.09,21.64,2.23,32.19-1.69,1.23-.46,2.4-1.09,3.6-1.64.29,21.47-.39,42.93-.71,64.4a9.11,9.11,0,0,0-3.89-.15c-10.2,1.18-20.43.38-30.56-.45-9.66-.79-19.2-3-28.79-4.55C271.27,284.22,270.5,281.21,269.74,278.2Z"/><path class="cls-6" d="M366.9,226l.14-1.12a65.85,65.85,0,0,0,1.59-15.71,6.64,6.64,0,0,0,.66-3.94c1-1.72.43-3.67.82-5.48a134.5,134.5,0,0,1,19.45-14.94,26.19,26.19,0,0,1,18-3.31c12.08,1.89,22.94,6.45,31.17,16,2.29,2.67,3.56,5.34,2.08,8.81-2,4.64-3.78,9.19-7,13.36-13.2,16.94-26.79,33.61-39,51.29a3.74,3.74,0,0,0-.31,1c-8.68-3.71-16.86-8.42-25.26-12.68q.76-2.56,1.54-5.13a187,187,0,0,1,13-31.33c.62-1.21,1.3-2.71,0-3.52-1.6-1-2.62.41-3.28,1.79-2.25,4.72-4.56,9.45-6.62,14.24-3.29,7.64-5.31,15.76-7.08,23.9l-2.55,1.68c-.2-6.61.79-13.13,1.74-19.61C366.64,236.2,366.06,231.05,366.9,226Z"/><path class="cls-6" d="M273.38,313.32c3.38-3,3.27-6.9,2.55-10.8s-1.83-8-2.77-12c6.91,1,13.85,1.7,20.71,2.93,13.71,2.46,27.44,3.32,41.29,1.51.69,2.59-.64,5.16,0,7.78.31,1.34-1.09,1.4-1.92,1.61-2.76.7-5.53,1.4-8.33,1.88-5.85,1-6.24,1.61-4,7-5.47,0-10.95.19-16.42,0-9-.36-17.88.52-26.82.42C276.23,313.58,274.81,313.41,273.38,313.32Z"/><path class="cls-6" d="M363.57,264.88c.46.06,1.18.35,1.35.16,3.05-3.56,5.8-1.38,8.72.27,5.92,3.33,11.78,6.8,18.05,9.47,1.78.77,2.39,1.89,1.43,3.67-.39.74-.8,1.47-1.18,2.21-3.45,6.95-4.37,7.25-11.25,3.94-5.93-2.86-11.91-5.62-17.87-8.43Z"/><path class="cls-1" d="M355.62,150.14c-4.25.78-7.33-.22-11.18-.57l12.19-14.74c-4.3.58-7.44-.13-10.62-.21-.83,0-1.85.26-1.9-1s.94-1.34,1.76-1.37c4.53-.17,9.07-.34,13.6-.38,1.56,0,2.06.71,1.1,2.24-2.29,3.66-5.31,6.72-8.18,9.88-.94,1-1.68,2.09-2.79,3.39a16.32,16.32,0,0,0,6.73-.2c1.34-.33,3.09-.1,3.7.73s-.42,2.37-1.18,3.37a106.88,106.88,0,0,1-10,11.69c3.74,0,6.61,0,9.49,0,.72,0,1.8-.62,2,.65s-.45,2.47-1.59,2.39c-4.13-.27-8.32.76-12.39-.52-1.82-.57-1.08-1.6-.44-2.76,1.82-3.29,4.89-5.56,6.93-8.67C353.63,153,354.36,152,355.62,150.14Z"/><path class="cls-1" d="M326.92,333.52c.12-1.93-.44-3.15-1.8-4.89-1.49-1.9-1.86-5.44-2.51-8.32,0-.15.44-.54.73-.62,1.52-.4.64,1.56,1.86,1.77.9-1.62.54-4.72,3.9-4,.22,0,.78-.58.86-1,.16-.73-.53-1.15-1.06-1.18a14.26,14.26,0,0,0-4.57.07c-2,.55-3,.12-3.26-1.92,4-1.53,8.21-1.13,12.37-1.12.17,0,.43.45.51.41,4.59-2.38,5.34,1.77,7.12,4.17l-.06-.09c.06,4.69-.67,8.71-5.27,11.65a36.32,36.32,0,0,0-5.38,4.48C329.12,334.18,328.17,334,326.92,333.52Zm3.41-7.15c-2.3.41-2.36-2-3.36-3.07-2,1.35,2,4.08-.79,4.58.76-.73,4.29,4.17,4.1-1.56l1.25-.14c-.09-.15-.14-.41-.25-.44C330.76,325.61,330.48,325.91,330.33,326.37Zm.47-10.47c.67.92.95,1.28,1.21,1.66a3.1,3.1,0,0,0,1.67,1.07c1.34.49,1.48,1.77.14,2.25-2.63,1,.42,1.85-.16,2.74-.38.58.31.92.72.82,1.17-.3,1.73-.89,1.35-2.33-.19-.71.54-1.67.86-2.52,1.41-3.65,1.21-3.93-2.78-3.85C333,315.75,332.21,315.82,330.8,315.9Z"/><path class="cls-5" d="M335.16,295c-13.85,1.81-27.58.95-41.29-1.51-6.86-1.23-13.8-2-20.71-2.93l.13-.11c.28-.53-.16-.6-.49-.74-.37-.79-1.07-1.47-.77-2.46,9.59,1.57,19.13,3.75,28.79,4.54,10.13.83,20.36,1.63,30.56.45a9.11,9.11,0,0,1,3.89.15A4,4,0,0,1,335.16,295Z"/><path class="cls-1" d="M347.78,236.38a6.07,6.07,0,0,1,6,6.26,6.44,6.44,0,0,1-6.35,6c-2.73-.05-6.44-3.63-6.36-6.15C341.13,239.3,344.38,236.38,347.78,236.38Zm-.45,3.24c-2,0-3.15.67-3.24,2.62-.1,2.41,1.36,3.4,3.51,3.59a3,3,0,0,0,3.4-2.9C351.2,240.48,349.13,240,347.33,239.62Z"/><path class="cls-1" d="M341.07,316.92l.47-.35c0,.51-.18.51-.52.27Z"/><path class="cls-1" d="M239.57,333a8,8,0,0,1-2.11,11,7.18,7.18,0,0,1-10.12-2c-1.94-3.22-1.46-6.65.93-9.67A58.54,58.54,0,0,1,239.57,333Z"/><path class="cls-1" d="M317.16,328,316,323.2c1.39-.8,2.41,3.16,3.79,0,.17-.39.81.1,1,.58-1.21.46,1.38,1.4-.29,2C319.32,326.2,318,326.43,317.16,328Z"/><path class="cls-1" d="M314.1,184.31c.9,2.16.27,3.15-1.87,3.7-6.79,1.74-12.19-1.13-17.33-5-.61-.47-1.61-1.06-.88-2,.61-.75,1.62-.44,2.27.14,2.24,2,5.15,3.13,7.7,4.21A11.16,11.16,0,0,0,314.1,184.31Z"/><path class="cls-1" d="M318.77,51.1c-.2,2.72-.2,5.24-3.33,5.48-2.23.17-7.06-5-6.58-7.25.68-3.17,4.06-3.66,6.28-3.75C318.74,45.44,317.9,49.24,318.77,51.1Z"/><path class="cls-1" d="M317.86,43.2A15.82,15.82,0,0,1,315,42c-1.07-.67-2.63-1.57-1.75-3,.77-1.25,1.92.1,2.72.59,2.42,1.5,3.54.35,4.1-1.89.23-.9.45-1.74,1.5-1.42s.95,1.36.73,2.15C321.67,40.72,320.5,42.57,317.86,43.2Z"/><path class="cls-1" d="M308.16,45.22c-.48,1.94-1.71,3.44-3.8,3.52a4.92,4.92,0,0,1-5-2.77,1.42,1.42,0,0,1,.2-1.26,1.12,1.12,0,0,1,1.62,0c2.07,1.85,3.83,2.68,4.68-1,.16-.7,1-.64,1.53-.45C308.29,43.55,307.92,44.46,308.16,45.22Z"/><path class="cls-1" d="M238.22,143.87a7.62,7.62,0,0,1-1,.2c-.64,0-.84,1.88-1.84.45a1.15,1.15,0,0,1-.07-1.56c.67-.87,1.37-.75,2.06-.11a7.06,7.06,0,0,1,.85,1.09Z"/><path class="cls-1" d="M238.18,143.94l0-.06Z"/><path class="cls-1" d="M388.15,333.11l0-.17c-.52-1.42-1.61-2.93-2.94-1.85-1.63,1.33-2.83.69-3.6-.27-1.11-1.4-.31-2.75,1.4-3.32-.81-1-1.22-.68-2-.28-1.29.7-2.31-.47-1.58-1.36,1.88-2.28.67-5.21,2.08-7.48l-.06.06c1.47,1.69,2.91,3.45,4.49.05,1-2.15,2.88.82,4.39-.77s2.16-.65,2.59,1.45c.2,1,3,2.39,4.08,2,2.14-.72,3.53.7,5.27.79l0-.05c.76,2.68-1.51,3-2.9,2.84-1.84-.18-2.22.67-3,1.92s-1.27,2.94-3.8,3,.5,2.15-.34,3.21l.05-.05c-.58.31-1.57.2-1.35,1.32a1.22,1.22,0,0,0-1.68,0C389.61,333,388.92,333,388.15,333.11Z"/><path class="cls-1" d="M405.21,332.87c1.52,3.4,2.37,6.53-.64,9.89-2.43,2.72-5.14,2.88-8,2.06s-4.66-3.21-5.08-6.34c-.12-.92.3-1.93-.48-2.73,1.59-.45.86-2,1.38-2.93l-.05.05C396.6,331.65,400.91,332.75,405.21,332.87Z"/><path class="cls-1" d="M381.58,318.38a4.82,4.82,0,0,0-3.2,1.26c-.9.66-1.61-.1-2.15-.61a1.69,1.69,0,0,1,0-2c.47-1,1.26-.32,1.82-.11,1.18.45,2.93-.34,3.51,1.5Z"/><path class="cls-1" d="M402.34,322l.26-.14-.3.09Z"/><path class="cls-6" d="M272.8,289.69c.33.14.77.21.49.74C272.59,290.54,272.84,290,272.8,289.69Z"/><path class="cls-1" d="M290.45,52.88c.11,4.48-2.93,8.34-6.62,8.4-3.51,0-7.1-3.52-7.24-7.21-.16-4.27,2.75-7.88,6.48-8A7.23,7.23,0,0,1,290.45,52.88Zm-3.07,1.54c-.2-3-1.37-4.93-4.12-5.44-1.64-.31-4.08,3.05-3.77,5.29s1.51,4.08,4.14,4.14C286.54,58.48,287.1,56.41,287.38,54.42Z"/><path class="cls-1" d="M192.72,136.16c.13,1.83-1.9,3.45-4,4.3S184,138,184,135.25c-.08-3.27,1.66-5.54,4.25-5.55S192.63,132,192.72,136.16ZM186.67,135c0,1.11,0,2.43,1.36,2.52s1.58-1.28,1.65-2.3c.09-1.21-.19-2.62-1.68-2.65S186.91,134.09,186.67,135Z"/><path class="cls-1" d="M212.28,142.48c3.31,0,5.9,2,5.63,4.57-.32,3-2.55,4.11-5.21,4.35-2.3.21-5.33-2.66-5.17-4.89C207.73,143.65,209.4,142.29,212.28,142.48Zm.44,2.51c-.73.61-2.51-.25-2.38,1.4a2.33,2.33,0,0,0,2.27,2,1.85,1.85,0,0,0,2.2-1.81C214.85,145.39,213.73,145.16,212.72,145Z"/><path class="cls-1" d="M200.54,141.11c.73,1.94,3.41,3.36,1.65,5.94s-4.18,2.36-6.71,1.36-3.5-3-2.84-5.43c.77-2.92,3.27-2.72,5.6-2.44a15.55,15.55,0,0,1,2.38.65Zm-.92,4.25c-.25-1.41-1-2.4-2.28-2.51-.83-.07-2.13.13-2,1.4a2,2,0,0,0,2.06,2C198.23,146.25,199.34,146.58,199.62,145.36Z"/><path class="cls-1" d="M366.54,207.78a3.8,3.8,0,0,0-4.44,3.63c-.23,2.3,1.53,3.32,3.64,3.62.95.13,1.74.57,1.6,1.54-.2,1.33-1.34,1.06-2.29,1-4-.36-6.54-3.84-6-8.2.36-2.76,4.65-5,8.4-4.42h0l1.19.89C368.43,207,367,206.86,366.54,207.78Z"/><path class="cls-3" d="M366.54,207.78c.46-.92,1.89-.8,2.14-1.95l.61-.63a6.62,6.62,0,0,1-.66,3.93C368.47,207.84,366.76,209,366.54,207.78Z"/><path class="cls-3" d="M367.49,204.94h0Z"/><path class="cls-6" d="M270.11,273.46a3,3,0,0,1-1.63,2.45c-7.24,3.41-14.53,6.73-21.75,10.19-2.48,1.18-3.92.4-5.34-1.76-6.34-9.69-4-9.5,3.38-13,4.83-2.32,9.43-5.11,14.19-7.59,5-2.61,5.69-2.34,8,2.83C268,268.81,269.82,270.7,270.11,273.46Z"/><path class="cls-5" d="M366.7,259.26c1.77-8.14,3.79-16.26,7.08-23.9,2.06-4.79,4.37-9.52,6.62-14.24.66-1.38,1.68-2.77,3.28-1.79,1.33.81.65,2.31,0,3.52a187,187,0,0,0-13,31.33q-.78,2.56-1.54,5.13Z"/><path class="cls-3" d="M388.15,333.11c.77-.09,1.46-.08,1.17,1,.21.77.34,1.63,1.48,1.5l.11.15c-.9.81-2.38.89-2.6,2.56C386.29,336.37,388.17,334.75,388.15,333.11Z"/><path class="cls-3" d="M392.35,332.82c-.52.95.21,2.48-1.38,2.93l-.06,0-.11-.14c.06-.51.13-1,.2-1.51C390.78,333,391.77,333.13,392.35,332.82Z"/><path class="cls-3" d="M330.8,315.9c1.41-.08,2.21-.15,3-.16,4-.08,4.19.2,2.78,3.85-.32.85-1,1.81-.86,2.52.38,1.44-.18,2-1.35,2.33-.41.1-1.1-.24-.72-.82.58-.89-2.47-1.77.16-2.74,1.34-.48,1.2-1.76-.14-2.25a3.1,3.1,0,0,1-1.67-1.07C331.75,317.18,331.47,316.82,330.8,315.9Z"/><path class="cls-3" d="M330.28,326.32c.19,5.73-3.34.83-4.1,1.56,2.77-.5-1.17-3.23.79-4.58,1,1.07,1.06,3.48,3.36,3.07Z"/><path class="cls-3" d="M330.33,326.37c.15-.46.43-.76.95-.63.11,0,.16.29.25.44l-1.25.14Z"/><path class="cls-2" d="M347.33,239.62c1.8.35,3.87.86,3.67,3.31a3,3,0,0,1-3.4,2.9c-2.15-.19-3.61-1.18-3.51-3.59C344.18,240.29,345.37,239.59,347.33,239.62Z"/><path class="cls-5" d="M391,334.14c-.07.5-.14,1-.2,1.51-1.14.12-1.27-.74-1.48-1.51A1.22,1.22,0,0,1,391,334.14Z"/><path class="cls-5" d="M287.38,54.42c-.28,2-.84,4.06-3.75,4-2.63-.06-3.82-1.84-4.14-4.14s2.13-5.6,3.77-5.29C286,49.49,287.18,51.46,287.38,54.42Z"/><path class="cls-2" d="M186.67,135c.24-.92-.23-2.46,1.33-2.43s1.77,1.44,1.68,2.65c-.07,1-.22,2.4-1.65,2.3S186.71,136.12,186.67,135Z"/><path class="cls-2" d="M212.72,145c1,.17,2.13.4,2.09,1.56a1.85,1.85,0,0,1-2.2,1.81,2.33,2.33,0,0,1-2.27-2C210.21,144.74,212,145.6,212.72,145Z"/><path class="cls-2" d="M199.62,145.36c-.28,1.22-1.39.89-2.25.91a2,2,0,0,1-2.06-2c-.1-1.27,1.2-1.47,2-1.4C198.63,143,199.37,144,199.62,145.36Z"/></svg>