<svg id="Слой_1" data-name="Слой 1" xmlns="http://www.w3.org/2000/svg" viewBox="0 0 514.94 358.18"><defs><style>.cls-1{fill:#fab669;}.cls-2{fill:#fec844;}.cls-3{fill:#252525;}.cls-4{fill:#fa7afd;}.cls-5{fill:#fefdfd;}.cls-6{fill:#00e6cd;}.cls-7{fill:#fc80fe;}</style></defs><path class="cls-1" d="M142.35,182.57c2-4.44,7-6.25,10.63-4.57a8.07,8.07,0,0,1,4.26,8.1,19.56,19.56,0,0,1-2.39,1.84c-2.19,1.43-5.24,3.42-7.86,2.65S142.57,186.52,142.35,182.57Z"/><path class="cls-2" d="M327.88,144.26c-2.27,6.5-.7,11.65,3.59,17.28,5.37,7.05,9.17,15.33,9.32,24.66-1.51-.95-3-1.92-4.53-2.83-3.8-2.26-5-1.82-6.34,2.25-.64,1.92-1.37,3.81-2.06,5.71-5-4.37-9.95-8.82-15.76-12.21-2.11-1.24-3.06-.89-4.44.71-8.64,10-19,17.48-31.76,21.45-15.88,5-31.86,8.94-48.63,4.72-2.58-.65-5.33-.83-7.56-2.55,4.85-.88,9.23,1.69,14,1.88,6.5.24,13,1.31,19.16-1.81.17,1,.64,1.66,1.71,1.16a1.28,1.28,0,0,0,.4-1.22c-.68-1.24-1.41-.11-2.12.07.22-3-1.82-4.21-4.15-5.19-.94-.39-2.49-1-1.89-1.94,2.14-3.36-.6-2.29-2-2.47-.81-.11-1.62-.35-1.62-1.29s.77-.79,1.42-.76c1.67.09,1.49-1,.59-1.47-3.69-1.87-4.64-7.23-9.74-6.85,1.38-4.27,4.67,1,6.24-2.14-2.54-1.16-6.41-1.23-5.19-5.75.06-.23-1.61-2.89-2.94-.29-.25.48-.53,1.52-1.26.69-3.13-3.56-4.13-.68-5.09,2.21-1.61-3.5-1.75-3.53-1-6,.51-1.84-.52-1.58-1.59-1.55s-1.68,1.33-2.77.45c2.32-3.19,1.19-5.5-3.44-7.1,1-3.9,1.75-7.75-2.22-10.62.58-1.33,1.11-2.79,0-4-1.62-1.76-1.4-4.15-1-5.72.83-3.09-.38-2.8-2.39-2.3-2.73.67-3.45-.19-2.41-2.86.23-.57,1.07-2.5-.56-2.37-2,.15-3.08-2-5-1.38h0a2.91,2.91,0,0,0-1.76-3.11c-3.51-.77-3.25-3.83-4.3-6.13-1.75-3.87-.39-6,3.78-5.86.59,0,1.21.52,1.73-.41-.35-1.89-3.93-1-3.39-4,1-.21,2,1.93,3.2.37,1.47-1.89,1.32-7.7-.77-8.79-3-1.58-2-2.06.24-3,3.73-1.54,4.36-3.37,2.62-7.12-2.26-4.89-1.59-8.21,2-9.61-1.17-1-2.67-1.85-2-3.73s2.2-1.56,3.57-1.57c1.8,0,2.41-1.16,2.9-2.56h0c1-1.33,1-3.73,0-3.76-2.18-.07-1.47-1-1.63-2.22-.42-3.43,2.1-4.68,4.35-6.19-4.32-3.34-4.24-3.67-1.44-8.72.32-.57,3-2.64.15-4v0c1.19-1.26,1.89-1,2.35.65.14.48-.54,1.82.88,1.31.56-.2,1.8-.31,1.42-1.41-.95-2.71,0-4.9.82-7.56,1.42-4.54,2.81-5.89,7.15-4.33,1.32.48,3.4,2.44,4.7-.74.55-1.36,1.2.77,2,.69h0a5.57,5.57,0,0,0,.08,1.16c.3,1.12-.48,3.2,1.28,3.1,2.29-.13.14-2.06.64-3a3.88,3.88,0,0,0,.28-2.9c-.14-.77-.05-1.68.84-1.93s1.46.55,1.76,1.2a19,19,0,0,1,.84,3.05c1.26-1.61,2-3.36,3.68-4.48,1.12-.77,2-2.37,3.19-.39.55,1,3.42,2.55-.22,3.46-.56.14-.66.76-.3,1.24a.69.69,0,0,0,1.24,0c.49-.79,1.56-.71,2-1.67.93-1.93,6.92-4.51,8.43-3.21,2.62,2.27,3.72.4,5-1.16,1-1.21,2.39-1.7,3.53-2.43-1.65-3.35-5.06-3.09-7.55-4.47,7-.25,13.37,2.42,19.5,5.11a101.26,101.26,0,0,1,38.8,31.78c-1.54,1-3.42.81-5.05,1.82-1.29.81-3.87-.39-3.32-1.56.8-1.67.32-1.39-.68-1-1.76.74-2.39,4.75-1,6,.83.72,1.83,1.4.21,2.1-3.34,1.45-2.33,5-3.6,7.35-.24.45.48.95,1,.84,2.34-.49,3.28,2.17,5.68,1.92-2.17,2.31-4.52-.41-6.58,1.18a1.84,1.84,0,0,0-.94,1.94c0,2.17,1.46.26,1.59.62.7,2,2.77-2.05,2.9.64A5.35,5.35,0,0,1,305,92.79c-1.29,1.33-1-1.69-2.4-1.1-.41.17-1.18-.71-1.71-.63a5.36,5.36,0,0,0-1.9,1c-.17.11-.25.34-.38.52.45.21,1.22.33,1.32.65,1.19,4.12,4.09,2.74,6.65,2a3.29,3.29,0,0,1,3.62,1.34c1,1.59-1.05,1.61-1.88,2.11a8.85,8.85,0,0,0-3.46,4.32c2.22-.23,4.27-.3,2,2.38-1.38,1.64-1.47,4.73-4.91,4-.84-.17-.5,1-.45,1.54.13,1.47.4,2.93.61,4.42,4.68-1.54,5.89-.63,6.13,4.38.1,2.05,0,4.51,3.32,3.06,1.14-.5,1.46.25,1.52,1a51.33,51.33,0,0,1-.65,11.47,12.51,12.51,0,0,1-3.87,7.08c1.87.72,2.25-1,3.7-1.19-.52,1.74.15,2.16,1.68,3,2.13,1.2,2.32,1.92,4.05,0,1.46-1.57,3.27-1.4,5-.84A10.17,10.17,0,0,0,327.88,144.26Zm-49.21,40.48,2.22-3a3.48,3.48,0,0,0-4.05,1.83c-.44,1,1,1.13,1.81,1.2-.24,1.43-.48,2.85-.71,4.28,4.26.35,6.32-1,6.12-4-.05-.75,0-1.64-.95-1.87s-1.73-.35-1.9,1.05C280.91,186.54,279.4,184,278.67,184.74Zm-32.54-39.69v.08c-3.2.22-6.4.45-9.59.65-2.62.17-4.13,1.68-4.21,4.14a12,12,0,0,0,1.52,6.28c2.38,4.13,10.29,8,14,7,7.71-2,12-6.9,12.13-13.87.1-3.88-1-5-5-4.89C252,144.57,249.08,144.85,246.13,145.05Zm24.45-8.46c-.3-3.12-2.56-4.81-5.93-4.42a5.66,5.66,0,0,0-4.79,5.85c.29,2.9,3.22,4.91,6.81,4.69C268.94,142.56,270.86,139.55,270.58,136.59Zm-38.37,3a5.62,5.62,0,0,0-6-4.84c-2.81.13-5.21,2.58-4.94,5,.44,4.05,2.44,5.78,6.23,5.42A5.48,5.48,0,0,0,232.21,139.58Zm89.69,17.64c-3.83.06-.23,3.23-1.88,4.44-.47.34,1.19,1.77,1.61,1.68,2.5-.6.72-3,1.56-4.41A1.18,1.18,0,0,0,321.9,157.22Zm-62,38.68c-2.93-2.74-5.25-.34-7.36-1.13-.11,0-.6.5-.64.81-.1.61.43.78.91,1C255.06,197.63,256.75,195.42,259.86,195.9Zm-9.17-9.75c-.3-1.21-.94-1.69-1.75-1.56-1.06.18-2.42.36-2.74,1.47-.14.48,1.23,2,1.49,1.88C248.79,187.52,249.16,186,250.69,186.15Zm58.48-15.27c1.19-.68.89-2.22,2.2-2.31l-1.85-2.51A4.15,4.15,0,0,0,309.17,170.88ZM309,64.43a7.78,7.78,0,0,0-1.62-.68c-.22,0-.48.36-.73.56a6.33,6.33,0,0,0,1.22.71C308.07,65.08,308.39,64.76,309,64.43Zm-5.6,9.1-.24.67c.22.07.5.27.66.19s.17-.41.25-.63Zm-80.62,89-.24.66c.22.08.5.28.65.21a.66.66,0,0,0,.22-.62C223.33,162.65,223,162.62,222.77,162.54ZM203.4,128.92c-.1-.2-.15-.49-.3-.56s-.38.09-.58.15l.35.74Zm-.21-3.52a3,3,0,0,0-.9-.38c-.29,0-.85,0-.45.55.18.24.62.3,1,.35C202.88,125.94,203,125.64,203.19,125.4Zm48.58,63.11-.37-.55c-.09.2-.26.4-.24.59s.2.37.32.55Zm57-127.1,0-.29-.4.1a1,1,0,0,0,.13.25S308.65,61.43,308.73,61.41Z"/><path class="cls-3" d="M216.15,153.42c4,2.87,3.2,6.72,2.22,10.62a12.29,12.29,0,0,1-14.21-.4,5.71,5.71,0,0,0-3.26-.8c-5.59-.46-11.26-.69-16.55-2.8-10.64-4.25-17.92-12.08-22.16-22.51-1.28-3.13-2.67-3.89-5.54-3.28-2.25-.23-4.51-.38-6.75-.69-5.38-.73-6.33-1.72-7-7.12-.15-1.24-.21-2.48-.31-3.73q-1-11.11-1.9-22.23c.11-.22.35-.47.32-.67-1.14-8.4,2.33-9.6,10.68-12.12,2.75-.83,3.82-1.71,4.36-4.86,2-11.78,5.83-22.78,12.76-33a72.27,72.27,0,0,1,30-25.44C211,18.8,224,16.79,237.42,16.84c5.32,0,10.64-.77,16-.73,7.22.06,14.48-.38,21.6,1.49,22.29,5.84,38.54,19.09,49.34,39.4a62.66,62.66,0,0,1,6.35,16.37A2.88,2.88,0,0,0,333.49,76c7.09.21,9.47,5.13,11.2,10.8l1.74,22.87c.33,2.56-.8,4.93-1.08,7.42-.25,2.25-1.81,3.4-4.14,3.76-2.87.45-5.69,1.21-8.54,1.84-8.43.3-9.05-.61-10.86-9.09-1.94-9.07-1.63-18.23-1.77-27.35-.06-3.39-.9-7.22,1.62-10.33,1.64-.51,3.24-1,2.53-3.34-2.6-8.6-5.49-17.13-11.26-24.17C304.45,38,294.27,29.88,281.46,25.22a66.5,66.5,0,0,0-22.41-4.35,232.48,232.48,0,0,0-32.78,2.24c-6.57.91-13.34.76-19.62,3.39a81.31,81.31,0,0,0-24,15.11c-11.08,10.14-17.18,22.56-20.92,36.57a14.64,14.64,0,0,0,0,3.8h0c-1.22.54-.82,1.59-.78,2.51-.22.46-1.23.92-.05,1.38,3.78,1.48,4.74,4.53,5,8.24.51,8,1.47,16,1.75,24,.14,4.13,1.72,8.65-.64,12.41-1.89,3-1.24,5.15.49,7.57a21.19,21.19,0,0,0,5.31,8.39l.08,0a11.6,11.6,0,0,0,6.82,6.4l0-.05a3.14,3.14,0,0,0,2.52,1.46c5.18,3.38,11,4.49,17,4.51,1,0,2.41-.18,2.84-.81C205.62,152.85,210.88,153.2,216.15,153.42Zm123.4-54.37h-.18c-.29-4.21-.42-8.44-1-12.62-.17-1.31-.29-3.85-2-3.67-2.18.24-.66,2.46-.81,3.8a12.08,12.08,0,0,0,.07,1.9c.41,7.14.76,14.28,1.28,21.41.12,1.53.15,4,2.18,3.81,1.84-.17,1.22-2.41,1.1-3.91C340,106.2,339.79,102.63,339.55,99.05ZM148.29,110.74h0c.29,4.35.57,8.69.9,13,.05.68-.14,1.64,1.06,1.64,1,0,1.23-.49,1.27-1.45A147.27,147.27,0,0,0,150,97.6c-.12-.91,0-2.42-1.51-2.14-1.27.24-1,1.64-1,2.61C147.69,102.3,148,106.52,148.29,110.74Z"/><path class="cls-1" d="M156.65,134.25c2.87-.61,4.26.15,5.54,3.28,4.24,10.43,11.52,18.26,22.16,22.51,5.29,2.11,11,2.34,16.55,2.8a5.71,5.71,0,0,1,3.26.8,12.29,12.29,0,0,0,14.21.4c4.63,1.6,5.76,3.91,3.44,7.1,1.09.88,1.83-.42,2.77-.45s2.1-.29,1.59,1.55c-.71,2.51-.57,2.54,1,6,1-2.89,2-5.77,5.09-2.21.73.83,1-.21,1.26-.69,1.33-2.6,3,.06,2.94.29-1.22,4.52,2.65,4.59,5.19,5.75-1.57,3.13-4.86-2.13-6.24,2.14,5.1-.38,6.05,5,9.74,6.85.9.45,1.08,1.56-.59,1.47-.65,0-1.42-.11-1.42.76s.81,1.18,1.62,1.29c1.41.18,4.15-.89,2,2.47-.6.94.95,1.55,1.89,1.94,2.33,1,4.37,2.18,4.15,5.19h0c-6.16,3.12-12.66,2-19.16,1.81-4.76-.19-9.14-2.76-14-1.88-2.39.23-4.45-.69-6.47-1.79-3-2.19-5.64-4.91-9.74-4.72l0,0c.21-1.6-.64-2.18-2.1-2.59a24.17,24.17,0,0,1-8.13-4.26c-2.84-2.19-4.95-5.3-8.39-6.76l-4.06-2.85-.21-3,0,0c.77-.23,1.74.28,2.43-.73-2.82-2.06-7.58-.93-8.88-5.42-.11-.38-1.21-.37-1.74.08s-.16.85.18,1.26c1.19,1.42.84,1.66-.88,2.76-5.32,3.39-11.65,5-16.34,9.45a20.52,20.52,0,0,0-10.27-3.06c-1.38-.6-1.51-1.2-.57-2.55.49-.71,1.58-2.53-.57-3.24a29.51,29.51,0,0,1,6.09-13.62l.62.3.15-1.09,0,.08c.24-.36.49-.72.73-1.09a.57.57,0,0,1,.18-.52c2.22-.06,2.6-1.57,2.65-3.34l0,0c3.33-.81,5.24-2.89,5.19-5.67A135.78,135.78,0,0,1,156.65,134.25Zm22.59,36.09c-.75.71-1.66,1-1.62,2,0,.17.58.5.83.45C179.66,172.6,179.48,171.69,179.24,170.34Z"/><path class="cls-1" d="M321.66,75.88C319.14,79,320,82.82,320,86.21c.14,9.12-.17,18.28,1.77,27.35,1.81,8.48,2.43,9.39,10.86,9.09a.26.26,0,0,1-.09.42c-1.77,0-2.65,2.24-4.59,1.83l-.33-.15.32.17c.83,1.37.38,2.41-.82,3.29-1,.72-1.06,1.62.15,2,2.66.79.23,2.18.5,3.23l0,0c-.88-.37-1.61-.49-1.48.86h0c-1,.32-2,.91-.27,1.41,1.28.36,2.78-.06,4.19-.13a20.37,20.37,0,0,1-2.35,8.67,10.17,10.17,0,0,1-4.86-.78c-1.71-.56-3.52-.73-5,.84-1.73,1.87-1.92,1.15-4.05,0-1.53-.86-2.2-1.28-1.68-3-1.45.2-1.83,1.91-3.7,1.19a12.51,12.51,0,0,0,3.87-7.08,51.33,51.33,0,0,0,.65-11.47c-.06-.73-.38-1.48-1.52-1-3.32,1.45-3.22-1-3.32-3.06-.24-5-1.45-5.92-6.13-4.38-.21-1.49-.48-3-.61-4.42-.05-.54-.39-1.71.45-1.54,3.44.69,3.53-2.4,4.91-4,2.24-2.68.19-2.61-2-2.38a8.85,8.85,0,0,1,3.46-4.32c.83-.5,2.87-.52,1.88-2.11a3.29,3.29,0,0,0-3.62-1.34c-2.56.7-5.46,2.08-6.65-2-.1-.32-.87-.44-1.32-.65.13-.18.21-.41.38-.52a5.36,5.36,0,0,1,1.9-1c.53-.08,1.3.8,1.71.63,1.38-.59,1.11,2.43,2.4,1.1a5.35,5.35,0,0,0,1.63-3.36c-.13-2.69-2.2,1.33-2.9-.64-.13-.36-1.61,1.55-1.59-.62a1.84,1.84,0,0,1,.94-1.94c2.06-1.59,4.41,1.13,6.58-1.18-2.4.25-3.34-2.41-5.68-1.92-.52.11-1.24-.39-1-.84,1.27-2.4.26-5.9,3.6-7.35,1.62-.7.62-1.38-.21-2.1-1.4-1.22-.77-5.23,1-6,1-.42,1.48-.7.68,1-.55,1.17,2,2.37,3.32,1.56,1.63-1,3.51-.86,5.05-1.82C319.06,69.79,319.83,73.17,321.66,75.88Z"/><path class="cls-4" d="M346.43,109.63l-1.74-22.87c3.58,0,5.5,1.36,6,5.32.43,3.16,1,6.3,1.2,9.49C352.22,107,351.7,107.79,346.43,109.63Z"/><path class="cls-4" d="M140.74,100.48q.94,11.11,1.9,22.23c-3.7.66-5.61-.83-6.51-4.55a46.81,46.81,0,0,1-1.1-11C135,103.45,136.65,100.86,140.74,100.48Z"/><path class="cls-2" d="M157.24,186.1l-1.79-1.24c4.69-4.42,11-6.05,16.34-9.44,1.72-1.1,2.07-1.34.88-2.76-.34-.41-.71-.82-.18-1.26s1.63-.46,1.74-.08c1.3,4.49,6.06,3.36,8.88,5.42-.69,1-1.66.5-2.43.73-.14-.56-.18-1.21-1-1.11a.36.36,0,0,0-.23.26c0,.84.65.8,1.21.88l.21,3a2.24,2.24,0,0,1-.69-.29c-4.68-4.16-6-4.41-11.61-1.24C164.69,181.18,161,183.72,157.24,186.1Z"/><path class="cls-2" d="M326.31,134.31c-.13-1.35.6-1.23,1.48-.86l.35.28-.33-.31c-.27-1,2.16-2.44-.5-3.23-1.21-.36-1.13-1.26-.15-2,1.2-.88,1.65-1.92.82-3.29v0c1.94.41,2.82-1.84,4.59-1.83.24,3.55-.92,6.84-1.88,10.16-1.61.29-.58,1.09-.34,1.75a1,1,0,0,1-.13.61c-1.41.07-2.91.49-4.19.13-1.74-.5-.74-1.09.27-1.41l.33.16Z"/><path class="cls-2" d="M184.92,183.36c3.44,1.46,5.55,4.57,8.39,6.76a24.17,24.17,0,0,0,8.13,4.26c1.46.41,2.31,1,2.1,2.59-7.76-2.32-13.91-7-19.3-12.89A9.8,9.8,0,0,1,184.92,183.36Z"/><path class="cls-2" d="M203.5,196.94c4.1-.19,6.79,2.53,9.74,4.72C209.65,200.8,206.22,199.6,203.5,196.94Z"/><path class="cls-2" d="M145.18,181.81l-2.83.76c-.43-2.44.86-4.44,1.69-6.55,2.15.71,1.06,2.53.57,3.24C143.67,180.61,143.8,181.21,145.18,181.81Z"/><path class="cls-2" d="M159.61,151.11c0,2.78-1.86,4.86-5.19,5.67A28,28,0,0,1,159.61,151.11Z"/><path class="cls-2" d="M154.44,156.74c-.05,1.77-.43,3.28-2.65,3.34C152.29,158.67,152.83,157.28,154.44,156.74Z"/><path class="cls-1" d="M330.36,135c-.24-.66-1.27-1.46.34-1.75A1.68,1.68,0,0,1,330.36,135Z"/><path class="cls-2" d="M150.9,161.61l-.15,1.09-.62-.3Z"/><path class="cls-2" d="M151.61,160.6c-.24.37-.49.73-.73,1.09C151.12,161.33,151.37,161,151.61,160.6Z"/><path class="cls-1" d="M167.47,138.1c-1.73-2.42-2.38-4.57-.49-7.57,2.36-3.76.78-8.28.64-12.41-.28-8-1.24-16-1.75-24-.24-3.71-1.2-6.76-5-8.24-1.18-.46-.17-.92.05-1.38a1.67,1.67,0,0,0,.78-2.51h0c3.46-2.27,3.81-6.36,5.61-9.6,2.38-.79,4.18-2,3.49-4.95v0l.75-.86h-.09c1.6-.1,2.37-.89,2.13-2.54l0,0c1.81,0,1.63-1.2,1.49-2.39l0,0c1.15,0,1.61-.59,1.45-1.7l0,0c2.84-.94,4.67-3.59,7.28-4.62,2.43-1,1.68-2.25,1.43-3.76l.08.11.82-.88,4.2-3.41c3-1.17,7.68,0,7.5-5.47,2-1.35,3.91-2.85,6.42-3.16,3-1,6.63-.51,8.57-3.83,1-1,2.26-.73,3.45-.84s2.74.25,3.62-1.15l.14.11c2.63-.44,5.37-.55,7.84-1.42,3.88-1.36,7.37-1.18,10.72,1.55.67-5,4.53-2.53,6.53-2.7,4.07-.36,8.28.28,12.45,0a2,2,0,0,1,.65.07c2.49,1.38,5.9,1.12,7.55,4.47-1.14.73-2.56,1.22-3.53,2.43-1.24,1.56-2.34,3.43-5,1.16-1.51-1.3-7.5,1.28-8.43,3.21-.45,1-1.52.88-2,1.67a.69.69,0,0,1-1.24,0c-.36-.48-.26-1.1.3-1.24,3.64-.91.77-2.5.22-3.46-1.15-2-2.07-.38-3.19.39-1.65,1.12-2.42,2.87-3.68,4.48a19,19,0,0,0-.84-3.05c-.3-.65-.9-1.43-1.76-1.2s-1,1.16-.84,1.93a3.88,3.88,0,0,1-.28,2.9c-.5.89,1.65,2.82-.64,3-1.76.1-1-2-1.28-3.1a5.57,5.57,0,0,1-.08-1.16c.75-.17,1.49-.4,1.27-1.4-.06-.24-.59-.6-.73-.53-.87.41-.44,1.26-.54,1.93-.82.08-1.47-2-2-.69-1.3,3.18-3.38,1.22-4.7.74-4.34-1.56-5.73-.21-7.15,4.33-.83,2.66-1.77,4.85-.82,7.56.38,1.1-.86,1.21-1.42,1.41-1.42.51-.74-.83-.88-1.31-.46-1.61-1.16-1.91-2.35-.65-1.09-.17-.63-2.92-2.63-1.59-.38.26-1,.55-.35,1.07.86.71,1.66,2.27,3,.5,2.84,1.34.17,3.41-.15,4-2.8,5.05-2.88,5.38,1.44,8.72-2.25,1.51-4.77,2.76-4.35,6.19.16,1.24-.55,2.15,1.63,2.22,1,0,1,2.43,0,3.76-.22-.24.27-1.07-.63-.77l.64.76c-.49,1.4-1.1,2.55-2.9,2.56-1.37,0-3-.17-3.57,1.57s.85,2.73,2,3.73c-3.62,1.4-4.29,4.72-2,9.61,1.74,3.75,1.11,5.58-2.62,7.12-2.21.91-3.27,1.39-.24,3,2.09,1.09,2.24,6.9.77,8.79-1.21,1.56-2.16-.58-3.2-.37-.54,2.94,3,2.1,3.39,4-.52.93-1.14.44-1.73.41-4.17-.17-5.53,2-3.78,5.86,1,2.3.79,5.36,4.3,6.13a2.91,2.91,0,0,1,1.76,3.11c-1.86.26-1.07,1.72-1,2.6.07.61,1.06.58,1.57.15,1.49-1.27-1.08-1.68-.63-2.76,1.92-.59,3,1.53,5,1.38,1.63-.13.79,1.8.56,2.37-1,2.67-.32,3.53,2.41,2.86,2-.5,3.22-.79,2.39,2.3-.43,1.57-.65,4,1,5.72,1.09,1.18.56,2.64,0,4-5.27-.22-10.53-.57-14.1,4.63-.43.63-1.87.81-2.84.81-6.06,0-11.86-1.13-17-4.51-.06-.83-.11-1.66-.17-2.56l-2.35,1.1,0,.05a9.16,9.16,0,0,0-6.82-6.4l-.08,0c.08-.66,1.68-1.1.75-1.65-1.83-1.07-2.2-2.72-2.89-4.44C170.18,139.27,169.28,137.82,167.47,138.1Zm34.76-41.78,1-.36-.22-.28-.78.63-.15.35Z"/><path class="cls-5" d="M216.18,34.2c-1.19.11-2.47-.15-3.45.84-2.94,1.09-6.15,1.58-8.57,3.83-2.51.31-4.43,1.81-6.42,3.16-2.61,1.68-5.79,2.57-7.5,5.47L186,50.91c-.52.06-.95.21-.82.88l-.08-.11c-3.63,2-6.83,4.52-8.71,8.38l0,0c-1.06.08-1.42.75-1.45,1.7l0,0c-1.13.4-1.93,1-1.49,2.39l0,0c-1.66,0-1.89,1.29-2.13,2.53h.09a.77.77,0,0,0-.75.86v0a8.86,8.86,0,0,0-3.49,4.95c-1.8,3.24-2.15,7.33-5.61,9.6a14.64,14.64,0,0,1,0-3.8c3.74-14,9.84-26.43,20.92-36.57a81.31,81.31,0,0,1,24-15.11c6.28-2.63,13-2.48,19.62-3.39a232.48,232.48,0,0,1,32.78-2.24,66.5,66.5,0,0,1,22.41,4.35c12.81,4.66,23,12.78,31.47,23.15,5.77,7,8.66,15.57,11.26,24.17.71,2.35-.89,2.83-2.53,3.34-1.83-2.71-2.6-6.09-5.23-8.3a101.26,101.26,0,0,0-38.8-31.78c-6.13-2.69-12.49-5.36-19.5-5.11a2,2,0,0,0-.65-.07c-.58-1.06-1.64-1-2.65-1.19-10.3-1.51-20.48-.17-30.61,1.52-1.55.26-3.31.6-4.28,2.21l-.14-.11C218.52,33.19,217.15,33.08,216.18,34.2Z"/><path class="cls-3" d="M246.13,145.05c3-.2,5.89-.48,8.84-.58,4-.13,5.1,1,5,4.89-.16,7-4.42,11.84-12.13,13.87-3.69,1-11.6-2.9-14-7a12,12,0,0,1-1.52-6.28c.08-2.46,1.59-4,4.21-4.14,3.19-.2,6.39-.43,9.59-.65Zm1.5,15.23c2.87-.11,5.83-2,7.7-5.05.58-.94,1.64-2,.75-3.12a3.25,3.25,0,0,0-3.7-1.34c-2.89,1-5.8,2.12-7.45,5-.6,1-1.9,2.09-1.14,3.44S246.27,160.16,247.63,160.28Z"/><path class="cls-3" d="M270.58,136.59c.28,3-1.64,6-3.91,6.12-3.59.22-6.52-1.79-6.81-4.69a5.66,5.66,0,0,1,4.79-5.85C268,131.78,270.28,133.47,270.58,136.59Z"/><path class="cls-3" d="M232.21,139.58a5.48,5.48,0,0,1-4.66,5.62c-3.79.36-5.79-1.37-6.23-5.42-.27-2.46,2.13-4.91,4.94-5A5.62,5.62,0,0,1,232.21,139.58Z"/><path class="cls-1" d="M278.67,184.74c.73-.76,2.24,1.8,2.54-.55.17-1.4,1-1.26,1.9-1.05s.9,1.12.95,1.87c.2,3-1.86,4.38-6.12,4,.23-1.43.47-2.85.71-4.28Z"/><path class="cls-1" d="M321.9,157.22a1.18,1.18,0,0,1,1.29,1.71c-.84,1.43.94,3.81-1.56,4.41-.42.09-2.08-1.34-1.61-1.68C321.67,160.45,318.07,157.28,321.9,157.22Z"/><path class="cls-1" d="M259.86,195.9c-3.11-.48-4.8,1.73-7.09.68-.48-.22-1-.39-.91-1,0-.31.53-.85.64-.81C254.61,195.56,256.93,193.16,259.86,195.9Z"/><path class="cls-1" d="M250.69,186.15c-1.53-.2-1.9,1.37-3,1.79-.26.09-1.63-1.4-1.49-1.88.32-1.11,1.68-1.29,2.74-1.47C249.75,184.46,250.39,184.94,250.69,186.15Z"/><path class="cls-1" d="M309.17,170.88a4.15,4.15,0,0,1,.35-4.82l1.85,2.51C310.06,168.66,310.36,170.2,309.17,170.88Z"/><path class="cls-1" d="M278.65,184.76c-.86-.07-2.25-.19-1.81-1.2a3.48,3.48,0,0,1,4.05-1.83l-2.22,3Z"/><path class="cls-1" d="M252.85,203.53c.71-.18,1.44-1.31,2.12-.07a1.28,1.28,0,0,1-.4,1.22c-1.07.5-1.54-.17-1.71-1.16Z"/><path class="cls-1" d="M309,64.43c-.6.33-.92.65-1.13.59a6.33,6.33,0,0,1-1.22-.71c.25-.2.51-.59.73-.56A7.78,7.78,0,0,1,309,64.43Z"/><path class="cls-1" d="M303.39,73.53l.67.23c-.08.22-.1.57-.25.63s-.44-.12-.66-.19Z"/><path class="cls-1" d="M222.77,162.54c.22.08.56.11.63.25a.66.66,0,0,1-.22.62c-.15.07-.43-.13-.65-.21Z"/><path class="cls-1" d="M203.4,128.92l-.53.33-.35-.74c.2-.06.45-.22.58-.15S203.3,128.72,203.4,128.92Z"/><path class="cls-1" d="M203.19,125.4c-.17.24-.31.54-.39.52-.34,0-.78-.11-1-.35-.4-.52.16-.58.45-.55A3,3,0,0,1,203.19,125.4Z"/><path class="cls-1" d="M251.77,188.51l-.29.59c-.12-.18-.31-.36-.32-.55s.15-.39.24-.59Z"/><path class="cls-1" d="M308.73,61.41c-.08,0-.19.09-.23.06a1,1,0,0,1-.13-.25l.4-.1Z"/><path class="cls-4" d="M339.55,99.05c.24,3.58.46,7.15.73,10.73.12,1.5.74,3.74-1.1,3.91-2,.19-2.06-2.28-2.18-3.81-.52-7.13-.87-14.27-1.28-21.41a12.08,12.08,0,0,1-.07-1.9c.15-1.34-1.37-3.56.81-3.8,1.66-.18,1.78,2.36,2,3.67.54,4.18.67,8.41,1,12.62Z"/><path class="cls-4" d="M148.29,110.74c-.29-4.22-.6-8.44-.84-12.67,0-1-.28-2.37,1-2.61,1.5-.28,1.39,1.23,1.51,2.14A147.27,147.27,0,0,1,151.5,124c0,1-.3,1.44-1.27,1.45-1.2,0-1-1-1.06-1.64-.33-4.35-.61-8.69-.9-13Z"/><path class="cls-2" d="M167.47,138.1c1.81-.28,2.71,1.17,3.17,2.3.69,1.72,1.06,3.37,2.89,4.44.93.55-.67,1-.75,1.65A21.19,21.19,0,0,1,167.47,138.1Z"/><path class="cls-2" d="M172.86,146.54a9.16,9.16,0,0,1,6.82,6.4A11.6,11.6,0,0,1,172.86,146.54Z"/><path class="cls-2" d="M179.65,152.89l2.35-1.1c.06.9.11,1.73.17,2.56A3.14,3.14,0,0,1,179.65,152.89Z"/><path class="cls-5" d="M161.72,82a1.67,1.67,0,0,1-.78,2.51C160.9,83.57,160.5,82.52,161.72,82Z"/><path class="cls-2" d="M179.24,170.34c.24,1.35.42,2.26-.79,2.49-.25,0-.82-.28-.83-.45C177.58,171.38,178.49,171.05,179.24,170.34Z"/><path class="cls-2" d="M328,124.92l-.32-.17.33.15Z"/><path class="cls-2" d="M340.79,184.58c0,.23-.09.53-.15.89,0,0-.17.89-.36,1.73-.7,3-1.73,7.53-4,8.37s-5.79-1.58-8.45-5.85a13.42,13.42,0,0,1,1.09-6.15c1.09-2.42,2.58-3.6,3.63-6.81a16.14,16.14,0,0,0,.67-2.9Q337,179.23,340.79,184.58Z"/><path class="cls-1" d="M180.65,177.5c-.56-.08-1.22,0-1.21-.88a.36.36,0,0,1,.23-.26c.83-.1.87.55,1,1.11Z"/><path class="cls-1" d="M327.81,133.42l.33.31-.35-.28Z"/><path class="cls-1" d="M326.31,134.31l.33.16-.33-.16Z"/><path class="cls-2" d="M219.94,33.16c1-1.61,2.73-1.95,4.28-2.21,10.13-1.69,20.31-3,30.61-1.52,1,.15,2.07.13,2.65,1.19-4.17.25-8.38-.39-12.45,0-2,.17-5.86-2.3-6.53,2.7-3.35-2.73-6.84-2.91-10.72-1.55C225.31,32.61,222.57,32.72,219.94,33.16Z"/><path class="cls-2" d="M176.43,60.06c1.88-3.86,5.08-6.34,8.71-8.38.25,1.51,1,2.8-1.43,3.76C181.1,56.47,179.27,59.12,176.43,60.06Z"/><path class="cls-2" d="M190.24,47.5c1.71-2.9,4.89-3.79,7.5-5.47C197.92,47.52,193.22,46.33,190.24,47.5Z"/><path class="cls-2" d="M204.16,38.87c2.42-2.25,5.63-2.74,8.57-3.83C210.79,38.36,207.16,37.91,204.16,38.87Z"/><path class="cls-2" d="M167.31,72.38a8.86,8.86,0,0,1,3.49-4.95C171.49,70.39,169.69,71.59,167.31,72.38Z"/><path class="cls-2" d="M214.09,54.49c-1.31,1.77-2.11.21-3-.5-.62-.52,0-.81.35-1.07,2-1.33,1.54,1.42,2.63,1.59Z"/><path class="cls-2" d="M204.84,134.82c-.45,1.08,2.12,1.49.63,2.76-.51.43-1.5.46-1.57-.15-.11-.88-.9-2.34,1-2.6Z"/><path class="cls-2" d="M171.46,66.6c.24-1.24.47-2.49,2.13-2.53C173.83,65.71,173.06,66.5,171.46,66.6Z"/><path class="cls-2" d="M173.56,64.09c-.44-1.38.36-2,1.49-2.39C175.19,62.89,175.37,64.11,173.56,64.09Z"/><path class="cls-2" d="M233.44,43.12c.1-.67-.33-1.52.54-1.93.14-.07.67.29.73.53.22,1-.52,1.23-1.27,1.4Z"/><path class="cls-2" d="M216.18,34.2c1-1.12,2.34-1,3.62-1.15C218.92,34.45,217.47,34.06,216.18,34.2Z"/><path class="cls-2" d="M175,61.73c0-.95.39-1.62,1.45-1.7C176.62,61.14,176.16,61.73,175,61.73Z"/><path class="cls-2" d="M212.69,79.35l-.64-.76c.9-.3.41.53.63.77Z"/><path class="cls-2" d="M202.23,96.31l.78-.63.22.28-1,.36Z"/><path class="cls-2" d="M170.8,67.47a.77.77,0,0,1,.75-.86Z"/><path class="cls-2" d="M185.22,51.79c-.13-.67.3-.82.82-.88Z"/><path class="cls-2" d="M202.23,96.32l-.15.34.15-.35Z"/><path class="cls-4" d="M247.63,160.28c-1.36-.12-3,.35-3.84-1.1s.54-2.39,1.14-3.44c1.65-2.85,4.56-3.94,7.45-5a3.25,3.25,0,0,1,3.7,1.34c.89,1.12-.17,2.18-.75,3.12C253.46,158.27,250.5,160.17,247.63,160.28Z"/><path class="cls-6" d="M139,213.28a45.49,45.49,0,0,0-11.8-5.58,37.81,37.81,0,0,0-10.44-1.64,24.93,24.93,0,0,0-5.35.54A23.56,23.56,0,0,0,107,208a14.69,14.69,0,0,0-3.42,2,9.55,9.55,0,0,0-2.16,2.36,8.63,8.63,0,0,0-1.52,4.55,16.4,16.4,0,0,0,.61,3.34q.6,2.36,5,5.16t12.37,4.71A92.21,92.21,0,0,0,138,232h1v29.69h-23a28.27,28.27,0,0,1-10.06-2.39A26.62,26.62,0,0,1,97,252.79a32.8,32.8,0,0,1-6.41-10.85,44.53,44.53,0,0,1-2.47-15.68,50.48,50.48,0,0,1,.91-9.34,51.6,51.6,0,0,1,2.7-9.3,44.22,44.22,0,0,1,4.44-8.46,32.77,32.77,0,0,1,6.19-6.91,28,28,0,0,1,7.89-4.67,25.92,25.92,0,0,1,9.53-1.71H139Z"/><path class="cls-6" d="M142.82,185.8h29.61v14.5c0,.55.19,1.54.42,3a18.19,18.19,0,0,0,1.29,4.36,11.38,11.38,0,0,0,2.77,3.95,6.7,6.7,0,0,0,4.78,1.71q4.09,0,6.23-1.71a10.22,10.22,0,0,0,3.07-3.91,12.54,12.54,0,0,0,1.06-4.33c.08-1.41.12-2.43.12-3V185.8h15.26v13a24.07,24.07,0,0,1-2.77,11.39,24.57,24.57,0,0,1-7.79,8.73c-1.62,1.06-3,2-4.25,2.85s-2.33,1.58-3.34,2.24v37.58H159.83V223.22c-.87-.55-1.79-1.16-2.78-1.82l-3.37-2.28a23,23,0,0,1-8.05-8.8,24.66,24.66,0,0,1-2.81-11.54Z"/><path class="cls-6" d="M211.37,185.8h14.88a15.76,15.76,0,0,1,7.41,1.51,14.39,14.39,0,0,1,4.89,4.37,33.5,33.5,0,0,1,3.72,6.91q1.68,4.07,3.95,9.15,2.43,5.61,5.05,7.85t4.59,2a3.47,3.47,0,0,0,2.7-1.78,7.7,7.7,0,0,0,1-4.14c0-.15,0-.64,0-1.48s0-1.87,0-3.11,0-2.63,0-4.18,0-3.09,0-4.66c-.05-1.88-.07-3.84-.07-5.89V185.8l71.43.07v14.65l-56.33-.07v61.19H263.61a9.46,9.46,0,0,1-5.74-1.94,21.63,21.63,0,0,1-4.82-5.12,48.45,48.45,0,0,1-4.06-7.25q-1.86-4.07-3.49-8.28t-3.11-8.16q-1.48-3.94-2.89-7a23,23,0,0,0-2.81-4.79c-.93-1.16-1.91-1.64-2.92-1.44-.56.1-.9.52-1,1.25a9.59,9.59,0,0,0,0,2.74,25.92,25.92,0,0,0,.68,3.56c.33,1.3.68,2.55,1.06,3.76s.75,2.33,1.1,3.34.63,1.78.84,2.28c.71,2,1.27,3.7,1.71,5a35,35,0,0,1,1,3.53,18.32,18.32,0,0,1,.42,3c.05,1,.09,2.1.11,3.42s0,2.92,0,4.82,0,4.31,0,7.25H211.37Zm67.88,75.84V205.15h51.54v10.71c-.81,0-1.94,0-3.41,0s-3,0-4.71,0-3.37.07-5.08.19a28.17,28.17,0,0,0-4.6.69,10.43,10.43,0,0,0-3.26,1.32,2.21,2.21,0,0,0-1.1,2.21,6.6,6.6,0,0,0,.45,1.93,4.18,4.18,0,0,0,1.25,1.67,7.36,7.36,0,0,0,2.4,1.22,14.15,14.15,0,0,0,3.87.57h4.93v7.13h-.79a4.11,4.11,0,0,1-.8-.07c-.51,0-1.08-.08-1.71-.08s-1.28,0-1.94-.07a11.85,11.85,0,0,0-4.85.53,5.53,5.53,0,0,0-2.47,1.63,2.91,2.91,0,0,0-.65,2,2.19,2.19,0,0,0,.69,1.59,4.75,4.75,0,0,0,3.34,1.22h18.44v22.17Z"/><path class="cls-6" d="M334.59,261.64V185.8h59.22v14.5c-1-.05-2.33-.11-3.95-.16s-3.37-.07-5.24-.07q-3.5,0-7.14.22a49.85,49.85,0,0,0-6.6.83,14.74,14.74,0,0,0-4.78,1.82,3.27,3.27,0,0,0-1.75,2.79v.3a7.6,7.6,0,0,0,.61,2.61,5.86,5.86,0,0,0,1.71,2.22,9,9,0,0,0,3.22,1.59,20.5,20.5,0,0,0,5.16.68h6.46v9.64h-1a9.18,9.18,0,0,1-1.1-.08c-.66,0-1.41,0-2.28,0s-1.72-.06-2.58-.11a3.69,3.69,0,0,0-.72-.08h-.72q-4.56,0-6.79,1.67a4.69,4.69,0,0,0-2.24,3.72v33.79Z"/><path class="cls-6" d="M426.6,185.64v14.09a10.74,10.74,0,0,1-.07,1.32,20.45,20.45,0,0,1-.61,3.61c-.3,1.14-.71,2.38-1.21,3.72s-1.13,2.9-1.86,4.67-1.59,3.95-2.55,6.53a10.21,10.21,0,0,0-.68,3.57,7.76,7.76,0,0,0,.3,2.27,32.69,32.69,0,0,0,1.75,5.36q1.06,2.46,2.13,4.89a53,53,0,0,1,1.86,5,22.28,22.28,0,0,1,.94,5.58c.11,1.72.12,3.75,0,6.11s-.06,5.45,0,9.3h-29V245.32a21.8,21.8,0,0,1,1-5.13c.54-1.59,1.13-3.16,1.79-4.71l2-4.7a35.06,35.06,0,0,0,1.71-5.13,7.78,7.78,0,0,0,.3-2.28,10.19,10.19,0,0,0-.68-3.56c-.91-2.43-1.74-4.51-2.47-6.23s-1.36-3.25-1.9-4.59a36.22,36.22,0,0,1-1.25-3.65,18.56,18.56,0,0,1-.61-3.37V185.64Z"/><path class="cls-7" d="M89.5,266H128a23.16,23.16,0,0,1,10.31,2.13,20.37,20.37,0,0,1,7.12,5.65,21.69,21.69,0,0,1,3.8,7.61,29.87,29.87,0,0,1,1.1,7.85c0,.55-.05,1.72-.16,3.52a30.58,30.58,0,0,1-6.38,15.13,22.14,22.14,0,0,1-7.2,5.65,21.26,21.26,0,0,1-9.65,2.12,28.22,28.22,0,0,1-4.91-.73,1.34,1.34,0,0,0-.53-.21,1.11,1.11,0,0,1-.45-.12v33.22H89.5Zm33.87,20.87a3.75,3.75,0,0,0-.09.82v.81a12.38,12.38,0,0,0,1.23,5.89,8,8,0,0,0,1.68,2.05,3.52,3.52,0,0,0,2.41.9,3.9,3.9,0,0,0,2.46-.82,7.46,7.46,0,0,0,2.78-3.89,20.14,20.14,0,0,0,1-4.78,4.3,4.3,0,0,0,.08-.78v-.78a11.9,11.9,0,0,0-1.31-6,7.36,7.36,0,0,0-1.67-2.12,3.56,3.56,0,0,0-2.42-.9,4.72,4.72,0,0,0-2.45.73,7.68,7.68,0,0,0-2.74,4A21.23,21.23,0,0,0,123.37,286.82Z"/><path class="cls-7" d="M186.12,266.12v18.65q0,7.46,0,13.21a71.6,71.6,0,0,0,.61,9.7,14,14,0,0,0,2,6A4.84,4.84,0,0,0,193,315.7a4.4,4.4,0,0,0,3.88-2.29,18.43,18.43,0,0,0,2.21-5.73,46.94,46.94,0,0,0,1-7.32q.24-3.89.24-7.08V266H216v56.45a22,22,0,0,1-2.62,10.84,24.82,24.82,0,0,1-6.91,7.89,31.27,31.27,0,0,1-9.74,4.83,40.86,40.86,0,0,1-11.17,1.72h-1.39a40.83,40.83,0,0,1-10.88-1.64,29.94,29.94,0,0,1-9.45-4.62,23.35,23.35,0,0,1-6.62-7.65,22,22,0,0,1-2.5-10.72v-57Z"/><path class="cls-7" d="M219.9,347.77V333.35a22,22,0,0,1,2.25-9.83,43.47,43.47,0,0,1,5.65-8.68,88.27,88.27,0,0,1,7.32-7.82q3.93-3.74,7.32-7.25a48.79,48.79,0,0,0,5.65-6.93,12.27,12.27,0,0,0,2.25-6.84,2.88,2.88,0,0,0-1.23-2.45,9.23,9.23,0,0,0-3.35-1.4,28,28,0,0,0-4.91-.61q-2.79-.12-5.89-.12l-4.38,0q-3.32,0-10,0V266l55.55.08v14.56a3.32,3.32,0,0,1-.17.57,2.92,2.92,0,0,1-.24.66c-.11.22-.22.46-.33.74L259.75,302a6.89,6.89,0,0,0-.62.7,6.68,6.68,0,0,1-.61.69v.09a29.87,29.87,0,0,0-3.52,4.94,11.28,11.28,0,0,0-1.64,5.69,3.39,3.39,0,0,0,.74,2.21,2.5,2.5,0,0,0,2,.9,28.33,28.33,0,0,0,3.23-.25l4.54-.49,4.95-.49c1.66-.16,3.15-.24,4.46-.24,1.09,0,2.23,0,3.43,0s2.46,0,3.77,0v32Z"/><path class="cls-7" d="M284.78,347.77V333.35a22,22,0,0,1,2.25-9.83,43.47,43.47,0,0,1,5.65-8.68A88.27,88.27,0,0,1,300,307c2.61-2.49,5.06-4.91,7.32-7.25a49.38,49.38,0,0,0,5.64-6.93,12.27,12.27,0,0,0,2.25-6.84,2.87,2.87,0,0,0-1.22-2.45,9.21,9.21,0,0,0-3.36-1.4,27.85,27.85,0,0,0-4.91-.61q-2.78-.12-5.89-.12l-4.37,0q-3.31,0-10,0V266l55.55.08v14.56a2.87,2.87,0,0,1-.16.57,3.51,3.51,0,0,1-.24.66,6.51,6.51,0,0,0-.33.74L324.62,302a6.8,6.8,0,0,0-.61.7,6.78,6.78,0,0,1-.62.69v.09a30.44,30.44,0,0,0-3.51,4.94,11.28,11.28,0,0,0-1.64,5.69,3.39,3.39,0,0,0,.74,2.21,2.49,2.49,0,0,0,2,.9,28.17,28.17,0,0,0,3.23-.25l4.54-.49,4.95-.49c1.67-.16,3.15-.24,4.46-.24,1.09,0,2.24,0,3.44,0s2.45,0,3.76,0v32Z"/><path class="cls-7" d="M376.9,266v11.87c-.11,1.74-.2,3.46-.29,5.15a12,12,0,0,1-1.76,5.4,66.19,66.19,0,0,0-4.25,9.08,72.08,72.08,0,0,0-3,9.82,58.43,58.43,0,0,0-1.35,9.45,27.61,27.61,0,0,0,.62,8,11.56,11.56,0,0,0,2.94,5.56,7.58,7.58,0,0,0,5.61,2.09,19,19,0,0,0,15.25-6.75,18.34,18.34,0,0,0,3.24-5.61,15.13,15.13,0,0,0,1-4.58h30.76v32.32h-76V266Zm5.24,46.23V266h43.52v8.19c-1,0-2.4,0-4.25-.09a46.25,46.25,0,0,0-5.53.17,20,20,0,0,0-4.74.94c-1.34.46-1.95,1.21-1.84,2.25a4.14,4.14,0,0,0,1.22,2.74c.77.79,2.3,1.21,4.59,1.27h3.76v5.4h-1.23c-.38,0-.8,0-1.27,0s-.94-.07-1.43-.13a9.85,9.85,0,0,0-3.64.41,4,4,0,0,0-1.8,1.23,2.2,2.2,0,0,0-.45,1.51,2,2,0,0,0,.49,1.19,3.31,3.31,0,0,0,2.54,1h13.58v20.21Z"/></svg>