<svg id="Слой_1" data-name="Слой 1" xmlns="http://www.w3.org/2000/svg" viewBox="0 0 514.94 358.18"><defs><style>.cls-1{fill:#14c5cf;}.cls-2{fill:#1be4d5;}.cls-3{fill:#1c1f21;}.cls-4{fill:#fdfefe;}.cls-5{fill:#fc80fe;}.cls-6{fill:#fec844;}</style></defs><path class="cls-1" d="M266.38,139.59c-2.08-3.61-2-7.92-.87-11.94q9.66-6,19.27-12.05a88.79,88.79,0,0,1-12,29.87C270.46,143.73,267.82,142.09,266.38,139.59Z"/><path class="cls-1" d="M272,144.91c-2.14-1.55-4.37-3.1-5.66-5.32-2.08-3.61-2-7.92-.87-11.94q9.42-5.84,18.78-11.74a4.15,4.15,0,0,0,2.45,2.93c.3.62.66,1.12,1.45,1,1.22,2.17,2.53,4.39,1.25,6.91-.43.84-.34.92.36,1.18s1.06.45,1.32-.51c.39-1.42.92-2.84,2.43-3.53v0c.15.75.48,1.29,1.38,1.15.75,0,.89.66,1.2,1.13a4.44,4.44,0,0,0-2.92,4.06c0,1.7-1.22,2.09-2.08,2.84-1.41,1.22-1.82.77-1.34-.95.34-1.2-1.29-1.26-1.47-2.2-1.85,1-4.24,1.35-5,3.66-.49,1.44.92.94,1.59,1.24s1.24,1.33,1-.41c-.12-.79,0-1.7,1.11-1.35.91.3,2.07.85,1.9,2-.14,1-1,2.09-2,2-1.59-.19-4,2-4.35.32-.6-3.22-2.53-.67-3.66-1.36-1.59-1-1.12,2.3-2.81,2.14.65,3.07-2.66,3.34-3.69,5.23C272.22,143.87,272.14,144.39,272,144.91Z"/><path class="cls-2" d="M295.84,149.72c-6.26-1.92-12.46-4-18.67-6.06,1.7-1.14,3.61,0,5.64-.43-.6-1.7-2.78-1.8-3-4.26l-2.71,4.67c-1.63.72-3.16-.34-4.75-.26,1-1.89,4.34-2.16,3.69-5.23,1.69.16,1.22-3.11,2.81-2.14,1.13.69,3.06-1.86,3.66,1.36.31,1.68,2.76-.51,4.35-.32,1,.12,1.86-1,2-2,.17-1.17-1-1.72-1.9-2-1.08-.35-1.23.56-1.11,1.35.25,1.74-.36.7-1,.41s-2.08.2-1.59-1.24c.79-2.31,3.18-2.66,5-3.66.18.94,1.81,1,1.47,2.2-.48,1.72-.07,2.17,1.34.95.86-.75,2.05-1.14,2.08-2.84a4.44,4.44,0,0,1,2.92-4.06c5.86,4.16,8.39,10.61,11.41,16.71-5.31.13-7.28,3.85-8.72,8.13A20.8,20.8,0,0,0,295.84,149.72ZM294.1,137.5c-2.62.42-1.08,3.49-2.81,4.63-1,.67-1.17,2.49-2.84.66a1.68,1.68,0,0,0-2.82.57c-.49,1.38,1.14,1.28,1.93,1.68,3.07,1.56,5.82-.55,8.72-.93.73-.09,0-1.28-.16-2,1.46.11,1.44-.87,1.32-1.87a.45.45,0,0,0-.74-.35,1.7,1.7,0,0,0-.62,2.21C292.88,141.72,294.89,139.14,294.1,137.5Z"/><path class="cls-2" d="M288.16,119.73c1.23,2.19,2.57,4.43,1.28,7-.43.84-.34.92.36,1.18s1.06.45,1.32-.51c.39-1.42.92-2.84,2.43-3.53A11.37,11.37,0,0,0,288.16,119.73Z"/><path class="cls-2" d="M286.74,118.84c.3.62.67,1.14,1.49,1A1.84,1.84,0,0,0,286.74,118.84Z"/><path class="cls-2" d="M293.54,123.89c.15.75.48,1.29,1.38,1.15C294.47,124.65,294.34,123.86,293.54,123.89Z"/><path class="cls-1" d="M301.93,151.08c4.57.89,6.94-1.26,5.25-9a12.18,12.18,0,0,0-4.16.63c-3.82,1.27-7.4,4.6-6.81,6.37.28.83,1.44,1.23,2.58,1.62A7.43,7.43,0,0,0,301.93,151.08Z"/><path class="cls-1" d="M296.08,142.14c-3.2-.42-1.19-3-2-4.64-2.62.42-1.08,3.49-2.81,4.63-1,.67-1.17,2.49-2.84.66a1.68,1.68,0,0,0-2.82.57c-.49,1.38,1.14,1.28,1.93,1.68,3.07,1.56,5.82-.55,8.72-.93.73-.09,0-1.28-.16-2Z"/><path class="cls-1" d="M277.17,143.66c1.7-1.14,3.61,0,5.64-.43-.6-1.7-2.78-1.8-3-4.26l-2.71,4.67Z"/><path class="cls-1" d="M296.12,142.15c1.46.11,1.44-.87,1.32-1.87a.45.45,0,0,0-.74-.35,1.7,1.7,0,0,0-.62,2.21Z"/><circle class="cls-1" cx="198.88" cy="96" r="88.26"/><path class="cls-2" d="M286.89,107.51c-2,16.11-7.66,30.69-17.84,43.47-3.77,4.72-7.54,9.39-12.48,13,.55-2.13-1.09-3.17-2.47-3.69-1.62-.61-2.54-1-3.4-2.9-1.71-3.79-2.94-3.56-5.76.2-.15.19-.33.43-.54.49a4.08,4.08,0,0,1-1,.05c-.37-1.09,1.46-1.57.5-2.83-2.16.47-5.16,2.36-6.38-.17-1.47-3-2.27,0-3.44-.05l-.47-3.9h0c0-2.38,3.89-2.19,3.23-5,4.95-.64,9.26-2.28,11-7.52,1.83-5.51,1.07-11.05-.31-16.51-.32-1.25-1.57-1.59-2.77-1.45-6.1.71-12.2,1.4-18.28,2.26-1.59.22-3.61,1-3.4,2.89.8,7.28.24,15.25,8.31,19.44-.32,3.25-1.53,4.1-4.12,2.84-.57-.28-1.15-1.57-1.65-.38s-3,1.47-2.17,3.5c.26.61,1.34,1.11.16,1.69a2.49,2.49,0,0,1-1.8-.05c-.81-.3-1-1-.73-1.87a26.78,26.78,0,0,0,1-4c.33-2.35-1.2-4.62-3-4.39-6.15.74-.33-2.21-1.13-3.06l-8.85,1a2.78,2.78,0,0,1-2.38,0c-4.32-1.17-10.8.59-12.1,3.45-.95,2.11-2.2,2.71-4.25,2.28,1.14-2.51.58-7.05-.21-7.09-3.5-.19-.82-5-4.06-4.75-.21,0,0-1.32.72-1.32,1.56,0,1.71-.69,2.5-2,1.45-2.39,2.62-6,7-6.16-3.7.12-4.55-3.19-4.76-4.75-.28-2,2.67.83,4-.78-2-2.61.12-6.37-2.55-8.92-.34-.31.06-1.1.29-1.71.61-1.64,2.35-3.44-.35-5-1.13-.63-.21-1.2.36-1.64a3.35,3.35,0,0,1,3.22-.49c.56.18,1.34.47,1.56-.34.17-.63-.38-1.45-1-1.31a1.62,1.62,0,0,1-2.1-1.87c.33-2.55-1.67-4.06-3-4.82-3.07-1.75-6-2.9-4.32-7.35.4-1.06-.55-2.21-1.7-2.66s-1.61.63-2.11,1.22c-1.28,1.5.72,1.42,1.18,2.06.6.83.89,1.76.1,2.36-1.15.87-1.21-.72-1.82-1-2.48-1.3-1.43-4.78-3.9-6,2.42-3.8-2.38-4.08-3.12-6.36-.18-.54-1.18-1-1.1-1.41.66-3.23-1.31-3.35-4-2.72,3.27-3.57,3.27-3.57,1.93-8.81a2.3,2.3,0,0,1-.12-1.09c.43-1.64,0-2.74-1.78-3-1.37-.23-1.13-1.06-.75-2s1-.74,1.75-.26c1.79,1.13,2.58.42,3.63-1.42,1.38-2.43,3.67-6.29,5.38-6.2,4.09.24,2.34-3,3.6-4.24.19-.2-.31-1.17.15-1.73s.62-2.29,2-1.8.47,1.57.24,2.5c-.44,1.78-1.69,4,1.7,4.39.25,0,.39,1.08.58,1.66l-.26.38.31-.34c1-.14,2.1-.23,2.53-1.33,1.6-4.17,4.85-7,8-9.72-.82-1.78-3.68-.6-3.49-2.56s2.57-.9,3.8-1.66a10.39,10.39,0,0,1,2.47-.82l.32.13-.33-.13c-.06-1.62,1.24-2,2.33-2.58.78-.42,2.26-.52,1.8-1.81s-1.59-.87-2.61-.5c-.45.16-1,0-.94-.94,4.26-1.05,7-4.48,10.33-7.08,2.38-1.86,4.62-4.54,8.26-2.76.34-1.32-.27-2.21-1.14-2.19-2.72.08-2.94-1.68-3-3.66,2.6.45,5.24.72,7.79,1.37,7.55,1.91,14.25,5.49,21,9.5,7.08,4.22,12.89,9.62,18.59,15.32,3.83,3.81,6.48,8.56,9.82,12.77,3.62,5,5.61,10.88,7.49,16.59A100.32,100.32,0,0,1,286.89,107.51Zm-37.22,10.06c3.44-.38,5.92-3,5.69-5.52s-3.18-4.86-5.54-4.52c-3.23.46-5.14,2.62-4.68,5.55S247.19,117.54,249.67,117.57Zm-35.83-5.86c-2.84.25-5.28,2.63-4.8,5,.53,2.63,1.47,5.16,5,4.87a5,5,0,0,0,4.81-5.13C218.65,113.32,216.71,111.47,213.84,111.71Zm43.85,42.11a3.25,3.25,0,0,0-3.14,3.16c0,1.91,2.57,1.07,3.43,2.34.85-1.27,2.2-2.47,2.39-3.83S259,153.62,257.69,153.82Zm-43-124.06.84.62,3-3.46c-.52-.29-1.12-.92-1.54-.82C215,26.6,216.44,29,214.73,29.76ZM185.56,49.6l-.2.66c.22.06.51.24.65.16s.15-.41.22-.63Z"/><path class="cls-1" d="M236.87,146.14c.66,2.79-3.26,2.6-3.23,5l-.34-.13.33.14.47,3.9c1.17,0,2-3,3.44.05,1.22,2.53,4.22.64,6.38.17,1,1.26-.87,1.74-.5,2.83a4.08,4.08,0,0,0,1-.05c.21-.06.39-.3.54-.49,2.82-3.76,4.05-4,5.76-.2.86,1.9,1.78,2.29,3.4,2.9,1.38.52,3,1.56,2.47,3.69A81.26,81.26,0,0,1,228,180.11c-.51-2.12-1-4.23-1.75-7.31-.81,3.32.43,6.84-4,6.42a1.22,1.22,0,0,0-.63.31c1.36,3.49-1.94,2.16-2.9,2.42-3.56.93-7.25,1.34-10.88,2-1.56.28-3.29-.81-4.69.61-14.24.82-27.53-2.92-40.4-8.57-1-.45-1.78-1.57-2.66-2.38-1.88-1.05-4.82.48-5.91-2.46-1.34,1-2.68-2-3.52-.32-.59,1.18-3.58,0-2.37,3.1.63,1.58-2.61,1-3.86,2-.81.66-2.11.14-2.74-.61-.76-.9-.07-2,.54-2.71.73-.88,1.34-.18,1.66.55.71,1.6.67.39,1-.18s1.87-.94.69-1.9c-1.9-1.54-4.11-.56-6.21-.43.35.9-1,1.81-.07,2.65,1.32,1.21,1.21,1.8-.63,1.52-1.13-.18-2.34.12-3.27-1.31a4.46,4.46,0,0,0-4.63-1.88c0-.56-.22-1.19.41-1.59.84-.36.83-1,.56-1.72l0,0c1.65-.21,2.85.71,3.94,1.7.73.68,1,.28,1.39-.26s.48-.71-.32-1.19c-2.45-1.47-2.5-4.08-2.62-6.59l0,.09c.79-.27.83-.9.75-1.59,1.3-2.19.9-3.88-.78-5.92-3.4-4.12-7-8.12-9.21-13.14,0-.75-.15-1.41-1-1.61l0,.06c0-.73-.14-1.33-1-1.48l.06.06c0-.73-.16-1.33-1-1.44l.05,0c-.21-.82,1.2-2.32-1-2.31l-.1-.28c-.11-1.85.36-4.09-.91-5.4-2.92-3-3.39-6.72-3.84-10.53.37-.19,1.11,0,.86-.82a.38.38,0,0,0-.28-.21c-.85,0-.5.62-.59,1-2.44-5.29-2.26-11.19-2.94-16.7-1.07-8.68.13-17.55,2.63-26.17.79-2.75,2.44-5.56,1.72-8.7a.35.35,0,0,1,.07-.44,1.57,1.57,0,0,0,.51-1.67l0,0,.48-1h-.07c1.42-.31,1.73-1.19,1.27-2.46v.07c.91-.27.91-.88.61-1.61l0,0c.77-.07.91-.6.92-1.23a.41.41,0,0,1,.37-.36c2.13-.09,1.5-1.18.83-2.29,7.86-16.59,21.27-27.7,36.54-37a21.83,21.83,0,0,1,6.78-3.1c-8.32,7-15,15.2-19.16,25.37-2,4.82-5.28,9.56-5.56,14.47-.35,6-2.12,11.89-1.52,18,.21,2.21-.84,3.68-2.75,4.89a31.5,31.5,0,0,0-11.71,13.21c-5.81,11.89,1,31.13,15.48,36.09,3.8,1.31,7.56,1.12,11.34,1.54a3.16,3.16,0,0,1,2.88,1.73,46.28,46.28,0,0,0,7.93,10.27C169.68,148,178,151,187.22,151.54c4.09.22,7.88.77,11.13,3.41.14.38-.16,1,.47,1.12l.25-1,1.48-.09c.72,2.2,2,4.27,1.57,6.75-.58.17-1.29.26-1,1.11.06.2.67.41.92.32,1-.36.25-.93.09-1.43a3,3,0,0,1,2.13.36c2.37,1.68,3,1.54,4.26-.6.85-1.42,1.56-1.44,2.19.22a1.29,1.29,0,0,0,1.51.85c.69-.15,1.31-.84,1.09-1.31-1.49-3.17.78-4.74,2.86-6.31-1.46-1.6-5.35,1-4.65-3.2.86-4.08.76-8-2.39-11.17l8.85-1c.8.85-5,3.8,1.13,3.06,1.84-.23,3.37,2,3,4.39a26.78,26.78,0,0,1-1,4c-.25.85-.08,1.57.73,1.87a2.49,2.49,0,0,0,1.8.05c1.18-.58.1-1.08-.16-1.69-.85-2,1.61-2.18,2.17-3.5s1.08.1,1.65.38c2.59,1.26,3.8.41,4.12-2.84C233.34,144.91,234.92,146.66,236.87,146.14Zm13.07,14.17c-.58-1.12-.6-2.22-1.85-1.94-.31.07-.82.55-.77.71C247.63,160.12,248.59,160.1,249.94,160.31ZM212.5,141.72c-.07.22-.25.5-.17.64s.41.15.63.22c.06-.22.24-.5.16-.64S212.72,141.79,212.5,141.72Zm19.28,10.59c.33,0,.38-.16.14-.42,0,0-.18.07-.27.1Z"/><path class="cls-2" d="M141.75,194.14c-3.5-2.86-7.14-5-11.71-2.25-.68-6.78-2-13.58.79-20.22a4.46,4.46,0,0,1,4.63,1.88c.93,1.43,2.14,1.13,3.27,1.31,1.84.28,2-.31.63-1.52-.93-.84.42-1.75.07-2.65,2.1-.13,4.31-1.11,6.21.43,1.18,1-.28,1.28-.69,1.9s-.34,1.78-1,.18c-.32-.73-.93-1.43-1.66-.55-.61.73-1.3,1.81-.54,2.71.63.75,1.93,1.27,2.74.61,1.25-1,4.49-.46,3.86-2-1.21-3.05,1.78-1.92,2.37-3.1.84-1.66,2.18,1.35,3.52.32,1.09,2.94,4,1.41,5.91,2.46-1.39.78-2.12,2.5-3.89,2.75l-4.77-2.51c1.12,2.19-.67,3.43-.27,5.19,2-.71,3-2.69,5-2.63-4.18,5-8.32,10.11-12.59,15.06A21.17,21.17,0,0,0,141.75,194.14Zm-2.4-9a1.69,1.69,0,0,0-1.7-1.53c-.44,0-.6.33-.44.68.43.91.93,1.75,2.11.89.2.67.24,2,.91,1.74,2.65-1.22,6.11-.89,7.88-3.85.45-.76,1.89-1.54.74-2.45a1.69,1.69,0,0,0-2.69,1c-.44,2.44-1.55,1-2.76,1-2.07,0-2.39-3.46-4.84-2.43C138.76,182,141.83,183.12,139.35,185.17Z"/><path class="cls-2" d="M117.59,66.94c.72,3.14-.93,6-1.72,8.7-2.5,8.62-3.7,17.49-2.63,26.17.68,5.51.5,11.41,2.94,16.7h0c.45,3.81.92,7.51,3.84,10.53,1.27,1.31.8,3.55.91,5.4-3.74-3.93-4.39-9.24-6-14-5-15.19-4-30.5-.22-45.75C115.37,72,115.93,69.25,117.59,66.94Z"/><path class="cls-2" d="M203.16,184.56c1.4-1.42,3.13-.33,4.69-.61,3.63-.66,7.32-1.07,10.88-2,1-.26,4.26,1.07,2.9-2.42a1.22,1.22,0,0,1,.63-.31c4.38.42,3.14-3.1,4-6.42.74,3.08,1.24,5.19,1.75,7.31C220.08,183.76,211.75,184.87,203.16,184.56Z"/><path class="cls-2" d="M134.15,162c.12,2.51.17,5.12,2.62,6.59.8.48.78.59.32,1.19s-.66.94-1.39.26c-1.09-1-2.29-1.91-3.94-1.7A11.45,11.45,0,0,1,134.15,162Z"/><path class="cls-2" d="M122.51,56c.67,1.11,1.3,2.2-.83,2.29C121.87,57.47,121.62,56.52,122.51,56Z"/><path class="cls-2" d="M119.83,61.41c.46,1.27.15,2.15-1.27,2.46A2.6,2.6,0,0,1,119.83,61.41Z"/><path class="cls-2" d="M121,134.73c2.17,0,.76,1.49,1,2.31C121.15,136.5,121.23,135.56,121,134.73Z"/><path class="cls-2" d="M134.87,160.48c.08.69,0,1.32-.75,1.59A1.83,1.83,0,0,1,134.87,160.48Z"/><path class="cls-2" d="M123.86,139.81c.87.2,1,.86,1,1.61Z"/><path class="cls-2" d="M131.8,168.36c.27.72.28,1.36-.56,1.72C131.41,169.5,131.11,168.77,131.8,168.36Z"/><path class="cls-2" d="M122,137c.87.11,1,.71,1,1.44A1.68,1.68,0,0,1,122,137Z"/><path class="cls-2" d="M122.93,138.39c.84.15,1,.75,1,1.48Z"/><path class="cls-2" d="M121.31,58.62c0,.63-.15,1.16-.92,1.23A1.29,1.29,0,0,1,121.31,58.62Z"/><path class="cls-2" d="M118.17,64.83a1.57,1.57,0,0,1-.51,1.67C117.52,65.85,117.5,65.23,118.17,64.83Z"/><path class="cls-2" d="M120.43,59.87c.3.73.3,1.34-.61,1.61C120,60.94,120.23,60.41,120.43,59.87Z"/><path class="cls-2" d="M118.63,63.86l-.48,1Z"/><path class="cls-3" d="M236.87,146.14c-2,.52-3.53-1.23-5.45-.89-8.07-4.19-7.51-12.16-8.31-19.44-.21-1.86,1.81-2.67,3.4-2.89,6.08-.86,12.18-1.55,18.28-2.26,1.2-.14,2.45.2,2.77,1.45,1.38,5.46,2.14,11,.31,16.51C246.13,143.86,241.82,145.5,236.87,146.14Zm-2.12-21.21V125c-1.62.19-3.26.28-4.85.61-1.08.23-2.91-.37-2.93,1.44a2.94,2.94,0,0,0,2.6,2.87,32.16,32.16,0,0,0,11.55-1.2,3.41,3.41,0,0,0,2.28-3.58c-.37-1.81-2.24-.79-3.43-.78A51.31,51.31,0,0,0,234.75,124.93Z"/><path class="cls-3" d="M249.67,117.57c-2.48,0-4.1-1.69-4.53-4.49s1.45-5.09,4.68-5.55c2.36-.34,5.33,2.08,5.54,4.52S253.11,117.19,249.67,117.57Z"/><path class="cls-3" d="M213.84,111.71c2.87-.24,4.81,1.61,5,4.78a5,5,0,0,1-4.81,5.13c-3.53.29-4.47-2.24-5-4.87C208.56,114.34,211,112,213.84,111.71Z"/><path class="cls-1" d="M257.69,153.82c1.32-.2,2.87.41,2.68,1.67s-1.54,2.56-2.39,3.83c-.86-1.27-3.45-.43-3.43-2.34A3.25,3.25,0,0,1,257.69,153.82Z"/><path class="cls-1" d="M214.73,29.76c1.71-.77.24-3.16,2.29-3.66.42-.1,1,.53,1.54.82l-3,3.46Z"/><path class="cls-1" d="M185.56,49.6l.67.19c-.07.22-.08.55-.22.63s-.43-.1-.65-.16C185.43,50,185.5,49.82,185.56,49.6Z"/><path class="cls-1" d="M202.92,33.49l.33.13-.32-.13Z"/><path class="cls-1" d="M189.61,49.58l-.31.34.26-.38Z"/><path class="cls-2" d="M200.55,155c3.56-1.38,7.73-.72,10.95-3.24-.7,4.17,3.19,1.6,4.65,3.2-2.08,1.57-4.35,3.14-2.86,6.31.22.47-.4,1.16-1.09,1.31a1.29,1.29,0,0,1-1.51-.85c-.63-1.66-1.34-1.64-2.19-.22-1.27,2.14-1.89,2.28-4.26.6a3,3,0,0,0-2.13-.36h0C202.56,159.25,201.27,157.18,200.55,155Z"/><path class="cls-2" d="M249.94,160.31c-1.35-.21-2.31-.19-2.62-1.23,0-.16.46-.64.77-.71C249.34,158.09,249.36,159.19,249.94,160.31Z"/><path class="cls-2" d="M202.11,161.73c.16.5.87,1.07-.09,1.43-.25.09-.86-.12-.92-.32-.27-.85.44-.94,1-1.11Z"/><path class="cls-2" d="M212.5,141.72c.22.07.54.07.62.22s-.1.42-.16.64c-.22-.07-.55-.08-.63-.22S212.43,141.94,212.5,141.72Z"/><path class="cls-2" d="M116.18,118.51c.09-.4-.26-1.07.59-1a.38.38,0,0,1,.28.21c.25.82-.49.63-.86.82Z"/><path class="cls-2" d="M198.35,155a1.13,1.13,0,0,1,.72.12c-.08.33-.17.67-.25,1C198.19,155.9,198.49,155.33,198.35,155Z"/><path class="cls-2" d="M231.78,152.31l-.13-.32c.09,0,.24-.13.27-.1C232.16,152.15,232.11,152.3,231.78,152.31Z"/><path class="cls-2" d="M233.63,151.13l-.33-.14.34.13Z"/><path class="cls-4" d="M139.23,196.58c2,2.27,1.08,4.69.39,7.1-.41,1.48-1,1.71-2.35.67-2.27-1.74-4.55-3.73-7.17-4.69-4.55-1.65-2-3-.17-4.51a4.2,4.2,0,0,1,1-.48C133,198.22,135.91,198.33,139.23,196.58Z"/><path class="cls-1" d="M139.15,195.86c-3.4,3.18-6.54,2.62-9.22-4.82a12.39,12.39,0,0,1,3.86-1.68c3.91-1,8.71,0,9.15,1.78.2.85-.57,1.8-1.32,2.74A7.41,7.41,0,0,1,139.15,195.86Z"/><path class="cls-1" d="M139.35,185.17c2.48-2-.59-3.17-.79-5,2.45-1,2.77,2.39,4.84,2.43,1.21,0,2.32,1.49,2.76-1a1.69,1.69,0,0,1,2.69-1c1.15.91-.29,1.69-.74,2.45-1.77,3-5.23,2.63-7.88,3.85-.67.31-.71-1.07-.91-1.74Z"/><path class="cls-1" d="M156.18,176.41c-2.06-.06-3.06,1.92-5,2.63-.4-1.76,1.39-3,.27-5.19l4.77,2.51Z"/><path class="cls-1" d="M139.32,185.21c-1.18.86-1.68,0-2.11-.89-.16-.35,0-.72.44-.68a1.69,1.69,0,0,1,1.7,1.53Z"/><path class="cls-2" d="M171.45,64.89c-1.17-.67-2.42-.89-3-2.26C170.28,62.32,171.53,62.54,171.45,64.89Z"/><path class="cls-2" d="M215.42,13.93c.9-.06,1.16.38,1,.9s0,1.45-1,1.15c-.42-.13-.74-.63-1.1-1Z"/><path class="cls-2" d="M202.19,25.48c0,.1,0,.27-.07.28a1.28,1.28,0,0,1-.32-.06c0-.1,0-.27.06-.27A1,1,0,0,1,202.19,25.48Z"/><path class="cls-4" d="M234.75,124.93a51.31,51.31,0,0,1,5.23-.58c1.19,0,3.06-1,3.43.78a3.41,3.41,0,0,1-2.28,3.58,32.16,32.16,0,0,1-11.55,1.2A2.94,2.94,0,0,1,227,127c0-1.81,1.85-1.21,2.93-1.44,1.59-.33,3.23-.42,4.85-.61Z"/><path class="cls-5" d="M135.39,218.53a41.83,41.83,0,0,0-11.87-2.16,35.07,35.07,0,0,0-9.71,1,23.3,23.3,0,0,0-4.65,1.76,21.87,21.87,0,0,0-3.66,2.32,13.17,13.17,0,0,0-2.57,2.62,8.91,8.91,0,0,0-1.37,2.61,8,8,0,0,0-.27,4.43,15.48,15.48,0,0,0,1.34,2.84q1.11,1.95,5.71,3.41a35.45,35.45,0,0,0,12.18,1.24,85.44,85.44,0,0,0,18.39-3.18l.88-.24,7.11,26.5-20.54,5.5a26.08,26.08,0,0,1-9.55.28,24.47,24.47,0,0,1-9.51-3.63A30.29,30.29,0,0,1,99,255.71a41.23,41.23,0,0,1-6-13.4,46.79,46.79,0,0,1-1.42-8.56,47.8,47.8,0,0,1,.18-8.95,41,41,0,0,1,1.94-8.62,30.34,30.34,0,0,1,3.87-7.64,25.88,25.88,0,0,1,5.94-6.06,24.09,24.09,0,0,1,8.09-3.81l17.22-4.61Z"/><path class="cls-5" d="M132.21,193.09,158.64,186,162.11,199c.18.48.54,1.33,1.08,2.54a17.44,17.44,0,0,0,2.2,3.59,10.55,10.55,0,0,0,3.42,2.86,6.19,6.19,0,0,0,4.68.38,9.06,9.06,0,0,0,5.15-3,9.44,9.44,0,0,0,1.8-4.23,11.5,11.5,0,0,0-.08-4.11c-.27-1.29-.48-2.2-.63-2.74l-3.46-12.95,13.62-3.65L193,189.29a22.1,22.1,0,0,1,.25,10.83,22.47,22.47,0,0,1-4.86,9.65q-1.78,2-3.11,3.56c-.89,1-1.7,2-2.45,2.8l9,33.55-26.3,7.05-9.18-34.3q-1.36-.44-2.91-1l-3.57-1.23a21.42,21.42,0,0,1-9.29-5.93,22.74,22.74,0,0,1-5.26-9.63Z"/><path class="cls-5" d="M193.41,176.69l13.29-3.56a14.46,14.46,0,0,1,7-.42,13.15,13.15,0,0,1,5.41,2.73,30.39,30.39,0,0,1,5,5.28q2.46,3.22,5.71,7.22,3.51,4.44,6.39,5.81t4.58.69a3.2,3.2,0,0,0,2-2.23,7.08,7.08,0,0,0-.08-3.94c0-.14-.16-.58-.38-1.32s-.49-1.66-.78-2.77-.64-2.34-1-3.72-.77-2.75-1.15-4.15q-.73-2.49-1.47-5.24l-1.57-5.86,63.79-17,3.51,13.08-50.31,13.41,14.64,54.62-9.69,2.6a8.65,8.65,0,0,1-5.58-.36,19.57,19.57,0,0,1-5.53-3.42,43.25,43.25,0,0,1-5.36-5.5q-2.64-3.18-5.1-6.55c-1.65-2.25-3.22-4.43-4.73-6.54s-2.93-4-4.25-5.55a22.11,22.11,0,0,0-3.65-3.6,2.78,2.78,0,0,0-3-.58,1.21,1.21,0,0,0-.61,1.36,9.09,9.09,0,0,0,.65,2.44,25.05,25.05,0,0,0,1.47,3c.6,1.07,1.21,2.11,1.84,3.1s1.23,1.9,1.79,2.72,1,1.43,1.29,1.83q1.66,2.46,2.72,4.07c.7,1.07,1.27,2,1.73,2.91a18.55,18.55,0,0,1,1.09,2.58c.27.85.58,1.86.92,3s.72,2.61,1.15,4.31,1,3.85,1.77,6.46l-25.28,6.78Zm78.74,51.47-13.51-50.43,46-12.33,2.56,9.56-3.06.78c-1.32.33-2.72.69-4.21,1.09s-3,.87-4.5,1.39a26.7,26.7,0,0,0-3.93,1.71,9.35,9.35,0,0,0-2.6,2,2,2,0,0,0-.46,2.23,5.86,5.86,0,0,0,.87,1.61,3.88,3.88,0,0,0,1.52,1.2,6.66,6.66,0,0,0,2.43.51,13.23,13.23,0,0,0,3.59-.42l4.4-1.18,1.71,6.37-.71.19a3.18,3.18,0,0,1-.73.12,14.85,14.85,0,0,0-1.54.35c-.57.15-1.15.28-1.75.39a11.16,11.16,0,0,0-4.21,1.64,5.11,5.11,0,0,0-1.81,2,2.73,2.73,0,0,0-.1,2,2.1,2.1,0,0,0,1,1.26,4.44,4.44,0,0,0,3.28.28l8.67-2.32,7.8-2.09,5.3,19.79Z"/><path class="cls-5" d="M321.56,214.92l-18.14-67.71,52.86-14.16L359.75,146l-3.56.81c-1.46.34-3,.74-4.69,1.19-2.08.55-4.19,1.19-6.32,1.9a44.29,44.29,0,0,0-5.7,2.33,13.59,13.59,0,0,0-3.84,2.76,3,3,0,0,0-.89,2.91l.07.27a7.29,7.29,0,0,0,1.17,2.18,5.53,5.53,0,0,0,2.06,1.58,8.31,8.31,0,0,0,3.26.64,19.07,19.07,0,0,0,4.77-.63l5.76-1.54,2.31,8.61-.92.24a9.8,9.8,0,0,1-1,.2l-2,.51c-.78.18-1.55.35-2.33.51a3.47,3.47,0,0,0-.67.11l-.64.17q-4.07,1.09-5.67,3.12a4.36,4.36,0,0,0-1.11,3.85l8.09,30.16Z"/><path class="cls-5" d="M385.53,125.06l.16.61.05.21.46,1.69,0,.14.19.68.1.4.19.68.05.2.15.55,0,.13.37,1.36v.06l.17.61.07.28.14.54,0,.13.13.48,0,.07.29,1.08,0,.14.11.4.07.27.11.41,0,.14.35,1.32a8.89,8.89,0,0,1,.25,1.2,18,18,0,0,1,.32,3.37,34,34,0,0,1-.19,3.61c-.13,1.32-.31,2.85-.54,4.61s-.47,3.9-.71,6.44a9.25,9.25,0,0,0,.24,3.35,7.23,7.23,0,0,0,.82,2,29,29,0,0,0,2.84,4.36q1.53,2,3.07,3.86a45.24,45.24,0,0,1,2.85,4,20.77,20.77,0,0,1,2.18,4.75q.75,2.26,1.49,5.45t2.26,8.29l-25.89,6.94L374,185.26a19.93,19.93,0,0,1-.31-4.82c.09-1.55.24-3.1.46-4.63s.44-3.1.67-4.69a30.86,30.86,0,0,0,.3-5,7.18,7.18,0,0,0-.27-2.11,9.48,9.48,0,0,0-1.47-3c-1.39-1.95-2.62-3.6-3.69-5s-2-2.57-2.79-3.64a34.15,34.15,0,0,1-2-3,17.26,17.26,0,0,1-1.35-2.88L359.63,132Z"/><path class="cls-6" d="M103.78,277.4l34.4-9.21a21.38,21.38,0,0,1,9.71-.57A18.91,18.91,0,0,1,155.6,271a19.94,19.94,0,0,1,5.21,5.88,27.87,27.87,0,0,1,2.87,6.75q.19.72.69,3.18a24,24,0,0,1,.1,6.78,24.84,24.84,0,0,1-2.17,8.26,20.66,20.66,0,0,1-5.08,6.76,19.79,19.79,0,0,1-8.11,4.21,26.44,26.44,0,0,1-4.56.51,1.14,1.14,0,0,0-.52-.05,1.53,1.53,0,0,1-.43,0l7.94,29.65-28.19,7.55ZM139,287.93a3.9,3.9,0,0,0,.12.75l.2.73a11.45,11.45,0,0,0,2.5,5,7.31,7.31,0,0,0,2,1.43,3.24,3.24,0,0,0,2.37.22,3.6,3.6,0,0,0,2-1.31,6.88,6.88,0,0,0,1.56-4.14,18.32,18.32,0,0,0-.27-4.51,5,5,0,0,0-.11-.71l-.19-.69a11,11,0,0,0-2.6-5,6.78,6.78,0,0,0-2-1.5,3.3,3.3,0,0,0-2.37-.23,4.38,4.38,0,0,0-2,1.25,7.15,7.15,0,0,0-1.5,4.2A20,20,0,0,0,139,287.93Z"/><path class="cls-6" d="M190.08,254.44l4.46,16.65q1.78,6.65,3.2,11.79a68.09,68.09,0,0,0,2.86,8.51,13,13,0,0,0,3.22,4.85,4.46,4.46,0,0,0,4.25.82,4.07,4.07,0,0,0,2.92-3,17.09,17.09,0,0,0,.61-5.64,43.87,43.87,0,0,0-.84-6.78q-.72-3.53-1.48-6.38l-.58-2.19,0-.07,0-.15,0-.07,0-.15,0-.14,0-.08,0-.14,0-.08,0-.07L202.77,251l13.95-3.74,13.5,50.4a20.32,20.32,0,0,1,.26,10.3,22.74,22.74,0,0,1-4.29,8.7,28.74,28.74,0,0,1-7.53,6.64,37.66,37.66,0,0,1-9.56,4.21l-1.24.33a37.55,37.55,0,0,1-10.11,1.14,27.4,27.4,0,0,1-9.54-1.86,21.58,21.58,0,0,1-7.75-5.25,20.48,20.48,0,0,1-4.79-9L162,262Z"/><path class="cls-6" d="M239.77,319.25l-3.44-12.87a20.3,20.3,0,0,1-.35-9.32,41.15,41.15,0,0,1,3-9.1,83.36,83.36,0,0,1,4.67-8.73q2.61-4.28,4.8-8.23a45.17,45.17,0,0,0,3.39-7.53,11.4,11.4,0,0,0,.37-6.64,2.67,2.67,0,0,0-1.68-1.9,8.43,8.43,0,0,0-3.33-.44,25.43,25.43,0,0,0-4.53.62c-1.68.37-3.44.81-5.29,1.3l-3.9,1.09q-2.94.83-8.93,2.43l-3.7-13.8,49.61-13.22,3.48,13a2.49,2.49,0,0,1,0,.55,2.42,2.42,0,0,1-.06.65,6.66,6.66,0,0,0-.11.73l-9.34,21a6.73,6.73,0,0,0-.38.76,6.88,6.88,0,0,1-.38.77l0,.07a28.93,28.93,0,0,0-2,5.26,10.5,10.5,0,0,0-.1,5.47,3.15,3.15,0,0,0,1.19,1.8,2.29,2.29,0,0,0,2,.31,27.1,27.1,0,0,0,2.83-1c1.2-.48,2.51-1,3.93-1.52l4.3-1.63c1.45-.54,2.76-1,3.93-1.28,1-.26,2-.52,3.07-.79s2.2-.55,3.37-.86l7.65,28.56Z"/><path class="cls-6" d="M297.69,303.73l-3.45-12.87a20.43,20.43,0,0,1-.34-9.32,41.15,41.15,0,0,1,3-9.1,83.36,83.36,0,0,1,4.67-8.73q2.61-4.27,4.8-8.23a45.17,45.17,0,0,0,3.39-7.53,11.4,11.4,0,0,0,.37-6.64,2.67,2.67,0,0,0-1.68-1.9,8.43,8.43,0,0,0-3.33-.44,25.43,25.43,0,0,0-4.53.62c-1.68.37-3.44.81-5.29,1.3l-3.9,1.09q-2.94.83-8.94,2.43l-3.69-13.8,49.61-13.22,3.48,13a3.48,3.48,0,0,1,0,.55,2.42,2.42,0,0,1-.06.65c-.05.22-.08.46-.12.73l-9.33,21a6.73,6.73,0,0,0-.38.76,6.12,6.12,0,0,1-.38.77l0,.07a28.93,28.93,0,0,0-2,5.26,10.5,10.5,0,0,0-.1,5.47,3.15,3.15,0,0,0,1.19,1.8,2.29,2.29,0,0,0,2,.31,27.1,27.1,0,0,0,2.83-1c1.2-.48,2.51-1,3.93-1.52l4.3-1.63c1.45-.54,2.76-1,3.92-1.28l3.08-.79c1.08-.26,2.2-.55,3.37-.86l7.65,28.56Z"/><path class="cls-6" d="M360.36,208.65l2.84,10.59c.32,1.59.65,3.15,1,4.67a11.27,11.27,0,0,1-.28,5.25,61.33,61.33,0,0,0-1.63,9.12,65.87,65.87,0,0,0-.31,9.48,52,52,0,0,0,1.05,8.76,25.22,25.22,0,0,0,2.47,7,10.66,10.66,0,0,0,4,4.26,7,7,0,0,0,5.5.52,17.87,17.87,0,0,0,7.77-4,18.13,18.13,0,0,0,4.24-5.67,16.89,16.89,0,0,0,1.54-5.78,13.6,13.6,0,0,0-.22-4.32l27.46-7.36L423.46,270l-67.85,18.18-19.57-73Zm15.74,40L365,207.4,403.89,197l2,7.3c-.88.24-2.15.55-3.82,1a40.55,40.55,0,0,0-4.89,1.47,18.5,18.5,0,0,0-4,2c-1.08.73-1.45,1.55-1.1,2.45a3.81,3.81,0,0,0,1.75,2.15c.87.53,2.33.54,4.39,0l3.36-.9,1.29,4.82-1.09.29c-.34.09-.73.18-1.15.27s-.85.16-1.3.23a8.66,8.66,0,0,0-3.15,1.24,3.57,3.57,0,0,0-1.32,1.52,2,2,0,0,0,0,1.46,1.7,1.7,0,0,0,.72.94,3.06,3.06,0,0,0,2.5.27l6.36-1.7,5.77-1.54,4.83,18Z"/></svg>