<svg id="Слой_1" data-name="Слой 1" xmlns="http://www.w3.org/2000/svg" viewBox="0 0 514.94 358.18"><defs><style>.cls-1{fill:#fdfdfd;}.cls-2{fill:#1adcc7;}.cls-3{fill:#181a1a;}.cls-4{fill:#f877f7;}.cls-5{fill:#fec841;}.cls-6{fill:#00e6cd;}.cls-7{fill:#fec844;}.cls-8{fill:#252525;}.cls-9{fill:#fa7afd;}.cls-10{fill:#fefdfd;}</style></defs><path class="cls-1" d="M144,29.69c-6.59,2.54-9.83,8.68-10.15,15.82-.29,6.33,1.21,12.58,1.51,18.87.42,9,2.67,17.79,3.15,26.84.39,7.41,1.07,14.88,2.17,22.29,1,6.62,1.09,13.38,1.72,20.06.87,9.17,1.93,18.33,2.78,27.51,1.25,13.53,2.38,27.07,3.54,40.61,1.05,12.15,2.07,24.32,3.37,36.45,1.5,14,2.34,28.07,3.58,42.09,1,11.31,2.21,22.59,3.25,33.89.42,4.57.76,9.16.93,13.75.37,10.27,7.91,21.23,21.31,20.74,8.49-.31,16.87-1.48,25.29-2.43,18-.78,35.86-2.83,53.77-4.61,16-1.6,32.14-2.53,48.2-3.88,17.38-1.45,34.8-2.44,52-5.38,4.74-.81,9.66-1.34,13.83-4.4,6.09-4.47,7.25-10.81,6.82-17.63-.6-9.78-1.47-19.54-2.34-29.3-1.31-14.65-2.76-29.28-4.08-43.93-1.1-12.06-2-24.13-3.15-36.18q-2.61-28.62-5.25-57.25c-1.14-12.47-2.35-24.94-3.38-37.43-1.15-13.76-2.67-27.49-3.92-41.24-1.05-11.49-2-23-2.91-34.48-.5-6.3-1.65-12.31-6.37-17a12.35,12.35,0,0,0-9.73-3.87c-12.09.62-24.18,1.22-36.26,2C285.4,12.77,267.3,16,249,17c-17.67.94-35.27,2.6-52.92,3.83-8.07.56-15.74,3.3-23.72,4.43A71.74,71.74,0,0,0,144,29.69Z"/><path class="cls-2" d="M202.77,344.51c-6.59-.74-11-4.89-12.38-11.38-2.17-10.16-2.85-20.49-3.64-30.82-1-13.5-2.55-27-4.28-40.41-1.28-10-1.9-20-2.43-30.08-.73-13.95-2.83-27.76-4.08-41.65-1.08-12.13-2.49-24.23-3.24-36.4-.82-13.32-1.16-26.75-3.14-39.92-2.52-16.81-3.84-33.75-6.14-50.58a147.81,147.81,0,0,1-.82-22.87c.14-6.82,3.58-12,9.77-15.17,8-1.13,15.65-3.87,23.72-4.43C213.76,19.57,231.36,17.91,249,17c18.27-1,36.37-4.2,54.64-5.39,12.08-.79,24.17-1.39,36.26-2a12.35,12.35,0,0,1,9.73,3.87c4.72,4.72,5.87,10.73,6.37,17,.92,11.49,1.86,23,2.91,34.48,1.25,13.75,2.77,27.48,3.92,41.24,1,12.49,2.24,25,3.38,37.43q2.63,28.62,5.25,57.25c1.11,12,2.05,24.12,3.15,36.18,1.32,14.65,2.77,29.28,4.08,43.93.87,9.76,1.74,19.52,2.34,29.3.43,6.82-.73,13.16-6.82,17.63-4.17,3.06-9.09,3.59-13.83,4.4-17.21,2.94-34.63,3.93-52,5.38-16.06,1.35-32.17,2.28-48.2,3.88-17.91,1.78-35.78,3.83-53.77,4.61C205.63,344.67,204.29,344.68,202.77,344.51ZM277.5,58.18c-24.1,1.72-48.19,3.5-72.3,5-4,.25-8,.24-12,.74-4.27.52-5.49,1.91-4.92,6.26,2.56,19.6,3.62,39.34,5.57,59,2.21,22.24,4.08,44.5,6,66.76,1.85,21.25,3.46,42.52,5.5,63.74.87,9.05,2.14,18.07,2.58,27.15.17,3.44,2.62,3.06,4.65,3,5.45-.26,10.88-.7,16.31-1.22,15.33-1.45,30.67-2.82,46-4.54,14.16-1.58,28.38-2.45,42.52-4.25,10.13-1.29,20.34-1.92,30.52-2.84a17.12,17.12,0,0,1,3-.29c3.56.29,4.22-2.05,4-4.67-.91-10.2-2.06-20.37-3-30.56-.72-7.91-1.2-15.83-1.86-23.74-1.21-14.65-2.49-29.29-3.71-43.94-.85-10.21-1.64-20.42-2.45-30.62q-1.59-20-3.11-40c-.8-10.48-1.71-21-2.13-31.51-.15-3.6-.56-7.19-.9-10.78-.56-5.78-1.07-6.23-6.88-6.25h-1.73v-.17Q303.33,56.3,277.5,58.18Zm4.87,265.21c8.36.64,17.72-6.62,18.18-15,.6-10.72-6.15-18.1-16.88-19.24-8.38-.88-18.36,4.13-19,16.18C264.48,313.5,270.88,322.51,282.37,323.39ZM285.51,38c4.14-.9,9-.49,13.48-1a24.52,24.52,0,0,0,3.81-.68c2-.56,3.37-1.65,2.89-4.05-.53-2.61-2.62-3-4.63-2.79-3.56.29-7.1.92-10.64,1.43a228,228,0,0,1-29.54,2,15.06,15.06,0,0,0-6.29,1.09c-1.74.8-2.9,1.94-2.43,4a3.83,3.83,0,0,0,3.94,3.33c2.43,0,4.86-.37,7.3-.58C270.73,39.77,278.16,39.62,285.51,38Zm-65.27-.85c-2.05.14-3.29,1.38-3.13,3.33s.91,3.26,3.48,3.42a86.61,86.61,0,0,0,15.28-.71c2.44-.28,4.14-1.78,4.17-4.06,0-2.63-2.41-2.87-4.43-3-1.56-.13-3.14,0-4.71,0C227.28,35.87,223.8,36.93,220.24,37.18Z"/><path class="cls-3" d="M206.43,346.18c-.8-1.51-2.14-1.5-3.66-1.67-6.59-.74-11-4.89-12.38-11.38-2.17-10.16-2.85-20.49-3.64-30.82-1-13.5-2.55-27-4.28-40.41-1.28-10-1.9-20-2.43-30.08-.73-13.95-2.83-27.76-4.08-41.65-1.08-12.13-2.49-24.23-3.24-36.4-.82-13.32-1.16-26.75-3.14-39.92-2.52-16.81-3.84-33.75-6.14-50.58a147.81,147.81,0,0,1-.82-22.87c.14-6.82,3.58-12,9.77-15.17A71.74,71.74,0,0,0,144,29.69c-6.59,2.54-9.83,8.68-10.15,15.82-.29,6.33,1.21,12.58,1.51,18.87.42,9,2.67,17.79,3.15,26.84.39,7.41,1.07,14.88,2.17,22.29,1,6.62,1.09,13.38,1.72,20.06.87,9.17,1.93,18.33,2.78,27.51,1.25,13.53,2.38,27.07,3.54,40.61,1.05,12.15,2.07,24.32,3.37,36.45,1.5,14,2.34,28.07,3.58,42.09,1,11.31,2.21,22.59,3.25,33.89.42,4.57.76,9.16.93,13.75.37,10.27,7.91,21.23,21.31,20.74C189.63,348.3,198,347.13,206.43,346.18Z"/><path class="cls-3" d="M329.19,54.58h1.73c5.81,0,6.32.47,6.88,6.25.34,3.59.75,7.18.9,10.78.42,10.52,1.33,21,2.13,31.51q1.55,20,3.11,40c.81,10.2,1.6,20.41,2.45,30.62,1.22,14.65,2.5,29.29,3.71,43.94.66,7.91,1.14,15.83,1.86,23.74.92,10.19,2.07,20.36,3,30.56.23,2.62-.43,5-4,4.67a17.12,17.12,0,0,0-3,.29c-10.18.92-20.39,1.55-30.52,2.84-14.14,1.8-28.36,2.67-42.52,4.25-15.3,1.72-30.64,3.09-46,4.54-5.43.52-10.86,1-16.31,1.22-2,.1-4.48.48-4.65-3-.44-9.08-1.71-18.1-2.58-27.15-2-21.22-3.65-42.49-5.5-63.74-2-22.26-3.82-44.52-6-66.76-2-19.66-3-39.4-5.57-59-.57-4.35.65-5.74,4.92-6.26,4-.5,8-.49,12-.74,24.11-1.53,48.2-3.31,72.3-5q25.85-1.84,51.68-3.77ZM211.37,257.1q.84,12,1.69,24c.13,1.87,1.2,2.26,3,2.09,11.3-1.1,77.21-6.81,86.09-7.54,13.89-1.13,27.76-2.62,41.65-3.87,4.47-.41,4.36-.3,3.95-4.9-.62-7.11-1-14.23-1.48-21.35-.69-9.33-.86-18.69-2.19-28l-.42-7.43c-1-15.16-1.95-30.33-3.06-45.49-1-13.49-2.21-27-3.23-40.45s-4.18-57.16-4.55-62.53c-.15-2.16-1.53-2-3-2C324,59.8,210.36,68.1,198.1,69c-2.77.21-3.92,1-3.74,3.84.37,5.52,12.8,146.37,13.95,149,.48,2.45-.27,5,.65,7.4C209.4,238.53,210.07,247.84,211.37,257.1Z"/><path class="cls-3" d="M283.67,289.18c10.73,1.14,17.48,8.52,16.88,19.24-.46,8.35-9.82,15.61-18.18,15-11.49-.88-17.89-9.89-17.66-18C265.31,293.31,275.29,288.3,283.67,289.18ZM283,294a12.66,12.66,0,0,0-13.34,12.41c-.1,5.58,7,12.17,12.6,12.17,7.5,0,13-5,13-11.91C295.26,299.25,290.22,294.19,283,294Z"/><path class="cls-3" d="M263.4,40.86c7.33-1.09,14.76-1.24,22.11-2.83,4.14-.9,9-.49,13.48-1a24.52,24.52,0,0,0,3.81-.68c2-.56,3.37-1.65,2.89-4.05-.53-2.61-2.62-3-4.63-2.79-3.56.29-7.1.92-10.64,1.43a228,228,0,0,1-29.54,2,15.06,15.06,0,0,0-6.29,1.09c-1.74.8-2.9,1.94-2.43,4a3.83,3.83,0,0,0,3.94,3.33C258.53,41.41,261,41.07,263.4,40.86Z"/><path class="cls-3" d="M230.9,36.1c-3.62-.23-7.1.83-10.66,1.08-2.05.14-3.29,1.38-3.13,3.33s.91,3.26,3.48,3.42a86.61,86.61,0,0,0,15.28-.71c2.44-.28,4.14-1.78,4.17-4.06,0-2.63-2.41-2.87-4.43-3C234.05,36,232.47,36.1,230.9,36.1Z"/><path class="cls-4" d="M295.24,306.68c0-7.43-5-12.49-12.22-12.67a12.66,12.66,0,0,0-13.34,12.41c-.1,5.58,7,12.17,12.6,12.17C289.78,318.59,295.23,313.59,295.24,306.68Z"/><path class="cls-5" d="M368.85,191.29c-2.78-.19-5.59.07-8.38.13-17.43-3.36-35.53-1.86-53-6.13a12,12,0,0,1,1.14-2.79,16,16,0,0,1,4.39-4.91c2.65-2,7.28-10.55,11.27-34.75a298.2,298.2,0,0,0,3.41-31.17c.53-9.25.07-8.66.55-12.18,2.33-17,12.81-29,16.15-32.78,13.8-15.41,30.86-20,37.44-21.48l19.68,1.47c2.64,1,5.27,2,7.92,3,23.7,8.65,38.55,27.85,38.23,53.27-.17,13.56-1.41,27-2.13,40.54-.84,15.87-.83,31.75,10,45.12,1.66,2,4.91,3.7,2.72,7.11-1.91,3-5,1.92-7.75,1.76-16.36-1-32.73-1.75-49-3.8C390.61,192.9,379.73,192,368.85,191.29ZM415.38,73.76c-3.93-4.89-9.14-8.13-15.9-7.56-.72,3.08.91,4.25,2.88,4.81,9.47,2.7,13.45,10.23,16.69,18.52,4.93,12.62,6.15,25.68,4.83,39.06-.35,3.54-1.16,7.08.83,10.57C429.75,116.29,431.38,93.7,415.38,73.76ZM426,171.16c-26-6.4-52.5-7.8-78.92-10.16l-.53,3.69C372.85,168.44,399.27,171.18,426,171.16Z"/><path class="cls-3" d="M401.49,193.72c-10.88-.82-21.76-1.7-32.64-2.43-2.78-.19-5.59.07-8.38.13a24,24,0,0,0,7.28,13.78c5,4.48,10.43,8.59,18,6C394.21,208.24,400.35,203.26,401.49,193.72Z"/><path class="cls-3" d="M381.79,45.23l19.68,1.47c.64-5.34-.61-9.47-6.78-10.28C385.83,35.27,384.1,36.48,381.79,45.23Z"/><path class="cls-1" d="M424.71,139.16c5-22.87,6.67-45.46-9.33-65.4-3.93-4.89-9.14-8.13-15.9-7.56-.72,3.08.91,4.25,2.88,4.81,9.47,2.7,13.45,10.23,16.69,18.52,4.93,12.62,6.15,25.68,4.83,39.06C423.53,132.13,422.72,135.67,424.71,139.16Z"/><path class="cls-1" d="M346.54,164.69c26.31,3.75,52.73,6.49,79.45,6.47-26-6.4-52.5-7.8-78.92-10.16Z"/><path class="cls-6" d="M250.46,243.49a27.25,27.25,0,0,0-2.78,7.34,22.55,22.55,0,0,0-.49,6.33,15.22,15.22,0,0,0,.57,3.19,14.49,14.49,0,0,0,1.05,2.61,9.15,9.15,0,0,0,1.37,2,6,6,0,0,0,1.51,1.18,5.33,5.33,0,0,0,2.81.7,10.09,10.09,0,0,0,2-.52q1.38-.48,2.86-3.25a23.14,23.14,0,0,0,2.23-7.64,55.47,55.47,0,0,0,.15-12.14l0-.6,17.79-1.4L280.54,255a16.88,16.88,0,0,1-1,6.14,15.94,15.94,0,0,1-3.45,5.66,19.82,19.82,0,0,1-6.2,4.35,26.75,26.75,0,0,1-9.28,2.22,29.72,29.72,0,0,1-5.64-.11,30.68,30.68,0,0,1-5.7-1.17,27,27,0,0,1-5.29-2.26,19.79,19.79,0,0,1-4.43-3.39,16.91,16.91,0,0,1-3.17-4.51,15.54,15.54,0,0,1-1.47-5.63L234,244.78Z"/><path class="cls-6" d="M233.81,242.51l-1.39-17.75,8.69-.68c.33-.06.91-.19,1.75-.39a11.27,11.27,0,0,0,2.56-1,6.82,6.82,0,0,0,2.23-1.85,4,4,0,0,0,.8-2.94,5.85,5.85,0,0,0-1.32-3.65,6.1,6.1,0,0,0-2.49-1.66,7.58,7.58,0,0,0-2.64-.44c-.85,0-1.46.05-1.82.08l-8.7.68-.72-9.14,7.83-.62a14.49,14.49,0,0,1,7,1.12,14.8,14.8,0,0,1,5.6,4.26c.71.92,1.35,1.72,1.9,2.41s1.06,1.32,1.5,1.9l22.53-1.78,1.39,17.66-23,1.81c-.29.54-.61,1.13-1,1.75l-1.2,2.13a14,14,0,0,1-4.9,5.24,14.93,14.93,0,0,1-6.79,2.23Z"/><path class="cls-6" d="M230.58,201.42l-.7-8.92a9.34,9.34,0,0,1,.56-4.51,8.6,8.6,0,0,1,2.38-3.14,20.3,20.3,0,0,1,4-2.55q2.36-1.2,5.29-2.8a13.18,13.18,0,0,0,4.48-3.4,3.86,3.86,0,0,0,1-2.85,2.13,2.13,0,0,0-1.2-1.53,4.59,4.59,0,0,0-2.53-.42l-.89.1-1.86.17c-.74.05-1.58.13-2.5.22l-2.8.24c-1.12.12-2.29.22-3.52.32l-3.94.31L225,129.84l8.78-.69,2.61,33.76L273.06,160l.51,6.51a5.66,5.66,0,0,1-.89,3.52,12.87,12.87,0,0,1-2.84,3.13,28.65,28.65,0,0,1-4.16,2.78q-2.34,1.31-4.79,2.48t-4.75,2.25q-2.29,1.08-4,2.06a14.62,14.62,0,0,0-2.73,1.91,1.82,1.82,0,0,0-.73,1.82.8.8,0,0,0,.8.56,5.85,5.85,0,0,0,1.64-.13,16.57,16.57,0,0,0,2.11-.58c.75-.26,1.49-.53,2.2-.81s1.36-.56,1.95-.82,1-.46,1.32-.61c1.19-.52,2.16-.94,2.93-1.26s1.46-.57,2.07-.76a12.31,12.31,0,0,1,1.77-.39l2.05-.23c.79-.08,1.75-.15,2.89-.23s2.58-.19,4.34-.36l1.34,17Zm42.25-44.26L239,159.83l-2.43-30.9,6.41-.51c0,.49.09,1.17.14,2.05s.12,1.82.2,2.83.2,2,.36,3a16.36,16.36,0,0,0,.62,2.72,6.17,6.17,0,0,0,.95,1.89,1.33,1.33,0,0,0,1.37.56,3.81,3.81,0,0,0,1.14-.37,2.47,2.47,0,0,0,.94-.83,4.21,4.21,0,0,0,.62-1.49,8.68,8.68,0,0,0,.16-2.35l-.23-2.95,4.27-.34,0,.48a2.55,2.55,0,0,1,0,.48c0,.3,0,.65,0,1s0,.76,0,1.16a7.32,7.32,0,0,0,.55,2.89,3.36,3.36,0,0,0,1.1,1.4,1.69,1.69,0,0,0,1.23.29,1.33,1.33,0,0,0,.93-.48,2.91,2.91,0,0,0,.57-2.06l-.46-5.83-.41-5.23,13.28-1Z"/><path class="cls-6" d="M270.22,124l-45.45,3.58L222,92.07l8.69-.68c0,.61.05,1.4.1,2.37s.11,2,.2,3.15c.11,1.39.27,2.81.47,4.26a30.27,30.27,0,0,0,.81,3.92,9.13,9.13,0,0,0,1.31,2.78,2,2,0,0,0,1.76.92l.18,0a4.55,4.55,0,0,0,1.53-.48,3.63,3.63,0,0,0,1.26-1.13,5.34,5.34,0,0,0,.79-2,12,12,0,0,0,.17-3.13l-.31-3.86,5.78-.46,0,.62a4.68,4.68,0,0,1,0,.66c0,.39.06.85.08,1.37s.05,1,.06,1.55a2.13,2.13,0,0,0,0,.43l0,.44a6.76,6.76,0,0,0,1.32,4,2.84,2.84,0,0,0,2.33,1.17l20.25-1.6Z"/><path class="cls-6" d="M220.33,72.42l.41,0h.14l1.14-.09h.09l.45,0,.28,0,.45,0h.14l.36,0h.09l.91-.07h.05l.41,0,.18,0,.36,0h.1l.31,0h.05l.73-.06h.09l.27,0h.18l.28,0h.09l.88-.07a7.42,7.42,0,0,1,.8,0,12.75,12.75,0,0,1,2.19.19c.7.13,1.46.32,2.29.56s1.79.54,2.89.89,2.44.76,4,1.22a6.32,6.32,0,0,0,2.17.24,4.65,4.65,0,0,0,1.35-.29,19.33,19.33,0,0,0,3.13-1.3l2.83-1.5a26.28,26.28,0,0,1,2.9-1.35,13.51,13.51,0,0,1,3.3-.84c1-.14,2.24-.24,3.66-.31s3.27-.22,5.57-.46l1.37,17.38-9.79.77a12.7,12.7,0,0,1-3.12-.37c-1-.24-1.94-.52-2.9-.85l-2.92-1a21,21,0,0,0-3.15-.78,4.67,4.67,0,0,0-1.38-.08,6.24,6.24,0,0,0-2.11.58c-1.41.66-2.61,1.25-3.61,1.77s-1.88,1-2.66,1.36a21.77,21.77,0,0,1-2.13.92,11,11,0,0,1-2,.52l-9.79.77Z"/><path class="cls-6" d="M284.37,270.69l-1.81-23.1a14,14,0,0,1,.78-6.28,12.33,12.33,0,0,1,3.05-4.53,13,13,0,0,1,4.38-2.64,18.23,18.23,0,0,1,4.66-1c.33,0,1-.05,2.11-.07a15.75,15.75,0,0,1,4.36.75,16.11,16.11,0,0,1,5,2.36,13.37,13.37,0,0,1,3.72,4,12.89,12.89,0,0,1,1.73,5.69,18,18,0,0,1-.21,3,.75.75,0,0,0-.1.32.7.7,0,0,1-.05.28l19.91-1.57,1.49,18.93Zm10.91-21.29a2.72,2.72,0,0,0,.49,0l.49,0a7.5,7.5,0,0,0,3.48-1,4.41,4.41,0,0,0,1.14-1.1,2.13,2.13,0,0,0,.43-1.49,2.35,2.35,0,0,0-.61-1.43,4.38,4.38,0,0,0-2.46-1.48,12.22,12.22,0,0,0-2.91-.37,2.49,2.49,0,0,0-.47,0l-.47,0a7.22,7.22,0,0,0-3.52,1.06,4.5,4.5,0,0,0-1.19,1.11,2.13,2.13,0,0,0-.43,1.49,2.91,2.91,0,0,0,.56,1.44,4.65,4.65,0,0,0,2.51,1.45A12.85,12.85,0,0,0,295.28,249.4Z"/><path class="cls-6" d="M279.91,212.77l11.18-.88q4.47-.34,7.92-.65a42.75,42.75,0,0,0,5.78-.82,8.37,8.37,0,0,0,3.49-1.49,2.91,2.91,0,0,0,1-2.62,2.65,2.65,0,0,0-1.56-2.22,11,11,0,0,0-3.54-1.05,28.58,28.58,0,0,0-4.43-.27c-1.56,0-3,.09-4.26.19l-1.47.11h-.64l-14.22,1.12-.73-9.36,33.83-2.67a13.19,13.19,0,0,1,6.62,1.06A15,15,0,0,1,324,197a18.79,18.79,0,0,1,3.35,5.61,24.14,24.14,0,0,1,1.56,6.61l.06.84a24.38,24.38,0,0,1-.46,6.6,17.92,17.92,0,0,1-2.33,5.88,14,14,0,0,1-4.27,4.33,13.22,13.22,0,0,1-6.31,2L281.4,231.6Z"/><path class="cls-6" d="M327.26,188.67l-8.64.68a13.23,13.23,0,0,1-6-.89,26,26,0,0,1-5.47-3,56.18,56.18,0,0,1-5-4q-2.42-2.17-4.69-4.05a30.4,30.4,0,0,0-4.41-3.06,7.4,7.4,0,0,0-4.21-1,1.73,1.73,0,0,0-1.41.85,5.52,5.52,0,0,0-.68,2.08,17.09,17.09,0,0,0-.14,3c0,1.11.11,2.29.21,3.53,0,.43.11,1.3.23,2.63s.29,3.32.5,6l-9.27.73-2.57-33.3,8.73-.69.35.08a2,2,0,0,1,.4.11,4.09,4.09,0,0,0,.46.16L297.92,167a4.59,4.59,0,0,0,.44.33,5.3,5.3,0,0,1,.45.34h.05a18.39,18.39,0,0,0,3.13,1.88,6.81,6.81,0,0,0,3.49.71,2,2,0,0,0,1.29-.54,1.54,1.54,0,0,0,.44-1.27c0-.46-.14-1.1-.3-1.93s-.33-1.72-.51-2.7-.35-1.95-.53-2.94-.29-1.88-.35-2.66-.1-1.34-.14-2.06-.09-1.48-.16-2.26l19.18-1.51Z"/><path class="cls-6" d="M324.2,149.78l-8.64.68a13.23,13.23,0,0,1-6-.88,26.52,26.52,0,0,1-5.47-3,51.61,51.61,0,0,1-5-4q-2.42-2.18-4.69-4a28.9,28.9,0,0,0-4.41-3.06,7.49,7.49,0,0,0-4.21-1,1.75,1.75,0,0,0-1.41.85,5.59,5.59,0,0,0-.68,2.08,17.19,17.19,0,0,0-.14,3q.06,1.68.21,3.54c0,.42.11,1.3.23,2.62s.29,3.33.5,6l-9.27.72L272.61,120l8.73-.69a2.34,2.34,0,0,1,.35.07,1.52,1.52,0,0,1,.4.12l.46.16,12.31,8.45c.14.12.29.23.44.34a3.72,3.72,0,0,1,.45.33h.05a18.37,18.37,0,0,0,3.13,1.87,6.72,6.72,0,0,0,3.49.72,2.11,2.11,0,0,0,1.29-.55,1.52,1.52,0,0,0,.44-1.27q-.06-.69-.3-1.92t-.51-2.7c-.17-1-.35-2-.53-2.95s-.29-1.87-.35-2.66-.1-1.34-.14-2.06-.09-1.47-.16-2.26l19.18-1.5Z"/><path class="cls-6" d="M270.82,98.43l7.11-.56c1.05,0,2.08,0,3.1-.08a7.38,7.38,0,0,1,3.32.8,39.79,39.79,0,0,0,5.64,2.13,42.59,42.59,0,0,0,6,1.32,34.44,34.44,0,0,0,5.72.37,16.7,16.7,0,0,0,4.78-.75,7,7,0,0,0,3.2-2,4.59,4.59,0,0,0,1-3.46,11.64,11.64,0,0,0-1.63-5.44,11.79,11.79,0,0,0-3.13-3.38,11.26,11.26,0,0,0-3.51-1.68,9.27,9.27,0,0,0-2.8-.37l-1.45-18.43,19.37-1.53,3.59,45.56-49,3.85Zm27.45-5.32-27.7,2.18L268.52,69.2l4.9-.39c.05.59.1,1.44.15,2.56a30.26,30.26,0,0,0,.36,3.3,11.84,11.84,0,0,0,.79,2.8c.34.78.82,1.11,1.43,1a2.49,2.49,0,0,0,1.59-.87,4,4,0,0,0,.54-2.8l-.18-2.26,3.24-.25.06.73c0,.23,0,.48,0,.76s0,.57,0,.87a5.85,5.85,0,0,0,.41,2.16,2.37,2.37,0,0,0,.82,1,1.3,1.3,0,0,0,.93.2,1.14,1.14,0,0,0,.69-.35,2,2,0,0,0,.47-1.57l-.34-4.26-.3-3.88,12.11-1Z"/><path class="cls-7" d="M243.83,208.25a2.32,2.32,0,0,1-2.34.51h0a2.83,2.83,0,0,0-1.18-.31c0,.05,0,.1,0,.15s0-.1,0-.15l-.08,0a.26.26,0,0,0-.24,0,3.82,3.82,0,0,0-1.38-.24s0,0-.05,0c.05,1.14-.07,1.23-1.22,1.48a18.4,18.4,0,0,1-3.7.28,1.91,1.91,0,0,1-1.4-.2,4.56,4.56,0,0,0-1.12.72h0a12.89,12.89,0,0,0-2.41,2.32,13.17,13.17,0,0,0-1.84,3,6,6,0,0,0-.66,2.65,2.6,2.6,0,0,0,.15-.42,2.6,2.6,0,0,1-.15.42.28.28,0,0,0,0,.09h0c-.14.08-.14.22-.16.36a13.38,13.38,0,0,0,.25,4.14.77.77,0,0,0,.31.58l0,0a.28.28,0,0,1,.13.16.28.28,0,0,0-.13-.16.68.68,0,0,0,.16.49c0,.16,0,.33.12.46h0a3.31,3.31,0,0,0,.53,1.16,2.13,2.13,0,0,0,.44.86l.24,0-.24,0c.23.35.36.78.75,1l.47.57h0c0,.07,0,.12.12.11h0a2.72,2.72,0,0,0,1.14,1.16c0,.14.1.19.23.19s.14.26.32.2c0,.22.18.25.35.28v0a.11.11,0,0,0,.12.1h0a1.24,1.24,0,0,0,.68.46c.44.24,1,.28,1.31.75h0a.23.23,0,0,1,.34.11c.06,0,.12.16.18,0a1.1,1.1,0,0,1,1.11-.68c1.09-.09,2.17-.23,3.25-.28.56,0,1.17-.24,1.68.07a.81.81,0,0,0,1-.08,2.9,2.9,0,0,0,1.13-.73h0a1.55,1.55,0,0,0,.86-.93h0a.43.43,0,0,0,.19-.34,4.09,4.09,0,0,0,.58-2.31,1,1,0,0,0-.11-.39l.79-2.22a1,1,0,0,1,.39-.59,1,1,0,0,0-.39.59,1.67,1.67,0,0,1,0,1.93.77.77,0,0,0-.1.44,7.77,7.77,0,0,1-.35,2.25,3.56,3.56,0,0,1-.89,1.5,7.41,7.41,0,0,1-2.39,1.35.94.94,0,0,0-.59.42.81.81,0,0,0-.06.56c.5,0,1.05-.12,1.62-.22.4-.08.78-.16,1.13-.25a3.85,3.85,0,0,0,.77.69h0a.65.65,0,0,0,.46.36.08.08,0,0,0,.07,0l.15.1h0l.11.1a4,4,0,0,0,1.85.8.36.36,0,0,1,0-.09.36.36,0,0,0,0,.09,1.89,1.89,0,0,0,.8.23h0a1.22,1.22,0,0,0,1.16-.65,1.28,1.28,0,0,0-.72-1.52c-.3-.46-.61-.91-.89-1.38-.43-.75-.4-.94.16-1.58,0,0,0-.06,0-.09l.38-.55.1.09a5.76,5.76,0,0,0,1.72-2.64,2.69,2.69,0,0,0,.62-1.32,1.42,1.42,0,0,0,.23-.88,2.47,2.47,0,0,0,.34-1,11.89,11.89,0,0,0-.71-6.59,9.35,9.35,0,0,0-2.95-4.27c-.22-.18-.27-.31-.1-.6a12.37,12.37,0,0,1,1.48-2h0c.66-.49,1.06-1,.93-1.33s-.49-.36-1.18-.49l-.34-.07,0,0A5.59,5.59,0,0,0,243.83,208.25ZM231.94,230.5a.74.74,0,0,0-.14-.23A.74.74,0,0,1,231.94,230.5Zm-.62-.36-.12-.1h0Zm-.47-.38a.18.18,0,0,0-.06-.16A.18.18,0,0,1,230.85,229.76Zm9.54-4.33Zm-7.53-1Zm13.84,9.16a.15.15,0,0,1-.09,0A.15.15,0,0,0,246.7,233.61ZM229.45,224s-.07.08,0,.13S229.4,224.07,229.45,224Zm14.76-1-.09,0h0Zm-2.45-.65c.06.51-.17.78-.72.85a.68.68,0,0,1-.69-.66.77.77,0,0,1,.65-.82A.73.73,0,0,1,241.76,222.35Zm8.15-2.56a3.4,3.4,0,0,0-.09-.46A3.4,3.4,0,0,1,249.91,219.79Zm-.28-1c0,.06.05.11.07.16s0-.1-.07-.16Zm0,0c0-.06-.08-.11-.09-.17S249.61,218.77,249.63,218.83Zm-7.35-.88a2,2,0,0,1,1.9,1.62,2.27,2.27,0,0,1-.94,1.9,1.55,1.55,0,0,1-.84.22.55.55,0,0,1-.57-.56c0-.44-.07-.87-.1-1.3h0c0-.4-.08-.8-.09-1.2S241.75,217.94,242.28,218Zm-.91-.9a.8.8,0,0,1-.63.93.78.78,0,0,1-.8-.64.65.65,0,0,1,.59-.81C240.94,216.49,241.35,216.74,241.37,217.05Zm5.68-1.69Zm-15-3.15-.09,0h0Z"/><path class="cls-7" d="M235.1,208.3a12.34,12.34,0,0,1,12.41,11.13C248,226,242.86,231.8,237,232.36a11.64,11.64,0,0,1-9.94-4.42,13.39,13.39,0,0,1-.37-15.08A11.89,11.89,0,0,1,235.1,208.3Z"/><path class="cls-8" d="M233.68,206.56c-.77.25-1.43.57-1.45,1.54a.38.38,0,0,1-.35.38,8.73,8.73,0,0,0-2.2.88,10.24,10.24,0,0,0-5.27,6.75,11.92,11.92,0,0,0-.17,2.92c0,.72.12,1.44.12,2.16a12.2,12.2,0,0,0,1.08,5.21,9.84,9.84,0,0,0,3.49,4,10.92,10.92,0,0,0,4.49,1.68.68.68,0,0,1,.66.59c.36,1.13.52,1.59,1.66,1.43,0,0,.06,0,.09,0l3-.29.5,0c.55-.07.77-.16.88-.51l-.18-2.13c0-.18,0-.36,0-.54l-.14-.08c-.51-.31-1.12-.09-1.68-.07-1.08.05-2.16.19-3.25.28a1.1,1.1,0,0,0-1.11.68c-.06.16-.12,0-.18,0s-.27.06-.34-.11h0a2.26,2.26,0,0,1-.52,0,9.88,9.88,0,0,1-5-2.78,11.12,11.12,0,0,1-2.09-3.23,10.4,10.4,0,0,1-.48-2.65,31.62,31.62,0,0,1-.35-4.44,9.16,9.16,0,0,1,.55-3,9.82,9.82,0,0,1,3.09-4.3,9.36,9.36,0,0,1,3.26-1.56c.32-.1.39.12.46.34a1.91,1.91,0,0,0,1.4.2,18.4,18.4,0,0,0,3.7-.28c1.15-.25,1.27-.34,1.22-1.48-.09-.39-.2-.77-.26-1.16a.59.59,0,0,0-.52-.55,4.91,4.91,0,0,0-1-.14ZM239,232.68c.13,0,.19,0,.2.17s-.13.14-.23.14l-1.76.14h0c-.57.05-1.14.1-1.71.13-.14,0-.32.05-.36-.13s.17-.19.29-.2A19.37,19.37,0,0,1,239,232.68Zm-1.67-25.41c0,.27-.3.28-.51.3-1,.08-1.93.14-2.9.21a2.09,2.09,0,0,1-.25,0c-.19,0-.49.19-.52-.11s.32-.24.49-.27c.57-.08,1.14-.1,1.71-.14v0l1.45-.11C237,207.11,237.31,207,237.33,207.27Z"/><path class="cls-9" d="M236.77,206.29l-3.09.27a.71.71,0,0,1,.71-.82c.43-.06.85-.15,1.28-.18C236.41,205.51,236.52,205.58,236.77,206.29Z"/><path class="cls-9" d="M235.83,234.17l3-.29c.09.5-.1.76-.61.89a6.16,6.16,0,0,1-1.48.16A.8.8,0,0,1,235.83,234.17Z"/><path class="cls-8" d="M241.72,219.83c0-.4-.08-.8-.09-1.2s.12-.69.65-.68a2,2,0,0,1,1.9,1.62,2.27,2.27,0,0,1-.94,1.9,1.55,1.55,0,0,1-.84.22.55.55,0,0,1-.57-.56c0-.44-.07-.87-.1-1.3Zm2.06-.23a1.35,1.35,0,0,0-.7-1c-.13-.08-.27-.22-.42-.1a.43.43,0,0,0-.18.5,1.75,1.75,0,0,0,.69,1c.14.08.28.25.46.15S243.76,219.79,243.78,219.6Z"/><path class="cls-8" d="M240.53,216.53c.41,0,.82.21.84.52a.8.8,0,0,1-.63.93.78.78,0,0,1-.8-.64A.65.65,0,0,1,240.53,216.53Z"/><path class="cls-8" d="M241,221.72a.73.73,0,0,1,.76.63c.06.51-.17.78-.72.85a.68.68,0,0,1-.69-.66A.77.77,0,0,1,241,221.72Z"/><path class="cls-9" d="M235.35,207.24l1.45-.11c.21,0,.51-.11.53.14s-.3.28-.51.3c-1,.08-1.93.14-2.9.21a2.09,2.09,0,0,1-.25,0c-.19,0-.49.19-.52-.11s.32-.24.49-.27c.57-.08,1.14-.1,1.71-.14Z"/><path class="cls-9" d="M237.21,233.13c-.57.05-1.14.1-1.71.13-.14,0-.32.05-.36-.13s.17-.19.29-.2a19.37,19.37,0,0,1,3.57-.25c.13,0,.19,0,.2.17s-.13.14-.23.14l-1.76.14Z"/><path class="cls-10" d="M233.3,231.35a.23.23,0,0,1,.34.11C233.51,231.46,233.37,231.52,233.3,231.35Z"/><path class="cls-9" d="M243.78,219.6c0,.19.05.41-.15.53s-.32-.07-.46-.15a1.75,1.75,0,0,1-.69-1,.43.43,0,0,1,.18-.5c.15-.12.29,0,.42.1A1.35,1.35,0,0,1,243.78,219.6Z"/></svg>