<svg id="Слой_1" data-name="Слой 1" xmlns="http://www.w3.org/2000/svg" viewBox="0 0 514.94 358.18"><defs><style>.cls-1{fill:#00e6cd;}.cls-2{fill:#fec844;}.cls-3{fill:#252525;}.cls-4{fill:#fa7afd;}.cls-5{fill:#fefdfd;}.cls-6{fill:#252424;}.cls-7{fill:#3cb4f7;}.cls-8{fill:#fdfcfd;}.cls-9{fill:#fecc49;}</style></defs><path class="cls-1" d="M141.23,283.69a34,34,0,0,0-4.16,8.81,28.31,28.31,0,0,0-1.22,7.79,18.64,18.64,0,0,0,.4,4,17.22,17.22,0,0,0,1.05,3.34,10.72,10.72,0,0,0,1.5,2.55,7,7,0,0,0,1.75,1.61,6.48,6.48,0,0,0,3.4,1.14,12.07,12.07,0,0,0,2.5-.46c1.17-.3,2.45-1.54,3.85-3.74a28.53,28.53,0,0,0,3.51-9.23,68.84,68.84,0,0,0,1.36-15v-.74h22.16v17.17a21.07,21.07,0,0,1-1.78,7.51,19.71,19.71,0,0,1-4.82,6.66,24.53,24.53,0,0,1-8.1,4.79,33.26,33.26,0,0,1-11.7,1.84,37.57,37.57,0,0,1-7-.68,38,38,0,0,1-6.94-2,33.08,33.08,0,0,1-6.32-3.32,24.73,24.73,0,0,1-5.15-4.61,21.24,21.24,0,0,1-3.49-5.9,19.33,19.33,0,0,1-1.27-7.11V283.69Z"/><path class="cls-1" d="M120.72,280.85v-22.1h10.82c.42,0,1.16-.14,2.21-.31a14.11,14.11,0,0,0,3.26-1,8.5,8.5,0,0,0,3-2.07,5,5,0,0,0,1.27-3.57,7.3,7.3,0,0,0-1.27-4.65A7.62,7.62,0,0,0,137,244.9a9.26,9.26,0,0,0-3.23-.79c-1.06-.06-1.81-.09-2.27-.09H120.72V232.63h9.75a17.9,17.9,0,0,1,8.5,2.07,18.2,18.2,0,0,1,6.51,5.81c.8,1.21,1.51,2.26,2.13,3.17s1.18,1.74,1.67,2.49h28.05v22H148.66l-1.36,2.07c-.49.74-1.06,1.58-1.7,2.52a17.25,17.25,0,0,1-6.58,6,18.44,18.44,0,0,1-8.61,2.09Z"/><path class="cls-1" d="M120.72,229.68v-11.1a11.81,11.81,0,0,1,1.13-5.53,10.86,10.86,0,0,1,3.26-3.65,25.35,25.35,0,0,1,5.16-2.78q3-1.25,6.83-3a16.14,16.14,0,0,0,5.86-3.76c1.12-1.31,1.62-2.45,1.5-3.43a2.56,2.56,0,0,0-1.33-2,5.71,5.71,0,0,0-3.09-.77l-1.1,0c-.62,0-1.4,0-2.32,0l-3.12,0c-1.15,0-2.31,0-3.49,0-1.39,0-2.86.06-4.39.06h-4.9l.06-53.32h10.93l-.05,42h45.67v8.11a7.07,7.07,0,0,1-1.44,4.28,16,16,0,0,1-3.83,3.59,35.79,35.79,0,0,1-5.41,3q-3,1.38-6.18,2.6c-2.09.82-4.12,1.59-6.09,2.33s-3.7,1.45-5.21,2.15a17.51,17.51,0,0,0-3.57,2.1,2.25,2.25,0,0,0-1.08,2.18c.08.41.39.67.94.76a6.9,6.9,0,0,0,2,0,19,19,0,0,0,2.66-.51c1-.24,1.9-.51,2.8-.79s1.74-.56,2.5-.82,1.32-.47,1.7-.63c1.51-.52,2.76-.95,3.74-1.27s1.86-.57,2.63-.74a14.15,14.15,0,0,1,2.24-.31c.72,0,1.57-.06,2.55-.08s2.18,0,3.6,0,3.22,0,5.41,0v21.13ZM177.33,179H135.17V140.55h8q0,.9,0,2.55t0,3.51c0,1.25.05,2.51.15,3.8a20.08,20.08,0,0,0,.51,3.43,7.41,7.41,0,0,0,1,2.43,1.62,1.62,0,0,0,1.64.82,4.71,4.71,0,0,0,1.45-.34,3.06,3.06,0,0,0,1.24-.93A5.43,5.43,0,0,0,150,154a10.12,10.12,0,0,0,.42-2.89v-3.68h5.33v.6a2.88,2.88,0,0,1-.06.59c0,.38-.05.8-.05,1.28s0,.95-.06,1.44A9.16,9.16,0,0,0,156,155a4.1,4.1,0,0,0,1.22,1.84,2.14,2.14,0,0,0,1.5.48,1.69,1.69,0,0,0,1.19-.51,3.56,3.56,0,0,0,.9-2.49V140.55h16.55Z"/><path class="cls-1" d="M177.33,137.71H120.72V93.51h10.82c0,.76-.07,1.74-.11,2.95s-.06,2.51-.06,3.91c0,1.74.06,3.51.17,5.33a37.41,37.41,0,0,0,.62,4.93,11,11,0,0,0,1.36,3.57,2.43,2.43,0,0,0,2.08,1.3h.23a5.9,5.9,0,0,0,1.94-.45,4.46,4.46,0,0,0,1.66-1.28,6.56,6.56,0,0,0,1.18-2.4,15,15,0,0,0,.51-3.86v-4.82h7.2v.77a6.21,6.21,0,0,1-.06.82c0,.49,0,1.06,0,1.7s0,1.29-.08,1.93a2.62,2.62,0,0,0-.06.54V109a8.5,8.5,0,0,0,1.25,5.08,3.5,3.5,0,0,0,2.77,1.67h25.22Z"/><path class="cls-1" d="M120.61,69h10.51a7.52,7.52,0,0,1,1,.06,16.06,16.06,0,0,1,2.69.45c.85.23,1.78.53,2.78.91s2.16.84,3.48,1.39,2.95,1.18,4.88,1.9a7.51,7.51,0,0,0,2.66.51,5.83,5.83,0,0,0,1.7-.23,24,24,0,0,0,4-1.3L158,71.13a37.59,37.59,0,0,1,3.71-1.39,17.29,17.29,0,0,1,4.17-.71c1.28-.07,2.8-.08,4.56,0s4.07,0,6.94,0V90.62H165.15a16.06,16.06,0,0,1-3.83-.76c-1.19-.4-2.36-.84-3.51-1.33L154.3,87a25.3,25.3,0,0,0-3.83-1.28,5.83,5.83,0,0,0-1.7-.23,7.51,7.51,0,0,0-2.66.51c-1.82.68-3.36,1.3-4.65,1.85s-2.43,1-3.43,1.41a27,27,0,0,1-2.72.94,13.83,13.83,0,0,1-2.52.45H120.61Z"/><path class="cls-1" d="M180.55,320.65V291.89a17.27,17.27,0,0,1,1.59-7.69,15.12,15.12,0,0,1,4.21-5.31,16.23,16.23,0,0,1,5.68-2.84,22.51,22.51,0,0,1,5.87-.83c.4,0,1.28,0,2.62.12a23,23,0,0,1,11.3,4.77,16.51,16.51,0,0,1,4.21,5.37,15.89,15.89,0,0,1,1.59,7.21,20.86,20.86,0,0,1-.55,3.66,1,1,0,0,0-.15.4,1.1,1.1,0,0,1-.09.33h24.79v23.57Zm15.57-25.28a3.26,3.26,0,0,0,.62.06h.61a9.26,9.26,0,0,0,4.39-.91,6.08,6.08,0,0,0,1.53-1.25,2.63,2.63,0,0,0,.67-1.8,2.91,2.91,0,0,0-.61-1.84,5.54,5.54,0,0,0-2.9-2.07,15.16,15.16,0,0,0-3.57-.74,3.09,3.09,0,0,0-.58-.06h-.58a9,9,0,0,0-4.46,1,5.72,5.72,0,0,0-1.59,1.25,2.63,2.63,0,0,0-.67,1.8,3.53,3.53,0,0,0,.55,1.84,5.76,5.76,0,0,0,3,2A15.59,15.59,0,0,0,196.12,295.37Z"/><path class="cls-1" d="M180.68,248.54H194.6q5.55,0,9.86,0a54.9,54.9,0,0,0,7.24-.46,10.37,10.37,0,0,0,4.45-1.5,3.58,3.58,0,0,0,1.53-3.14,3.27,3.27,0,0,0-1.71-2.9,13.89,13.89,0,0,0-4.27-1.65,34,34,0,0,0-5.47-.76c-1.93-.13-3.69-.19-5.28-.19H180.61V226.25h42.14a16.39,16.39,0,0,1,8.09,1.95,18.5,18.5,0,0,1,5.89,5.16,23.46,23.46,0,0,1,3.61,7.27,30.47,30.47,0,0,1,1.28,8.33v1a30.46,30.46,0,0,1-1.22,8.12,22.44,22.44,0,0,1-3.45,7.06,17.43,17.43,0,0,1-5.71,4.94,16.39,16.39,0,0,1-8,1.87H180.68Z"/><path class="cls-1" d="M241.62,223.32H230.86a16.43,16.43,0,0,1-7.34-1.68,32.86,32.86,0,0,1-6.48-4.22A66.61,66.61,0,0,1,211.2,212c-1.85-2-3.66-3.78-5.41-5.47a36.8,36.8,0,0,0-5.17-4.21,9.16,9.16,0,0,0-5.1-1.68,2.16,2.16,0,0,0-1.84.92,6.85,6.85,0,0,0-1,2.5,19.83,19.83,0,0,0-.46,3.67c-.06,1.38-.1,2.84-.1,4.39,0,.53,0,1.62,0,3.27s0,4.14,0,7.48H180.61l.07-41.46h10.87a2.51,2.51,0,0,1,.42.12,2.22,2.22,0,0,1,.49.18l.55.25,14.41,11.66.52.46a4.5,4.5,0,0,1,.52.46h.06a22.85,22.85,0,0,0,3.7,2.62,8.32,8.32,0,0,0,4.24,1.22,2.51,2.51,0,0,0,1.65-.55,1.84,1.84,0,0,0,.67-1.52,22.66,22.66,0,0,0-.18-2.42c-.13-1-.25-2.16-.37-3.39s-.24-2.45-.37-3.69-.18-2.35-.18-3.33c0-.81,0-1.67,0-2.56s0-1.83,0-2.81h23.88Z"/><path class="cls-1" d="M241.62,174.89H230.86a16.43,16.43,0,0,1-7.34-1.68A32.37,32.37,0,0,1,217,169a68.16,68.16,0,0,1-5.84-5.46c-1.85-2-3.66-3.78-5.41-5.47a36.11,36.11,0,0,0-5.17-4.21,9.16,9.16,0,0,0-5.1-1.68,2.16,2.16,0,0,0-1.84.91,6.9,6.9,0,0,0-1,2.51,19.83,19.83,0,0,0-.46,3.66c-.06,1.39-.1,2.85-.1,4.4,0,.53,0,1.62,0,3.26s0,4.15,0,7.49H180.61l.07-41.47h10.87a2.51,2.51,0,0,1,.42.12,2.92,2.92,0,0,1,.49.19c.16.08.35.16.55.24l14.41,11.67c.17.16.34.31.52.45s.36.3.52.46h.06a22.88,22.88,0,0,0,3.7,2.63,8.41,8.41,0,0,0,4.24,1.22,2.56,2.56,0,0,0,1.65-.55,1.87,1.87,0,0,0,.67-1.53,22.51,22.51,0,0,0-.18-2.41c-.13-1-.25-2.17-.37-3.39s-.24-2.45-.37-3.69-.18-2.35-.18-3.33c0-.82,0-1.67,0-2.57s0-1.83,0-2.81h23.88Z"/><path class="cls-1" d="M180.55,106.13h8.86c1.3.09,2.58.16,3.85.22a9.14,9.14,0,0,1,4,1.31,49.83,49.83,0,0,0,6.77,3.18,54.32,54.32,0,0,0,7.33,2.23,43.47,43.47,0,0,0,7.05,1,20.46,20.46,0,0,0,6-.46,8.66,8.66,0,0,0,4.15-2.19,5.67,5.67,0,0,0,1.56-4.19,14.17,14.17,0,0,0-5-11.38,13.6,13.6,0,0,0-4.18-2.42,11.22,11.22,0,0,0-3.42-.73v-23h24.12v56.73H180.55Zm34.51-3.9H180.55V69.74h6.11q0,1.1-.06,3.18a35.37,35.37,0,0,0,.12,4.12,15.19,15.19,0,0,0,.7,3.54c.35,1,.91,1.45,1.68,1.37a3.09,3.09,0,0,0,2.05-.91c.59-.57.9-1.71.94-3.42V74.81h4v.91c0,.29,0,.61,0,1s-.05.7-.09,1.07a7.06,7.06,0,0,0,.31,2.72,2.87,2.87,0,0,0,.91,1.34,1.6,1.6,0,0,0,1.13.34,1.43,1.43,0,0,0,.89-.37,2.47,2.47,0,0,0,.73-1.89V69.74h15.09Z"/><path class="cls-2" d="M136.45,239.42a2.85,2.85,0,0,1-2.94.41h0a3.31,3.31,0,0,0-1.43-.5c0,.06,0,.12,0,.18s0-.12,0-.18a.17.17,0,0,0-.1,0,.26.26,0,0,0-.28-.07,5,5,0,0,0-1.69-.43,0,0,0,0,0-.07,0c0,1.41-.2,1.51-1.65,1.72a23.67,23.67,0,0,1-4.61,0,2.43,2.43,0,0,1-1.71-.39,6,6,0,0,0-1.45.78h0a17,17,0,0,0-5.78,6.15,7.6,7.6,0,0,0-1.08,3.21,2.75,2.75,0,0,0,.23-.49,2.75,2.75,0,0,1-.23.49.52.52,0,0,0,0,.11h0c-.18.09-.19.27-.23.43a16.54,16.54,0,0,0-.09,5.16.94.94,0,0,0,.32.74l0,0a.36.36,0,0,1,.15.21.36.36,0,0,0-.15-.21c0,.22,0,.45.15.62,0,.2,0,.42.1.59h0a3.9,3.9,0,0,0,.55,1.48,2.41,2.41,0,0,0,.46,1.12,1.19,1.19,0,0,1,.29,0,1.19,1.19,0,0,0-.29,0c.25.45.36,1,.83,1.32l.52.74h0c0,.09,0,.16.14.15h0a3.29,3.29,0,0,0,1.3,1.55.25.25,0,0,0,.27.26c0,.19.15.33.38.28,0,.27.2.32.4.38v0c0,.09,0,.13.14.14h0a1.55,1.55,0,0,0,.79.64c.53.34,1.21.44,1.55,1.05h0a.28.28,0,0,1,.41.16c.08,0,.14.21.23,0a1.38,1.38,0,0,1,1.44-.74c1.35,0,2.7-.07,4,0,.69,0,1.47-.19,2.07.25a1,1,0,0,0,1.28,0,3.63,3.63,0,0,0,1.47-.79v0a1.93,1.93,0,0,0,1.15-1.07h0a.51.51,0,0,0,.26-.4,5.16,5.16,0,0,0,1-2.81,1.3,1.3,0,0,0-.11-.48l1.19-2.67a1.22,1.22,0,0,1,.55-.7,1.22,1.22,0,0,0-.55.7,2.06,2.06,0,0,1-.23,2.38.93.93,0,0,0-.17.53,9.22,9.22,0,0,1-.66,2.75,4.35,4.35,0,0,1-1.24,1.78,9.46,9.46,0,0,1-3.09,1.43,1.19,1.19,0,0,0-.77.47,1,1,0,0,0-.12.68c.62,0,1.3,0,2-.11.5-.06,1-.12,1.42-.2a4.9,4.9,0,0,0,.89.93h0c.07.28.3.38.53.48a.1.1,0,0,0,.09,0l.17.13h0l.12.14a5,5,0,0,0,2.22,1.17.21.21,0,0,1,.06-.1.21.21,0,0,0-.06.1,2.45,2.45,0,0,0,1,.37h0a1.53,1.53,0,0,0,1.5-.69,1.59,1.59,0,0,0-.73-2c-.33-.59-.67-1.18-1-1.8-.47-1-.41-1.19.34-1.93a.39.39,0,0,0,.06-.11l.52-.65.12.12a7.25,7.25,0,0,0,2.38-3.09,3.39,3.39,0,0,0,.9-1.57,2,2,0,0,0,.37-1.07,3.25,3.25,0,0,0,.52-1.24c.89-2.76.41-5.49-.24-8.21a11.5,11.5,0,0,0-3.24-5.57.49.49,0,0,1-.07-.76,15.91,15.91,0,0,1,2-2.3h0c.87-.54,1.42-1.18,1.28-1.55s-.57-.5-1.41-.72l-.41-.12,0,0A7.06,7.06,0,0,0,136.45,239.42ZM119.58,265.8a1.13,1.13,0,0,0-.15-.29A1.13,1.13,0,0,1,119.58,265.8Zm-.74-.49-.14-.14h0Zm-.54-.52a.25.25,0,0,0-.06-.21A.25.25,0,0,1,118.3,264.79Zm12.23-4.43Zm-9.22-1.95Zm16.22,12.68-.1,0Zm-20.4-13.53a.14.14,0,0,0-.09.15A.14.14,0,0,1,117.13,257.56Zm18.36.16-.11-.05h0Zm-3-1.05c0,.64-.3,1-1,1a.86.86,0,0,1-.79-.89.94.94,0,0,1,.88-.94A.91.91,0,0,1,132.53,256.67Zm10.33-2.37a3.83,3.83,0,0,0-.07-.58A3.83,3.83,0,0,1,142.86,254.3Zm-.26-1.21c0,.07.05.14.08.2s-.05-.13-.08-.2Zm0,0c0-.07-.08-.15-.09-.22S142.59,253,142.6,253.09Zm-9-1.81a2.41,2.41,0,0,1,2.18,2.19,2.82,2.82,0,0,1-1.33,2.27,2,2,0,0,1-1.08.18.67.67,0,0,1-.64-.75v-1.62h0c0-.49,0-1,0-1.49C132.74,251.39,132.94,251.22,133.6,251.28Zm-1-1.2a1,1,0,0,1-.86,1.09,1,1,0,0,1-.93-.87.82.82,0,0,1,.81-1C132.07,249.34,132.56,249.7,132.55,250.08Zm7.19-1.54Zm-18.26-5.36-.11-.05h0Z"/><path class="cls-2" d="M125.65,238.63a15.34,15.34,0,0,1,14.28,15c0,8.18-7,14.86-14.28,15a14.47,14.47,0,0,1-11.88-6.45,16.62,16.62,0,0,1,1-18.7C115.06,243.14,119.32,238.41,125.65,238.63Z"/><path class="cls-3" d="M124.06,236.35c-1,.23-1.83.57-1.94,1.76a.49.49,0,0,1-.47.44,10.61,10.61,0,0,0-2.82.88,12.67,12.67,0,0,0-7.17,7.83,14.22,14.22,0,0,0-.5,3.61c-.07.89,0,1.79-.06,2.68a15.14,15.14,0,0,0,.83,6.55,12.09,12.09,0,0,0,3.93,5.33,13.81,13.81,0,0,0,5.39,2.52.84.84,0,0,1,.76.79c.33,1.43.49,2,1.91,1.93,0,0,.08,0,.11.06l3.76-.07h.62c.69,0,1-.12,1.13-.55v-3.33l-.17-.1c-.6-.44-1.38-.23-2.07-.25-1.35-.05-2.7,0-4,0a1.38,1.38,0,0,0-1.44.74c-.09.19-.15,0-.23,0s-.33,0-.41-.16h0a2.72,2.72,0,0,1-.64,0,12.34,12.34,0,0,1-5.9-3.93,13.74,13.74,0,0,1-2.26-4.21,12.82,12.82,0,0,1-.34-3.33,37.67,37.67,0,0,1,0-5.52,11.09,11.09,0,0,1,1-3.71,12.25,12.25,0,0,1,4.24-5,11.45,11.45,0,0,1,4.19-1.61c.4-.09.46.18.53.46a2.43,2.43,0,0,0,1.71.39,23.67,23.67,0,0,0,4.61,0c1.45-.21,1.61-.31,1.65-1.72-.07-.49-.17-1-.21-1.46a.7.7,0,0,0-.58-.73,4.83,4.83,0,0,0-1.24-.27Zm4,32.84c.16,0,.24.07.23.23s-.18.16-.29.16h-4.33c-.17,0-.4,0-.43-.19s.22-.22.38-.23A24.39,24.39,0,0,1,128.1,269.19Zm.41-31.61c0,.35-.4.32-.66.32-1.2,0-2.41,0-3.61,0a1.77,1.77,0,0,1-.32,0c-.22,0-.61.2-.63-.17s.42-.28.64-.29c.71,0,1.42,0,2.13,0v0c.6,0,1.21,0,1.81,0C128.12,237.35,128.51,237.27,128.51,237.58Z"/><path class="cls-4" d="M127.91,236.32l-3.85,0a.88.88,0,0,1,1-.95c.53,0,1.07-.1,1.61-.09C127.55,235.32,127.67,235.41,127.91,236.32Z"/><path class="cls-4" d="M124,270.73l3.76-.07c.06.63-.21.93-.84,1a7.73,7.73,0,0,1-1.86.06A1,1,0,0,1,124,270.73Z"/><path class="cls-3" d="M132.71,253.55c0-.49,0-1,0-1.49,0-.67.22-.84.88-.78a2.41,2.41,0,0,1,2.18,2.19,2.82,2.82,0,0,1-1.33,2.27,2,2,0,0,1-1.08.18.67.67,0,0,1-.64-.75v-1.62Zm2.58-.07a1.69,1.69,0,0,0-.76-1.36c-.15-.1-.32-.29-.52-.16a.57.57,0,0,0-.27.61,2.11,2.11,0,0,0,.75,1.31c.17.11.33.34.57.23S135.25,253.7,135.29,253.48Z"/><path class="cls-3" d="M131.57,249.35c.5,0,1,.35,1,.73a1,1,0,0,1-.86,1.09,1,1,0,0,1-.93-.87A.82.82,0,0,1,131.57,249.35Z"/><path class="cls-3" d="M131.64,255.83a.91.91,0,0,1,.89.84c0,.64-.3,1-1,1a.86.86,0,0,1-.79-.89A.94.94,0,0,1,131.64,255.83Z"/><path class="cls-4" d="M126.06,237.35c.6,0,1.21,0,1.81,0,.25,0,.64-.08.64.23s-.4.32-.66.32c-1.2,0-2.41,0-3.61,0a1.77,1.77,0,0,1-.32,0c-.22,0-.61.2-.63-.17s.42-.28.64-.29c.71,0,1.42,0,2.13,0Z"/><path class="cls-4" d="M125.84,269.58h-2.13c-.17,0-.4,0-.43-.19s.22-.22.38-.23a24.39,24.39,0,0,1,4.44,0c.16,0,.24.07.23.23s-.18.16-.29.16Z"/><path class="cls-5" d="M121.17,267a.28.28,0,0,1,.41.16C121.43,267.15,121.25,267.21,121.17,267Z"/><path class="cls-4" d="M135.29,253.48c0,.22,0,.51-.23.63s-.4-.12-.57-.23a2.11,2.11,0,0,1-.75-1.31A.57.57,0,0,1,134,252c.2-.13.37.06.52.16A1.69,1.69,0,0,1,135.29,253.48Z"/><rect class="cls-6" x="86.83" y="56.26" width="18.69" height="100.76"/><path class="cls-6" d="M265.85,303.29c.12,5.49.7,11-.25,16.45-1.44,8.27-8.55,14.24-16.94,15-10.92.94-21.82-.47-32.74-.13s-106,1.49-114.3.87c-4.79-.35-9.73-.65-13.84-3.56-5.34-3.79-7.53-8.78-6.81-15.6.69-6.62-.49-92.74-.66-129.07-.13-27.36-.17-103-.56-113.52-.4-10.66-.44-21.41,0-32.09.26-6.89,5.93-16.34,15.46-18,10.29-1.76,20.68-.79,31-.93,13.18-.19,26.36,0,39.55,0,11.27,0,75.89,0,81.18.27,3.4.18,6.47.79,9,2.64a18.08,18.08,0,0,1,3.47,3.9,44.64,44.64,0,0,1,3.66,5.75c3.54,6.88,3.09,19.95,3,23.91-.22,6.46-.14,83.25-.13,91.15,0,9.13.16,18.25,0,27.37-.1,4.27-.87,8.52-1.32,12.77-.94.43-1.69,2-3,.55.06-12.86.09-25.72.19-38.58.14-19.22.37-38.44.49-57.66.08-12.42-.09-24.85.09-37.27.1-6.69.34-13.22-2.26-19.69-2.2-5.49-6.25-9.76-11.81-9.94-12-.37-24.11-.24-36.12-.05-10.68.18-81.57,1.38-94.1.59-4.14-.25-8.13,3.09-8.19,7.07-.08,5.62,0,11.24-.1,16.86s-.65,11.49,0,17c.57,5.19.38,197,.16,203.9-.48,14.92-.58,29.88-1.86,44.75-.17,1.92-.64,7.07,2.45,9.91,2.11,1.93,5,2,8.15,2,11.84,0,17.75,0,18.17,0,21.57.11,43.14.11,64.7.37,16.06.2,32.11,1.33,48.15-.36,6.87-.72,9.77-3.4,11.26-10,1.27-5.66,1.4-11.42,2.14-17.13Zm-162.62-180a21.28,21.28,0,0,0-1.08-8.75c-1.14-3.19-3.48-5-6.84-5a6.65,6.65,0,0,0-6.23,6.14c.25,9.87-1.72,19.66-.85,29.52.36,4.05,3,7.09,6.49,7.28A6.65,6.65,0,0,0,102,146C102.38,138.47,103.82,131,103.23,123.26ZM89.45,83.72c.08,3.61-.83,7.16,0,10.87.86,4.1,2.92,6.58,7,6.06,3.71-.48,5.6-3.32,5.75-7.15.23-5.91.23-11.84.8-17.72a30.2,30.2,0,0,0-.78-11.38c-1-3.34-2.85-5.75-6.74-5.44-4.09.33-5.42,3-6,6.73C88.5,71.73,89.25,77.71,89.45,83.72Z"/><path class="cls-7" d="M103.23,123.26c.59,7.74-.85,15.21-1.23,22.73a6.65,6.65,0,0,1-7.28,6.51c-3.44-.19-6.13-3.23-6.49-7.28-.87-9.86,1.1-19.65.85-29.52a6.65,6.65,0,0,1,6.23-6.14c3.36-.09,5.7,1.76,6.84,5A21.28,21.28,0,0,1,103.23,123.26Zm-4.56-5.34c-.24-1.85-.73-3.88-3-4s-3,2.06-3.15,3.78c-.66,8.59-1.27,17.19-1.51,25.8-.06,2.21.84,5.26,3.83,5.23,2.64,0,3-2.85,3-4.85C98.12,137.93,99,120.61,98.67,117.92Z"/><path class="cls-7" d="M89.45,83.72c-.2-6-1-12,0-18,.57-3.71,1.9-6.4,6-6.73,3.89-.31,5.78,2.1,6.74,5.44a30.2,30.2,0,0,1,.78,11.38c-.57,5.88-.57,11.81-.8,17.72-.15,3.83-2,6.67-5.75,7.15-4.06.52-6.12-2-7-6.06C88.62,90.88,89.53,87.33,89.45,83.72Zm2.78-.78c0,3.32-.66,6.7.69,9.91.53,1.26,2.11,3,3.25,2.69,1-.24,1.4-1.93,1.91-5.3,1.69-11,.41-12.88,1.16-19.35a10,10,0,0,0-.33-3.61c-.51-1.79-1.6-3.69-3.37-3.94-2.09-.28-2.34,2.09-2.85,3.56C91.13,71.42,92.22,82.18,92.23,82.94Z"/><path class="cls-7" d="M182.09,45.55c-6.2,0-12.4.86-18.61.13-2.22-.27-4.43-.46-4.36-3.46.07-2.74,2.12-2.88,4.18-3.1a161.49,161.49,0,0,1,25.45-.78c2.17.1,4.93-.14,4.79,3.36-.12,3.26-2.41,3.84-5.06,3.85C186.35,45.56,184.22,45.55,182.09,45.55Z"/><path class="cls-7" d="M207.59,39c2.19-.19,4.14.31,4.21,2.87.06,2.29-1.79,3.15-3.75,2.89-2.18-.28-5.58.46-5.44-3.13C202.72,38.93,205.5,39.15,207.59,39Z"/><path class="cls-8" d="M333.42,198.6c-8.5-.41-17-.57-25.54-.35-6.95.18-13.65,1.37-15.72,9.78-4.8,19.45-3.84,39.06-.54,58.48,1.09,6.45,4.83,12.77,13.38,13,18.17.52,36.32,1.55,54.49,1.71,13.57.11,18.08-4.12,18.72-17.65.76-16.07.9-32.18.7-48.27-.13-11.44-6.56-16.72-18-16.73C356.21,198.58,337.42,198.79,333.42,198.6Zm-13.67-79.13c27.48-1.16,54.93-1.57,82.38,1.13,14.09,1.39,20.45,6.35,23,20.46s1.67,28.55.86,42.9c-.49,8.74.41,17.55.52,26.33.33,26,.43,52-1,78-1.08,19.37-7,27.1-26.06,28.17-33.91,1.92-67.87,3.7-101.86,1.31-6.42-.46-12.91-.17-19.31-.84-15.17-1.59-20.73-9.25-24.1-24-3.46-15.2-.26-30.08-1.36-45.06-.46-6.23-3-10-7.72-13.67-10.15-7.93-12.69-9.18-3-18.7,8.61-8.43,9-18.11,9.21-28.91.29-16.08,1.46-32.19,3.07-48.2.82-8.27,14.82-18.7,24.11-18.84C292.22,119.32,306,119.47,319.75,119.47Z"/><path class="cls-7" d="M279.84,325.44C255,322.1,245,310.58,244.91,285.58c0-8.23-1.16-16.62.05-24.66,1.8-11.88-2.74-19.48-11.73-26.7-10.15-8.17-9.68-13.91.78-21.45,6.55-4.72,9.34-10,9.44-18.19.18-17,1.85-34,2.13-51.05.28-17.3,12-28.08,29.65-29.72,4.68-.44,105.71-3,123.8-1.73,27.92,2,30.55,12.94,34.61,32.32,3.64,17.33.94,85.27.36,101.83s.88,33.49-1.44,50.1c-2.34,16.77-9.47,24.25-26.19,27.41C385.8,327.64,283.91,326,279.84,325.44Zm39.91-206c-13.76,0-27.53-.15-41.29,0-9.29.14-23.29,10.57-24.11,18.84-1.61,16-2.78,32.12-3.07,48.2-.2,10.8-.6,20.48-9.21,28.91-9.73,9.52-7.19,10.77,3,18.7,4.73,3.69,7.26,7.44,7.72,13.67,1.1,15-2.1,29.86,1.36,45.06,3.37,14.77,8.93,22.43,24.1,24,6.4.67,12.89.38,19.31.84,34,2.39,68,.61,101.86-1.31,19-1.07,25-8.8,26.06-28.17,1.46-26,1.36-52,1-78-.11-8.78-1-17.59-.52-26.33.81-14.35,1.68-28.64-.86-42.9s-8.87-19.07-23-20.46C374.68,117.9,347.23,118.31,319.75,119.47Z"/><path class="cls-9" d="M360.89,198.59c11.46,0,17.89,5.29,18,16.73.2,16.09.06,32.2-.7,48.27-.64,13.53-5.15,17.76-18.72,17.65-18.17-.16-36.32-1.19-54.49-1.71-8.55-.25-12.29-6.57-13.38-13-3.3-19.42-4.26-39,.54-58.48,2.07-8.41,8.77-9.6,15.72-9.78,8.51-.22,17-.06,25.54.35C337.54,198.79,357.44,198.58,360.89,198.59Zm-34.4,51.54c.14,2.9-.1,5.87.49,8.66,1,4.92,8.76,7.46,15.3,5.38,3.83-1.21,4.39-4.73,3-7-3.25-5.31-.51-12-4.67-17-1.15-1.4-.61-3.74,1.72-5.13,4.73-2.83,6.27-7.05,3.29-11.93-3.24-5.31-8-7.72-14.22-5.33s-9.29,7.56-6.86,13.15C327.35,237.45,326.75,243.65,326.49,250.13Z"/><path class="cls-6" d="M336,198.68c-1.83.14-9.45,0-10-.16-1.3-.37.12-9.26.8-13.88,2-13.73.69-12,1.95-16.63.91-3.32,4.23-15.41,15-21.61a21.56,21.56,0,0,1,11.78-3.32,21.77,21.77,0,0,1,13,5.31c4.18,3.35,5.92,6.92,8.87,13a72.78,72.78,0,0,1,5.48,24.5c.14,2.89-.59,5.6-3.79,5.95a2.83,2.83,0,0,1-1.91-.35c-1.61-1-1.79-3.87-1.83-4.65s-1.29-5.54-3.81-15.17c-1.85-7.08-2.78-10.62-5.66-13.62-.94-1-4.93-5.13-10.48-5-6.51.19-10.7,6.17-12.52,8.78-1,1.44-3.4,5.16-5.29,16.71A119.93,119.93,0,0,0,336,198.68Z"/><path class="cls-6" d="M326.49,250.13c.26-6.48.86-12.68-2-19.22-2.43-5.59.71-10.8,6.86-13.15s11,0,14.22,5.33a11,11,0,0,1,1.4,6.13,14.7,14.7,0,0,1-.6,3.95,70.49,70.49,0,0,0-1.64,10.44c-.53,6.2-.83,9.66.5,13.53.34,1,1.06,2.72.31,4.35a5.15,5.15,0,0,1-3.29,2.68c-6.54,2.08-14.27-.46-15.3-5.38C326.39,256,326.63,253,326.49,250.13Z"/></svg>