<svg id="Слой_1" data-name="Слой 1" xmlns="http://www.w3.org/2000/svg" viewBox="0 0 514.94 358.18"><defs><style>.cls-1{fill:#23cecb;}.cls-2{fill:#34b3fc;}.cls-3{fill:#edfbf9;}.cls-4{fill:#242322;}.cls-5{fill:#fb85fd;}</style></defs><path class="cls-1" d="M114.86,308.29c-8.1,11.3-18,20.81-31.21,26.21-6.08,2.48-11.36,1-16.09-3.46-4.1-3.9-3.37-7.91-2.15-12.94,2.52-10.34,10.15-17.47,15.2-26.16,10-17.23,20-34.42,26.87-53.2.82-2.23,1.18-5.07,4.49-5.27,2.68,4.18,23.66,34,26.89,36,2.36,1.47,3.13,3,.73,5.05C132.34,286.47,123,296.94,114.86,308.29Z"/><path class="cls-2" d="M318.33,136.67c-18.84,11.91-39.94,10-60.71,9.74-21.68-.25-43.35-.9-65-1.35-19-.4-38,1-57-.87-17.38-1.76-31.26-10-42.78-23.27-9.69-11.19-15-24.32-20.59-37.57C70,77.93,67.31,71,60.07,72.15c-6.88,1.08-9.55,7.72-11,14.08C46,99.62,44,113,53.17,125.08c1.67,2.19.93,4.18-.08,6.3-2.2,4.57-2.65,9.37-3.39,14.39C48.21,155.86,54,160.36,59.79,165.7a10.54,10.54,0,0,0,2.3,1.42c5.42,2.81,8.53,5.82,7.33,13.33-1.06,6.66,4.25,14.62,9.79,18,5.13,3.09,13.74,3.74,18.09,6a9.76,9.76,0,0,1,4.71,5.29c3.13,8,7.54,15.51,10,23.73,3,10.18,4.72,21,17.35,29.69,3.13,2.15,21.53,23.32,27.81,28.68,12,10.25,23.18,21.35,37,29.56,6.8,4,14.06,7.7,20.19,13.24,5.3,4.79,12.53,5.17,19.22,1.93,6.14-3,7.37-9.4,2.92-15.56-9.13-12.62-18.51-25.07-27.75-37.61-.88-1.2-2.37-2.2-1.68-4.92l90.24,4.27c7.94-1.42,15.85.91,23.85-.05,7.59-.9,14.23,1.53,18.64,8.34,17.1,14.33,32.73,30.61,52.7,41.2,6.06,3.21,12.86,5.21,20,4.51,8.38-.82,11.47-5.66,8.86-13.58-2.53-7.67-8.61-12.68-13.8-18.23-8-8.52-12.76-18.91-18.95-28.5-5.72-8.89-4.76-13.74,3-20.8,11.34-10.32,13.24-25.24,13.44-39.82.14-9.85,2-19.85-1-29.6-.42-1.37.74-4.37-2.32-3.86-2.26.37-1.93,2.69-2,4.49-.37,7-1,25.42-1.16,27.67-1.12,15.43-3.72,30.19-16.14,41.38-2.94,2.65-3.92,2.46-6-.52a72.52,72.52,0,0,1-10.7-21.77c-1.16-1.32-2.77-2.17-4-.79-1.64,1.79-1.07,4.05-.39,6.32,3,10.24,8.74,19.12,14.37,28,1.36,2.14,15,29.78,24.5,39.18,5,5,9.2,10.7,14,15.85,3.35,3.59,1.67,5.3-1.78,7.06-4.73,2.42-9.1,1.5-13.65-.6-17.69-8.21-31.49-21.44-45.6-34.4-7.74-7.1-15.82-13.77-22.15-22.24-2.68-3-5.41-6-8-9.06-1.81-2.14-3.36-4.3-6.59-1.93-3.39,2.48-1.35,4.48.28,6.61,2.85,2.84,7,4.71,7.77,9.88-18.32-.83-36.15-1.43-54-2.48-18.93-1.12-37.81-3-56.81-2.3-9.14.35-16.52-3.82-18.93-10.12-3.81-10-9.05-19.29-14.49-28.47-5.33-.17-3.8,3.44-3.51,6.37,4.42,6.39,7.41,13.6,11.47,20.24,3.8,6.23,9.65,11.9,10,20,6.17,5.34,10.54,12.14,14.79,18.94,5.46,8.74,12.44,16.2,19.61,23.39,2,2,1.66,1.93.88,4.17-1.63,4.63-4.49,4.91-8.33,4-13.52-3.19-23.54-12.55-34.84-19.65-5.62-1-8.58-6.2-12.5-9.3-4.14-3.28-9-6.49-12.38-11.24-6.9-9.73-16.72-16.87-24.54-25.93-4.18-4.84-7.61-10-11.23-15.11-.43,0-10.65-13.8-13-20.47-3.53-10-9.29-19.23-14.1-28.79a58.36,58.36,0,0,0-6.77-2.25c-14.79-3-21-10.51-18.9-25.18.87-5.88-1.4-7.46-5.82-9.12-12-4.51-18-14.21-13.06-28.63,2.1-6.1,3.29-12.11-.85-18.44C51.91,109,52.72,99.71,54.9,90.6c1-4.22,2.12-10,6.21-10.42,4.69-.47,5.4,5.61,6.88,9.45,9.45,24.64,22.82,45.91,48.52,56.67a158.51,158.51,0,0,0,17.72,4.5C155,154.83,168,153,193,152.37c11.17-.3,28.44.24,50.69.49,17.56.19,35.17.32,52.64-.56,7.93-.39,16.58-2.91,23.46-8.35,1.56-1.24.83-2.93,1.31-4.36A3.33,3.33,0,0,0,318.33,136.67Z"/><path class="cls-3" d="M180.29,234.12c5.44,9.18,10.68,18.48,14.49,28.47,2.41,6.3,9.79,10.47,18.93,10.12,19-.72,37.88,1.18,56.81,2.3,17.81,1.05,35.64,1.65,54,2.48-.79-5.17-4.92-7-7.77-9.88-7.26,2.69-8.12,2.3-8.44-4-.07-1.26-.25-2.31-1.65-2.45s-1.87.9-2.27,2c-1.09,3.11-2.25,6.21-3.47,9.54-4.55-2.28,3.24-8.71-5.78-8.6,6.43-2.89,8.76-9.36,6.52-13.63-.11-.2-.1-.51-.26-.63-2.34-1.84-6.65,3.88-8.37-3.14-1.32-5.42-5.65-1.13-9.05.05-4.45,1.55-9.3,3.58-14-.62-2.11-1.88-5.49-1.75-8.51-1.71-4.2.06-8.28.54-12.14-2.66-3.41-2.83-7.41.92-9.47,2.63-2.5,2.09-2.79,2.66-4.45-.21-2-3.55-4.34-6.58-9.5-5.48-2.34.5-2.86-2.11-3.3-4.27-.92-4.57-4.15-5.84-7.89-3.65s-5.35,1.8-5.78-2.57a3.35,3.35,0,0,0-1.16-2.26c-2.88-1.88-4.16,1.92-6.62,2-3.47.12,3.44-7.05-2.66-4-2.89,1.45-4.21-1-6.75-.57C185.46,224.52,181.44,227.41,180.29,234.12Z"/><path class="cls-3" d="M116.51,146.3c-25.7-10.76-39.07-32-48.52-56.67-1.48-3.84-2.19-9.92-6.88-9.45-4.09.41-5.2,6.2-6.21,10.42-2.18,9.11-3,18.36,2.35,26.52,4.14,6.33,3,12.34.85,18.44-5,14.42,1.06,24.12,13.06,28.63,4.42,1.66,6.69,3.24,5.82,9.12-2.14,14.67,4.11,22.22,18.9,25.18a58.36,58.36,0,0,1,6.77,2.25c2.4-3.82,1.59-11.43,9.89-8.26a2.45,2.45,0,0,0,2.87-1.29c.84-1.3,0-2-1-2.71s-2.62-.91-2.94-2.53c.39-1.78-.68-10.3-6-11.77-5.51-1.55.19-4.47.06-6.8-2.25-1.59-5.79-2.11-5.27-6.06.5-3.79,2.5-6.23,6.44-6.81,1-2.25-3-10.7,5.42-3.95C115.9,153.55,113.7,146.47,116.51,146.3Z"/><path class="cls-4" d="M365.34,47.5c-9.53-1.43-19,.79-25,7.52-10.42,11.78-23.23,21.17-32.61,33.89-7.31,9.9-3.06,21.57,8.27,26.38,7.35,3.13,14.44,2.6,21.78,2.67l6.89-.21a55.43,55.43,0,0,0,8.09-6.14c1.29-1.17,2.46-2.34,3.5-3.48a36.4,36.4,0,0,0,4.61-5.49c.75-1.1,1.4-2.18,1.95-3.19l.17-.3.17-.31c1.95-9.6,4-19.16,4.13-29.06.06-5.64-1.43-11.29,0-16.92Z"/><path class="cls-3" d="M136.5,250.25c3,1,5.2,4.15,8.23-.83,1.4-2.3,3.87,1.8,5.67,3.13,1.5,1.11.6,2.47-1.09,2.75-2.66.45-3.83,2.16-2.5,4.25,1.18,1.87,5.27,3.17,5.79,2.23,3.83-7,8.36-3.34,12.84-1.39,1,.43,1.88,1.43,2.86,1.49,2.42.15,4.59-1.25,2.91-3.54-2.61-3.58-2.44-9.14-.13-15,.92-2.36,3.34-2.8,5.7-2.85,4.42,6.39,7.41,13.6,11.47,20.24,3.8,6.23,9.65,11.9,10,20-2.65,3.29-4.16.25-5.92-1.11-1-.75-2-1.26-3-.33-.42.38-.8,1.49-.58,1.75,2.55,3,.31,9.17,6.57,9.92,1.64.2,3.08,1.8,4.69,2.58,2.53,1.21,2.92,3.94,1,4.7-4.91,1.95-6.81,11.87-10.7,13.34-5.63-1-8.59-6.19-12.51-9.29-4.14-3.28-9-6.49-12.38-11.24-6.9-9.73-16.72-16.87-24.54-25.93-4.18-4.84-7.61-10-11.23-15.11C132,250,134.45,249.57,136.5,250.25Z"/><path class="cls-1" d="M335.12,296.64c-10.88,15.11-23.35,28.43-40.5,36.64a16.44,16.44,0,0,1-16.72-1.07c-5.12-3.25-4.83-8.57-2.9-13.29a60.73,60.73,0,0,1,6.51-12.53c5.52-7.68,10.53-15.74,15.75-23.64,7.94-1.42,15.85.91,23.85-.05,7.59-.9,14.23,1.53,18.64,8.34C337.11,292,336.53,294.68,335.12,296.64Zm-28.64,23.09a8.58,8.58,0,0,0-.68.81c0,.06.17.27.26.41l.83-.64Z"/><path class="cls-5" d="M318.33,136.67a3.33,3.33,0,0,1,2.72,2.92c7.41-2,11.5,4.91,17.65,6.59,20.87,5.71,41.65,11.62,63.57,6.84,8.59-1.88,10.22-15.27,2.93-22.89l-5.64.09a176.18,176.18,0,0,1-31.09-2.08c-8.85-1.26-17.67-2.37-26.29-4.78-2.23.17-4.49.42-5.46-2.35C328.26,121.89,318.42,130.28,318.33,136.67Z"/><path class="cls-1" d="M365.34,47.5l2,5.36c7.14.77,11-2,10.7-9.6a7.22,7.22,0,0,1,.89-3.22,4.16,4.16,0,0,1,4.41-2.51c1.83.23,3.78,1,4,3,.94,7.7,4.31,5.89,8.36,2.35a3.93,3.93,0,0,1,4.42-.85,3,3,0,0,1,1.12,4.16c-4.33,7.85.42,10.94,6.62,13.64,1.33.57,2.18,2.21,3.25,3.36,4.42,3.61,8.51,7.83,10.2,13.15C423,81.84,426.55,82,431,82.24c5.77.27,11.72-1.27,17.27,1.51,1.6-1.59.07-5.27,3.69-5.51-6.39-.77-12.77-2-19.16-2.13-4.63-.06-6.71-2-8.66-5.78-2.14-4.07-4.6-8.08-8.18-11.2-4.64-4-9.06-7.55-8.26-15.3.7-6.69-4.86-10-11.51-8.36-2.3.57-3.77,1.16-6-.89-7.33-6.89-15.53-4.53-18.42,5.46C370.68,43.89,369.27,46.53,365.34,47.5Z"/><path class="cls-2" d="M162.05,180.22c.08,5.38,6.45,10.49,12.88,10.33,8-.21,14.69-6.48,14.49-13.52-.18-5.93-6.08-12.09-11.58-12.07C170.35,165,162,173.11,162.05,180.22Z"/><path class="cls-1" d="M399.56,130.22l5.64-.09c-1.09-5.34,2.14-5.7,6.19-5.64,13.69.19,27.42,1,40.33-5.41,7.36-3.64,10.82-9.49,12-17.18-1.5-.35-3-1.15-4.57-.47-3.23,9-10.14,14.36-19.15,15-10.68.75-21.29,4.11-32.17,1.65-5.34-1.2-8.31,1-8.25,6.72C399.65,126.6,399.58,128.41,399.56,130.22Z"/><path class="cls-4" d="M452.81,93.5c-3.2-2.35-5.58-5.32-4.56-9.75,1.6-1.59.07-5.27,3.7-5.51,5.59-2.64,11.45-2.76,15.5,1.91,4.49,5.17,2,16.68-3.69,21.75-1.5-.35-3-1.15-4.57-.47A17.3,17.3,0,0,0,452.81,93.5Z"/><path class="cls-3" d="M414.88,168.31c0-6.07-6.22-12.08-12.26-11.92-4.53.12-11,5.83-10.87,9.62.2,6.49,6.14,12.66,12.45,12.93C409.66,179.18,414.91,174,414.88,168.31Z"/><path class="cls-2" d="M199.3,197.16c-.1,3.44,3,6.09,7.77,6.54,3.56.34,7.44-5.82,7.39-10.71s-2.69-6-7-6C201.77,187.07,199.32,189.9,199.3,197.16Z"/><path class="cls-2" d="M151.6,212.81c5.2.74,8.24-2.81,7.72-6.42-.47-3.15-2.09-8.32-7.42-8.1-4.44.18-8.38,2.26-8.17,7.12C143.91,209.74,147.7,211.79,151.6,212.81Z"/><path class="cls-2" d="M106.73,154.51c-3.94.58-5.94,3-6.44,6.81-.52,4,3,4.47,5.27,6.06a7.13,7.13,0,0,0,1.77-.62c1.93-1.29,6.34,2.47,6.18-3.09C113.37,159,111.9,155.41,106.73,154.51Z"/><path class="cls-2" d="M285.43,172.44c0,4.15,2.32,5.77,5.85,6.1,3.79.35,6.2-1.42,6.15-5.25s-2.19-6-6.25-6.42C286.54,166.34,286.46,169.85,285.43,172.44Z"/><path class="cls-2" d="M336.72,121c1,2.77,3.23,2.52,5.47,2.34l2.49-5.6-6.89.21C337.44,119,337.08,120,336.72,121Z"/><path class="cls-3" d="M404,73c0-5,5.48-6,7.14-9.8-1.07-1.15-1.92-2.79-3.25-3.36-6.2-2.7-10.95-5.79-6.62-13.64a3,3,0,0,0-1.12-4.16,3.93,3.93,0,0,0-4.42.85c-4.05,3.54-7.42,5.35-8.36-2.35-.25-2.06-2.2-2.79-4-3A4.16,4.16,0,0,0,378.88,40a7.22,7.22,0,0,0-.89,3.22c.31,7.58-3.56,10.37-10.7,9.6-1.42,5.63.07,11.28,0,16.92-.12,9.9-2.18,19.46-4.13,29.06,1.6,1.1,1.13,4.07,4,4.12,1.48,0,7.92-.43,8.42-2.35s.59-8,8.18-8.26c2.19-.07.61-4.82,1.11-7.36.34-1.67-2.85-4.53.74-4.74,1.71-.09,5.4-3.85,6.56,1.82.58,2.82,7.14,3.53,9.07,1.66-3-1.2-3.58-3.31-3-6.37C398.89,74,401,73.14,404,73Z"/><path class="cls-4" d="M306.89,320.31l-.41-.58a8.58,8.58,0,0,0-.68.81c0,.06.17.27.26.41Z"/><path class="cls-4" d="M404,73c-2.91.13-5.06,1-5.71,4.35-.6,3.06,0,5.17,3,6.37a6.71,6.71,0,0,0,4.09-.89,6.94,6.94,0,0,0,3.08-4.49A4.82,4.82,0,0,0,408,75.5a4.41,4.41,0,0,0-2.26-2.2A4.15,4.15,0,0,0,404,73Z"/><path class="cls-3" d="M331,272c6.33,8.47,14.41,15.14,22.15,22.24,14.11,13,27.91,26.19,45.6,34.4,4.55,2.1,8.92,3,13.65.6,3.45-1.76,5.13-3.47,1.78-7.06-4.82-5.15-9.06-10.83-14-15.85-2.63-2.66-5.49-7.13-11.21-16.06-4.11-6.41-7.63-12.53-10.64-18.21C377,274.6,370,287,361.62,287.5c-1.49.1-5.26.52-6.24-1.72-1.15-2.61-8-1-9.8-5.33C342.76,273.7,337.74,271.6,331,272Z"/><path class="cls-3" d="M365.75,233.61a72.52,72.52,0,0,0,10.7,21.77c1,1.46,1.77,2.25,2.62,2.36,1.36.18,2.56-1,3.36-1.84,3.72-3.83,5.58-5.75,7.18-8.36a57.62,57.62,0,0,0,4.58-9.18c3.22-8.42,3.81-15.88,4.38-23.84.23-3.27.3-5.94.33-7.64a29.1,29.1,0,0,1-8.73,2.36c-2.36.25-4.38.6-8.14.91-6.89.58-5.26,4.49-7.64,7.37-3.81,4.6-6.63,8.09-4.95,14.29C370,233.72,367.24,233.43,365.75,233.61Z"/></svg>