<svg width="64" height="79" viewBox="0 0 64 79" fill="none" xmlns="http://www.w3.org/2000/svg">
<path d="M24.9196 13.5248C24.2057 9.64765 26.0894 5.33994 29.2067 3.71553C32.3256 2.09113 36.3545 3.32006 38.3785 6.51528C39.4925 8.27089 40.0024 10.4552 40.2001 12.623C40.6049 17.0693 39.7522 21.656 37.8047 25.5128C37.5848 25.949 37.3362 26.3944 36.9585 26.6494C35.7887 27.4422 34.4149 25.9564 33.9145 24.4964C32.7431 21.0776 33.4635 16.8974 35.6787 14.264C37.894 11.6306 41.4814 10.6899 44.4568 11.9632C47.8721 13.4232 50.1336 17.4666 50.6659 21.6413C51.1982 25.8159 50.2308 30.0793 48.7343 33.9269C48.0299 35.7361 46.7661 37.7633 45.0736 37.464C43.7492 37.2293 42.9094 35.4921 43.0735 33.9509C43.2377 32.4096 44.1636 31.1086 45.2282 30.1643C49.673 26.2225 56.808 27.9689 59.9986 33.3004C63.1892 38.6319 62.4178 46.4305 58.73 51.3093C55.0422 56.1899 48.9447 58.1525 43.4432 56.9642C42.0615 56.6648 40.6447 56.1456 39.6598 54.9813C38.6733 53.8189 38.2701 51.8637 39.0701 50.5239C39.851 49.2136 41.5149 48.9383 42.7866 49.5389C44.0584 50.1395 44.9987 51.4165 45.7541 52.7471C48.253 57.149 49.2331 62.8853 47.6426 67.8213C46.0505 72.7573 41.6105 76.5014 37.0923 75.9452C33.2659 75.4739 30.1119 72.2547 27.7134 68.7656C26.3859 66.8326 25.1715 64.6871 24.7906 62.2551C24.4097 59.8231 25.0344 57.0437 26.7811 55.6244C27.1748 55.3047 27.6608 55.0534 28.1262 55.1938C28.531 55.3158 28.8306 55.7039 29.0824 56.0901C30.9343 58.9194 31.6403 62.7781 30.7287 66.171C29.8171 69.5621 27.2353 72.336 24.2089 72.8941C20.7808 73.5261 17.2651 71.3085 15.2666 68.0154C13.2681 64.724 12.6131 60.5438 12.7278 56.5207C12.7868 54.4546 13.1087 52.2204 14.4108 50.8085C15.7129 49.3966 18.2532 49.489 18.929 51.3998C19.2031 52.1742 19.1202 53.0612 18.8986 53.8577C17.7082 58.1266 12.7454 59.7473 9.22649 57.8827C5.7076 56.018 3.58 51.7122 2.60625 47.3712C1.82375 43.884 1.6628 40.0604 2.94573 36.7784C4.22866 33.4963 7.21365 30.9534 10.3022 31.3507C11.9167 31.5577 13.5821 32.7866 13.8243 34.6476C14.1957 37.4935 10.8728 39.4321 8.58263 38.3196C6.29248 37.2071 5.03667 34.3759 4.14739 31.6889C3.0812 28.4678 2.26363 25.012 2.66524 21.5932C3.06685 18.1744 4.93628 14.8036 7.78103 13.7946C9.88153 13.048 12.2067 13.6763 14.1096 14.9515C17.0054 16.89 19.117 20.3384 19.7385 24.1472C19.8437 24.7884 19.8995 25.4925 19.619 26.058C18.7998 27.7138 16.5942 26.3944 15.6061 24.8697C13.8418 22.1476 12.5509 18.8896 12.5302 15.4855C12.5095 12.0815 13.9407 8.55547 16.524 6.94031C19.1138 5.3196 22.7905 6.13273 24.9196 13.5248Z" fill="white" stroke="#141414" stroke-width="4" stroke-miterlimit="10"/>
</svg>
