<svg width="69" height="68" viewBox="0 0 69 68" fill="none" xmlns="http://www.w3.org/2000/svg">
<path d="M26.4476 11.2272C25.686 7.82808 27.6954 4.05145 31.0205 2.62731C34.3473 1.20318 38.6448 2.2806 40.8037 5.08189C41.992 6.62105 42.5359 8.53609 42.7467 10.4366C43.1785 14.3347 42.269 18.356 40.1917 21.7373C39.9571 22.1197 39.6919 22.5101 39.289 22.7337C38.0413 23.4288 36.5759 22.1261 36.0421 20.8462C34.7927 17.8489 35.561 14.184 37.924 11.8753C40.2869 9.56653 44.1135 8.74186 47.2873 9.85817C50.9303 11.1381 53.3425 14.6831 53.9103 18.343C54.478 22.003 53.4462 25.7408 51.85 29.114C51.0986 30.7001 49.7505 32.4775 47.9452 32.215C46.5325 32.0092 45.6366 30.4863 45.8117 29.135C45.9868 27.7838 46.9745 26.6432 48.1101 25.8153C52.8512 22.3594 60.4619 23.8905 63.8652 28.5647C67.2685 33.2389 66.4457 40.0761 62.512 44.3534C58.5783 48.6322 52.0743 50.3529 46.2061 49.3111C44.7322 49.0486 43.221 48.5934 42.1704 47.5726C41.1182 46.5536 40.6881 44.8394 41.5415 43.6648C42.3744 42.5161 44.1492 42.2747 45.5057 42.8012C46.8623 43.3278 47.8652 44.4473 48.671 45.6139C51.3365 49.4731 52.382 54.5021 50.6855 58.8296C48.9872 63.1571 44.2512 66.4396 39.4318 65.9519C35.3503 65.5388 31.9861 62.7164 29.4276 59.6575C28.0116 57.9628 26.7162 56.0818 26.31 53.9497C25.9037 51.8175 26.57 49.3808 28.4332 48.1365C28.8531 47.8562 29.3715 47.6358 29.8679 47.759C30.2997 47.8659 30.6193 48.2061 30.8879 48.5448C32.8632 51.0252 33.6163 54.4082 32.644 57.3828C31.6716 60.3558 28.9177 62.7877 25.6895 63.277C22.0329 63.8311 18.2828 61.8869 16.1511 58.9998C14.0193 56.1142 13.3206 52.4494 13.443 48.9222C13.5059 47.1109 13.8493 45.1521 15.2382 43.9143C16.627 42.6765 19.3368 42.7575 20.0576 44.4327C20.3499 45.1116 20.2615 45.8893 20.0252 46.5876C18.7554 50.3302 13.4617 51.7511 9.70825 50.1163C5.95477 48.4816 3.68534 44.7065 2.64667 40.9007C1.812 37.8435 1.64032 34.4913 3.00878 31.6139C4.37724 28.7365 7.56122 26.5071 10.8557 26.8554C12.5778 27.0369 14.3542 28.1143 14.6126 29.7458C15.0087 32.2409 11.4643 33.9405 9.02147 32.9651C6.57865 31.9898 5.23912 29.5077 4.29055 27.1519C3.15328 24.328 2.2812 21.2982 2.70959 18.3009C3.13798 15.3036 5.13203 12.3484 8.16643 11.4638C10.407 10.8092 12.8872 11.3601 14.9169 12.478C18.0057 14.1776 20.2581 17.2008 20.9211 20.54C21.0333 21.1022 21.0928 21.7195 20.7936 22.2153C19.9198 23.6669 17.5671 22.5101 16.5131 21.1735C14.6313 18.787 13.2543 15.9306 13.2322 12.9462C13.2101 9.96187 14.7367 6.87055 17.4923 5.45452C20.2547 4.03362 24.1765 4.7465 26.4476 11.2272Z" fill="white" stroke="black" stroke-width="4" stroke-miterlimit="10"/>
</svg>
