<?xml version="1.0" encoding="utf-8"?>
<!-- Generator: Adobe Illustrator 25.2.1, SVG Export Plug-In . SVG Version: 6.00 Build 0)  -->
<svg version="1.1" id="Layer_1" xmlns:svgjs="http://svgjs.com/svgjs"
	 xmlns="http://www.w3.org/2000/svg" xmlns:xlink="http://www.w3.org/1999/xlink" x="0px" y="0px" viewBox="0 0 512 512"
	 style="enable-background:new 0 0 512 512;" xml:space="preserve">
<style type="text/css">
	.st0{fill:#655BEF;}
</style>
<g>
	<g>
		<g id="post-linkedin">
			<path class="st0" d="M460.8,0H51.2C23,0,0,23,0,51.2v409.6C0,489,23,512,51.2,512h409.6c28.2,0,51.2-23,51.2-51.2V51.2
				C512,23,489,0,460.8,0z M153.6,435.2H76.8V204.8h76.8V435.2z M115.2,161.3c-25.6,0-46.1-20.5-46.1-46.1s20.5-46.1,46.1-46.1
				s46.1,20.5,46.1,46.1S140.8,161.3,115.2,161.3z M435.2,435.2h-76.8V299.5c0-20.5-17.9-38.4-38.4-38.4
				c-20.5,0-38.4,17.9-38.4,38.4v135.7h-76.8V204.8h76.8v30.7c12.8-20.5,41-35.8,64-35.8c48.6,0,89.6,41,89.6,89.6V435.2z"/>
		</g>
	</g>
</g>
</svg>
