<svg width="24" height="24" viewBox="0 0 24 24" fill="none" xmlns="http://www.w3.org/2000/svg">
<circle cx="12" cy="12" r="12" fill="#141414" fill-opacity="0.16"/>
<path fill-rule="evenodd" clip-rule="evenodd" d="M16.2426 9.17156C16.6332 8.78104 16.6332 8.14787 16.2426 7.75735C15.8521 7.36683 15.219 7.36683 14.8284 7.75735L12 10.5858L9.17157 7.75735C8.78105 7.36682 8.14788 7.36683 7.75736 7.75735C7.36684 8.14787 7.36684 8.78104 7.75736 9.17156L10.5858 12L7.75736 14.8284C7.36683 15.2189 7.36683 15.8521 7.75736 16.2426C8.14788 16.6332 8.78105 16.6332 9.17157 16.2426L12 13.4142L14.8284 16.2426C15.219 16.6332 15.8521 16.6332 16.2426 16.2426C16.6332 15.8521 16.6332 15.2189 16.2426 14.8284L13.4142 12L16.2426 9.17156Z" fill="#141414" fill-opacity="0.32"/>
</svg>
