<svg width="48" height="49" viewBox="0 0 48 49" fill="none" xmlns="http://www.w3.org/2000/svg">
<rect y="0.5" width="48" height="48" rx="24" fill="#FDFC71"/>
<path d="M19.243 29.3C21.4696 27.9133 23.0763 26.6867 24.063 25.62C25.063 24.54 25.563 23.5267 25.563 22.58C25.563 22.0467 25.4096 21.62 25.103 21.3C24.7963 20.9667 24.3563 20.8 23.783 20.8C23.1563 20.8 22.663 21.0333 22.303 21.5C21.9563 21.9533 21.7763 22.62 21.763 23.5L18.823 22.6C18.8496 21.1733 19.3363 20.0667 20.283 19.28C21.243 18.4933 22.483 18.1 24.003 18.1C25.1096 18.1 26.0363 18.3067 26.783 18.72C27.5296 19.12 28.083 19.64 28.443 20.28C28.803 20.92 28.983 21.6067 28.983 22.34C28.983 23.58 28.5163 24.72 27.583 25.76C26.663 26.8 25.263 27.86 23.383 28.94V28.96C24.263 28.9067 25.1496 28.88 26.043 28.88H29.143V31.5H19.243V29.3Z" fill="#141414"/>
<path d="M19.243 29.3C21.4696 27.9133 23.0763 26.6867 24.063 25.62C25.063 24.54 25.563 23.5267 25.563 22.58C25.563 22.0467 25.4096 21.62 25.103 21.3C24.7963 20.9667 24.3563 20.8 23.783 20.8C23.1563 20.8 22.663 21.0333 22.303 21.5C21.9563 21.9533 21.7763 22.62 21.763 23.5L18.823 22.6C18.8496 21.1733 19.3363 20.0667 20.283 19.28C21.243 18.4933 22.483 18.1 24.003 18.1C25.1096 18.1 26.0363 18.3067 26.783 18.72C27.5296 19.12 28.083 19.64 28.443 20.28C28.803 20.92 28.983 21.6067 28.983 22.34C28.983 23.58 28.5163 24.72 27.583 25.76C26.663 26.8 25.263 27.86 23.383 28.94V28.96C24.263 28.9067 25.1496 28.88 26.043 28.88H29.143V31.5H19.243V29.3Z" fill="black" fill-opacity="0.2"/>
</svg>
