<svg id="Слой_1" data-name="Слой 1" xmlns="http://www.w3.org/2000/svg" viewBox="0 0 514.94 358.18"><defs><style>.cls-1{fill:#fcf4fe;}.cls-2{fill:#151415;}.cls-3{fill:#fece67;}.cls-4{fill:#44b4ef;}.cls-5{fill:#e774fe;}.cls-6{fill:#fefdfe;}.cls-7{fill:#fff;}</style></defs><rect class="cls-1" x="35.36" y="206.42" width="117.4" height="117.4" rx="15.7"/><rect class="cls-2" x="70.88" y="211.59" width="6.54" height="62.86" transform="translate(-138.83 104.47) rotate(-39.99)"/><rect class="cls-1" x="165.72" y="34.25" width="305.16" height="234.58" rx="25.43"/><rect class="cls-2" x="183.83" y="50.1" width="266.16" height="188.72" rx="25.43"/><path class="cls-3" d="M152,114.33c3.32-2.76,6.66-5.48,11-6.49a28,28,0,0,1,6.13-.26c3.88,0,7.77.2,11.64,0,2.17-.11,4.33-.18,6.5-.12l7.44-.16,9.88-.21,1.57.13h1.54l1.42.17c-.23.51-1.11,2.78-1.41,3.67-.69,2.09-1.44,4.16-2.15,6.25-.52,1.54-2,2.31-2.84,3.53a6.85,6.85,0,0,1-4.55,2.55c-2.12.38-4.37.4-6.56.64a77.17,77.17,0,0,1-10.38.07c-2-.52-9.9,0-11.87.22-2.64.35-3.2,10.48-3,12.79.4,3.64-.5,14.65-.34,15.68.45,3-.06,6,.08,8.95.12,2.54.15,5.11.07,7.66,0,1.65-.36,7.09.15,8,.24.45-.39,1.21.35,1.32s1.19-.53,1.52-1.11c1.11-2,3.18-3,4.53-4.82,1.62-2.22,9.34-10.12,11.91-11.37a14.25,14.25,0,0,0,2.31-1.82,20.15,20.15,0,0,1,9-6.46,15,15,0,0,1,10.28.14c2.24.85,2.93,2.74,1.36,4.5a18.88,18.88,0,0,0-1.42,1.94c-1.86,2.64-11.49,17.4-12.56,19.54-1.7,3.44-8.85,12.86-9.93,14.56-1.34,2.12-3,4.06-4.08,6.3a91.49,91.49,0,0,1-5.25,9.11A56.5,56.5,0,0,1,169,217c-1.31,1.41-6.49,6.27-7.51,6.8-2,1-3.63,2.54-5.7,3.43-4.33,1.86-8.47,4.18-13.14,5.13-3.69.75-7.41,1.72-11.14,1.86a7.7,7.7,0,0,0-5.49,2.39c.77-1.73,1.13-3.33-.57-4.88a13.53,13.53,0,0,1-2.39-3.83c-.86-1.58-1.73-3.48-3.67-4.28l-1-1.24a6,6,0,0,0-.42-.93c-2.69-4-5.47-7.88-8.06-11.93-3-4.77-6.39-9.36-9.61-14-.59-.75-1.34-1.37-.47-2.5a1,1,0,0,0-.78-1.55c-.6-.07-.63-.59-.86-.7-1.32-.61-1.32-2.82-3.23-2.64-.72-1-1.4-2.1-2.18-3.08-.41-.5-.66-1-.4-1.54.59-1.26-.23-1.49-1.13-1.71.83-1.59,2.52-2.29,3.71-3.5s2.85-2.07,2.76-3.82c-.12-2.3,0-4.58,0-6.86,0-3.57.09-7.14,0-10.69s-.13-7.21-.19-10.81c-.08-4,.25-7.95.07-11.92-.19-4.25,0-8.49,0-12.73-.08-7.74.14-15.49-.11-23.22-.13-3.77,0-7.55-.06-11.3,0-4.64-.14-9.3.11-14,0-.75.33-1,1-1,.46.89,1.35.76,2.1.79a6.41,6.41,0,0,1,2.26.52,18.74,18.74,0,0,1,6.46,4.69,12.58,12.58,0,0,1,3.8,6.74c.31,2.07,1,4.09.77,6.26a14.19,14.19,0,0,0,0,3.74c.17,1.2-.22,2.35,0,3.56s-.56,2.7.14,3.66c.84,1.14,0,1.95-.06,2.87,0,1.84.39,3.63.23,5.5a69.76,69.76,0,0,0,.19,8.42c.13,3.23.31,6.46.45,9.69a.72.72,0,0,0,.73.79c.32,0,.73-.14.64-.39-.3-.8.42-1.38.3-2.18-.61-4.34-.12-8.73-.37-13.1-.32-5.48-.3-11-.36-16.47a27.28,27.28,0,0,1,.42-3.58c.84.65,1-.2,1.17-.63,1.79-4.65,4.11-9.08,6.25-13.56,1.9-4,3.82-8,5.78-12,1.52-3.08,3.21-6.12,4.43-9.37.38-1,.88-2.72,2.76-1.73a3.58,3.58,0,0,0,.9,2.4c2.36,2.3,4.81,4.61,4.74,8.33,0,.16.13.3.26.6,1,2.31,1.32,2.37,1.47,3.24a3.25,3.25,0,0,1-.38,2.61,2.15,2.15,0,0,0-.58.83,1.75,1.75,0,0,0,0,1c.5,1.62-2.76,5.54-2.76,5.54-.23.28.35.11-3.63,7.25-2,3.52-3.2,7.38-5.08,11a9.32,9.32,0,0,0-1,5.93,58.05,58.05,0,0,1,.51,8.39c.12,2.75.18,5.59.25,8.37.12,4.54-.27,9.17,1.05,13.63.1.34-.45.89.15,1,.75.16.43-.64.63-1a2.17,2.17,0,0,0,.27-1c.13-3.44,0-6.89-.08-10.33s-.22-6.64-.45-10A19.56,19.56,0,0,0,133,111a19.29,19.29,0,0,1-.08-6c1.45-4,4.55-6.53,7.94-8.87,2.2-1.51,4.45-3,6.58-4.56,1.06-.79,9.49-7.52,12.44-10.33,2-1.94,4.85-2.94,6.32-5.47,1.48-.66,2.47-1.94,3.71-2.88,1.53-1.17,2.33-1.19,3.19,0a1.17,1.17,0,0,0-.36,2c1.67,2,1.29,4.73,2.15,7,.71,1.92-.11,4.41-.89,6.35a14.3,14.3,0,0,1-6,7c-2.37,1.41-4.5,3.22-6.69,4.8-2.63,1.9-5.61,3.52-7.74,6.41a19.83,19.83,0,0,0-3.67,7.65,23,23,0,0,0-.65,6.72c.2,2.55-.26,5.09.18,7.66a21.63,21.63,0,0,1,.18,6c-.28,2.32.24,4.54,0,6.8a.82.82,0,0,0,.73,1c.7.08.6-.58.8-.93a2.17,2.17,0,0,0,.15-1c0-3.26,0-6.52,0-9.78,0-1.68.18-3.45,0-5-.32-3.16.08-6.25.06-9.37A2,2,0,0,1,152,114.33Zm-5.49,55.5-.25,0a.75.75,0,0,0,.12.07A.43.43,0,0,0,146.53,169.83Z"/><path class="cls-4" d="M97.74,274c-.89,1.58-1,3.43-2,5a5.7,5.7,0,0,1-4.36,3c-1.5.23-2.92.82-4.52,1a4.75,4.75,0,0,1-2.36-.31,6.13,6.13,0,0,1-2.72-2.8,40.87,40.87,0,0,0-4.21-5.72c-.35-.36-.9-.94-1.54-1.68a31.86,31.86,0,0,1-3.49-4.36c-.69-1.08-2-1.74-2.83-2.77-2.45-3.14-5.83-5.39-8.06-8.78-1.36-2.05-3.3-3.73-4.94-5.6-1.91-2.19-4.06-4.17-6.06-6.26-1.74-1.81-2.9-4-4.7-5.72a14.77,14.77,0,0,1,.77-4.51A15.33,15.33,0,0,1,48,231.7a25.15,25.15,0,0,1,3.8-5,4.75,4.75,0,0,0,.89-1,4,4,0,0,0,.28-.48.49.49,0,0,0,.22-.23c1.94-.16,3.47-1.52,5.37-1.8,2.15,2.65,6.47,8.11,6.67,8.31,1.35,1.35,2.92,4.24,6.26,9.82A173.6,173.6,0,0,0,82.93,256c2.95,3.14,5.51,6.66,9.13,9.13.54-.71.27-1.1-.24-1.54a44.71,44.71,0,0,1-4-4.58c-2.07-2.34-13-16.45-16.42-21.81A46.93,46.93,0,0,0,68.14,232c-1.7-2.37-7-8.77-7.62-10a36.14,36.14,0,0,1,2.26-5,11.26,11.26,0,0,1,2-2.72A11,11,0,0,1,66,213.32a12.07,12.07,0,0,1,3.32-1.58c3.55-1,8.78.35,10.8,1.1,1,.37,1.87.59,2.31-.72,1.18,1.68,2.47,3.29,3.65,5,1.71,2.44,3.41,4.89,5.16,7.29,3.9,5.36,7.73,10.77,11.71,16.06.65.86,2.8,4.12,3.52,4.65l.31.21a1.4,1.4,0,0,0,.49,1.15,9.28,9.28,0,0,1,1.92,2.86,19.63,19.63,0,0,0-5.35,5.51C102.09,257.7,97.94,273.68,97.74,274Z"/><path class="cls-4" d="M91.22,181.75c.9.22,1.72.45,1.13,1.71-.26.56,0,1,.4,1.54.78,1,1.46,2.05,2.18,3.08l-1.43,1.41c-.82-.58-1.37-1.11-2.4.09a23.43,23.43,0,0,1-2.76,2.68c-3.44,2.88-6.65,6-9.91,9.13-.72.68-1.16.76-1.75-.13-.76-1.13-1.68-2.16-2.46-3.29-.32-.46-.62-.73-1.1-.41s-.34.74,0,1.18c.71,1,1.36,2.12,2,3.18a24.76,24.76,0,0,0-4.28-.95c-2.64-.27-5.23-.59-7.76.61a9.2,9.2,0,0,0-2.31,2c-1.15,1.08-2.69,1.9-3.4,3.29-1.08,2.11-2.44,4.15-2.82,6.57a1.44,1.44,0,0,1-.42.83,1.55,1.55,0,0,1-1,.35c-.6,0-2,.4-5.21,1.81l-.45.38-.62.09-.33.27v0c-.2.36-.41.72-.62,1.07a4.81,4.81,0,0,0-.54.41,7.61,7.61,0,0,0-1.31,1.72c-.15.22-.46.59-1.07,1.33-1.89,2.25-3.05,2.8-4.19,4.49A10.22,10.22,0,0,0,37.52,229a1.16,1.16,0,0,1-1.58-.1c-1.66-1.92-3.46-3.91-3.21-6.62a17.6,17.6,0,0,1,4.69-10.75c5.75-6,6.26-5.78,14.28-14.4a14.61,14.61,0,0,1,6.36-4.39,11.35,11.35,0,0,1,4.75-.55,23.36,23.36,0,0,1,9.33,3.87,1.58,1.58,0,0,0,2.3,0,43.59,43.59,0,0,0,5.11-4.79c2.09-2.42,4.75-4.29,7.12-6.42A29.15,29.15,0,0,1,91.22,181.75Z"/><polygon class="cls-5" points="46.55 217.13 46.56 217.12 46.56 217.1 46.55 217.13"/><path class="cls-5" d="M75.12,201.92a24.76,24.76,0,0,0-4.28-.95c-2.64-.27-5.23-.59-7.76.61a9.2,9.2,0,0,0-2.31,2c-1.15,1.08-2.69,1.9-3.4,3.29-1.08,2.11-2.44,4.15-2.82,6.57-.11.71-.46,1-1.13,1-2.13-.15-6.33,2.44-6.54,2.47l-.32.26a14.48,14.48,0,0,0-1.23,1.14,14.18,14.18,0,0,0-1.63,2.07c-1.77,2.65-3.31,3-4.87,5.79A19.12,19.12,0,0,0,37.52,229c.7,1,.63,2.39,1.66,3.15,2.42,1.77,3.74,4.72,6.57,6,.17.08.16.53.23.81A14.64,14.64,0,0,1,48,231.7a21.48,21.48,0,0,1,3.9-5c.11-.11.39-.57.88-1.08l.43-.4a3.4,3.4,0,0,0,1-.51c1.48-.43,2.79-1.37,4.35-1.6a5.44,5.44,0,0,1-1.7-3.59c1-.2,1-.18,1.37.67s1.62,1.12,2.25,1.9c.84-1.53,1.28-3.25,2.32-4.69a12.9,12.9,0,0,1,1.9-3,11.88,11.88,0,0,1,1.34-1.13l.13-.08a14.13,14.13,0,0,1,3.08-1.42c2.32-.65,8.14.12,10.8,1.1,1,.37,1.87.59,2.31-.72A118,118,0,0,0,75.12,201.92Zm-28.4,23,.05-.08,0,.09Z"/><path class="cls-2" d="M132.91,105a19.23,19.23,0,0,0,.08,6,19.56,19.56,0,0,1,.08,3.06c.23,3.31.41,6.65.45,10s.21,6.89.08,10.33a2.17,2.17,0,0,1-.27,1c-.2.33.12,1.13-.63,1-.6-.14,0-.69-.15-1-1.32-4.46-.93-9.09-1.05-13.63-.07-2.78-.13-5.62-.25-8.37a58.05,58.05,0,0,0-.51-8.39,9.32,9.32,0,0,1,1-5.93c1.88-3.57,3.11-7.43,5.08-11a67.19,67.19,0,0,0,3.63-7.25c.81-2,2.43-6.92,2.58-7.37a7.73,7.73,0,0,0-.36-5.88c-.09-.2-2.64-6.63-5-8.93a3.58,3.58,0,0,1-.9-2.4c.39-.31.78-.54,1.19-.05,1.52,1.81,3.68,3,4.75,5.26,2.36,5,3.23,10,1.3,15.37a70.16,70.16,0,0,1-4.55,10.06c-1.46,2.66-2.61,5.43-3.81,8.19a36.66,36.66,0,0,1-2.11,4.26A6.78,6.78,0,0,0,132.91,105Z"/><path class="cls-2" d="M116.36,93.42a27.28,27.28,0,0,0-.42,3.58c.06,5.49,0,11,.36,16.47.25,4.37-.24,8.76.37,13.1.12.8-.6,1.38-.3,2.18.09.25-.32.42-.64.39a.72.72,0,0,1-.73-.79c-.14-3.23-.32-6.46-.45-9.69a69.76,69.76,0,0,1-.19-8.42c.16-1.87-.28-3.66-.23-5.5,0-.92.9-1.73.06-2.87-.7-1,.13-2.47-.14-3.66s.12-2.36,0-3.56a14.19,14.19,0,0,1,0-3.74c.25-2.17-.46-4.19-.77-6.26a12.58,12.58,0,0,0-3.8-6.74,18.74,18.74,0,0,0-6.46-4.69,6.41,6.41,0,0,0-2.26-.52c-.75,0-1.64.1-2.1-.79,0-.82.19-1.22,1.15-1.24A11.44,11.44,0,0,1,107,73.24c2.62,2.06,5.35,4.16,6.65,7.49,1.12,2.88,2.64,5.63,2.3,8.86A15.83,15.83,0,0,0,116.36,93.42Z"/><path class="cls-4" d="M115.82,246.9l-5.33,1.61a7.13,7.13,0,0,0-.77-1.32c-.75-.83-.8-1.34.24-2.08a54.66,54.66,0,0,0,4.39-3.64c3.08-2.72,6-5.65,8.92-8.53.37-.36.91-.66.81-1.38-.15-1-1-.63-1.56-.94h0l.07,0c-.68,1.79-2.38,2.63-3.65,3.86-2.06,2-4.2,4-6.35,5.88-1.4,1.26-2.37,2.94-4,4-.37.25-.82.81-1,.09-.54-2-2.19-3.25-3.36-4.81s-1.2-1.82.32-3.3c1.17-1.14,2.74-1.74,3.76-3,1.75-2.18,4.16-3.61,6.14-5.52,1.56-1.5,3.28-2.84,4.93-4.25,1.94.8,2.81,2.7,3.67,4.28a13.53,13.53,0,0,0,2.39,3.83c1.7,1.56,1.34,3.15.57,4.88-2.18,3.12-5.4,5.19-7.92,8C117.32,245.34,116.56,246.11,115.82,246.9Z"/><path class="cls-2" d="M152,114.33a2,2,0,0,0-.64,1.84c0,3.12-.38,6.21-.06,9.37.16,1.57,0,3.34,0,5,0,3.26,0,6.52,0,9.78a2.17,2.17,0,0,1-.15,1c-.2.35-.1,1-.8.93a.82.82,0,0,1-.73-1c.26-2.26-.26-4.49,0-6.8a21.63,21.63,0,0,0-.18-6c-.44-2.57,0-5.11-.18-7.66a23,23,0,0,1,.65-6.72,19.83,19.83,0,0,1,3.67-7.65c2.13-2.89,5.11-4.51,7.74-6.41,2.19-1.58,4.32-3.39,6.69-4.8a14.3,14.3,0,0,0,6-7c.78-1.94,1.6-4.43.89-6.35-.86-2.31-.48-5-2.15-7a1.17,1.17,0,0,1,.36-2c1.85.66,1.9,2.57,2.38,3.95.95,2.7,1.78,5.51,1.21,8.5A16.65,16.65,0,0,1,172.39,94c-3.63,3.77-8.28,6.24-12.33,9.48-2.4,1.92-5,3.61-6.88,6.17A6.33,6.33,0,0,0,152,114.33Z"/><path class="cls-6" d="M400.51,280.6c2-.15,4-1.11,6.23-.65L398.47,290c-.22-.82-.54-1.62.08-2.43a1.35,1.35,0,0,0,.12-1.31,2.88,2.88,0,0,1,.92-3.21A2.93,2.93,0,0,0,400.51,280.6Z"/><path class="cls-4" d="M100.27,195.47c3.22,4.66,6.56,9.25,9.61,14,2.59,4,5.37,8,8.06,11.93a6,6,0,0,1,.42.93c-1.93.83-3.18,2.5-4.74,3.79-2.8,2.31-5.62,4.62-8.32,7.05-.87.78-1.67,1.67-2.58,2.44-.47.41-1,.55-1.31,0a63.5,63.5,0,0,0-4.8-6.6c-.36-.41-.51-.74.18-1a15,15,0,0,0,4.23-2.71c3.66-2.93,7.36-5.79,11-8.69.34-.27,1.17-.46.55-1.12a1.35,1.35,0,0,0-1.84-.36c-.75.56-1.41,1.25-2.14,1.84-3.82,3.12-8.08,5.69-11.54,9.28-.35.35-1.17,1.48-2,.27-1.31-1.84-2.69-3.64-3.95-5.52-.28-.43-.72-.87.23-1.66,1.35-1.13,2.94-1.81,4.28-2.89,1.88-1.52,3.59-3.26,5.55-4.67a49.75,49.75,0,0,0,5.12-4c.34-.32.61-.28.26-.91s-.57-.53-1-.48-.92.5-1.31.8c-4.69,3.63-9.36,7.27-14,11-.61.49-.81.53-1.25-.12-1.41-2-2.88-4-4.33-6-.36-.5-.17-.72.32-1.06a67.13,67.13,0,0,0,6.56-5.23c2.1-1.87,4.2-3.74,6.38-5.53,1.33-1.09,1.3-1.7-.35-2.48C98.56,197.08,100.3,197.34,100.27,195.47Z"/><path class="cls-2" d="M97.56,197.71c1.65.78,1.68,1.39.35,2.48-2.18,1.79-4.28,3.66-6.38,5.53A67.13,67.13,0,0,1,85,211c-.49.34-.68.56-.32,1.06,1.45,2,2.92,4,4.33,6,.44.65.64.61,1.25.12,4.64-3.7,9.31-7.34,14-11,.39-.3.73-.75,1.31-.8s.69-.09,1,.48.08.59-.26.91a49.75,49.75,0,0,1-5.12,4c-2,1.41-3.67,3.15-5.55,4.67-1.34,1.08-2.93,1.76-4.28,2.89-.95.79-.51,1.23-.23,1.66,1.26,1.88,2.64,3.68,3.95,5.52.85,1.21,1.67.08,2-.27,3.46-3.59,7.72-6.16,11.54-9.28.73-.59,1.39-1.28,2.14-1.84a1.35,1.35,0,0,1,1.84.36c.62.66-.21.85-.55,1.12-3.68,2.9-7.38,5.76-11,8.69A15,15,0,0,1,96.79,228c-.69.25-.54.58-.18,1a63.5,63.5,0,0,1,4.8,6.6c.36.55.84.41,1.31,0,.91-.77,1.71-1.66,2.58-2.44,2.7-2.43,5.52-4.74,8.32-7.05,1.56-1.29,2.81-3,4.74-3.79l1,1.24c-1.65,1.41-3.37,2.75-4.93,4.25-2,1.91-4.39,3.34-6.14,5.52-1,1.26-2.59,1.86-3.76,3-1.52,1.48-1.57,1.62-.32,3.3s2.82,2.77,3.36,4.81c.19.72.64.16,1-.09,1.61-1.07,2.58-2.75,4-4a85.22,85.22,0,0,0,6.35-5.88c1.6-1.59,2.83-2.94,3.58-3.8l.15-.14a1.49,1.49,0,0,1,1.21.46,1.12,1.12,0,0,1,.25.55c.1.72-.44,1-.81,1.38-2.94,2.88-5.84,5.81-8.92,8.53a54.66,54.66,0,0,1-4.39,3.64c-1,.74-1,1.25-.24,2.08a7.13,7.13,0,0,1,.77,1.32,2.53,2.53,0,0,1-1.33.81,9.28,9.28,0,0,0-1.92-2.86c-.37-.35-3.15-4.46-4.32-6-4-5.29-7.81-10.7-11.71-16.06-1.75-2.4-3.45-4.85-5.16-7.29-1.18-1.69-2.47-3.3-3.65-5a118,118,0,0,0-7.28-10.2c-.68-1.06-1.33-2.14-2-3.18-.3-.44-.45-.85,0-1.18s.78-.05,1.1.41c.78,1.13,1.7,2.16,2.46,3.29.59.89,1,.81,1.75.13,3.26-3.09,6.47-6.25,9.91-9.13a23.43,23.43,0,0,0,2.76-2.68c1-1.2,1.58-.67,2.4-.09a1.52,1.52,0,0,1-.71,1,15.75,15.75,0,0,0-2.92,2.59A62.53,62.53,0,0,1,84,198.48a51.44,51.44,0,0,0-4.67,4.06c-.25.25-1.26.57-.58,1.47,1.45,1.92,2.82,3.9,4.23,5.85.16.22.39.47.68.12,2-2.27,4.56-3.81,6.74-5.84C92.72,202,95.16,199.85,97.56,197.71Z"/><path class="cls-5" d="M97.56,197.71c-2.4,2.14-4.84,4.24-7.2,6.43-2.18,2-4.78,3.57-6.74,5.84-.29.35-.52.1-.68-.12-1.41-2-2.78-3.93-4.23-5.85-.68-.9.33-1.22.58-1.47A53,53,0,0,1,84,198.48,57.65,57.65,0,0,0,90,193a10,10,0,0,1,1-1,22.9,22.9,0,0,1,1.79-1.43,1.55,1.55,0,0,0,.45-.42,1.73,1.73,0,0,0,.26-.62l1.43-1.41c1.91-.18,1.91,2,3.23,2.64.23.11.26.63.86.7A1,1,0,0,1,99.8,193c-.87,1.13-.12,1.75.47,2.5C100.3,197.34,98.56,197.08,97.56,197.71Z"/><path class="cls-1" d="M123.75,159.45l-.07-.06,0,.09Z"/><path class="cls-1" d="M164.78,175.54l.09.07-.07-.08Z"/><path class="cls-1" d="M149.18,180.38l-.07.15.1-.13Z"/><path class="cls-1" d="M46.88,216.86l-.33.27Z"/><path class="cls-1" d="M94.77,195l.07-.15-.08.14Z"/><polygon class="cls-3" points="123.75 159.45 123.66 159.48 123.68 159.39 123.75 159.45"/><path class="cls-4" d="M407,276.48c-1.95,2.83-4,3.12-6.4.45-1.38-1.57-4.59-2.12-4.52-4s2.85-3.07,3.59-5.2l19.92-24.25c-5.47-1.09-10.14,1.21-15,1.57-3.89.79-7.85,1.31-11.63,2.46-2.79.84-3.25-.3-3.74-2.55-1.88-8.68-2.54-6.52,5.17-8.29,8.49-1.94,17.08-3.4,26.61-4.63-2.84-3.29-5.17-6.1-7.61-8.81-3.44-3.83-6.85-7.7-10.49-11.33-1.87-1.86-1.72-2.9.2-4.61,5.33-4.74,5.21-4.8,9.95.46,4.42,4.89,8.93,9.71,14.27,15.51,0-10.52-.06-19.78.05-29,0-1.66-1-4.34.95-4.84,2.74-.68,5.79-.26,8.68-.05.91.06.73,1.35.76,2.15.07,2.23.11,4.45.17,6.67v23.49c2.21-.84,3.39-3,4.91-4.59,4.45-4.79,8.85-9.62,13.14-14.54,1.46-1.68,2.57-1.8,4-.11a8.43,8.43,0,0,0,1.83,1.7c3.74,2.47,3,4.56.09,7.44-5.36,5.37-10.28,11.17-15.85,17.31,4.22,0,7.62.22,11-.05,7.51-.6,15-.23,22.52-.37,2.21,0,2.84.9,2.78,3-.31,9.28.85,7.35-7.06,7.42-10.93.1-21.87-.16-33.45,1.37,4.47,5.58,8.64,10.69,12.71,15.88,4.72,6,9.24,12.18,14.09,18.09,2,2.38,1.66,3.71-.88,5a8.29,8.29,0,0,0-2,1.52c-2.33,2.32-3.82,1.87-5.82-.82-7.05-9.45-14.42-18.67-21.66-27.95-1.72.86-1,2.12-1.05,3.07-.08,8.07-.17,16.14,0,24.2,0,2.57-.73,3.29-3.29,3.3-7.82,0-7.52.17-7.08-7.69.41-7.46.09-15,.09-23.39C419.68,260,413,267.93,407,276.48Z"/><path class="cls-7" d="M223.88,134.2a1,1,0,0,1-.32-.75V114.1a1.06,1.06,0,0,1,1.08-1.08h12.91a1,1,0,0,1,.77.3,1,1,0,0,1,.3.75,1,1,0,0,1-.3.73,1.08,1.08,0,0,1-.77.29H225.71v7.59h8.62a1,1,0,0,1,1.07,1,1,1,0,0,1-.32.74,1.06,1.06,0,0,1-.75.31h-8.62v7.67h11.84a1.08,1.08,0,0,1,.77.29,1,1,0,0,1,.3.73,1,1,0,0,1-.3.75,1,1,0,0,1-.77.3H224.64A1,1,0,0,1,223.88,134.2Z"/><path class="cls-7" d="M253.08,120.33a7.27,7.27,0,0,1,2.76,2.77,7.7,7.7,0,0,1,1,3.9v6.47a1,1,0,0,1-.3.75,1,1,0,0,1-.77.3,1.08,1.08,0,0,1-.77-.29,1,1,0,0,1-.3-.76v-1.65a6.85,6.85,0,0,1-2.45,2.08,7.35,7.35,0,0,1-9.73-3,8.18,8.18,0,0,1,0-7.8,7.27,7.27,0,0,1,2.76-2.77,8,8,0,0,1,7.78,0ZM252,132a5.44,5.44,0,0,0,2-2.05,6.27,6.27,0,0,0,0-5.87,5.47,5.47,0,0,0-2-2.06,5.57,5.57,0,0,0-7.7,2.06,6.27,6.27,0,0,0,0,5.87,5.42,5.42,0,0,0,2,2.05,5.84,5.84,0,0,0,5.69,0Z"/><path class="cls-7" d="M263,134.08a6.41,6.41,0,0,1-2.53-1.63.92.92,0,0,1,.16-1.45,1.13,1.13,0,0,1,.69-.25,1,1,0,0,1,.8.38,4.19,4.19,0,0,0,1.75,1.19,6.85,6.85,0,0,0,2.41.41,5.15,5.15,0,0,0,2.89-.66,2.09,2.09,0,0,0,1-1.73,2,2,0,0,0-1-1.66,7.8,7.8,0,0,0-3.06-1,8.45,8.45,0,0,1-4-1.53,3.28,3.28,0,0,1-1.34-2.62,3.58,3.58,0,0,1,1.56-3.11,6.51,6.51,0,0,1,3.89-1.11,7.6,7.6,0,0,1,3.17.62,5.64,5.64,0,0,1,2.17,1.72,1.23,1.23,0,0,1,.22.64.82.82,0,0,1-.44.74.89.89,0,0,1-.52.14,1.25,1.25,0,0,1-1-.41,4.65,4.65,0,0,0-3.69-1.55,4.23,4.23,0,0,0-2.42.62,1.85,1.85,0,0,0-.91,1.56,1.82,1.82,0,0,0,.85,1.58,7.88,7.88,0,0,0,3,1,8.61,8.61,0,0,1,4.21,1.61,3.56,3.56,0,0,1,1.27,2.77,3.69,3.69,0,0,1-.76,2.26,5,5,0,0,1-2.11,1.54,8.13,8.13,0,0,1-3,.55A9.56,9.56,0,0,1,263,134.08Z"/><path class="cls-7" d="M288.22,120.34a1.29,1.29,0,0,1-.11.5l-8.92,19.6a.83.83,0,0,1-.8.63,1.14,1.14,0,0,1-.49-.11.86.86,0,0,1-.63-.83,1.09,1.09,0,0,1,.11-.49l2.72-6v0L274,120.87a1.18,1.18,0,0,1-.11-.5.84.84,0,0,1,.61-.82,1,1,0,0,1,.49-.11.85.85,0,0,1,.83.57l5.37,11.32L286.27,120a.88.88,0,0,1,.82-.6,1.13,1.13,0,0,1,.5.11A.83.83,0,0,1,288.22,120.34Z"/><path class="cls-7" d="M310.5,120.33a7.25,7.25,0,0,1,2.75,2.77,7.71,7.71,0,0,1,1,3.9,7.87,7.87,0,0,1-1,3.9,7.2,7.2,0,0,1-2.67,2.75,7.28,7.28,0,0,1-3.78,1,7.17,7.17,0,0,1-3.28-.76,6.77,6.77,0,0,1-2.45-2.08v8.07A1,1,0,0,1,300,141a1,1,0,0,1-.76-.3,1.08,1.08,0,0,1-.29-.77v-6.17a.83.83,0,0,1,0-.25V127a7.7,7.7,0,0,1,1-3.9,7.32,7.32,0,0,1,2.75-2.77,8,8,0,0,1,7.79,0Zm-1,11.66a5.42,5.42,0,0,0,2-2.05,6.27,6.27,0,0,0,0-5.87,5.54,5.54,0,0,0-9.69,0,5.87,5.87,0,0,0-.73,2.93c0,.32,0,.55,0,.69a.32.32,0,0,1,0,.14,5.53,5.53,0,0,0,1.81,3.52,5.31,5.31,0,0,0,3.7,1.38A5.66,5.66,0,0,0,309.46,132Z"/><path class="cls-7" d="M328.44,120.28a6.47,6.47,0,0,1,2.43,2.62,8.22,8.22,0,0,1,.87,3.83.9.9,0,0,1-.28.7,1,1,0,0,1-.71.26H319.63a5.41,5.41,0,0,0,1.76,3.66,5.49,5.49,0,0,0,3.85,1.41,6.15,6.15,0,0,0,2-.35,4.88,4.88,0,0,0,1.61-.86,1.16,1.16,0,0,1,.74-.28,1,1,0,0,1,.61.22,1,1,0,0,1,.35.74.86.86,0,0,1-.3.64,7.45,7.45,0,0,1-2.31,1.28,7.93,7.93,0,0,1-2.7.51,7.85,7.85,0,0,1-3.93-1,7,7,0,0,1-2.72-2.73,8,8,0,0,1-1-3.95,8.31,8.31,0,0,1,.92-4,6.75,6.75,0,0,1,2.56-2.73,7.14,7.14,0,0,1,3.73-1A6.79,6.79,0,0,1,328.44,120.28Zm-7.08,2.24a5.58,5.58,0,0,0-1.68,3.41h10.08a5.35,5.35,0,0,0-1.55-3.41,4.63,4.63,0,0,0-3.38-1.3A4.88,4.88,0,0,0,321.36,122.52Z"/><path class="cls-7" d="M345.52,120.33a7.32,7.32,0,0,1,2.75,2.77,7.7,7.7,0,0,1,1,3.9v6.47a1,1,0,0,1-.3.75,1,1,0,0,1-.77.3,1.08,1.08,0,0,1-.77-.29,1,1,0,0,1-.3-.76v-1.65a6.85,6.85,0,0,1-2.45,2.08,7.35,7.35,0,0,1-9.73-3,8.18,8.18,0,0,1,0-7.8,7.27,7.27,0,0,1,2.76-2.77,8,8,0,0,1,7.79,0ZM344.46,132a5.44,5.44,0,0,0,2-2.05,6.27,6.27,0,0,0,0-5.87,5.47,5.47,0,0,0-2-2.06,5.57,5.57,0,0,0-7.7,2.06,6.27,6.27,0,0,0,0,5.87,5.42,5.42,0,0,0,2,2.05,5.84,5.84,0,0,0,5.69,0Z"/><path class="cls-7" d="M355.38,134.08a6.41,6.41,0,0,1-2.53-1.63,1,1,0,0,1-.28-.63A1,1,0,0,1,353,131a1.08,1.08,0,0,1,.68-.25,1,1,0,0,1,.8.38,4.19,4.19,0,0,0,1.75,1.19,6.85,6.85,0,0,0,2.41.41,5.15,5.15,0,0,0,2.89-.66,2.09,2.09,0,0,0,1-1.73,2,2,0,0,0-1-1.66,7.8,7.8,0,0,0-3.06-1,8.45,8.45,0,0,1-4-1.53,3.28,3.28,0,0,1-1.34-2.62,3.58,3.58,0,0,1,1.56-3.11,6.51,6.51,0,0,1,3.89-1.11,7.6,7.6,0,0,1,3.17.62,5.64,5.64,0,0,1,2.17,1.72,1.23,1.23,0,0,1,.22.64.82.82,0,0,1-.44.74.89.89,0,0,1-.52.14,1.25,1.25,0,0,1-1-.41,4.65,4.65,0,0,0-3.69-1.55,4.23,4.23,0,0,0-2.42.62,1.85,1.85,0,0,0-.91,1.56,1.82,1.82,0,0,0,.85,1.58,7.88,7.88,0,0,0,3,1,8.61,8.61,0,0,1,4.21,1.61,3.56,3.56,0,0,1,1.27,2.77,3.69,3.69,0,0,1-.76,2.26,5,5,0,0,1-2.11,1.54,8.13,8.13,0,0,1-3,.55A9.56,9.56,0,0,1,355.38,134.08Z"/><path class="cls-7" d="M380.65,120.34a1.29,1.29,0,0,1-.11.5l-8.92,19.6a.83.83,0,0,1-.8.63,1.14,1.14,0,0,1-.49-.11.86.86,0,0,1-.63-.83,1.09,1.09,0,0,1,.11-.49l2.72-6v0l-6.14-12.71a1.18,1.18,0,0,1-.11-.5.84.84,0,0,1,.61-.82,1,1,0,0,1,.49-.11.85.85,0,0,1,.83.57l5.37,11.32L378.7,120a.87.87,0,0,1,.82-.6,1.13,1.13,0,0,1,.5.11A.83.83,0,0,1,380.65,120.34Z"/><path class="cls-7" d="M385.18,132.36a2.83,2.83,0,0,1,.51,1.8,6.68,6.68,0,0,1-.39,2.16,5.88,5.88,0,0,1-1,1.9,1.68,1.68,0,0,1-1.23.76.51.51,0,0,1-.58-.55,1.13,1.13,0,0,1,.11-.48,3.15,3.15,0,0,1,.36-.54,5.41,5.41,0,0,0,.42-.72,1.65,1.65,0,0,0,.13-.68,1.54,1.54,0,0,0-.16-.75,4.46,4.46,0,0,0-.5-.69,3.56,3.56,0,0,1-.48-.66,1.4,1.4,0,0,1-.15-.68,1.45,1.45,0,0,1,.45-1.11,1.69,1.69,0,0,1,1.15-.41A1.66,1.66,0,0,1,385.18,132.36Z"/><path class="cls-4" d="M223.8,166.22a5.34,5.34,0,0,1-1.06-3.43V147.1a1,1,0,0,1,.3-.76,1,1,0,0,1,.74-.29,1,1,0,0,1,.76.29,1,1,0,0,1,.29.76v15.69a3.52,3.52,0,0,0,.48,1.93,1.43,1.43,0,0,0,1.23.74h.69a.82.82,0,0,1,.66.29,1.13,1.13,0,0,1,.24.75.93.93,0,0,1-.34.76,1.37,1.37,0,0,1-.9.29h-.35A3.33,3.33,0,0,1,223.8,166.22Z"/><path class="cls-4" d="M240.58,153.31a6.54,6.54,0,0,1,2.43,2.62,8.22,8.22,0,0,1,.87,3.83.9.9,0,0,1-.28.7,1,1,0,0,1-.71.26H231.77a5.46,5.46,0,0,0,1.76,3.67,5.53,5.53,0,0,0,3.85,1.4,6.15,6.15,0,0,0,2-.35,4.71,4.71,0,0,0,1.61-.86,1.16,1.16,0,0,1,.74-.28,1.11,1.11,0,0,1,.61.22,1,1,0,0,1,.35.75.84.84,0,0,1-.3.63,7.45,7.45,0,0,1-2.31,1.28,7.93,7.93,0,0,1-2.7.51,7.85,7.85,0,0,1-3.93-1,7,7,0,0,1-2.72-2.72,8,8,0,0,1-1-4,8.32,8.32,0,0,1,.92-4,6.75,6.75,0,0,1,2.56-2.73,7.13,7.13,0,0,1,3.73-1A6.78,6.78,0,0,1,240.58,153.31Zm-7.08,2.24a5.58,5.58,0,0,0-1.68,3.41H241.9a5.35,5.35,0,0,0-1.55-3.41,4.62,4.62,0,0,0-3.38-1.29A4.87,4.87,0,0,0,233.5,155.55Z"/><path class="cls-4" d="M266.19,153.1a5.21,5.21,0,0,1,1.95,2.19,7.28,7.28,0,0,1,.7,3.29v7.92a1,1,0,0,1-.29.76,1,1,0,0,1-.75.29,1.08,1.08,0,0,1-.77-.29,1,1,0,0,1-.31-.76v-7.92a4.51,4.51,0,0,0-1-3.1,3.34,3.34,0,0,0-2.63-1.14,3.67,3.67,0,0,0-2.81,1.15,4.21,4.21,0,0,0-1,3v8a1,1,0,0,1-.29.76,1,1,0,0,1-.76.29,1.08,1.08,0,0,1-.77-.29,1,1,0,0,1-.3-.76v-7.92a4.52,4.52,0,0,0-1-3.1,3.33,3.33,0,0,0-2.63-1.14,3.72,3.72,0,0,0-2.8,1.13,3.93,3.93,0,0,0-1.1,2.89v8.14a1,1,0,0,1-.29.76,1.06,1.06,0,0,1-.76.29,1.08,1.08,0,0,1-.77-.29,1,1,0,0,1-.3-.76V153.57a1,1,0,0,1,1.07-1.08,1,1,0,0,1,.76.31,1.08,1.08,0,0,1,.29.77v.6a5.34,5.34,0,0,1,1.83-1.36,5.73,5.73,0,0,1,5,.21,5.15,5.15,0,0,1,1.93,1.92,5.61,5.61,0,0,1,2.07-1.92,6,6,0,0,1,2.88-.69A5.44,5.44,0,0,1,266.19,153.1Z"/><path class="cls-4" d="M276.45,166.7a7.19,7.19,0,0,1-2.73-2.74,8.3,8.3,0,0,1,0-7.86,7.14,7.14,0,0,1,2.73-2.75,7.86,7.86,0,0,1,3.93-1,7.76,7.76,0,0,1,3.91,1A7.28,7.28,0,0,1,287,156.1a8.22,8.22,0,0,1,0,7.86,7.21,7.21,0,0,1-2.74,2.74,8.28,8.28,0,0,1-7.85,0Zm6.79-1.68a5.34,5.34,0,0,0,2-2.05,6,6,0,0,0,.72-2.93,6,6,0,0,0-.72-3,5.28,5.28,0,0,0-2-2.05,5.81,5.81,0,0,0-5.71,0,5.21,5.21,0,0,0-2,2.05,5.93,5.93,0,0,0-.73,3,5.87,5.87,0,0,0,.73,2.93,5.28,5.28,0,0,0,2,2.05,5.88,5.88,0,0,0,5.71,0Z"/><path class="cls-4" d="M302.8,153.15a6,6,0,0,1,2.43,2.41,7.67,7.67,0,0,1,.88,3.79v7.15a1,1,0,0,1-1,1.05,1,1,0,0,1-.77-.3,1,1,0,0,1-.31-.75v-7.15a4.85,4.85,0,0,0-1.36-3.73,5,5,0,0,0-3.56-1.28,5.53,5.53,0,0,0-2.44.52,4.29,4.29,0,0,0-1.72,1.45,3.52,3.52,0,0,0-.63,2.05v8.14a1,1,0,0,1-.29.76,1,1,0,0,1-.76.29,1.08,1.08,0,0,1-.77-.29,1,1,0,0,1-.3-.76V153.57a1,1,0,0,1,1.07-1.08,1,1,0,0,1,.76.31,1.08,1.08,0,0,1,.29.77v.93a6.28,6.28,0,0,1,2.2-1.59,6.73,6.73,0,0,1,2.81-.58A7.39,7.39,0,0,1,302.8,153.15Z"/><path class="cls-7" d="M320.84,167.11a6.43,6.43,0,0,1-2.53-1.62,1,1,0,0,1-.28-.64,1.05,1.05,0,0,1,.44-.82,1.11,1.11,0,0,1,.69-.25,1,1,0,0,1,.8.38,4.19,4.19,0,0,0,1.75,1.19,6.79,6.79,0,0,0,2.4.41,5.12,5.12,0,0,0,2.89-.66,2.08,2.08,0,0,0,1-1.73,2,2,0,0,0-1-1.65,7.67,7.67,0,0,0-3-1,8.6,8.6,0,0,1-4-1.52,3.29,3.29,0,0,1-1.33-2.63,3.59,3.59,0,0,1,1.55-3.11,6.56,6.56,0,0,1,3.9-1.1,7.44,7.44,0,0,1,3.17.62,5.53,5.53,0,0,1,2.17,1.72,1.2,1.2,0,0,1,.22.63.84.84,0,0,1-.44.74.89.89,0,0,1-.52.14,1.29,1.29,0,0,1-1-.41,4.64,4.64,0,0,0-3.69-1.54,4.28,4.28,0,0,0-2.42.61,1.87,1.87,0,0,0-.91,1.56,1.83,1.83,0,0,0,.86,1.58,7.82,7.82,0,0,0,3,1,8.65,8.65,0,0,1,4.21,1.61,3.56,3.56,0,0,1,1.26,2.77,3.66,3.66,0,0,1-.75,2.26,5,5,0,0,1-2.11,1.54,8.18,8.18,0,0,1-3.06.55A9.31,9.31,0,0,1,320.84,167.11Z"/><path class="cls-7" d="M348.2,166.5a.77.77,0,0,1,0,.25v6.17a1,1,0,0,1-.29.77,1,1,0,0,1-.75.3,1.07,1.07,0,0,1-.78-.3,1,1,0,0,1-.3-.77v-8.07a6.77,6.77,0,0,1-2.45,2.08,7,7,0,0,1-3.27.76,7.29,7.29,0,0,1-3.79-1,7.2,7.2,0,0,1-2.67-2.75,7.83,7.83,0,0,1-1-3.89,7.71,7.71,0,0,1,1-3.91,7.32,7.32,0,0,1,2.75-2.77,8.09,8.09,0,0,1,7.79,0,7.25,7.25,0,0,1,2.75,2.77,7.72,7.72,0,0,1,1,3.91Zm-3.95-2.11a5.52,5.52,0,0,0,1.8-3.53.32.32,0,0,1,0-.14,5.43,5.43,0,0,0,0-.68,6,6,0,0,0-.73-2.94,5.46,5.46,0,0,0-4.83-2.82,5.52,5.52,0,0,0-2.85.76,5.31,5.31,0,0,0-2,2.06,6.27,6.27,0,0,0,0,5.87,5.28,5.28,0,0,0,2,2.05,5.61,5.61,0,0,0,2.85.74A5.36,5.36,0,0,0,344.25,164.39Z"/><path class="cls-7" d="M366.53,152.78a1,1,0,0,1,.3.76v12.94a1,1,0,0,1-1.07,1.07,1,1,0,0,1-.76-.3,1.08,1.08,0,0,1-.29-.77v-.94a6.44,6.44,0,0,1-2.2,1.6,6.89,6.89,0,0,1-2.81.58,7.39,7.39,0,0,1-3.51-.83,5.94,5.94,0,0,1-2.43-2.41,7.63,7.63,0,0,1-.88-3.78v-7.16a1,1,0,0,1,1-1,1,1,0,0,1,.77.31,1,1,0,0,1,.31.74v7.16a4.88,4.88,0,0,0,1.36,3.73,5,5,0,0,0,3.56,1.28,5.53,5.53,0,0,0,2.44-.53,4.35,4.35,0,0,0,1.72-1.44,3.57,3.57,0,0,0,.63-2.05v-8.15a1,1,0,0,1,1.05-1A1.08,1.08,0,0,1,366.53,152.78Z"/><path class="cls-7" d="M381.81,153.31a6.47,6.47,0,0,1,2.43,2.62,8.22,8.22,0,0,1,.87,3.83.9.9,0,0,1-.28.7,1,1,0,0,1-.71.26H373a5.4,5.4,0,0,0,5.61,5.07,6.15,6.15,0,0,0,2-.35,4.61,4.61,0,0,0,1.61-.86,1.18,1.18,0,0,1,.74-.28,1.06,1.06,0,0,1,.61.22,1,1,0,0,1,.36.75.82.82,0,0,1-.31.63,7.45,7.45,0,0,1-2.31,1.28,8,8,0,0,1-6.63-.47A7,7,0,0,1,372,164a8,8,0,0,1-1-4,8.43,8.43,0,0,1,.92-4,6.81,6.81,0,0,1,2.56-2.73,7.16,7.16,0,0,1,3.73-1A6.78,6.78,0,0,1,381.81,153.31Zm-7.08,2.24a5.69,5.69,0,0,0-1.68,3.41h10.08a5.39,5.39,0,0,0-1.54-3.41,4.65,4.65,0,0,0-3.39-1.29A4.89,4.89,0,0,0,374.73,155.55Z"/><path class="cls-7" d="M398.16,153.31a6.47,6.47,0,0,1,2.43,2.62,8.22,8.22,0,0,1,.87,3.83.93.93,0,0,1-.27.7,1,1,0,0,1-.72.26H389.35a5.4,5.4,0,0,0,5.61,5.07,6.11,6.11,0,0,0,2-.35,4.61,4.61,0,0,0,1.61-.86,1.18,1.18,0,0,1,.74-.28,1.06,1.06,0,0,1,.61.22,1,1,0,0,1,.36.75.82.82,0,0,1-.31.63,7.45,7.45,0,0,1-2.31,1.28,8,8,0,0,1-6.63-.47,7,7,0,0,1-2.71-2.72,8,8,0,0,1-1-4,8.43,8.43,0,0,1,.92-4,6.81,6.81,0,0,1,2.56-2.73,7.16,7.16,0,0,1,3.73-1A6.78,6.78,0,0,1,398.16,153.31Zm-7.08,2.24A5.69,5.69,0,0,0,389.4,159h10.08a5.39,5.39,0,0,0-1.54-3.41,4.65,4.65,0,0,0-3.39-1.29A4.89,4.89,0,0,0,391.08,155.55Z"/><path class="cls-7" d="M416.49,166.59a.85.85,0,0,1-1,1H405.31a.85.85,0,0,1-1-1,1,1,0,0,1,.19-.69l9-11.48H405.2a1,1,0,0,1,0-1.93h10.22a.86.86,0,0,1,1,1,1.08,1.08,0,0,1-.22.71l-9,11.45h8.32A.85.85,0,0,1,416.49,166.59Z"/><path class="cls-7" d="M432.56,153.37a1.13,1.13,0,0,1-.11.5l-8.91,19.6a.85.85,0,0,1-.8.63,1.15,1.15,0,0,1-.5-.11.85.85,0,0,1-.63-.82,1.29,1.29,0,0,1,.11-.5l2.72-6v0l-6.13-12.71a1,1,0,0,1-.11-.5.84.84,0,0,1,.6-.82,1,1,0,0,1,.5-.11.84.84,0,0,1,.82.57l5.37,11.32,5.12-11.29a.88.88,0,0,1,.83-.6,1.09,1.09,0,0,1,.49.11A.83.83,0,0,1,432.56,153.37Z"/><path class="cls-7" d="M434.6,167.52a1.61,1.61,0,0,1,0-2.28,1.59,1.59,0,0,1,1.12-.47,1.52,1.52,0,0,1,1.13.48,1.59,1.59,0,0,1,.47,1.14,1.6,1.6,0,0,1-2.73,1.13Z"/></svg>