<svg width="129" height="32" viewBox="0 0 129 32" fill="none" xmlns="http://www.w3.org/2000/svg">
<path d="M12.4066 0.231445C7.65962 0.231445 2.65662 2.39135 2.65662 7.83799C2.65662 12.0238 5.75828 13.5263 8.86005 14.4117C11.8941 15.3374 15.0902 15.8471 15.0902 18.2218C15.0902 20.65 12.5818 21.6831 10.4107 21.6831C7.51128 21.6831 5.29978 20.7842 5.11099 17.9133V17.8998C5.07052 17.484 4.73339 17.1618 4.30185 17.1618H0.809121C0.364113 17.1618 0 17.5241 0 17.9668C0 17.9803 0 17.9937 0 17.9937C0.310154 23.3466 3.68151 25.8552 10.2086 25.8552C14.8879 25.8552 20.2283 23.6282 20.2283 17.7656C20.2283 13.3788 17.5041 11.9031 13.6474 10.9103C11.9616 10.5346 7.79452 9.85036 7.79452 7.44905C7.79452 5.15497 10.0331 4.4037 12.0965 4.4037C14.3889 4.4037 16.2364 5.19523 16.4791 7.39528C16.4791 7.40872 16.4791 7.40872 16.4791 7.42216C16.5466 7.81133 16.8838 8.09295 17.2883 8.09295H20.7811C21.2261 8.09295 21.5902 7.73067 21.5902 7.28796C21.5902 7.28796 21.5902 7.2613 21.5902 7.24786C21.1992 2.23037 17.1805 0.231445 12.4066 0.231445Z" fill="white"/>
<path d="M42.3983 7.08691C38.6223 7.08691 35.0892 8.32118 34.1182 12.1447C34.1182 12.1582 34.1182 12.1848 34.1182 12.1983C34.0642 12.6141 34.334 12.9363 34.7656 12.9363H37.7862C38.1638 12.9363 38.5414 12.6679 38.7032 12.319C38.7032 12.3056 38.7166 12.3056 38.7166 12.2921C39.2562 10.9506 40.6182 10.3336 42.1554 10.3336C43.3962 10.3336 45.2572 10.7093 45.2572 12.4936C45.2572 14.7876 43.0592 14.5192 38.474 15.0557C34.1991 15.5657 31.6504 17.6585 31.6504 21.0794C31.6504 23.5479 33.5789 25.7346 37.4356 25.7346C39.472 25.7346 41.5352 25.0103 42.8703 23.5076V24.4468C42.8703 24.8895 43.2344 25.2518 43.6794 25.2518H46.781C47.226 25.2518 47.6036 24.8895 47.5901 24.4468C47.5901 24.326 47.5767 24.2857 47.5767 24.2322C47.5767 23.5479 47.6441 22.4882 47.8194 21.8306L49.3971 14.7071C49.64 13.6071 49.7747 12.5202 49.7747 11.7287C49.9096 7.77115 45.5673 7.08691 42.3983 7.08691ZM39.2291 22.5014C37.8131 22.5014 36.5455 21.8441 36.5455 20.5159C36.5455 18.3293 38.3391 17.8061 40.1597 17.645C41.5757 17.5377 43.0455 17.5108 44.2862 16.7865L43.8006 18.5036C43.2613 20.4086 42.2634 22.5014 39.2291 22.5014Z" fill="white"/>
<path d="M64.5683 7.08691C61.979 7.08691 59.9159 8.07966 58.3378 10.0385H58.257L58.6211 8.3884C58.7154 7.94569 58.4324 7.5834 57.9874 7.5834H54.9396C54.4946 7.5834 54.0496 7.94569 53.9552 8.37495C53.8609 8.79078 50.5704 24.4871 50.5704 24.4871C50.4759 24.9299 50.7591 25.2919 51.2042 25.2919H54.4812C54.9262 25.2919 55.3712 24.9299 55.4655 24.4871L57.286 15.8742C57.839 13.4057 59.3225 10.9374 62.2757 10.9374C63.4084 10.9374 64.622 11.6886 64.622 12.7483C64.622 13.2313 64.4199 14.3583 64.3119 14.9083L62.3162 24.4871C62.2217 24.9299 62.5049 25.2919 62.9499 25.2919H66.2135C66.6585 25.2919 67.1036 24.9299 67.1979 24.4871L69.2341 14.9083C69.3422 14.2911 69.7466 12.6141 69.7466 11.8629C69.7601 8.72379 67.9665 7.08691 64.5683 7.08691Z" fill="white"/>
<path d="M28.7778 25.48C29.1689 25.4397 29.5599 25.0908 29.6545 24.675L30.1264 22.5284C30.2207 22.0857 29.924 21.7102 29.4924 21.7234C29.0474 21.7369 29.0611 21.7369 28.7778 21.7369C28.0496 21.7369 27.1192 21.7102 27.1192 20.4356C27.1192 20.3014 27.1595 19.9929 27.2538 19.6172L31.1242 1.61354C31.2186 1.17081 30.9355 0.808594 30.4905 0.808594H27.227C26.7819 0.808594 26.3369 1.17081 26.2426 1.61354L22.2373 20.3014C22.1026 20.9453 21.9946 21.5357 21.9946 21.9784C21.8868 24.8628 24.3681 25.5739 26.647 25.5739C27.4427 25.5873 28.3868 25.5336 28.7778 25.48Z" fill="white"/>
<path d="M90.1639 7.55629H87.1161C86.6711 7.55629 86.2261 7.91857 86.1317 8.36128L85.7407 10.2529H85.6733C84.6754 7.91857 82.7064 7.07324 80.2386 7.07324C74.5612 7.07324 71.2573 12.5872 71.2573 17.7656C71.2573 22.1123 73.8735 24.9966 78.108 24.9966C80.1039 24.9966 81.722 24.1782 83.0031 22.5012L83.0705 22.5684C82.0727 26.0297 81.2501 28.7395 78.108 28.7395C76.746 28.7395 75.2354 28.1895 74.9524 26.8344V26.8212C74.8715 26.4724 74.5477 26.204 74.1702 26.204H70.9068C70.4618 26.204 70.0977 26.5663 70.0977 27.009C70.0977 27.076 70.1111 27.1432 70.1111 27.1967C70.6236 30.6983 74.3591 31.9996 77.6495 31.9996C83.5021 31.9996 86.2935 29.7056 87.4668 24.3527L90.8382 8.37473C90.8922 7.91857 90.6089 7.55629 90.1639 7.55629ZM79.4431 21.3342C77.137 21.3342 76.1392 19.523 76.1392 17.4302C76.1392 14.5861 77.8653 10.7491 81.1286 10.7491C83.5021 10.7491 84.6349 12.3591 84.6349 14.5861C84.6349 17.6047 82.9222 21.3342 79.4431 21.3342Z" fill="white"/>
<path d="M110.88 7.08789C107.104 7.08789 103.571 8.32215 102.6 12.1457C102.6 12.1589 102.6 12.1858 102.6 12.1993C102.546 12.6151 102.815 12.937 103.247 12.937H106.268C106.645 12.937 107.023 12.6688 107.185 12.32C107.185 12.3066 107.198 12.3066 107.198 12.2931C107.738 10.9515 109.1 10.3345 110.637 10.3345C111.878 10.3345 113.739 10.71 113.739 12.4943C113.739 14.7885 111.541 14.5201 106.955 15.0567C102.681 15.5666 100.132 17.6594 100.132 21.0804C100.132 23.5489 102.06 25.7356 105.917 25.7356C107.953 25.7356 110.017 25.0113 111.352 23.5086V24.4478C111.352 24.8905 111.716 25.2525 112.161 25.2525H115.262C115.707 25.2525 116.085 24.8905 116.072 24.4478C116.072 24.327 116.058 24.2867 116.058 24.2332C116.058 23.5489 116.126 22.489 116.301 21.8316L117.879 14.7079C118.121 13.6078 118.256 12.5212 118.256 11.7297C118.391 7.77213 114.049 7.08789 110.88 7.08789ZM107.711 22.5024C106.295 22.5024 105.027 21.8451 105.027 20.5169C105.027 18.3302 106.82 17.8071 108.641 17.646C110.057 17.5387 111.527 17.5118 112.768 16.7875L112.282 18.5045C111.743 20.4096 110.745 22.5024 107.711 22.5024Z" fill="white"/>
<path d="M121.645 25.264C121.088 25.264 120.529 25.264 119.949 25.264C119.37 25.2649 118.941 25.0252 119.022 24.4537C119.15 23.5548 119.47 22.4547 119.661 21.5612C120.583 17.268 121.512 12.9751 122.448 8.68219C122.508 8.41378 122.59 8.12405 122.653 7.8422C122.696 7.64912 122.731 7.53323 122.847 7.41733C122.98 7.29982 123.227 7.18694 123.406 7.18555C124.449 7.18555 125.28 7.18555 126.323 7.18555C126.707 7.18555 126.867 7.26922 126.987 7.33157C127.108 7.39392 127.213 7.482 127.295 7.58909C127.377 7.69617 127.434 7.81995 127.462 7.95137C127.49 8.08279 127.489 8.21862 127.458 8.34935C127.21 9.54073 126.943 10.7266 126.687 11.9154C125.827 15.8738 124.962 19.5662 124.121 23.5265C124.081 23.717 124.054 23.7996 124.006 23.9901C123.82 24.7119 123.612 25.2424 122.847 25.264C122.87 25.2651 122.823 25.2651 122.847 25.264C122.46 25.264 122.032 25.264 121.645 25.264Z" fill="white"/>
<path d="M126.022 4.23233C125.512 4.23233 124.998 4.22961 124.493 4.23233C124.237 4.22961 124.207 4.21323 124.077 4.15359C123.946 4.09397 123.832 4.00346 123.743 3.88977C123.655 3.77605 123.594 3.68128 123.568 3.53914C123.541 3.39699 123.526 3.26761 123.568 3.12911C123.738 2.31281 123.946 1.45963 124.129 0.654213C124.137 0.560942 124.163 0.470081 124.205 0.386916C124.247 0.303727 124.306 0.229881 124.377 0.169663C124.448 0.109422 124.53 0.0640151 124.618 0.0360153C124.707 0.00803865 124.8 -0.00195148 124.892 0.00662462C125.944 0.00662462 126.997 -0.01514 128.049 0.0202306C128.346 0.0299425 128.527 0.153994 128.721 0.347675C128.837 0.463568 129.023 0.678597 128.953 1.04303C128.799 1.85934 128.562 2.91678 128.373 3.70858C128.246 4.25277 128.033 4.21872 127.48 4.22962C126.995 4.22962 126.507 4.23233 126.022 4.23233Z" fill="white"/>
<path d="M94.4995 19.9421C95.0899 19.9421 95.683 19.9229 96.2734 19.9421C97.0322 19.9336 97.3514 20.0601 97.2086 20.8002C96.975 21.9684 96.7226 23.4586 96.4511 24.6249C96.3084 25.2426 96.1403 25.2647 95.5256 25.2647C95.5256 25.2647 92.7147 25.3045 91.4694 25.2647C91.0058 25.2647 90.774 25.1488 90.8899 24.5301C90.9951 23.6387 91.1703 22.8835 91.3321 22.108C91.4318 21.6045 91.5398 21.0415 91.6664 20.5436C91.7932 20.0455 92.0488 19.9336 92.4644 19.9421C93.1466 19.9257 93.8148 19.9421 94.4995 19.9421Z" fill="white"/>
</svg>
