<svg width="66" height="79" viewBox="0 0 66 79" fill="none" xmlns="http://www.w3.org/2000/svg">
<path d="M22.2965 50.8109C21.3077 47.4806 20.1218 44.2071 18.7464 41.0131C17.2915 37.6297 15.5942 34.2918 13.1049 31.5791C10.1914 28.4078 6.23207 26.2103 2 25.4147C13.946 23.7249 24.1871 14.037 26.396 2C25.6079 11.8319 32.0867 21.7964 40.9449 25.2897C31.2532 31.2797 24.441 41.7216 22.2965 50.8109Z" stroke="black" stroke-width="4" stroke-miterlimit="10" stroke-linejoin="round"/>
<path d="M52.1484 35.7202C53.4139 45.0596 46.4804 54.774 37.2358 56.6154C41.8922 56.0774 46.3251 59.3244 48.6287 63.4049C50.9322 67.4854 51.5612 72.2706 52.1409 76.9195C52.1787 68.891 56.911 61.052 63.9998 57.2784C59.9458 57.4678 56.8124 53.7472 55.0696 50.0797C53.0578 45.8514 51.9514 41.195 52.1484 35.7202Z" stroke="black" stroke-width="4" stroke-miterlimit="10" stroke-linejoin="round"/>
</svg>
