<svg width="68" height="92" viewBox="0 0 68 92" fill="none" xmlns="http://www.w3.org/2000/svg">
<path d="M22.9515 59.3331C21.9307 55.4213 20.7065 51.5762 19.2868 47.8246C17.785 43.8505 16.0328 39.9298 13.4633 36.7434C10.4557 33.0185 6.36864 30.4373 2 29.5028C14.3315 27.5179 24.9031 16.1386 27.1832 2C26.3697 13.5485 33.0576 25.2527 42.2016 29.3559C32.1972 36.3918 25.1651 48.6568 22.9515 59.3331Z" stroke="black" stroke-width="4" stroke-miterlimit="10" stroke-linejoin="round"/>
<path d="M53.7659 41.6075C55.0722 52.5775 47.915 63.988 38.3721 66.1509C43.1787 65.5189 47.7547 69.3328 50.1326 74.1258C52.5105 78.9188 53.1597 84.5395 53.7581 90C53.7972 80.5698 58.6821 71.3622 65.9997 66.9297C61.8149 67.1522 58.5805 62.782 56.7814 58.4741C54.7046 53.5076 53.5626 48.0382 53.7659 41.6075Z" stroke="black" stroke-width="4" stroke-miterlimit="10" stroke-linejoin="round"/>
</svg>
