<svg width="56" height="77" viewBox="0 0 56 77" fill="none" xmlns="http://www.w3.org/2000/svg">
<path d="M18.997 48.9276C18.1689 45.7258 17.1758 42.5785 16.024 39.5078C14.8056 36.255 13.3842 33.0459 11.2996 30.4378C8.85971 27.3889 5.54408 25.2762 2 24.5113C12.004 22.8867 20.5802 13.5725 22.43 2C21.7701 11.4525 27.1956 21.0326 34.6138 24.391C26.4976 30.15 20.7928 40.189 18.997 48.9276Z" fill="white"/>
<path d="M18.997 48.9276C18.1689 45.7258 17.1758 42.5785 16.024 39.5078C14.8056 36.255 13.3842 33.0459 11.2996 30.4378C8.85971 27.3889 5.54408 25.2762 2 24.5113C12.004 22.8867 20.5802 13.5725 22.43 2C21.7701 11.4525 27.1956 21.0326 34.6138 24.391C26.4976 30.15 20.7928 40.189 18.997 48.9276Z" stroke="#141414" stroke-width="4" stroke-miterlimit="10" stroke-linejoin="round"/>
<path d="M18.997 48.9276C18.1689 45.7258 17.1758 42.5785 16.024 39.5078C14.8056 36.255 13.3842 33.0459 11.2996 30.4378C8.85971 27.3889 5.54408 25.2762 2 24.5113C12.004 22.8867 20.5802 13.5725 22.43 2C21.7701 11.4525 27.1956 21.0326 34.6138 24.391C26.4976 30.15 20.7928 40.189 18.997 48.9276Z" stroke="black" stroke-opacity="0.2" stroke-width="4" stroke-miterlimit="10" stroke-linejoin="round"/>
<path d="M43.9962 34.4192C45.0559 43.3982 39.2496 52.7378 31.5078 54.508C35.4073 53.9908 39.1195 57.1125 41.0486 61.0356C42.9777 64.9587 43.5044 69.5592 43.9898 74.0287C44.0216 66.31 47.9845 58.7735 53.9209 55.1455C50.5259 55.3276 47.902 51.7506 46.4425 48.2246C44.7577 44.1595 43.8312 39.6827 43.9962 34.4192Z" fill="white"/>
<path d="M43.9962 34.4192C45.0559 43.3982 39.2496 52.7378 31.5078 54.508C35.4073 53.9908 39.1195 57.1125 41.0486 61.0356C42.9777 64.9587 43.5044 69.5592 43.9898 74.0287C44.0216 66.31 47.9845 58.7735 53.9209 55.1455C50.5259 55.3276 47.902 51.7506 46.4425 48.2246C44.7577 44.1595 43.8312 39.6827 43.9962 34.4192Z" stroke="#141414" stroke-width="4" stroke-miterlimit="10" stroke-linejoin="round"/>
<path d="M43.9962 34.4192C45.0559 43.3982 39.2496 52.7378 31.5078 54.508C35.4073 53.9908 39.1195 57.1125 41.0486 61.0356C42.9777 64.9587 43.5044 69.5592 43.9898 74.0287C44.0216 66.31 47.9845 58.7735 53.9209 55.1455C50.5259 55.3276 47.902 51.7506 46.4425 48.2246C44.7577 44.1595 43.8312 39.6827 43.9962 34.4192Z" stroke="black" stroke-opacity="0.2" stroke-width="4" stroke-miterlimit="10" stroke-linejoin="round"/>
</svg>
