<svg width="48" height="49" viewBox="0 0 48 49" fill="none" xmlns="http://www.w3.org/2000/svg">
<rect y="0.5" width="48" height="48" rx="24" fill="#FDFC71"/>
<path d="M24.0523 18.1C25.5323 18.1 26.6856 18.4333 27.5123 19.1C28.3389 19.7667 28.7523 20.6667 28.7523 21.8C28.7523 22.48 28.6056 23.0533 28.3123 23.52C28.0323 23.9733 27.6923 24.3067 27.2923 24.52C26.9056 24.7333 26.5656 24.84 26.2723 24.84V24.9C26.6456 24.9 27.0389 25 27.4523 25.2C27.8789 25.3867 28.2456 25.7067 28.5523 26.16C28.8589 26.6 29.0123 27.18 29.0123 27.9C29.0123 28.6467 28.7923 29.3067 28.3523 29.88C27.9123 30.4533 27.3056 30.9 26.5323 31.22C25.7589 31.54 24.8789 31.7 23.8923 31.7C22.4789 31.7 21.3456 31.44 20.4923 30.92C19.6523 30.4 19.0523 29.5667 18.6923 28.42L21.8123 27.08C21.8789 27.7733 22.0789 28.2733 22.4123 28.58C22.7589 28.8867 23.2389 29.04 23.8523 29.04C24.4256 29.04 24.8723 28.9067 25.1923 28.64C25.5256 28.36 25.6923 27.9733 25.6923 27.48C25.6923 26.96 25.5323 26.5867 25.2123 26.36C24.9056 26.1333 24.4123 26.02 23.7323 26.02H22.9923V23.84H23.5723C24.2123 23.84 24.6789 23.7133 24.9723 23.46C25.2656 23.1933 25.4123 22.7933 25.4123 22.26C25.4123 21.78 25.2723 21.4133 24.9923 21.16C24.7256 20.8933 24.3456 20.76 23.8523 20.76C22.7323 20.76 22.1189 21.3533 22.0123 22.54L18.9923 21.52C19.2056 20.3467 19.7589 19.4867 20.6523 18.94C21.5589 18.38 22.6923 18.1 24.0523 18.1Z" fill="#141414"/>
<path d="M24.0523 18.1C25.5323 18.1 26.6856 18.4333 27.5123 19.1C28.3389 19.7667 28.7523 20.6667 28.7523 21.8C28.7523 22.48 28.6056 23.0533 28.3123 23.52C28.0323 23.9733 27.6923 24.3067 27.2923 24.52C26.9056 24.7333 26.5656 24.84 26.2723 24.84V24.9C26.6456 24.9 27.0389 25 27.4523 25.2C27.8789 25.3867 28.2456 25.7067 28.5523 26.16C28.8589 26.6 29.0123 27.18 29.0123 27.9C29.0123 28.6467 28.7923 29.3067 28.3523 29.88C27.9123 30.4533 27.3056 30.9 26.5323 31.22C25.7589 31.54 24.8789 31.7 23.8923 31.7C22.4789 31.7 21.3456 31.44 20.4923 30.92C19.6523 30.4 19.0523 29.5667 18.6923 28.42L21.8123 27.08C21.8789 27.7733 22.0789 28.2733 22.4123 28.58C22.7589 28.8867 23.2389 29.04 23.8523 29.04C24.4256 29.04 24.8723 28.9067 25.1923 28.64C25.5256 28.36 25.6923 27.9733 25.6923 27.48C25.6923 26.96 25.5323 26.5867 25.2123 26.36C24.9056 26.1333 24.4123 26.02 23.7323 26.02H22.9923V23.84H23.5723C24.2123 23.84 24.6789 23.7133 24.9723 23.46C25.2656 23.1933 25.4123 22.7933 25.4123 22.26C25.4123 21.78 25.2723 21.4133 24.9923 21.16C24.7256 20.8933 24.3456 20.76 23.8523 20.76C22.7323 20.76 22.1189 21.3533 22.0123 22.54L18.9923 21.52C19.2056 20.3467 19.7589 19.4867 20.6523 18.94C21.5589 18.38 22.6923 18.1 24.0523 18.1Z" fill="black" fill-opacity="0.2"/>
</svg>
