<svg id="Слой_1" data-name="Слой 1" xmlns="http://www.w3.org/2000/svg" viewBox="0 0 514.94 358.18"><defs><style>.cls-1{fill:#f86ffc;}.cls-2{fill:#090909;}.cls-3{fill:#08e3cc;}.cls-4{fill:#fec835;}.cls-5{fill:#fdfdfd;}.cls-6{fill:#33ddd7;}</style></defs><path class="cls-1" d="M236,245c3,16.3,6.32,32.55,6.63,49.21.07,4,.86,7.95,1,11.93.48,12.16-4.92,18.82-16.11,23.54-16.16,6.83-33.11,10.05-50.22,12.51-9.25,1.34-18.73.87-28.11.33-14.18-.81-28.28-1.91-42.06-5.87-10.25-2.94-19.76-6.87-28-13.85-6.72-5.69-6.78-12.9-6-20.56,2-19,3.92-38,5.93-57,0-.5.67-1,1-1.42a24.2,24.2,0,0,0,12.11,5.37c13.46,1.4,26.21,6.3,40.11,6.08,19.88-.33,39.82,1,59.58-1.81C206.72,251.33,221.92,250.9,236,245ZM118.86,266c-2.6-.12-4.47-.31-3.5-3.28.38-1.18-1.18-2-2.5-1.6a2.22,2.22,0,0,0-1.19,3c.64,1.8,1.6,3.79,3.66,4.14C116.17,268.39,117.27,267.05,118.86,266Zm-8.15,33.8,1.84-.4c-1.77-2.62.39-5.94-1.62-7.87-1.63-1.58-3,1.69-4.81,2.22ZM231.8,251.67a13.48,13.48,0,0,0-8-.07C226.57,254.2,228.78,255.41,231.8,251.67Z"/><path class="cls-2" d="M360.86,182.93c-12.5-25.89-29.94-48.76-44.73-73.25-14.16-23.45-29.59-46-44.65-68.88-7.87-11.93-1.53-19.16,7.82-24.15,4.09-2.17,7.82.19,10.59,3.39,6.47,7.48,13,15,19.16,22.67,11,13.66,21.75,27.47,33.39,40.61C353,95.2,362.7,107.78,372.77,120.05c-5.13,7.16-11.81,13.13-15.67,21.32-1.66,3.52-.42,6.18,1.14,8.65,1.27,2,3.46,4,6.46,2.87,8.09-3.11,16.94-4.9,23.23-11.41,3.69-3.81,7.33-5.82,12.46-3.35l-.1-.08c1.93,6.88,1.92,6.75-5.28,7.31-1.77.14-4.59,1.22-2.9,3.74,2,3,2.84,6.49,5,9.46,2.47,3.36,3.65,3.15,6.24.33,4.59-5,9.38-9.87,16.15-12,7,.89,12.94,3.65,17.62,9,.66.75,1.15,1.88,2,2.21,12.12,5,13.42,15.71,14.18,26.7-4.17,3.26-9.15,5.32-12.62,9.69-4.43,5.58-9.57,10.6-14.27,16-3,3.38-2.75,7.11.31,10.18,3.57,3.58,6.77.68,9.29-1.67,2.28-2.13,3.94-5,5.63-7.66,1.44-2.27,3.38-3.69,5.75-2.36s1.42,3.55.25,5.49a4.85,4.85,0,0,0-.28,1.74l-2.64,4.56c-3.29,3.08-8,6.21-5.92,11.19s-.6,6.49-3.68,8.44c-2.19,1.39-4.31,3.07-6.72,3.88-2.83,1-6.75,4-8.48,2.23-5.32-5.48-12.21-9.4-15.85-16.68-4.74-9.48-7.7-20.56-19.36-24.79-1.57-.57-2-2.07-1.86-4q.67-13,.87-26.13c0-4.59-.56-9-3.15-13.17-1.76-2.83-3.54-4.83-7-4s-6.49,2-7.35,6.49C365,170.57,363.58,177,360.86,182.93ZM283,24.73c-2,.54-4.06.92-5.21,2.7-1.32,2-.77,4,.37,6.15,7.11,13.51,16,25.92,23.87,39,1.29,2.13,1.89,4.94,5.23,4.51,4.83-.63,7.41-4.59,10.25-7.74,1.76-2-1-3.94-2.22-5.58-8.55-11.4-17.1-22.8-25.88-34C287.76,27.66,285.9,25.35,283,24.73ZM443.14,179.51c-.51-5.43-.71-9.59-4.94-11.71-3.08-1.53-6.52-1.67-9,.65a52.29,52.29,0,0,0-16.26,29.76c-.93,5.2,2.52,7.7,7.74,6.09,6.86-2.11,10.46-8.27,14.7-13.24C438.53,187.32,443.13,183.92,443.14,179.51Zm-44.56,5.6c.35,2.52.47,4.12.82,5.67.64,2.84,3.89,2.37,5.58,4,.44.43,2.25-1.23,2.82-3.07,3.54-11.37,8.57-21.92,18.38-29.4,3.44-2.62,2.44-4.5-.75-6.23a7.88,7.88,0,0,0-8.5.26C405.91,163.23,402,174.44,398.58,185.11Zm1.45,26,1.22-.39a12.31,12.31,0,0,0-1.11-1.27c-.09-.08-.5.2-.75.31Z"/><path class="cls-3" d="M360.86,182.93c2.72-6,4.15-12.36,5.37-18.72.86-4.52,3.84-5.65,7.35-6.49s5.23,1.16,7,4c2.59,4.14,3.2,8.58,3.15,13.17q-.18,13.08-.87,26.13c-.1,1.9.29,3.4,1.86,4,11.66,4.23,14.62,15.31,19.36,24.79,3.64,7.28,10.53,11.2,15.85,16.68,1.73,1.77,5.65-1.26,8.48-2.23,2.41-.81,4.53-2.49,6.72-3.88,3.08-2,5.72-3.48,3.68-8.44s2.63-8.11,5.92-11.19c.86.89,1,2.79,3,2.06-1-2.16,4.51-4.69-.37-6.62a4.85,4.85,0,0,1,.28-1.74c1.17-1.94,2.08-4.18-.25-5.49s-4.31.09-5.75,2.36c-1.69,2.69-3.35,5.53-5.63,7.66-2.52,2.35-5.72,5.25-9.29,1.67-3.06-3.07-3.26-6.8-.31-10.18,4.7-5.37,9.84-10.39,14.27-16,3.47-4.37,8.45-6.43,12.62-9.69,10.86,4.93,16.27,19.75,11.54,30.51-3.59,8.17-6,16.86-8.89,25.32-5.47,15.77-2,30.59,4.67,45.12,2.48,5.42,5.49,10.61,6.76,16.55.83,3.83.41,6.75-3,9.49-6.74,5.44-13.77,10.19-21.89,13.38-10.57,4.15-20.67,9.43-32,11.72-6.46,1.32-11-.78-14.33-6-10.05-15.78-20.78-31.21-29.65-47.64-7.2-13.32-16.5-26.53-15.78-42.62.6-13.54,3.81-26.85,7-40A117.55,117.55,0,0,0,360.86,182.93Zm25.17,73c-1.82.78-2.95-3.36-4.35-1.12-1.53,2.44.14,5.15,1.42,7.75,3-1.49,3.18-4,2.95-6.6,3.29-.17,5.95-1,5.44-5.22C387.92,250.77,385.67,252,386,255.89Zm-2.39-37.31c-1.85.31-4-.83-5.21.68,1.67,5.28,5.94,8.07,10.61,11.76-3.11,1-6.44-3.2-7.16,1.67-.24,1.59-2.63,3.7-.11,4.57,3.84,1.33,4.35,5.28,6.86,7.69,2.21-2.4,3.3-5.28,6.3-6.64a13.48,13.48,0,0,1-1.77-1.14c-1.22-1.14-4.17.49-4.14-2.33,0-2.05,2-2.71,3.57-3.6,1-.55,1.67-1.69,3-1.74.19.51.37,1,.55,1.53a3.84,3.84,0,0,0,.43-.32c-.26-.46-.55-.9-.83-1.34-2.31-4.1-4.7-8.17-6.92-12.32-.82-1.54-2-2.9-3.55-2.73-2.72.28-1.28,2.75-1.65,4.28Zm-14.46,43.36,0,0c.09,1.49,1.46,3.63,2,3,1.91-2.15,5.79-2.83,6.13-5.71.52-4.46.58-8.68,5.29-11.07.67-.35.38-3.12-.18-2.45-3.22,3.86-2.2-.4-2.67-1.25-1-1.86-1.87-4.06-4.19-1.3-.85,1-1.55,2-2.88.93-4.2-3.27-3.94-.1-4.62,2.79-.34,1.43-1.55,5-2.5,4-2-2.18-4.33-.51-6.18-2,2,2.44,3.28,4.77,3.29,7.9C362.65,260.94,367.23,259.89,369.18,261.94Zm75.94-2.37-.1-.1c1-5.89,1.79-11.76-.42-17.88-2.59,1.46.5,4.44-2.31,4.24-6.75-.46-9.69,5.13-13.7,8.52-6.2,5.23-12.28,4.88-14.9-2.56a16.74,16.74,0,0,0-6.93-8.64c-2.34-1.56-5.66-3.62-7.8-3s-.86,4.59-.6,7.12c0,.27.53.5,1,.88,1.5-.22,1.06-3.8,3.81-2.35,1.87,1,1.2,2.27,1,3.55-.35,2.07,2.06,4.21-.2,6.19,3.15-.1-.71,8.54,5.87,4.59,1.53-.91,5.1-1.36,3,3.15-1.66,3.61,3.1,7.26.63,11.17,1.52.21,2.28,3.45,4.5,1,1.87-2.06,4-2,6.24-.49-1.17,2.28-7.59,1.26-3.26,6-4.79,2.73-9.06,6.71-15.15,6.35-3.11-1.35-7.58-1-7.66-6.14l.48-.53-.54.47c-3.34-3.88-8.05,1.74-11.74-2.08,2.92,4.67-2.93,6.5-2.49,11s.19,7.81,4.21,10.2c1.06.63,3.35.57,1.51,2.61-2,2.27-.26,3.89.5,5.87,2.33,6,7.56,10.41,8.42,17.38.76,6.23,6.83,2.66,10.32,3.63,2,.54,6.28,2.56,7.09-.14,1.56-5.18,9.28-2,9.45-8a6.83,6.83,0,0,1,2.26.3c4.26,2.24,7.7-.36,11.2-1.95,4.11-1.86,7.91-4.44,12.08-6.15,5.88-2.41,7.47-7.83,8.08-12.81a14,14,0,0,0-7.21-13.92c-1.21-.67-1.94-.73-1.79-2,.56-4.54.86-8.9-4.35-11.19-1-.41-.09-.71.11-1.14C447.81,268.25,446.24,263.91,445.12,259.57Zm-76.35-48.39c-5.55,1.65-5.31,7.18-7.67,10.77-1.56,2.38,3.38,3.78,4.11,6.59.3,1.18,2.48,2.28,2.31,3.1-1.08,5.17-1.21,5.15,4.31,6.77-.56-4.64.34-8.67,4.79-11.19-.6-2-2.85-.87-3.84-1.84,4.66-2,1.91-6.64,3.3-9.83,1.14-2.59-1.18-4.71-5.34-5.59,2.64,2.67,1.22,4.48.12,6.62Zm6.24-47.5c-3.81,1.93-5.22,5.23-5,8.15a124.54,124.54,0,0,1-.15,18.53c-.07,1.11-.92,2.83.92,2.46,1.37-.27,3.84.61,4.17-1.17C376.69,182.46,378.14,173.21,375,163.68Zm8.52,119.67c2.21-6.75,2.18-6.71-2-10a4.24,4.24,0,0,1-1.35-2.47c-.65-4.64-6.12-3.1-6.71-2.89-3.72,1.37-4.19,9-1.17,11.88.75.72,1.33,1.2,2.42.28C378.45,277,380.86,277.77,383.53,283.35Zm71-65.92c-5.32-.4-1.9,4.75-4.37,6.36-.86.57,1.08,2.59,1.81,2.25,2.77-1.28,3-4.6,4.49-6.91C457.38,217.68,455.32,217.6,454.5,217.43Zm-84.71-10.27-6.17-3.86C364.34,207.56,364.82,210.51,369.79,207.16Zm25.19,26c-.66.12-1.16.43-.91,1.16s.38,1.71,1.41,1.49a1.82,1.82,0,0,0,1-1.3C396.62,233.54,395.87,233.2,395,233.16Zm-9.76,37a1.49,1.49,0,0,0,1.74-1.06,4,4,0,0,0-.25-1.48c-.57.47-1.16.92-1.68,1.43S384.42,270,385.22,270.21ZM374.7,207.42l-1-.44c-.14.34-.47.74-.38,1a1,1,0,0,0,.92.4C374.47,208.27,374.55,207.76,374.7,207.42Zm25.91,43.41.4-.31-.34-.37-.52.51Z"/><path class="cls-1" d="M83.72,211c0-2.4,1.56-16-5.43-15.85-1.24,0-7.66-2.5-8.64-2.93-6.05-2.69-12.14-5.38-17-10.1-7.26-7.09-7.32-16.22-.19-23.31,7.44-7.4,16.82-11.19,26.77-13.3,11.7-2.48,23.11-6,35.08-7.64,20.2-2.78,40.39-2.74,60.61-2.29a231.59,231.59,0,0,1,65.46,10.45c8.56,2.72,17.2,5.9,23.55,12.65,8.27,8.78,8.94,24.74-5.58,31.12-7.15,3.15-14.28,6.41-21.89,8.09-4.93,1.09-6.78,3.15-5.77,8.12.39,1.9-.09,4-.17,6-16.37,4.49-33.21,6.17-50,8.2a201.23,201.23,0,0,1-44.77.86C118.13,219.25,100.4,217.88,83.72,211ZM166,195.85a267.34,267.34,0,0,0,28.72-1.42,182.3,182.3,0,0,0,56.07-14.19A18.6,18.6,0,0,0,258,175c2.12-2.57,2.17-5.23.25-7.68-2.71-3.46-5.75-6.75-9.79-8.68a115.47,115.47,0,0,0-30-9.75c-24.59-4.31-49.5-5.15-74.41-4.57a254.84,254.84,0,0,0-37.45,3.42C91.79,150.25,77,153,63.79,160.56c-9.39,5.38-9.43,13.38.33,18,12.44,5.85,25.27,11.5,39,13.09C124,194,145,195.35,166,195.85Zm-63.63,10.34c1.34,1.46,1.8,4.3,4.67,3.27.57-.21,1.38-1.42,1.24-1.65C107,205.67,104.54,206.67,102.41,206.19Z"/><path class="cls-2" d="M83.72,211c16.68,6.85,34.41,8.22,52.09,10a201.23,201.23,0,0,0,44.77-.86c16.76-2,33.6-3.71,50-8.2,2.23,1.16,1.79,3.64,1.87,5.28.45,9.34,4.55,18.18,3.6,27.67-14.1,5.94-29.3,6.37-44.11,8.5-19.76,2.85-39.7,1.48-59.58,1.81-13.9.22-26.65-4.68-40.11-6.08a24.2,24.2,0,0,1-12.11-5.37C80.19,232.77,81.77,221.88,83.72,211Zm26.64,26.06-.51.18a9.5,9.5,0,0,0,.48.89c.33.46.62.36.58-.25C110.89,237.62,110.55,237.36,110.36,237.09Z"/><path class="cls-4" d="M89.26,15.2c2.91-.27,4.52.66,5.8,2.44,3.73,5.18,7.64,10.24,11.24,15.51,4,5.85,5.52,6.2,11.16,2.29s11.6-7.73,17.38-11.62c2-1.33,3.93-2.14,5.93-.11s2.29,3.8.86,6.44a166.88,166.88,0,0,1-13,20.74c-2.07,2.75-1.35,3.84,1,5.58,5.91,4.36,11.54,9.1,17.47,13.44,3.18,2.33,3.78,5.15,2.25,8.36s-4.32,1.8-6.83,1.18c-6.59-1.64-13.26-3-19.8-4.82-4-1.12-5.71,0-6.83,4a84.92,84.92,0,0,1-8.61,21c-1.19,2-2.53,3.75-5.18,3.22s-3.86-2.4-4.09-5.16c-.64-7.76-1.58-15.49-2.11-23.26-.2-2.88-.92-4.06-4.06-4.46-7.39-1-14.81-.58-22.19-1.14-3-.22-6.06-.23-6.88-4.27s2.11-5.13,4.64-6.71c5.29-3.3,11.11-5.34,17-7.33,7.11-2.41,7.91-3.81,5-10.39-2.75-6.33-3-13.2-5-19.69C83.19,16.38,87.1,15.9,89.26,15.2Z"/><path class="cls-4" d="M175.77,64c4.49.44,8.07-.08,10.75,1.24,6.27,3.08,7.23-.34,7.77-5.17.29-2.59.87-5.14,1.18-7.72.28-2.38.91-4.32,3.75-4.59a5.49,5.49,0,0,1,5.92,2.94c2.15,3.54,3,7.44,3.75,11.29s2,5.62,6.33,4.43c3-.81,6.38-.32,9.56-.68s4.29,1.54,5.21,3.89c1.08,2.74,0,4.63-2.45,6-.87.49-1.7,1.07-2.54,1.62-9.63,6.28-9.78,6.35-4.84,16.66,1.85,3.84.79,6.49-2,9-3,2.8-4.48-.31-6.41-1.79-10.9-8.4-11-8.44-21,1.14-2.44,2.33-4.67,4.87-8.18,2.46s-4-5.72-2.16-9.51c.79-1.61,1.22-3.4,2-5,3.78-8.24,3.8-8.24-4.11-12.24-1.61-.81-3.24-1.58-4.87-2.36-3.16-1.5-3.55-4.19-2.74-7.11A5.94,5.94,0,0,1,175.77,64Z"/><path class="cls-3" d="M419.53,146.9c-6.77,2.12-11.56,7-16.15,12-2.59,2.82-3.77,3-6.24-.33-2.19-3-3-6.46-5-9.46-1.69-2.52,1.13-3.6,2.9-3.74,7.2-.56,7.21-.43,5.28-7.31,2.9-.37,3.85,1,3.85,3.8,0,2.15-.93,4.65.91,6.26,5.48-2,3.6-6.54,4.21-10.18.21-1.29,1.38-3-.75-3.38-2.68-.51-5.36-2.47-8.09-1.12-2.43,1.2-.18,3.1,0,4.7-5.13-2.47-8.77-.46-12.46,3.35-6.29,6.51-15.14,8.3-23.23,11.41-3,1.15-5.19-.85-6.46-2.87-1.56-2.47-2.8-5.13-1.14-8.65,3.86-8.19,10.54-14.16,15.67-21.32,6.09-3,10.81-7.94,17-10.92,14.2-6.81,26.19,4.21,29.11,14.93C420.94,131.54,422.33,139.2,419.53,146.9ZM361.94,144l-.49-.27.5.26c1.35,2.82,3.53,2.75,6,1.78,2.31-.9,3.82-2.79,5.65-4.29s2.87-3.85,1.76-4.91a.86.86,0,0,1-.15-.56c0-2.52-1.92-4-3.77-3.48-1.21.34-2.44,3-2.47,4.61C368.9,142,365.84,143.29,361.94,144Zm50.17-16.43c-1.06-5.1-6.25-5.38-7.93-9.09-.4-.88-1.7-.76-2.58,0-.69.6-1,1.73-.3,2C405.36,121.92,406.93,127.24,412.11,127.53Zm-29.91-6c-.76,2-4.64.85-4.17,2.61.61,2.32,2.42,5.86,5.09,5.59,3.93-.4-.44-3.59.84-5.44C385.09,122.69,384,121.86,382.2,121.54Zm3.94,5.37c-.2,1.71.66,2.32,2,1.54,1.2-.66,3.49,1.83,3.62-1.14.06-1.47-1.18-2.44-2.77-2.52S386.26,125.09,386.14,126.91Z"/><path class="cls-5" d="M118.86,266c-1.59,1.09-2.69,2.43-3.53,2.29-2.06-.35-3-2.34-3.66-4.14a2.22,2.22,0,0,1,1.19-3c1.32-.44,2.88.42,2.5,1.6C114.39,265.65,116.26,265.84,118.86,266Z"/><path class="cls-5" d="M110.71,299.76l-4.59-6.05c1.78-.53,3.18-3.8,4.81-2.22,2,1.93-.15,5.25,1.62,7.87Z"/><path class="cls-5" d="M231.8,251.67c-3,3.74-5.23,2.53-8-.07A13.48,13.48,0,0,1,231.8,251.67Z"/><path class="cls-5" d="M283,24.73c2.94.62,4.8,2.93,6.41,5,8.78,11.22,17.33,22.62,25.88,34,1.23,1.64,4,3.63,2.22,5.58-2.84,3.15-5.42,7.11-10.25,7.74-3.34.43-3.94-2.38-5.23-4.51-7.86-13-16.76-25.45-23.87-39-1.14-2.17-1.69-4.12-.37-6.15C278.9,25.65,281,25.27,283,24.73Z"/><path class="cls-3" d="M443.14,179.51c0,4.41-4.61,7.81-7.79,11.55-4.24,5-7.84,11.13-14.7,13.24-5.22,1.61-8.67-.89-7.74-6.09a52.29,52.29,0,0,1,16.26-29.76c2.51-2.32,5.95-2.18,9-.65C442.43,169.92,442.63,174.08,443.14,179.51Zm-10.22-2c-2.45-.36-5.13-.86-3.68,3.38.95,2.77,3.09,5.58-2.79,4.64-2.94-.48-1.65,3.85-3.65,5.24-.62.44.38,1.81,1.37,2.21,2.25.9,2.25-1.54,3.33-2.21,2.91-1.81,4.41-5.53,7.09-6.62,3.46-1.4,3.64-3.37,3.06-5.89C436.8,174.56,434.62,178.15,432.92,177.51Z"/><path class="cls-3" d="M398.58,185.11c3.46-10.67,7.33-21.88,18.35-28.73a7.88,7.88,0,0,1,8.5-.26c3.19,1.73,4.19,3.61.75,6.23-9.81,7.48-14.84,18-18.38,29.4-.57,1.84-2.38,3.5-2.82,3.07-1.69-1.67-4.94-1.2-5.58-4C399.05,189.23,398.93,187.63,398.58,185.11Z"/><path class="cls-6" d="M447.36,216.15c4.88,1.93-.59,4.46.37,6.62-2,.73-2.15-1.17-3-2.06Z"/><path class="cls-1" d="M400,211.11l-.64-1.35c.25-.11.66-.39.75-.31a12.31,12.31,0,0,1,1.11,1.27Z"/><path class="cls-6" d="M398.13,281.21c.07,5.14,4.54,4.79,7.65,6.14-1.67,1.52-3.84,1.1-5.73,1.12-4.28,0-5.75,2.41-5.46,6.07s2.34,4.94,6.12,4.57c12.59-1.2,23.59-6.12,33.51-13.69,2.44-1.87,4.32-4.63,2-7.3s-5.93-4.25-9.46-1.22c-1.82,1.55-3.51,3.24-5.8,4.1-4.33-4.75,2.09-3.73,3.26-6-2.27-1.51-4.37-1.57-6.24.49-2.22,2.45-3-.79-4.5-1,2.47-3.91-2.29-7.56-.63-11.17,2.07-4.51-1.5-4.06-3-3.15-6.58,3.95-2.72-4.69-5.87-4.59,2.26-2-.15-4.12.2-6.19.22-1.28.89-2.56-1-3.55-2.75-1.45-2.31,2.13-3.81,2.35-.44-.38-.94-.61-1-.88-.26-2.53-1.43-6.51.6-7.12s5.46,1.41,7.8,3a16.74,16.74,0,0,1,6.93,8.64c2.62,7.44,8.7,7.79,14.9,2.56,4-3.39,7-9,13.7-8.52,2.81.2-.28-2.78,2.31-4.24,2.21,6.12,1.39,12,.42,17.88-.16.19-.32.37-.47.56l.57-.46c1.12,4.34,2.69,8.68.59,13.15-.2.43-1.07.73-.11,1.14,5.21,2.29,4.91,6.65,4.35,11.19-.15,1.27.58,1.33,1.79,2A14,14,0,0,1,459,301c-.61,5-2.2,10.4-8.08,12.81-4.17,1.71-8,4.29-12.08,6.15-3.5,1.59-6.94,4.19-11.2,1.95a6.83,6.83,0,0,0-2.26-.3c-.17,6-7.89,2.82-9.45,8-.81,2.7-5.11.68-7.09.14-3.49-1-9.56,2.6-10.32-3.63-.86-7-6.09-11.38-8.42-17.38-.76-2-2.54-3.6-.5-5.87,1.84-2-.45-2-1.51-2.61-4-2.39-3.79-5.88-4.21-10.2s5.41-6.29,2.49-11c3.69,3.82,8.4-1.8,11.74,2.08Z"/><path class="cls-2" d="M420.93,281c2.29-.86,4-2.55,5.8-4.1,3.53-3,7-1.55,9.46,1.22s.47,5.43-2,7.3c-9.92,7.57-20.92,12.49-33.51,13.69-3.78.37-5.84-1-6.12-4.57s1.18-6.05,5.46-6.07c1.89,0,4.06.4,5.73-1.12C411.87,287.71,416.14,283.73,420.93,281Z"/><path class="cls-6" d="M369.18,261.94c-1.95-2.05-6.53-1-6.55-5.13,0-3.13-1.32-5.46-3.29-7.9,1.85,1.46,4.18-.21,6.18,2,1,1,2.16-2.55,2.5-4,.68-2.89.42-6.06,4.62-2.79,1.33,1,2,.08,2.88-.93,2.32-2.76,3.16-.56,4.19,1.3.47.85-.55,5.11,2.67,1.25.56-.67.85,2.1.18,2.45-4.71,2.39-4.77,6.61-5.29,11.07-.34,2.88-4.22,3.56-6.13,5.71-.52.58-1.89-1.56-2-3,.87-.14,1.9-.1,1.84-1.42a.53.53,0,0,0-.37-.38C369.3,260,369.34,261.07,369.18,261.94Z"/><path class="cls-6" d="M368.77,211.18l2.09,5.4c1.1-2.14,2.52-4-.12-6.62,4.16.88,6.48,3,5.34,5.59-1.39,3.19,1.36,7.84-3.3,9.83,1,1,3.24-.18,3.84,1.84-4.45,2.52-5.35,6.55-4.79,11.19-5.52-1.62-5.39-1.6-4.31-6.77.17-.82-2-1.92-2.31-3.1-.73-2.81-5.67-4.21-4.11-6.59C363.46,218.36,363.22,212.83,368.77,211.18Z"/><path class="cls-6" d="M395.59,229.51c-1.33,0-2,1.18-3,1.73-1.6.89-3.54,1.55-3.57,3.6,0,2.82,2.92,1.19,4.14,2.33a13.48,13.48,0,0,0,1.77,1.14c-3,1.36-4.09,4.24-6.3,6.64-2.51-2.41-3-6.36-6.86-7.69-2.52-.87-.13-3,.11-4.57.72-4.87,4.05-.65,7.16-1.67-4.67-3.69-8.94-6.48-10.61-11.76,1.21-1.51,3.36-.37,5.21-.68.39.8.79.87,1.18,0l.29-.47-.27.49h-1.22c.37-1.53-1.07-4,1.65-4.28,1.53-.17,2.73,1.19,3.55,2.73,2.22,4.15,4.61,8.22,6.92,12.32Z"/><path class="cls-6" d="M375,163.68c3.13,9.53,1.68,18.78,0,28-.33,1.78-2.8.9-4.17,1.17-1.84.37-1-1.35-.92-2.46a124.54,124.54,0,0,0,.15-18.53C369.79,168.91,371.2,165.61,375,163.68Z"/><path class="cls-6" d="M383.53,283.35c-2.67-5.58-5.08-6.37-8.79-3.24-1.09.92-1.67.44-2.42-.28-3-2.9-2.55-10.51,1.17-11.88.59-.21,6.06-1.75,6.71,2.89a4.24,4.24,0,0,0,1.35,2.47C385.71,276.64,385.74,276.6,383.53,283.35Z"/><path class="cls-6" d="M454.5,217.43c.82.17,2.88.25,1.93,1.7-1.52,2.31-1.72,5.63-4.49,6.91-.73.34-2.67-1.68-1.81-2.25C452.6,222.18,449.18,217,454.5,217.43Z"/><path class="cls-6" d="M386.05,255.92c.23,2.63.1,5.11-2.95,6.6-1.28-2.6-3-5.31-1.42-7.75,1.4-2.24,2.53,1.9,4.35,1.12Z"/><path class="cls-6" d="M386,255.89c-.36-3.91,1.89-5.12,5.46-5.19.51,4.24-2.15,5.05-5.44,5.22Z"/><path class="cls-6" d="M369.79,207.16c-5,3.35-5.45.4-6.17-3.86Z"/><path class="cls-6" d="M395,233.16c.89,0,1.64.38,1.53,1.35a1.82,1.82,0,0,1-1,1.3c-1,.22-1.17-.8-1.41-1.49S394.32,233.28,395,233.16Z"/><path class="cls-6" d="M385.22,270.21c-.8-.24-.62-.7-.19-1.11s1.11-1,1.68-1.43a4,4,0,0,1,.25,1.48A1.49,1.49,0,0,1,385.22,270.21Z"/><path class="cls-6" d="M374.7,207.43c-.15.33-.23.84-.47.94a1,1,0,0,1-.92-.4c-.09-.25.24-.65.38-1Z"/><path class="cls-6" d="M400.61,250.83l-.46-.17.52-.51.34.37Z"/><path class="cls-6" d="M395.74,229.37c.28.44.57.88.83,1.34a3.84,3.84,0,0,1-.43.32c-.18-.51-.36-1-.55-1.53Z"/><path class="cls-6" d="M398.06,281.15l.54-.47-.48.53Z"/><path class="cls-5" d="M166,195.85c-21-.5-42-1.82-62.88-4.24-13.77-1.59-26.6-7.24-39-13.09-9.76-4.58-9.72-12.58-.33-18,13.22-7.56,28-10.31,42.79-12.87A254.84,254.84,0,0,1,144,144.27c24.91-.58,49.82.26,74.41,4.57a115.47,115.47,0,0,1,30,9.75c4,1.93,7.08,5.22,9.79,8.68,1.92,2.45,1.87,5.11-.25,7.68a18.6,18.6,0,0,1-7.18,5.29,182.3,182.3,0,0,1-56.07,14.19A267.34,267.34,0,0,1,166,195.85Zm-12-11A406.37,406.37,0,0,0,219.39,178c5-.91,7.82-4.33,8.93-8.57,1.3-4.95-2.56-7.76-6.52-9.49A60.74,60.74,0,0,0,207.22,156a382,382,0,0,0-47.51-4.48c-17.65-.68-34.94,1.66-52.27,4.21a46.07,46.07,0,0,0-14.72,4.73c-5.94,3.12-6.53,7.71-2,12.51,2.28,2.4,5.18,3.62,8.2,4.65C118.28,184.27,138.24,185.54,154,184.87Z"/><path class="cls-5" d="M102.41,206.19c2.13.48,4.6-.52,5.91,1.62.14.23-.67,1.44-1.24,1.65C104.21,210.49,103.75,207.65,102.41,206.19Z"/><path class="cls-6" d="M110.36,237.09c.19.27.53.53.55.82,0,.61-.25.71-.58.25a9.5,9.5,0,0,1-.48-.89Z"/><path class="cls-6" d="M361.94,144c3.9-.67,7-2,7.06-6.86,0-1.63,1.26-4.27,2.47-4.61,1.85-.53,3.73,1,3.77,3.48a.86.86,0,0,0,.15.56c1.11,1.06.12,3.36-1.76,4.91s-3.34,3.39-5.65,4.29c-2.5,1-4.68,1-6-1.78Z"/><path class="cls-6" d="M400.39,138.13c-.15-1.6-2.4-3.5,0-4.7,2.73-1.35,5.41.61,8.09,1.12,2.13.4,1,2.09.75,3.38-.61,3.64,1.27,8.17-4.21,10.18-1.84-1.61-.91-4.11-.91-6.26,0-2.78-.95-4.17-3.85-3.8Z"/><path class="cls-6" d="M412.11,127.53c-5.18-.29-6.75-5.61-10.81-7.09-.69-.25-.39-1.38.3-2,.88-.78,2.18-.9,2.58,0C405.86,122.15,411.05,122.43,412.11,127.53Z"/><path class="cls-6" d="M382.2,121.54c1.78.32,2.89,1.15,1.76,2.76-1.28,1.85,3.09,5-.84,5.44-2.67.27-4.48-3.27-5.09-5.59C377.56,122.39,381.44,123.59,382.2,121.54Z"/><path class="cls-6" d="M386.13,126.92c.13-1.83,1.38-2.2,2.9-2.13s2.83,1,2.77,2.52c-.13,3-2.42.48-3.62,1.14C386.8,129.23,385.94,128.62,386.13,126.92Z"/><path class="cls-6" d="M362,144l-.5-.26.49.27Z"/><path class="cls-6" d="M432.92,177.51c1.7.64,3.88-2.95,4.73.75.58,2.52.4,4.49-3.06,5.89-2.68,1.09-4.18,4.81-7.09,6.62-1.08.67-1.08,3.11-3.33,2.21-1-.4-2-1.77-1.37-2.21,2-1.39.71-5.72,3.65-5.24,5.88.94,3.74-1.87,2.79-4.64C427.79,176.65,430.47,177.15,432.92,177.51Z"/><path class="cls-3" d="M445.12,259.57l-.57.46c.15-.19.31-.37.47-.56Z"/><path class="cls-3" d="M369.18,261.94c.16-.87.12-1.91,1.45-1.83a.53.53,0,0,1,.37.38c.06,1.32-1,1.28-1.84,1.42Z"/><path class="cls-3" d="M384.84,218.6l.27-.49-.29.47Z"/><path class="cls-3" d="M383.62,218.6h1.22l0,0c-.39.87-.79.8-1.18,0Z"/><path class="cls-2" d="M154,184.87c-15.78.67-35.74-.6-55.06-7.23-3-1-5.92-2.25-8.2-4.65-4.57-4.8-4-9.39,2-12.51a46.07,46.07,0,0,1,14.72-4.73c17.33-2.55,34.62-4.89,52.27-4.21A382,382,0,0,1,207.22,156,60.74,60.74,0,0,1,221.8,160c4,1.73,7.82,4.54,6.52,9.49-1.11,4.24-4,7.66-8.93,8.57A406.37,406.37,0,0,1,154,184.87Z"/></svg>