<svg id="Слой_1" data-name="Слой 1" xmlns="http://www.w3.org/2000/svg" viewBox="0 0 514.94 358.18"><defs><style>.cls-1{fill:#0c0c0c;}.cls-2{fill:#f27bf3;}.cls-3{fill:#20e9d3;}.cls-4{fill:#fbfcfc;}.cls-5{fill:#fcc93e;}.cls-6{fill:#f973fd;}</style></defs><rect class="cls-1" x="140.94" y="63.43" width="317.68" height="195.65"/><path class="cls-2" d="M121.56,266.41c-7.24,2.9-10.31,9.55-13.89,15.59-2,3.5-4.17,4.26-8,3.16-15.59-4.6-30.75-10-43.45-20.71-1.62-1.36-2.81-2.64-3-4.85-2.13-32.12-7.24-64-9.29-96.19-.68-10.31-2.21-20.54-2.72-30.84-.17-3.58-.51-7.33,3.32-9.72,5-3.06,9.37-.59,12.35,7.41,3.84,10.14,7.5,20.37,11.25,30.51.34.85.68,1.61,1.53,3.74,1.28-10,2.22-18.57,3.67-27.17,1.7-9.89,2.47-19.94,3.66-29.82.09-.94.51-1.79.6-2.64.17-3.84,3.15-5,6-5.12s4.86,1.79,5.54,5a274.75,274.75,0,0,1,4.51,41c.09,1.62.26,3.15.43,6.14,6.9-11.76,13.12-22.24,19.26-32.81,3.4-5.79,6.81-11.5,10.22-17.29,1.87-2.22,4.34-1,6.56-1.28,2.3,2.73,2.9,5.79,3.07,9.46.17,4.17-1.79,7.58-2.39,11.5-3.15,8-6.22,16-9.37,24.11-3.15,7.75-6.39,15.42-9.54,23.17a58.05,58.05,0,0,1,5.2-4.37,54.89,54.89,0,0,1,5.28-3.46,46.12,46.12,0,0,1,3.65-2.86,49.13,49.13,0,0,1,4.27-2.68c6.13-3.15,12.78-3.24,19.51-3.49,5.79-.18,11.59-.35,17.38-.18,2.73.52,5.71.26,8.18,1.88,2,3.24.17,6.82.85,10.14-5.54,2.21-11.33,2.38-17.21,2.47a6.2,6.2,0,0,0-4.51,1.36,53,53,0,0,0-26.2,16.26,29.41,29.41,0,0,0-5.92,7c-1.76,2.91-6.2,10-3.46,16.69a14.73,14.73,0,0,0,3.46,5c1.1,4,4.26,5.62,7.83,6.73,8.1,4.17,14.66,2.13,21.9-5.8,6.39-7,9.2-16.1,14.83-23.43,3.23-.25,6.13-2.38,9.45-2.21,3.41,1.62,4.18,4.94,3.67,7.84-1.28,7.75-3.24,15.33-4.95,23-.59.26-1.7.34-1.78.68-1.62,5.8-4.95,10.91-6,16.87-6.47,8.95-12.78,18-23.77,22.07-4.17,1.53-8.43,3-12.61,4.51C128,263.86,124.46,264.37,121.56,266.41Z"/><path class="cls-2" d="M394.88,280.22A117.18,117.18,0,0,0,372,312.85c-2,4.34-6,7.58-7.15,12.44-.26,1.1-1.71,1.27-2.81,1.36-12.95.42-25.9.85-38.43-3.49-9.11-3.16-10.39-4.86-10-14.23.43-9.55-1.27-18.83-2.21-28.2q-.68-2.57-1.25-5.42c-.31-1.57-.58-3.09-.8-4.55-.76-10.4-.93-20.79.94-31.18.17-1,10.48-30.93,15.59-36,2.22-2.21,4.77-2.47,7.58-1.53,3.07,1,2.73,3.66,2.48,6-.94,7.93-2,15.85-3.24,23.77a10.67,10.67,0,0,0,1,7.33c1,2,2.64,2.81,4.6.43,2.66-3.24,6.34-5.67,8.44-9.29,3.11-5.37,19.91-30.3,43.13-64.86.27-.52,2.1-4,5.73-4.53a6.8,6.8,0,0,1,2.68.12c3,2,2.56,4.94,2.13,7.84-1.19,10-4.51,19.43-8.43,28.63-4,9.54-7.76,19.17-13.81,27.69-1,1.44-1.44,3.32.26,4.34,1.53,1,2.64-.59,3.58-1.7a8,8,0,0,0,1-1.88c10.74-17.12,17.81-35.7,22.75-55.21.42-1.79.42-3.66,2.47-4.51,5.2,1.28,5.2,5.54,5.11,9.46-.08,3.49-1.11,7-1.7,10.48s-.7,4.54-1.13,7.1a98.05,98.05,0,0,1-4.67,17.1c-4,11-6.25,17.41-8.09,19.5-.23.27-1.3,1.52-1.08,2.67a1.78,1.78,0,0,0,.82,1.08c2.13,1.36,2.3-.77,3.07-1.79,2.13-3.15,4-6.47,6.31-9.54,7.15-9.46,16.1-17.21,24.45-25.56,2-2,4.09-4.26,7.07-2s1.79,5,.51,7.83c-5.37,11.93-13.37,22.07-21.3,32.29-3.24,4.18-6,8.69-10.31,12-1.28,1-2.55,3-1.53,4.26a1.93,1.93,0,0,0,.9.63c1.39.44,3-.91,3.78-1.66a50.51,50.51,0,0,0,6.8-7.6c3.62-5.18-.7,1.32,8.8-12.23l3-4.33c1.23-1.77,2.33-3.18,3.16-4.19a14.26,14.26,0,0,1,3.06-3.15,9.88,9.88,0,0,1,3.81-1.5,4.58,4.58,0,0,1,2.92,1.4c.85,1,1.49,3-.3,8.09-3.15,9-10,15.68-15.84,22.83-6.39,7.84-13.81,14.83-20.79,22.24C401.52,274.17,397.26,276,394.88,280.22Z"/><path class="cls-3" d="M394.88,280.22c2.3-4.18,6.64-6.14,10.22-8.78,5.45.08,10.91.34,16.36.17,13.12-.51,26.24,1.28,39.36-.6,3.33-.51,4-1.62,3.92-4.94-.42-11.33-.42-22.58-.42-33.91q-.26-61.47-.43-122.94c0-19.85.26-39.62.17-59.47,0-2.81,3.07-6,.43-8.09-2.3-1.88-6-.77-9-.77l-100.87.26c-21.47.08-42.94.08-64.41.17-27.09.08-54.19.42-81.37.42q-35.52,0-71.05-.59c-5.2-.09-6.22,2-6.65,6.73-1,12.86-1.28,49-.94,52.65-2.21.26-4.77-.94-6.56,1.28-.34-.6-1.1-1.19-1.1-1.71.17-20.27-1.71-40.64-.51-60.91.25-4.18,1.87-5.29,6-5.88,21.47-3.24,43.11-1.71,64.67-1.45,30.24.34,60.57.6,90.82.43,19.51-.09,38.93-.6,58.44-.6q51.63-.14,103.18.08c6,0,11.93.6,18,0,6.81-.68,10.73,3.58,10.73,10.65,0,37.32.09,74.72,0,112,0,20.79.09,41.58-.51,62.37-.51,17.89.17,35.7-.17,53.5-.17,6.82-1.87,9.46-8.6,9.89a167,167,0,0,1-26.84,0c-10.91-1-21.64.42-32.46.17C401.86,280.22,398.37,280.3,394.88,280.22Z"/><path class="cls-3" d="M309.34,270.76c.27,1.12.54,2.28.79,3.45.48,2.23.9,4.41,1.25,6.52-16.18,0-32.37-.09-48.65,0-15.93.08-32,1-47.88.42-12.52-.51-25,.17-37.57,0-9.88-.08-19.94-1-30,.26-7.24.94-14.82-.51-22.32-.85-2.39-.09-2.9-1.88-3.07-3.75-.17-3.41-.34-6.9-.43-10.31,2.9-2.05,6.31-2.56,9.63-3.5.34,8,.34,8,8.18,7.93,20.19-.26,40.3-.6,60.49-.68,18.66-.09,37.4.68,56.06.17C273.81,269.82,291.62,270.59,309.34,270.76Z"/><path class="cls-4" d="M309.34,270.76c-17.81-.17-35.61-.85-53.42-.43-18.66.51-37.4-.25-56.06-.17-20.19.09-40.3.43-60.49.68-7.84.09-7.84.09-8.18-7.92,4.17-1.53,8.43-3,12.61-4.52,11-4,17.29-13.12,23.77-22.06.17,3.66.51,7.24.42,10.9a3.87,3.87,0,0,0,.86,2.9,4.75,4.75,0,0,0,4.77,1.11c1.55-.66,2.9-2.95,2.85-14.6a152.15,152.15,0,0,0-1.15-18c1.7-7.67,3.66-15.33,4.94-23,.51-2.9-.34-6.31-3.66-7.84.17-.51.34-1,.51-1.45,2.9-.08,5.79-.34,8.69-.34,2.39,0,3.92-.94,3.83-3.49-.08-4.35-.34-8.69-.59-13-.17-3.33-1.54-4.69-5.2-4.43-2.39.17-5.45,1.36-7.41-1.45-.6-3.32,1.11-6.9-.85-10.14,1.1-11.08.85-22.07.68-33.14-.09-2.9-1.71-2.81-3.58-2.56s-5.2-1.11-5.2,2.3c0,10.57-1.45,21-.17,31.61-5.79-.08-11.59,0-17.38.17-6.73.26-13.38.34-19.51,3.49.17-11.24.34-22.57.51-33.82.6-3.83,2.56-7.24,2.39-11.5-.17-3.67-.77-6.65-3.07-9.46-.34-3.66-.09-39.79.94-52.65.42-4.77,1.45-6.82,6.64-6.73,23.69.34,47.37.59,71.06.59,27.09,0,54.19-.25,81.36-.42,21.47-.09,42.94-.09,64.41-.17,33.66-.09,67.23-.26,100.88-.26,3.07,0,6.73-1.11,9,.77,2.64,2.13-.42,5.28-.42,8.09.08,19.85-.18,39.62-.18,59.47q.13,61.47.43,122.94c.09,11.33,0,22.58.43,33.91,0,1.73-.12,2.86-.75,3.61a4.5,4.5,0,0,1-3.17,1.33c-8.9.72-31.67-1.27-46.45.46-3.54.41-8.8,1.29-9.27,0-.34-.95,2.1-2.24,5.61-5.82,2.57-2.62,4.55-4.92,5.86-6.51a58.09,58.09,0,0,0,14.57-10.58c3-3,9.92-10.59,15.25-26.38,10.39-30.76,3.64-59.66,1.37-68.16a128.6,128.6,0,0,0-15.61-35.58q-3.9-4.83-8.43-9.9-4.26-4.73-8.38-8.86a3,3,0,0,1-.14-.82c0-1.28.82-2.2,1.74-3.29s1.56-2,2.32-2.95a78,78,0,0,1,5.35-6.2c.51.51.94,1.19,1.53,1.45,6.73,3.23,17.21.68,21.73-5.29,6.47-8.6,6.05-17.72-1.11-25.64a17.26,17.26,0,0,0-10.66-5.64c-.7-.08-6.45-.74-11.07,2.4-6.22,4.23-8.64,14.19-4.88,24a54.53,54.53,0,0,1-9.6,11.86c-2.73,4.26-5.88,4.69-10,1.7-2.47-1.79-13.72-6-14.65-6.3a75.86,75.86,0,0,0-13.38-4.35c-20.9-4.69-38.09.89-43.82,2.82a86.47,86.47,0,0,0-38.65,26.75,96.88,96.88,0,0,0-6.22,8.3,99.55,99.55,0,0,0-7.44,13.23,91.73,91.73,0,0,0-7.13,34.7,84.4,84.4,0,0,0,1.5,16.72,85.37,85.37,0,0,0,15,33.72c3,4.85,19,19.42,23.77,21.89a8.15,8.15,0,0,1,.94.86C308.49,249.88,308.66,260.28,309.34,270.76ZM245.69,155.31c0-.34.09-30.92.18-35.44,0-2-1.11-2.81-3-3.07-4.94-.59-6.81,1.11-7,6.56v35.11c.08,3.32.25,6.56.34,9.88,0,1.45,0,2.9.08,4.34.26,2.56.09,9.21.09,10-.17,5.45.34,17.89.34,18.66a40.79,40.79,0,0,1-.34,6.05l-3.84.26c-11.16.42-8.77-.77-8.86,9-.08,10.82,0,10.82,12.44,12.35.77,5.71.43,11.5.17,17.3-.17,2.38.6,4.43,3.41,4.6s5.11-.94,5.11-4.26c.09-5.88.09-11.85.09-17.72,2.89-.09,5.79-.09,8.69-.09,1.7,0,3.41-.17,4.09-2a26.34,26.34,0,0,0-.26-17.56c-1.36-3.91-6.81-1.1-10.39-1.61l-1.62-.26C245.78,206,245.87,155.48,245.69,155.31Zm-34.16,19.77c.26-7.33.51-14.57.77-21.9,1.44-.25,2.89-.51,4.26-.68,8.09-1.28,8.52-1.87,8-10-.77-10.82-.77-10.82-13.21-12.35-.17-2.73-.6-5.37-.6-8.09.09-3.16-1.45-4-4.34-4.18-3.24-.25-4.26,1.53-4.43,4.18s-.09,5.45-.09,8.17c-3.24.18-6.47.18-9.71.43a4.76,4.76,0,0,0-4.52,4.69,60.25,60.25,0,0,0,.26,10.31c.34,3.74,2.39,5.7,6.22,6.22,2.64.34,5.45-.69,7.92,1.19a174.48,174.48,0,0,0-.25,27.52c-.34,2-.68,31.86-.68,32.88,0,10.48.59,21-.09,31.36-.26,4.43,1.19,5.19,4.69,5.88,4.77.85,5.7-12.1,5.53-13,0-5.12,0-10.23.09-15.34a16.53,16.53,0,0,0,0-5.79c-.34-8.35.34-26.24,0-27.1,0-.34.08-.76.08-1.1C211.36,186.5,211.27,177.72,211.53,175.08Zm12.61-92.61a13.65,13.65,0,0,0,13.29-13.8c0-6.05-6.9-12.87-13.21-12.87a13.58,13.58,0,0,0-13.88,14.14C210.34,76.5,217,82.55,224.14,82.47Zm49.41-26A11.91,11.91,0,0,0,261,68.67c0,7.83,5.2,13.2,12.78,13.29,7.24.08,12.52-5.2,12.61-12.78C286.5,61.94,281.05,56.48,273.55,56.48Zm-119,13c0,7.15,5.62,12.44,13.12,12.27A12.54,12.54,0,0,0,179.84,69.6a12.93,12.93,0,0,0-13.3-12.95C159.81,56.74,154.53,62.45,154.53,69.52Z"/><path class="cls-4" d="M131.53,181.64c6.3-7,13.89-12,23.17-14.06-3.41,13.72-.51,18.15,12.1,18.83.09,1.19.26,2.47.34,3.66-5.62,7.33-8.35,16.45-14.82,23.43-7.25,7.84-13.81,10-21.9,5.8C130.76,206.69,131.19,194.16,131.53,181.64Z"/><path class="cls-3" d="M164.8,190.58a13.73,13.73,0,0,1-9.34-2.61c-5-4-6.43-12.5-2.56-20.35a7.29,7.29,0,0,1,5-1.51c6.5-.1,12.92-.29,19-2.74a42.54,42.54,0,0,1,6.64.49c4.49.71,5.51,1.64,5.94,2.12.65.72,1.24,1.44,1.38,3.9.29,4.81.48,9.62.66,14.34.1,2.73-1.6,3.77-4.24,3.87-3.21,0-6.42.28-9.62.37-1.75.09-3.64.26-5.67.56A56.48,56.48,0,0,0,164.8,190.58Z"/><path class="cls-3" d="M131.53,181.64c-.34,12.52-.68,25.05-1,37.66-3.58-1.11-6.74-2.73-7.84-6.73V190.84C125.39,187.6,126.76,183,131.53,181.64Z"/><path class="cls-3" d="M131,121.49c-.17,11.25-.34,22.58-.51,33.82-1.25.73-2.56,1.56-3.91,2.49s-2.81,2.06-4,3c-.34-5.11-.59-10.22-.94-15.25C124.8,137.51,128,129.5,131,121.49Z"/><path class="cls-4" d="M122.58,190.76v21.72C116.53,206.69,116.53,197.4,122.58,190.76Z"/><path class="cls-5" d="M418.52,80.54a22.46,22.46,0,0,1-3.78-15.41,18.13,18.13,0,0,1,4.81-10.58c6.33-6.45,15.64-5,17.38-4.68a20.66,20.66,0,0,1,11.18,5.92c7.51,8.4,8,17.88,1.16,26.9-4.73,6.26-15.73,8.94-22.79,5.55-.63-.27-1.07-1-1.61-1.52,3.31-4,6.26-8.32,9.92-12.07,2.33-2.41,3.22-4.65.63-6.62a5.67,5.67,0,0,0-5.22-1.13,5,5,0,0,0-2.29,1.85C426,71.28,422.83,75.25,418.52,80.54Z"/><path class="cls-5" d="M211.73,130.18c3.57,0,9.07-.07,12,3.12,1.56,1.69,1.76,4.59,2.15,10.13.32,4.32.35,6.64-.78,8.06-1.56,2-4.53,2.26-7.8,2.63a25.41,25.41,0,0,1-4.49.11c-1.26-.06-3.16-.13-5.49-.12-3.24,0-3.63.16-6.05.12a31,31,0,0,1-7.91-.84c-2.34-.6-3.91-1-5.11-2.43a7,7,0,0,1-1.56-4.24,88.81,88.81,0,0,1-.28-11.06,5.09,5.09,0,0,1,4.84-5c3.48-.28,7-.37,10.42-.46.93,0,2.37.07,4.14.08C209,130.27,210.75,130.19,211.73,130.18Z"/><path class="cls-3" d="M235.83,229.18c-13.21-1.63-13.39-1.63-13.21-13.12,0-5.25-.58-7.53.32-8.56,1.17-1.33,3.86-1.18,9.09-1,1.66.05,3.06.15,4.05.24,1.55.06,3.16.1,4.82.1s3.26,0,4.81-.1l1.7-.24c7.74-1.06,9.2-.46,10.08.29a3.31,3.31,0,0,1,1,1.43,26.87,26.87,0,0,1,.27,18.64c-.72,2-2.53,2.08-4.34,2.17-3.08,0-6.15.09-9.23.09S239,229.18,235.83,229.18Z"/><path class="cls-3" d="M224.14,82.47c-7.16.08-13.8-6-13.8-12.61a13.57,13.57,0,0,1,13.88-14.14c6.31.08,13.21,6.81,13.21,12.86A13.61,13.61,0,0,1,224.14,82.47Z"/><path class="cls-6" d="M273.55,56.48c7.5.09,12.95,5.46,12.87,12.7C286.33,76.76,281.14,82,273.81,82,266.14,81.87,261,76.5,261,68.67A11.91,11.91,0,0,1,273.55,56.48Z"/><path class="cls-5" d="M154.53,69.52c0-7.07,5.28-12.78,12.1-12.87A12.92,12.92,0,0,1,179.92,69.6a12.53,12.53,0,0,1-12.18,12.19C160.15,82,154.53,76.67,154.53,69.52Z"/><path class="cls-5" d="M300.22,141.43a76.05,76.05,0,0,1,17-21.22A59.87,59.87,0,0,1,332.78,110a57.59,57.59,0,0,1,14-4.18c8-.87,20.57-1.09,33.65,4.86,2.82,1.28,5.46,2.9,8.1,4.34-2.22,2.47-4.52,4.86-6.73,7.33-.6-.34-1.2-.68-1.88-1a74.81,74.81,0,0,0-34.25-4.18c-14,1.45-23.26,10.23-31.09,20.62-9.21,12.27-12.61,25.9-8.18,40.9,2.21,8.6,6.73,15.93,12.09,22.92,2.31,3-1.36,4.34-2.21,6.47-1.19,3.15-3.32,1.62-5.28.94-.09-.85-6.9-8.69-6.9-8.69a41.09,41.09,0,0,1-7.35-14,57.74,57.74,0,0,1-1.86-12.46c0-.16,0-9.77.09-10.79C295.37,159.06,298.86,144.58,300.22,141.43Z"/><path class="cls-4" d="M381.67,122.34c2.22-2.47,4.52-4.86,6.73-7.33,3.75-4.17,7.59-8.26,11.08-12.52,2.55-3.15,4.34-1.7,6.73.26,3,2.38,1.79,4.26-.09,6.39-3.32,3.74-7.32,7-9.45,11.67-1,1.09-2,2.19-2.95,3.3-1.22,1.37-2.43,2.74-3.61,4.11-9.12,10.05-27.35,32-27.61,32.63-2.64,4.69-6,5.28-10.14,2.05-1.44-4.09,1.62-6.22,3.58-9C360.54,147.22,380.56,125.07,381.67,122.34Z"/><path class="cls-5" d="M390.11,128.22c1.14-1.42,2.35-2.86,3.61-4.32q1.59-1.84,3.17-3.57a47.17,47.17,0,0,0,5.76,7.3,89,89,0,0,1,5.77,6.81c1.62,2,2.9,4.43.26,6.73-1.9,1.62-4,2.36-5.87,1.79a5.21,5.21,0,0,1-2.65-2.05C398,138,394.54,133.72,390.11,128.22Z"/></svg>