<svg id="Слой_1" data-name="Слой 1" xmlns="http://www.w3.org/2000/svg" viewBox="0 0 514.94 358.18"><defs><style>.cls-1{fill:#fcf4fe;}.cls-2{fill:#151415;}.cls-3{fill:#fece67;}.cls-4{fill:#44b4ef;}.cls-5{fill:#e774fe;}.cls-6{fill:#fefdfe;}.cls-7{fill:#fff;}</style></defs><rect class="cls-1" x="165.68" y="34.3" width="305.16" height="234.58" rx="25.43"/><rect class="cls-1" x="35.33" y="206.47" width="117.4" height="117.4" rx="15.7"/><rect class="cls-2" x="183.8" y="50.15" width="266.16" height="188.72" rx="25.43"/><path class="cls-3" d="M152,114.39c3.32-2.77,6.66-5.49,11-6.49a27.34,27.34,0,0,1,6.13-.27c3.88,0,7.77.2,11.64,0,2.17-.11,4.33-.18,6.49-.12l7.44-.16,9.88-.21,1.57.13h1.55l1.42.18c-.23.51,1,1.14.08,1.42-1.26.38-1.2,1.35-1.49,2.24-.69,2.09-1.44,4.17-2.15,6.25-.52,1.54-2,2.32-2.84,3.53a6.93,6.93,0,0,1-4.55,2.56c-2.12.37-4.38.39-6.57.63-2.59.29-5.31-.63-7.78.79-.2.12-.27,0-.41-.14a7.86,7.86,0,0,0-2.19-.57c-2-.53-3.94.34-5.91,0a19.48,19.48,0,0,0-5.95.22c-2.65.35-3.09,1.11-2.38,3.64.1.33.17.36-.25.5-.79.26-.66,1.56-.61,1.68,1.05,2.3,0,4.66.29,7,.39,3.65-.59,7.32.05,11a3.72,3.72,0,0,1-.1,1.51,8.83,8.83,0,0,0-.3,3.18c.46,3,0,6,.09,8.95.12,2.54.14,5.11.07,7.67a13.28,13.28,0,0,1-.76,4.87,4.4,4.4,0,0,0-.51,0c-.49,0-.82-.88-1.44-.25a.64.64,0,0,0-.2.72c.21.8.81.83,1.44.84l.08.08-.09-.07c-.14-.62,0-1.08.72-1.17a7.54,7.54,0,0,0,.9,3.06c.25.45-.38,1.21.35,1.33s1.2-.54,1.53-1.12c1.11-2,3.18-3,4.52-4.82a25.44,25.44,0,0,1,6.18-5.65c2.3-1.59,3.16-4.47,5.73-5.72.7-.33.49-2.15,2-1.24a3.22,3.22,0,0,1,.32-.58,20.2,20.2,0,0,1,8.95-6.46,15,15,0,0,1,10.28.14c2.24.86,2.94,2.74,1.36,4.5a21.75,21.75,0,0,0-1.41,1.94c-1.87,2.65-3.58,5.4-5.69,7.87-1.26-.94-2.08,0-2.47.89s.41,1.25,1.29,1.18a6.84,6.84,0,0,1-2,2.75c-.54-.36-1.26-.25-1.65-1.09-.29-.63-1.15,0-1,.43.26.58.11,1.84,1.42,1.52l1-.24c-.91,2.21-2.41,4.09-3.48,6.24-1.71,3.43-4.17,6.44-6.37,9.59-2.15.95-2.48,3.26-3.56,5a72.75,72.75,0,0,0-4.08,6.3,91.28,91.28,0,0,1-5.26,9.11,54.8,54.8,0,0,1-5.44,7.71,25.93,25.93,0,0,1-4.57,3.86c-.94-.55-.75-1.68-1.25-2.46-.12-.21.4-.73-.13-1a.48.48,0,0,0-.45.06c-.47.46,0,.85.2,1.2a1.64,1.64,0,0,1-.65,2.43c.86-.31,1.39-.1,1.71.6a4.91,4.91,0,0,1-2.36,2.13c-2,1-3.63,2.54-5.71,3.43-4.32,1.86-8.47,4.19-13.13,5.13-3.7.75-7.41,1.72-11.14,1.86a7.73,7.73,0,0,0-5.5,2.39c.78-1.73,1.14-3.32-.56-4.87a14,14,0,0,1-2.4-3.84c-.85-1.58-1.73-3.48-3.66-4.28l-1-1.24a5.15,5.15,0,0,0-.41-.93c-2.69-4-5.47-7.88-8.06-11.93-3-4.77-6.4-9.36-9.61-14-.59-.75-1.35-1.37-.48-2.5a1,1,0,0,0-.77-1.54c-.6-.07-.63-.6-.87-.7-1.32-.62-1.31-2.83-3.23-2.64-.72-1-1.39-2.11-2.18-3.08a1.42,1.42,0,0,1-.39-1.55c.58-1.25-.24-1.49-1.14-1.7.84-1.6,2.52-2.3,3.71-3.51s2.86-2.07,2.76-3.82c-.12-2.3,0-4.58,0-6.86,0-3.56.1-7.14.06-10.69s-.13-7.21-.2-10.81c-.07-4,.25-8,.08-11.91-.19-4.25,0-8.49,0-12.74-.08-7.74.15-15.48-.11-23.22-.12-3.77,0-7.55-.06-11.3,0-4.64-.13-9.3.12-14,0-.75.33-1,1-1,.46.89,1.34.76,2.09.79a6.69,6.69,0,0,1,2.27.52A18.73,18.73,0,0,1,109.34,78a12.58,12.58,0,0,1,3.8,6.74c.32,2.07,1,4.09.77,6.26a15.18,15.18,0,0,0,0,3.75c.18,1.19-.21,2.34.06,3.55s-.56,2.7.14,3.66c.84,1.14,0,2-.06,2.87-.06,1.84.39,3.63.23,5.51a69.6,69.6,0,0,0,.19,8.41c.13,3.23.3,6.46.44,9.7a.72.72,0,0,0,.73.78c.32,0,.73-.14.64-.38-.29-.81.42-1.39.31-2.19-.62-4.34-.12-8.73-.37-13.1-.32-5.48-.31-11-.36-16.46a25.82,25.82,0,0,1,.42-3.59c.84.65,1-.2,1.17-.62,1.78-4.66,4.1-9.08,6.24-13.57,1.91-4,3.83-8,5.78-12A99,99,0,0,0,134,58c.38-1,.89-2.72,2.77-1.73a3.53,3.53,0,0,0,.9,2.4c2.36,2.3,4.81,4.61,4.73,8.33,0,.2.17.4.26.6a7.73,7.73,0,0,1,.37,5.88c-.16.45-.79.5-.68,1.09.46,2.4-1.1,4.31-1.9,6.28a67.27,67.27,0,0,1-3.64,7.25c-2,3.52-3.2,7.38-5.08,11a9.46,9.46,0,0,0-1,5.93,56.66,56.66,0,0,1,.51,8.39c.13,2.75.18,5.59.26,8.37.11,4.54-.27,9.17,1.05,13.64.1.33-.45.89.14,1,.75.17.43-.64.63-1a2,2,0,0,0,.27-1c.14-3.44,0-6.89-.08-10.33s-.22-6.63-.44-9.94a21,21,0,0,0-.08-3.07,18.93,18.93,0,0,1-.08-6c1.45-4,4.55-6.54,7.94-8.88,2.19-1.51,4.44-3,6.57-4.56,1.07-.79,1.2-2.36,2.6-3a37.5,37.5,0,0,0,9.84-7.32c2-1.93,4.85-2.94,6.33-5.47,1.47-.65,2.46-1.93,3.71-2.88,1.53-1.17,2.33-1.19,3.19,0a1.17,1.17,0,0,0-.37,2c1.67,2,1.29,4.73,2.15,7,.71,1.91-.1,4.4-.88,6.35a14.37,14.37,0,0,1-6,6.95c-2.38,1.41-4.51,3.22-6.7,4.8-2.63,1.9-5.61,3.52-7.73,6.41a20,20,0,0,0-3.68,7.65,23.33,23.33,0,0,0-.65,6.72c.2,2.55-.25,5.09.19,7.66a21.62,21.62,0,0,1,.17,6.05c-.27,2.32.25,4.54,0,6.8a.83.83,0,0,0,.73,1c.7.07.6-.59.79-.93a2.11,2.11,0,0,0,.15-1c0-3.26,0-6.52,0-9.77a49.84,49.84,0,0,0,0-5c-.33-3.16.08-6.25.05-9.37A1.91,1.91,0,0,1,152,114.39Zm-37.87,45.27c.67-.68-.86-1.73.38-2.32a2.6,2.6,0,0,0-.57-.34.33.33,0,0,0-.44.36c.09.79-.29,1.74.66,2.29.27.49.77.34,1.07.2,1-.43.7,1.55,1.58.81s-.8-1.34-.34-2.18c0,0,0-.07-.09-.12C116.22,159.91,114.89,159.28,114.12,159.66Zm35,20.77a23.07,23.07,0,0,1,1.61,2c.17.25-.18,1,.41.85s.37-.78.14-1.29a11.48,11.48,0,0,1-1.24-3.76,2.45,2.45,0,0,0-.9,2.25l-.09.13Zm-22.92-21.16c-1-.12-1-1.31-1.76-1.82a.32.32,0,0,0-.52.23,3.85,3.85,0,0,1-1.62,2.23.92.92,0,0,0,0,.79.51.51,0,0,0,.73.22c.78-.66,1.83-.51,2.68-.95C126,159.83,126.22,159.78,126.23,159.27ZM145,157.38c-.78.57-1.49-.31-2,.44-.21.33.1,1.06-.54,1.07a1.11,1.11,0,0,1-1.09-1.12c0-.45-.29-.44-.57-.36a.37.37,0,0,0-.21.56c.54.51.2,1.6,1.27,1.78a1.48,1.48,0,0,0,1.66-.84C143.88,158.37,144.67,158.51,145,157.38Zm2.16,12.86c.73,1.1,1.86,1.36,2.6.52.41-.46.72-.52,1.12-.1a.8.8,0,0,0,1.22.11c-1,0-1.32-.82-1.78-1.42C148.79,170.7,148.79,170.7,147.2,170.24Zm19,41.14c.41.3,1,.13,1.28.35.5.39.34-.08.44-.21-1.2-.61-.53-.78.19-1.1a.93.93,0,0,0,.64-1.08c-.07-.24-.37-.06-.49-.09-.59-.13-1.09-.07-1.23.52A6.14,6.14,0,0,1,166.16,211.38ZM159,182.55c.59,0,1-.24.72-.85-.45-1.18.64-.89,1.12-1.15.06,0,.33.51.59.08s-.08-.54-.22-.78-.42-.27-.66,0a1.27,1.27,0,0,1-1.36.44c-.29-.06-1,0-.34.76C159.1,181.33,158.94,182,159,182.55Zm6.63,1.17a4.51,4.51,0,0,1-2.22,1.09c.66.3.64,1.44,1.49,1.08S165.83,184.69,165.61,183.72ZM126,178.58c0-.38-1.38.26-.44-.69.14-.14.22-.29,0-.39a1.62,1.62,0,0,0-1.47.06c-.51.22-.33.78-.2,1.18a.69.69,0,0,0,1.07.44C125.38,179,125.71,178.78,126,178.58Zm25.6,31.13c.77.7.64,2,2,1.83.09,0,.32.11.14-.2C153.35,210.58,153.31,209.42,151.62,209.71Zm30.27-24.55c.63.4,1.28-2.6,1.93,0,0,.06.43.06.63,0s.24-.34.08-.53c-.33-.34-.36-1-1.06-1A1.68,1.68,0,0,0,181.89,185.16ZM160.58,213.5c-.53-.5-.86-1-1.23-1.08s-.69.54-1,.84a5.66,5.66,0,0,0,1.31.9C159.82,214.23,160.21,213.77,160.58,213.5ZM156,180.42c-1.75-1.21-1.75-1.21-2.58.89C154.23,180.51,155.07,180.84,156,180.42Zm-10.47,37c-.93.13-.78.89-1,1.33s.41.83.86.9c.25,0,.82-.47.59-.63C145.36,218.59,145.55,218,145.53,217.42Zm12.39-16.26c.51.32.49,1.24,1.34,1.39.23,0,.55-.2.44-.37a9,9,0,0,0-1.32-1.73C158.22,200.31,158,200.71,157.92,201.16ZM132.5,174.72c-.4-.87-.4-1.73-1.33-1.85-.33,0-.45.29-.43.6C130.82,174.42,131.48,174.6,132.5,174.72Zm35.93,27.92c-1.73.72-1.73.72-.72,2ZM147,178.24a.58.58,0,0,0,.59-.53.94.94,0,0,0-.82-.91.62.62,0,0,0-.68.59C146,178.06,147,177.64,147,178.24Zm33,14.52c-1.2.93-.71,1.68-.54,2.38a.52.52,0,0,0,.41,0C180.54,194.46,179.75,193.8,180,192.76Zm-9.76-12.2c-.16.55-.87,1-.23,1.56a.59.59,0,0,0,.81,0C171.45,181.37,170.55,181.07,170.27,180.56ZM151.06,95l1.57-.37c-.71,0-.13-1.13-.69-1A1.12,1.12,0,0,0,151.06,95Zm36,74.58c.09,1.63.09,1.63,1.55.9-.11,0-.24,0-.32-.06C188,170.23,187.6,170,187.1,169.62ZM174,194.68c1.5-.94,1.5-.94,1.07-2.07A3.59,3.59,0,0,0,174,194.68Zm-27.47-24.79-.25,0s.08.07.12.07A.65.65,0,0,0,146.49,169.89Z"/><path class="cls-4" d="M101,270.5c-.88-.59-1.91-.08-2.86-.44-.48-.18-1.1,2.29-.64,3.12.17.31.45.55.26.89-.89,1.58-1,3.43-2,5a5.71,5.71,0,0,1-4.36,3c-1.5.22-2.92.81-4.52,1-2.71.28-4.08-1.31-5.09-3.11-.73-1.32-2.16-2.24-2.31-3.95,0-.61-1-.6-1.59-.86l-.63-.84c0-.88-.64-1.28-1.21-1.75a17.62,17.62,0,0,1-3.5-4.36c-.69-1.08-2-1.74-2.82-2.77-2.45-3.14-5.83-5.39-8.06-8.77-1.36-2.06-3.3-3.73-4.94-5.61-1.92-2.19-4.06-4.17-6.07-6.26-1.73-1.81-2.89-4-4.69-5.72A14.64,14.64,0,0,1,48,231.75a21.39,21.39,0,0,1,3.89-5A3.07,3.07,0,0,0,53,225.18a.47.47,0,0,0,.23-.23c1.93-.16,3.46-1.52,5.36-1.8,1.08,1.82,3.35,2.85,3.49,5.3a.68.68,0,0,0,.49.42c1.64.09,2.1,1.62,2.69,2.59,2,3.3,4.28,6.5,6.26,9.82,1.88,3.14,4.55,5.81,5.7,9.38.09.27.33.25.51.36,2.09,1.31,3.55,3.29,5.19,5,3,3.13,5.51,6.65,9.14,9.12.53-.71.27-1.1-.25-1.54a45.86,45.86,0,0,1-4-4.58c-2.08-2.34-4.19-4.69-6.06-7.21-.92-1.23-2.44-2-2.85-3.59-.35-1.41-3-1.51-2.11-3.64,0,0-.18-.12-.28-.18-2.52-1.78-2.84-5.26-5.41-7-.17-2.24-1.93-3.6-3-5.35a28,28,0,0,0-5.29-6.73,10.56,10.56,0,0,1-2.33-3.23c.84-1.53,1.27-3.25,2.31-4.68.72-1,1.13-2.74,1.9-3,1.69-.62,2.63-2.15,4.56-2.64,3.88-1,7.3-.19,10.8,1.1,1,.37,1.87.6,2.3-.72,1.19,1.68,2.48,3.3,3.66,5,1.7,2.44,3.4,4.89,5.16,7.29,3.9,5.36,7.73,10.77,11.71,16.06,1.17,1.55,1.9,3.44,3.51,4.66l.32.21a1.35,1.35,0,0,0,.49,1.14,9.21,9.21,0,0,1,1.92,2.87,19.2,19.2,0,0,0-5.35,5.5,17.85,17.85,0,0,0-2.49,9.34C101.28,266.31,101.7,268.44,101,270.5Zm-9.11,8.72c-.37-.22-.15-1-.73-.93-.29,0-.86.07-.61.73.18.45.33.88.92.82C91.77,279.81,91.89,279.57,91.84,279.22Zm9.21-25.47c-.38,0-.44.32-.5.56-.09.4.28.25.46.29s.49.07.53-.22S101.36,253.87,101.05,253.75Z"/><path class="cls-4" d="M91.18,181.81c.9.21,1.72.45,1.14,1.7a1.42,1.42,0,0,0,.39,1.55c.79,1,1.46,2,2.18,3.08l-1.42,1.4c-.82-.58-1.37-1.11-2.41.09a23.32,23.32,0,0,1-2.75,2.68c-3.45,2.88-6.65,6-9.91,9.13-.72.68-1.16.76-1.75-.13-.77-1.13-1.69-2.16-2.47-3.28-.31-.47-.62-.74-1.1-.42s-.34.74,0,1.19c.71,1,1.36,2.11,2,3.18a23.8,23.8,0,0,0-4.29-1c-2.64-.27-5.22-.59-7.75.61a9.28,9.28,0,0,0-2.32,2c-1.14,1.08-2.68,1.91-3.39,3.29-1.08,2.11-2.44,4.15-2.82,6.57-.12.71-.47,1-1.14,1-2.12-.16-3.64,1.33-5.46,2l-.45.37-.62.09-.33.27v0l-.63,1.06c-1.39,0-1.43,1.49-2.24,2.16a20,20,0,0,0-6.18,8.7,1.15,1.15,0,0,1-1.58-.1c-1.66-1.92-3.45-3.91-3.21-6.62a17.61,17.61,0,0,1,4.7-10.75c2.93-3.09,6.81-3.69,10.91-3.16.68.09,1.53.79,2-.15s.06-1.42-.84-1.88c-.54-.28-.53-1.14-.32-1.76.83-2.49,1.23-5.14,2.52-7.45a9,9,0,0,1,6-4.4c-.24.75.68,1,.74,1.59s.42.16.6.11c.44-.1.28-.44.09-.62-.38-.37-1-.57-.78-1.31a19.29,19.29,0,0,0,4.43-.31c3.85-.27,6.59,1.72,9.33,3.87a1.6,1.6,0,0,0,2.31.05,45.2,45.2,0,0,0,5.11-4.78c2.09-2.43,4.75-4.29,7.11-6.43A28.91,28.91,0,0,1,91.18,181.81ZM53.37,201.66c-.31.8-1.63.45-1.16,1.56.09.21.2.51.42.41C53.3,203.33,53.37,202.7,53.37,201.66ZM46,211.38c-.47-.38-.82-.63-1.13-.93-.1-.1-.07-.33-.12-.49-.19-.53-.61-.43-.65-.05s.19,1.09.47,1.2S45.3,211.75,46,211.38Z"/><path class="cls-5" d="M37.48,229.08a20,20,0,0,1,6.18-8.7c.81-.67.85-2.12,2.24-2.16a5.22,5.22,0,0,1,0,.69c-.15.71.39,1,.8,1.4.06.05.38,0,.4-.12.19-.55.32-1.13-.2-1.58s-.32-1-.33-1.45v0l.33-.27.62-.09c.52.31.42-.11.45-.37,1.82-.67,3.34-2.16,5.46-2,.67,0,1-.29,1.14-1,.38-2.42,1.74-4.46,2.82-6.57.71-1.38,2.25-2.21,3.39-3.29a9.28,9.28,0,0,1,2.32-2c2.53-1.2,5.11-.88,7.75-.61a23.51,23.51,0,0,1,4.28,1,112.24,112.24,0,0,1,7.28,10.19c-.43,1.32-1.28,1.09-2.3.72-3.5-1.29-6.92-2.08-10.8-1.1-1.93.49-2.87,2-4.56,2.64-.77.28-1.18,2-1.9,3-1,1.43-1.47,3.15-2.31,4.68-.64-.78-1.81-.93-2.26-1.9s-.34-.87-1.37-.67a5.48,5.48,0,0,0,1.7,3.59c-1.9.28-3.43,1.64-5.36,1.8-1.77-.37-.29-1.38-.12-1.56,1.56-1.56-.19-2.22-.64-3.24,0,1.93-1.33,3.72-.44,5.89.1-.7.46-.92,1-.86a3.07,3.07,0,0,1-1.07,1.56,21.39,21.39,0,0,0-3.89,5A14.64,14.64,0,0,0,46,239.07c-.07-.28-.07-.73-.24-.8-2.83-1.32-4.15-4.27-6.56-6C38.11,231.47,38.18,230.06,37.48,229.08Zm10.46-10.17c0-.1,0-.34-.24-.12l.22.14.17.16Zm-3.48,3.14-.15-.18s0,.09,0,.1a.59.59,0,0,0,.14.06c.15.75-.39,1.62.44,2.41A2.25,2.25,0,0,0,44.46,222.05Zm4,3.55c.69-1-1.08-2.36.86-3-1-.45-1.82.41-2.68,0-.28-.14-.47.5-.28.55C47.65,223.47,47.4,225,48.46,225.6Zm.85-6.06c-1.61.28-1.61.28-1.09,1.58A2.13,2.13,0,0,0,49.31,219.54Zm7.34,3.06-.73-.45c-.28.8-1.57.09-1.67,1.12,0,.11.22.35.26.33C55.17,223.31,55.82,223,56.65,222.6Zm-1.57-.67s-.09,0-.11,0,0,.09,0,.14l.19,0Zm-5.29-.05s0-.09-.08-.1-.09,0-.14,0l.1.17Zm-3,3.06-.06.07.09,0Z"/><path class="cls-2" d="M132.88,105.06a18.93,18.93,0,0,0,.08,6,21,21,0,0,1,.08,3.07c.22,3.31.41,6.64.44,9.94s.22,6.89.08,10.33a2,2,0,0,1-.27,1c-.2.33.12,1.14-.63,1-.59-.13,0-.69-.14-1-1.32-4.47-.94-9.1-1.05-13.64-.08-2.78-.13-5.62-.26-8.37a56.66,56.66,0,0,0-.51-8.39,9.46,9.46,0,0,1,1-5.93c1.88-3.57,3.12-7.43,5.08-11a67.27,67.27,0,0,0,3.64-7.25c.8-2,2.36-3.88,1.9-6.28-.11-.59.52-.64.68-1.09a7.73,7.73,0,0,0-.37-5.88c-.09-.2-.26-.4-.26-.6.08-3.72-2.37-6-4.73-8.33a3.53,3.53,0,0,1-.9-2.4c.38-.3.78-.54,1.19,0,1.52,1.81,3.68,3,4.75,5.27,2.36,5,3.23,10,1.3,15.36a70.77,70.77,0,0,1-4.55,10.06c-1.46,2.67-2.61,5.43-3.82,8.19a36.6,36.6,0,0,1-2.1,4.26A6.78,6.78,0,0,0,132.88,105.06Z"/><path class="cls-2" d="M116.33,93.47a25.82,25.82,0,0,0-.42,3.59c0,5.48,0,11,.36,16.46.25,4.37-.25,8.76.37,13.1.11.8-.6,1.38-.31,2.19.09.24-.32.41-.64.38a.72.72,0,0,1-.73-.78c-.14-3.24-.31-6.47-.44-9.7a69.6,69.6,0,0,1-.19-8.41c.16-1.88-.29-3.67-.23-5.51,0-.92.9-1.73.06-2.87-.7-1,.12-2.46-.14-3.66s.12-2.36-.06-3.55a15.18,15.18,0,0,1,0-3.75c.26-2.17-.45-4.19-.77-6.26a12.58,12.58,0,0,0-3.8-6.74,18.73,18.73,0,0,0-6.45-4.69,6.69,6.69,0,0,0-2.27-.52c-.75,0-1.63.1-2.09-.79,0-.82.18-1.22,1.15-1.24A11.44,11.44,0,0,1,107,73.29c2.62,2.06,5.35,4.16,6.65,7.49,1.11,2.88,2.64,5.63,2.29,8.86A15.36,15.36,0,0,0,116.33,93.47Z"/><path class="cls-1" d="M58.34,192.58c-.23.74.4.94.78,1.31.19.18.35.52-.09.62-.18.05-.55.45-.6-.11s-1-.84-.74-1.59Z"/><path class="cls-1" d="M76,272.56c.57.47,1.23.87,1.21,1.75C75.86,274.41,76,273.42,76,272.56Z"/><path class="cls-4" d="M115.78,247l-5.32,1.61a8.65,8.65,0,0,0-.78-1.32c-.74-.82-.79-1.34.25-2.08a54.3,54.3,0,0,0,4.39-3.64c3.08-2.72,6-5.65,8.92-8.53.36-.35.9-.66.8-1.38-.14-1-1-.63-1.56-.94h0l.07,0c-.68,1.79-2.39,2.63-3.65,3.86-2.06,2-4.2,4-6.35,5.88-1.41,1.26-2.38,3-4,4-.37.25-.83.81-1,.1-.53-2.05-2.19-3.26-3.36-4.82s-1.19-1.82.32-3.3c1.17-1.14,2.75-1.74,3.77-3,1.75-2.17,4.15-3.61,6.14-5.52,1.56-1.5,3.28-2.84,4.93-4.25,1.93.8,2.81,2.7,3.66,4.28a14,14,0,0,0,2.4,3.84c1.7,1.55,1.34,3.14.56,4.87-2.17,3.12-5.39,5.19-7.92,8C117.28,245.39,116.53,246.16,115.78,247Z"/><path class="cls-2" d="M152,114.39a1.91,1.91,0,0,0-.65,1.83c0,3.12-.38,6.21-.05,9.37a49.84,49.84,0,0,1,0,5c0,3.25,0,6.51,0,9.77a2.11,2.11,0,0,1-.15,1c-.19.34-.09,1-.79.93a.83.83,0,0,1-.73-1c.26-2.26-.26-4.48,0-6.8a21.62,21.62,0,0,0-.17-6.05c-.44-2.57,0-5.11-.19-7.66a23.33,23.33,0,0,1,.65-6.72,20,20,0,0,1,3.68-7.65c2.12-2.89,5.1-4.51,7.73-6.41,2.19-1.58,4.32-3.39,6.7-4.8a14.37,14.37,0,0,0,6-6.95c.78-2,1.59-4.44.88-6.35-.86-2.32-.48-5-2.15-7a1.17,1.17,0,0,1,.37-2c1.85.66,1.9,2.57,2.38,4,.94,2.7,1.78,5.51,1.21,8.5a16.72,16.72,0,0,1-4.29,8.68c-3.64,3.77-8.28,6.24-12.33,9.48-2.41,1.92-5,3.61-6.88,6.17A6.35,6.35,0,0,0,152,114.39Z"/><path class="cls-6" d="M400.48,280.65c2-.15,3.95-1.1,6.22-.65l-8.26,10.06c-.22-.81-.54-1.62.07-2.43a1.31,1.31,0,0,0,.13-1.3,2.88,2.88,0,0,1,.91-3.22A2.94,2.94,0,0,0,400.48,280.65Z"/><path class="cls-5" d="M163.77,221.69c-.32-.7-.85-.91-1.71-.6a1.64,1.64,0,0,0,.65-2.43c-.17-.35-.67-.74-.2-1.2a.48.48,0,0,1,.45-.06c.53.29,0,.81.13,1,.5.78.31,1.91,1.25,2.46A.66.66,0,0,1,163.77,221.69Z"/><path class="cls-4" d="M100.24,195.52c3.21,4.66,6.56,9.25,9.61,14,2.59,4.05,5.37,8,8.06,11.93a5.15,5.15,0,0,1,.41.93c-1.92.83-3.17,2.51-4.73,3.79-2.81,2.31-5.62,4.62-8.32,7.05-.88.79-1.68,1.67-2.58,2.44-.48.41-1,.55-1.32,0a62.07,62.07,0,0,0-4.8-6.6c-.36-.41-.51-.74.19-1a15.11,15.11,0,0,0,4.23-2.71c3.65-2.93,7.36-5.78,11-8.69.34-.27,1.17-.46.56-1.12a1.36,1.36,0,0,0-1.84-.36c-.76.56-1.42,1.25-2.15,1.84-3.82,3.12-8.08,5.69-11.54,9.28-.34.35-1.16,1.48-2,.27-1.31-1.84-2.69-3.64-3.94-5.52-.29-.43-.73-.87.22-1.66,1.36-1.13,3-1.81,4.28-2.89,1.88-1.51,3.6-3.26,5.55-4.67a51,51,0,0,0,5.13-4c.34-.32.61-.28.25-.91s-.56-.53-1-.48-.91.5-1.3.8c-4.69,3.63-9.37,7.27-14,11-.61.49-.81.53-1.26-.12-1.4-2-2.88-4-4.32-6-.36-.49-.18-.72.32-1.06a65.83,65.83,0,0,0,6.55-5.23c2.11-1.87,4.21-3.74,6.38-5.53,1.33-1.09,1.3-1.69-.34-2.48C98.53,197.13,100.27,197.39,100.24,195.52Z"/><path class="cls-2" d="M97.53,197.76c1.64.79,1.67,1.39.34,2.48-2.17,1.79-4.27,3.66-6.38,5.53A65.83,65.83,0,0,1,84.94,211c-.5.34-.68.57-.32,1.06,1.44,2,2.92,4,4.32,6,.45.65.65.61,1.26.12,4.63-3.7,9.31-7.34,14-11,.39-.3.72-.75,1.3-.8s.69-.09,1,.48.09.59-.25.91a51,51,0,0,1-5.13,4c-2,1.41-3.67,3.16-5.55,4.67-1.33,1.08-2.92,1.76-4.28,2.89-1,.79-.51,1.23-.22,1.66,1.25,1.88,2.63,3.68,3.94,5.52.86,1.21,1.68.08,2-.27,3.46-3.59,7.72-6.16,11.54-9.28.73-.59,1.39-1.28,2.15-1.84a1.36,1.36,0,0,1,1.84.36c.61.66-.22.85-.56,1.12-3.67,2.91-7.38,5.76-11,8.69a15.11,15.11,0,0,1-4.23,2.71c-.7.25-.55.58-.19,1a62.07,62.07,0,0,1,4.8,6.6c.36.55.84.41,1.32,0,.9-.77,1.7-1.65,2.58-2.44,2.7-2.43,5.51-4.74,8.32-7.05,1.56-1.28,2.81-3,4.73-3.79l1,1.24c-1.65,1.41-3.37,2.75-4.93,4.25-2,1.91-4.39,3.35-6.14,5.52-1,1.26-2.6,1.86-3.77,3-1.51,1.48-1.57,1.62-.32,3.3s2.83,2.77,3.36,4.82c.19.71.65.15,1-.1,1.6-1.06,2.57-2.75,4-4,2.15-1.92,4.29-3.86,6.35-5.88,1.26-1.23,3-2.07,3.65-3.86h0c.52.31,1.42-.08,1.56.94.1.72-.44,1-.8,1.38-2.94,2.88-5.84,5.81-8.92,8.53a54.3,54.3,0,0,1-4.39,3.64c-1,.74-1,1.26-.25,2.08a8.65,8.65,0,0,1,.78,1.32,2.55,2.55,0,0,1-1.33.82,9.21,9.21,0,0,0-1.92-2.87,1.39,1.39,0,0,1-.5-1.14c.06-.13.19-.32.15-.36-.21-.21-.36-.1-.46.15-1.61-1.22-2.34-3.11-3.51-4.66-4-5.29-7.81-10.7-11.71-16.06-1.76-2.4-3.46-4.85-5.16-7.29-1.18-1.68-2.47-3.3-3.66-5A112.24,112.24,0,0,0,75.08,202c-.67-1.07-1.32-2.15-2-3.18-.31-.45-.45-.86,0-1.19s.79-.05,1.1.42c.78,1.12,1.7,2.15,2.47,3.28.59.89,1,.81,1.75.13,3.26-3.09,6.46-6.25,9.91-9.13a23.32,23.32,0,0,0,2.75-2.68c1-1.2,1.59-.67,2.41-.09a1.53,1.53,0,0,1-.71,1,5.28,5.28,0,0,0-2.15,2.33c-.21-.27-.47-.5-.83-.34-.06,0,0,.39.06.61a65.25,65.25,0,0,1-5.92,5.35,52.92,52.92,0,0,0-4.66,4.06c-.26.25-1.27.57-.59,1.47,1.46,1.92,2.82,3.9,4.24,5.85.16.22.38.47.68.13,2-2.28,4.55-3.82,6.73-5.84C92.68,202,95.12,199.9,97.53,197.76Z"/><path class="cls-5" d="M97.53,197.76c-2.41,2.14-4.85,4.25-7.21,6.44-2.18,2-4.77,3.56-6.73,5.84-.3.34-.52.09-.68-.13-1.42-1.95-2.78-3.93-4.24-5.85-.68-.9.33-1.22.59-1.47a52.92,52.92,0,0,1,4.66-4.06,63.81,63.81,0,0,0,5.91-5.35.75.75,0,0,0,.78-.27,5.28,5.28,0,0,1,2.15-2.33,1.53,1.53,0,0,0,.71-1l1.42-1.4c1.92-.19,1.91,2,3.23,2.64.24.1.27.63.87.7a1,1,0,0,1,.77,1.54c-.87,1.13-.11,1.75.48,2.5C100.27,197.39,98.53,197.13,97.53,197.76ZM94.74,195c-1.21.34-2.41-.46-3.61,0,0,.94,1.33.87,1.38,1.5.07,1,.57.44.93.45-.08-1,1.19-1,1.28-1.91l.09-.14Z"/><path class="cls-1" d="M126.23,159.27c0,.51-.28.56-.54.7-.85.44-1.9.29-2.68.95a.51.51,0,0,1-.73-.22.92.92,0,0,1,0-.79,3.85,3.85,0,0,0,1.62-2.23.32.32,0,0,1,.52-.23C125.22,158,125.21,159.15,126.23,159.27Zm-2.51.23-.07-.06,0,.09Z"/><path class="cls-1" d="M145,157.38c-.37,1.13-1.16,1-1.47,1.53a1.48,1.48,0,0,1-1.66.84c-1.07-.18-.73-1.27-1.27-1.78a.37.37,0,0,1,.21-.56c.28-.08.52-.09.57.36a1.11,1.11,0,0,0,1.09,1.12c.64,0,.33-.74.54-1.07C143.55,157.07,144.26,158,145,157.38Z"/><path class="cls-1" d="M149.17,180.45a2.45,2.45,0,0,1,.9-2.25,11.48,11.48,0,0,0,1.24,3.76c.23.51.43,1.13-.14,1.29s-.24-.6-.41-.85a23.07,23.07,0,0,0-1.61-2Z"/><path class="cls-5" d="M200.49,167.67c-.06.88-.82,1.36-1.18,2.07-.88.07-1.65-.38-1.29-1.18S199.23,166.73,200.49,167.67Z"/><path class="cls-1" d="M147.2,170.24c1.59.46,1.59.46,3.16-.89.46.6.75,1.4,1.78,1.42a.8.8,0,0,1-1.22-.11c-.4-.42-.71-.36-1.12.1C149.06,171.6,147.93,171.34,147.2,170.24Z"/><path class="cls-5" d="M166.16,211.38a6.14,6.14,0,0,0,.83-1.61c.14-.59.64-.65,1.23-.52.12,0,.42-.15.49.09a.93.93,0,0,1-.64,1.08c-.72.32-1.39.49-.19,1.1-.1.13.06.6-.44.21C167.15,211.51,166.57,211.68,166.16,211.38Z"/><path class="cls-1" d="M159,182.55c0-.52.12-1.22-.15-1.5-.69-.74,0-.82.34-.76a1.27,1.27,0,0,0,1.36-.44c.24-.27.45-.35.66,0s.41.48.22.78-.53-.12-.59-.08c-.48.26-1.57,0-1.12,1.15C159.93,182.31,159.57,182.54,159,182.55Z"/><path class="cls-1" d="M197.3,172.49c-.07.2-.14.41-.2.62l-1,.24c-1.31.32-1.16-.94-1.42-1.52-.19-.42.67-1.06,1-.43C196,172.24,196.76,172.13,197.3,172.49Z"/><path class="cls-1" d="M165.61,183.72c.22,1,.14,1.8-.73,2.17s-.83-.78-1.49-1.08A4.51,4.51,0,0,0,165.61,183.72Z"/><path class="cls-1" d="M126,178.58c-.31.2-.64.42-1,.6a.69.69,0,0,1-1.07-.44c-.13-.4-.31-1,.2-1.18a1.62,1.62,0,0,1,1.47-.06c.17.1.09.25,0,.39C124.64,178.84,126.05,178.2,126,178.58Z"/><path class="cls-1" d="M114.12,159.66c.77-.38,2.1.25,2.25-1.3,0,0,.1.11.09.12-.46.84,1.27,1.41.34,2.18s-.63-1.24-1.58-.81c-.3.14-.8.29-1.07-.2Z"/><path class="cls-1" d="M151.62,209.71c1.69-.29,1.73.87,2.17,1.63.18.31,0,.18-.14.2C152.26,211.75,152.39,210.41,151.62,209.71Z"/><path class="cls-5" d="M181.89,185.16a1.68,1.68,0,0,1,1.58-1.5c.7,0,.73.63,1.06,1,.16.19.21.43-.08.53s-.62.06-.63,0C183.17,182.56,182.52,185.56,181.89,185.16Z"/><path class="cls-5" d="M160.58,213.5c-.37.27-.76.73-1,.66a5.66,5.66,0,0,1-1.31-.9c.34-.3.72-.88,1-.84S160.05,213,160.58,213.5Z"/><path class="cls-1" d="M156,180.42c-.93.42-1.77.09-2.58.89C154.25,179.21,154.25,179.21,156,180.42Z"/><path class="cls-1" d="M145.53,217.42c0,.55-.17,1.17.47,1.6.23.16-.34.66-.59.63-.45-.07-1.08-.4-.86-.9S144.6,217.55,145.53,217.42Z"/><path class="cls-1" d="M165.47,174.32v.1c-.73.09-.86.55-.72,1.17h0c-.63,0-1.23,0-1.44-.84a.64.64,0,0,1,.2-.72c.62-.63.95.25,1.44.25A4.4,4.4,0,0,1,165.47,174.32Z"/><path class="cls-1" d="M157.92,201.16c0-.45.3-.85.46-.71a9,9,0,0,1,1.32,1.73c.11.17-.21.41-.44.37C158.41,202.4,158.43,201.48,157.92,201.16Z"/><path class="cls-1" d="M132.5,174.72c-1-.12-1.68-.3-1.76-1.25,0-.31.1-.64.43-.6C132.1,173,132.1,173.85,132.5,174.72Z"/><path class="cls-5" d="M168.43,202.64l-.72,2C166.7,203.36,166.7,203.36,168.43,202.64Z"/><path class="cls-1" d="M147,178.24c0-.6-1-.18-.91-.85a.62.62,0,0,1,.68-.59.94.94,0,0,1,.82.91A.58.58,0,0,1,147,178.24Z"/><path class="cls-1" d="M114.15,159.65c-1-.55-.57-1.5-.66-2.29a.33.33,0,0,1,.44-.36,2.6,2.6,0,0,1,.57.34c-1.24.59.29,1.64-.38,2.32Z"/><path class="cls-5" d="M180,192.76c-.28,1,.51,1.7-.13,2.39a.52.52,0,0,1-.41,0C179.32,194.44,178.83,193.69,180,192.76Z"/><path class="cls-5" d="M170.27,180.56c.28.51,1.18.81.58,1.54a.59.59,0,0,1-.81,0C169.4,181.58,170.11,181.11,170.27,180.56Z"/><path class="cls-1" d="M151.06,95a1.12,1.12,0,0,1,.88-1.34c.56-.16,0,1,.69,1Z"/><path class="cls-5" d="M187.1,169.62c.5.35.86.61,1.23.84.08.06.21,0,.32.06C187.19,171.25,187.19,171.25,187.1,169.62Z"/><path class="cls-5" d="M174,194.68a3.59,3.59,0,0,1,1.07-2.07C175.46,193.74,175.46,193.74,174,194.68Z"/><path class="cls-1" d="M146.49,169.89a.65.65,0,0,1-.13,0s-.08-.05-.12-.07Z"/><path class="cls-1" d="M164.75,175.59l.09.07-.08-.08Z"/><path class="cls-1" d="M149.15,180.43l-.07.15.09-.13Z"/><path class="cls-2" d="M58.56,223.15a5.48,5.48,0,0,1-1.7-3.59c1-.2,1-.18,1.37.67s1.62,1.12,2.26,1.9a10.56,10.56,0,0,0,2.33,3.23,28,28,0,0,1,5.29,6.73c1,1.75,2.79,3.11,3,5.35,2.57,1.74,2.89,5.22,5.41,7,.1.06.29.16.28.18-.87,2.13,1.76,2.23,2.11,3.64.41,1.62,1.93,2.36,2.85,3.59,1.87,2.52,4,4.87,6.06,7.21a45.86,45.86,0,0,0,4,4.58c.52.44.78.83.25,1.54-3.63-2.47-6.18-6-9.14-9.12-1.64-1.75-3.1-3.73-5.19-5-.18-.11-.42-.09-.51-.36-1.15-3.57-3.82-6.24-5.7-9.38-2-3.32-4.21-6.52-6.26-9.82-.59-1-1-2.5-2.69-2.59a.68.68,0,0,1-.49-.42C61.91,226,59.64,225,58.56,223.15Z"/><path class="cls-1" d="M53,225.18c-.51-.06-.87.16-1,.86-.89-2.17.42-4,.44-5.89.45,1,2.2,1.68.64,3.24-.17.18-1.65,1.19.12,1.56A.47.47,0,0,1,53,225.18Z"/><path class="cls-2" d="M91.84,279.22c0,.35-.07.59-.42.62-.59.06-.74-.37-.92-.82-.25-.66.32-.72.61-.73C91.69,278.26,91.47,279,91.84,279.22Z"/><path class="cls-1" d="M101.05,253.75c.31.12.54.3.49.63s-.33.26-.53.22-.55.11-.46-.29C100.61,254.07,100.67,253.73,101.05,253.75Z"/><path class="cls-1" d="M46.53,217.16c0,.5-.15,1,.33,1.45s.39,1,.2,1.58c0,.08-.34.17-.4.12-.41-.37-.95-.69-.8-1.4a5.22,5.22,0,0,0,0-.69Z"/><path class="cls-1" d="M53.37,201.66c0,1-.07,1.67-.74,2-.22.1-.33-.2-.42-.41C51.74,202.11,53.06,202.46,53.37,201.66Z"/><path class="cls-1" d="M46,211.38c-.73.37-1.07-.13-1.43-.27s-.51-.8-.47-1.2.46-.48.65.05c0,.16,0,.39.12.49C45.21,210.75,45.56,211,46,211.38Z"/><path class="cls-1" d="M47.92,216.45c0,.26.07.68-.45.37Z"/><path class="cls-1" d="M46.85,216.91l-.33.27Z"/><path class="cls-1" d="M48.46,225.6c-1.06-.56-.81-2.13-2.1-2.47-.19,0,0-.69.28-.55.86.44,1.67-.42,2.68,0C47.38,223.24,49.15,224.62,48.46,225.6Z"/><path class="cls-1" d="M49.31,219.54a2.13,2.13,0,0,1-1.09,1.58C47.7,219.82,47.7,219.82,49.31,219.54Z"/><path class="cls-1" d="M56.65,222.6c-.83.4-1.48.71-2.14,1,0,0-.27-.22-.26-.33.1-1,1.39-.32,1.67-1.12Z"/><path class="cls-1" d="M44.46,222.05a2.25,2.25,0,0,1,.46,2.39c-.83-.79-.29-1.66-.44-2.41Z"/><path class="cls-1" d="M55.08,221.93l.05.13-.19,0s0-.1,0-.14S55,221.94,55.08,221.93Z"/><path class="cls-1" d="M49.79,221.88l-.12.08-.1-.17s.1,0,.14,0S49.76,221.85,49.79,221.88Z"/><path class="cls-1" d="M47.94,218.91l.15.18-.17-.16Z"/><path class="cls-1" d="M47.92,218.93l-.22-.14c.2-.22.19,0,.24.12Z"/><path class="cls-1" d="M44.48,222a.59.59,0,0,1-.14-.06s0-.06,0-.1l.15.18Z"/><polygon class="cls-1" points="46.74 224.94 46.77 225.03 46.68 225.01 46.74 224.94"/><polygon class="cls-2" points="122.51 230.68 122.44 230.66 122.48 230.67 122.51 230.68"/><path class="cls-4" d="M90.61,192.91a.75.75,0,0,1-.78.27c0-.22-.11-.58,0-.61C90.14,192.41,90.4,192.64,90.61,192.91Z"/><path class="cls-4" d="M106.4,245.16c.1-.25.25-.36.46-.15,0,0-.09.23-.15.36Z"/><path class="cls-1" d="M94.72,195c-.09.86-1.36.92-1.28,1.91-.36,0-.86.55-.93-.45-.05-.63-1.34-.56-1.38-1.5,1.2-.41,2.4.39,3.61,0Z"/><path class="cls-1" d="M94.74,195l.07-.15-.09.14Z"/><polygon class="cls-3" points="123.72 159.5 123.63 159.53 123.65 159.44 123.72 159.5"/><path class="cls-4" d="M407,276.53c-1.94,2.83-4,3.12-6.39.45-1.39-1.57-4.59-2.12-4.53-4s2.85-3.06,3.6-5.2l19.92-24.24c-5.47-1.1-10.14,1.2-15,1.56-3.89.79-7.86,1.32-11.64,2.46-2.78.85-3.25-.3-3.73-2.55-1.88-8.68-2.55-6.52,5.16-8.28,8.49-2,17.09-3.41,26.61-4.64-2.83-3.29-5.17-6.1-7.61-8.81-3.44-3.83-6.85-7.69-10.49-11.32-1.87-1.87-1.72-2.91.2-4.62,5.33-4.74,5.21-4.8,10,.46,4.41,4.89,8.92,9.71,14.27,15.51,0-10.52-.06-19.78,0-29,0-1.66-1-4.34,1-4.84,2.73-.68,5.78-.26,8.68,0,.91.07.73,1.35.76,2.16.07,2.22.11,4.44.16,6.66v23.49c2.22-.84,3.4-3,4.92-4.59,4.44-4.78,8.84-9.62,13.14-14.54,1.45-1.68,2.56-1.8,4-.11a8.66,8.66,0,0,0,1.83,1.7c3.75,2.47,3,4.56.1,7.44-5.36,5.37-10.28,11.17-15.85,17.31,4.21,0,7.62.22,11,0,7.5-.6,15-.23,22.51-.37,2.22,0,2.85.9,2.78,3-.3,9.27.86,7.34-7.06,7.41-10.92.1-21.86-.16-33.45,1.37,4.48,5.58,8.64,10.69,12.72,15.88,4.72,6,9.24,12.18,14.09,18.09,2,2.38,1.66,3.71-.89,5a8.56,8.56,0,0,0-2,1.52c-2.33,2.32-3.81,1.87-5.81-.81-7.05-9.46-14.43-18.67-21.66-28-1.72.86-1.05,2.12-1.06,3.07-.07,8.07-.16,16.14,0,24.2.05,2.57-.72,3.29-3.28,3.3-7.83,0-7.52.17-7.09-7.68.42-7.46.09-15,.09-23.4C419.65,260,413,268,407,276.53Z"/><path class="cls-7" d="M223.85,134.25a1,1,0,0,1-.32-.75V114.15a1.08,1.08,0,0,1,1.07-1.08h12.91a1,1,0,0,1,.77.31,1,1,0,0,1,.31.74,1,1,0,0,1-.31.73,1.08,1.08,0,0,1-.77.29H225.68v7.59h8.61a1.06,1.06,0,0,1,.77.31,1,1,0,0,1,.31.74,1,1,0,0,1-.32.74,1,1,0,0,1-.76.31h-8.61v7.68h11.83a1,1,0,0,1,.77.29.92.92,0,0,1,.31.72,1,1,0,0,1-.31.75,1,1,0,0,1-.77.3H224.6A1,1,0,0,1,223.85,134.25Z"/><path class="cls-7" d="M253.05,120.38a7.25,7.25,0,0,1,2.75,2.77,7.72,7.72,0,0,1,1,3.91v6.46a1,1,0,0,1-.3.75,1.07,1.07,0,0,1-.78.3,1.1,1.1,0,0,1-.77-.29,1,1,0,0,1-.3-.76v-1.65a6.77,6.77,0,0,1-2.45,2.08,7,7,0,0,1-3.27.76,7.29,7.29,0,0,1-3.79-1,7.2,7.2,0,0,1-2.67-2.75,7.83,7.83,0,0,1-1-3.89,7.72,7.72,0,0,1,1-3.91,7.32,7.32,0,0,1,2.75-2.77,8.09,8.09,0,0,1,7.79,0ZM252,132a5.47,5.47,0,0,0,2-2,6.27,6.27,0,0,0,0-5.87,5.6,5.6,0,0,0-7.68-2.06,5.31,5.31,0,0,0-2,2.06,6.27,6.27,0,0,0,0,5.87,5.28,5.28,0,0,0,2,2,5.61,5.61,0,0,0,2.85.74A5.53,5.53,0,0,0,252,132Z"/><path class="cls-7" d="M262.92,134.13a6.43,6.43,0,0,1-2.53-1.62,1,1,0,0,1-.28-.64,1.05,1.05,0,0,1,.44-.82,1.11,1.11,0,0,1,.69-.25,1,1,0,0,1,.8.38,4.22,4.22,0,0,0,1.74,1.19,6.89,6.89,0,0,0,2.41.41,5.12,5.12,0,0,0,2.89-.66,2,2,0,0,0,1-1.73,2,2,0,0,0-1-1.65,7.67,7.67,0,0,0-3.05-1,8.6,8.6,0,0,1-4-1.52,3.29,3.29,0,0,1-1.33-2.63,3.59,3.59,0,0,1,1.55-3.11,6.56,6.56,0,0,1,3.9-1.1,7.4,7.4,0,0,1,3.16.62,5.49,5.49,0,0,1,2.18,1.72,1.2,1.2,0,0,1,.22.63.84.84,0,0,1-.44.74.89.89,0,0,1-.52.14,1.29,1.29,0,0,1-1-.41,4.64,4.64,0,0,0-3.69-1.54,4.25,4.25,0,0,0-2.42.61,1.87,1.87,0,0,0-.91,1.56,1.83,1.83,0,0,0,.86,1.58,7.76,7.76,0,0,0,3,1,8.65,8.65,0,0,1,4.22,1.61,3.56,3.56,0,0,1,1.26,2.77,3.61,3.61,0,0,1-.76,2.26,4.88,4.88,0,0,1-2.1,1.54,8.18,8.18,0,0,1-3.06.55A9.27,9.27,0,0,1,262.92,134.13Z"/><path class="cls-7" d="M288.19,120.39a1.29,1.29,0,0,1-.11.5l-8.92,19.6a.84.84,0,0,1-.8.63,1.18,1.18,0,0,1-.5-.11.85.85,0,0,1-.63-.82,1.29,1.29,0,0,1,.11-.5l2.73-6v0l-6.14-12.72a1,1,0,0,1-.11-.5.84.84,0,0,1,.6-.82,1,1,0,0,1,.5-.11.84.84,0,0,1,.82.57l5.37,11.32,5.12-11.29a.89.89,0,0,1,.83-.6,1.09,1.09,0,0,1,.49.11A.83.83,0,0,1,288.19,120.39Z"/><path class="cls-7" d="M310.47,120.38a7.32,7.32,0,0,1,2.75,2.77,7.72,7.72,0,0,1,1,3.91,7.83,7.83,0,0,1-1,3.89,7.2,7.2,0,0,1-2.67,2.75,7.29,7.29,0,0,1-3.79,1,7,7,0,0,1-3.27-.76,6.77,6.77,0,0,1-2.45-2.08v8.07a1,1,0,0,1-.31.77,1,1,0,0,1-.77.3,1,1,0,0,1-.75-.3,1,1,0,0,1-.29-.77v-6.17a.73.73,0,0,1,0-.25v-6.46a7.72,7.72,0,0,1,1-3.91,7.25,7.25,0,0,1,2.75-2.77,8.09,8.09,0,0,1,7.79,0ZM309.42,132a5.28,5.28,0,0,0,2-2,6.27,6.27,0,0,0,0-5.87,5.31,5.31,0,0,0-2-2.06,5.52,5.52,0,0,0-2.85-.76,5.46,5.46,0,0,0-4.83,2.82,6,6,0,0,0-.73,2.94,5.43,5.43,0,0,0,0,.68.32.32,0,0,1,0,.14,5.52,5.52,0,0,0,1.8,3.53,5.36,5.36,0,0,0,3.7,1.37A5.61,5.61,0,0,0,309.42,132Z"/><path class="cls-7" d="M328.4,120.33a6.49,6.49,0,0,1,2.44,2.62,8.34,8.34,0,0,1,.86,3.83.93.93,0,0,1-.27.7,1,1,0,0,1-.72.26H319.59a5.4,5.4,0,0,0,5.62,5.07,6.35,6.35,0,0,0,2-.34,4.79,4.79,0,0,0,1.61-.87,1.19,1.19,0,0,1,.75-.28,1.06,1.06,0,0,1,.6.22,1,1,0,0,1,.36.75.84.84,0,0,1-.3.63,7.69,7.69,0,0,1-2.31,1.28,8,8,0,0,1-6.64-.47,7,7,0,0,1-2.71-2.72,8,8,0,0,1-1-3.95,8.32,8.32,0,0,1,.93-4,6.74,6.74,0,0,1,2.56-2.73,7.12,7.12,0,0,1,3.72-1A6.78,6.78,0,0,1,328.4,120.33Zm-7.07,2.24a5.58,5.58,0,0,0-1.68,3.41h10.07a5.34,5.34,0,0,0-1.54-3.41,4.65,4.65,0,0,0-3.39-1.29A4.85,4.85,0,0,0,321.33,122.57Z"/><path class="cls-7" d="M345.48,120.38a7.25,7.25,0,0,1,2.75,2.77,7.72,7.72,0,0,1,1,3.91v6.46a1,1,0,0,1-.3.75,1.07,1.07,0,0,1-.78.3,1.1,1.1,0,0,1-.77-.29,1,1,0,0,1-.3-.76v-1.65a6.77,6.77,0,0,1-2.45,2.08,7,7,0,0,1-3.27.76,7.29,7.29,0,0,1-3.79-1,7.2,7.2,0,0,1-2.67-2.75,7.83,7.83,0,0,1-1-3.89,7.72,7.72,0,0,1,1-3.91,7.32,7.32,0,0,1,2.75-2.77,8.09,8.09,0,0,1,7.79,0ZM344.42,132a5.47,5.47,0,0,0,2-2,6.27,6.27,0,0,0,0-5.87,5.6,5.6,0,0,0-7.68-2.06,5.31,5.31,0,0,0-2,2.06,6.27,6.27,0,0,0,0,5.87,5.28,5.28,0,0,0,2,2,5.61,5.61,0,0,0,2.85.74A5.53,5.53,0,0,0,344.42,132Z"/><path class="cls-7" d="M355.35,134.13a6.43,6.43,0,0,1-2.53-1.62,1,1,0,0,1-.28-.64,1.05,1.05,0,0,1,.44-.82,1.11,1.11,0,0,1,.69-.25,1,1,0,0,1,.8.38,4.19,4.19,0,0,0,1.75,1.19,6.79,6.79,0,0,0,2.4.41,5.12,5.12,0,0,0,2.89-.66,2,2,0,0,0,1-1.73,2,2,0,0,0-1-1.65,7.67,7.67,0,0,0-3.05-1,8.6,8.6,0,0,1-4-1.52,3.29,3.29,0,0,1-1.33-2.63,3.59,3.59,0,0,1,1.55-3.11,6.56,6.56,0,0,1,3.9-1.1,7.4,7.4,0,0,1,3.16.62,5.49,5.49,0,0,1,2.18,1.72,1.2,1.2,0,0,1,.22.63.84.84,0,0,1-.44.74.89.89,0,0,1-.52.14,1.29,1.29,0,0,1-1-.41,4.64,4.64,0,0,0-3.69-1.54,4.25,4.25,0,0,0-2.42.61,1.87,1.87,0,0,0-.91,1.56A1.83,1.83,0,0,0,356,125a7.76,7.76,0,0,0,3,1,8.65,8.65,0,0,1,4.22,1.61,3.56,3.56,0,0,1,1.26,2.77,3.61,3.61,0,0,1-.76,2.26,4.88,4.88,0,0,1-2.1,1.54,8.18,8.18,0,0,1-3.06.55A9.27,9.27,0,0,1,355.35,134.13Z"/><path class="cls-7" d="M380.62,120.39a1.29,1.29,0,0,1-.11.5l-8.92,19.6a.84.84,0,0,1-.8.63,1.18,1.18,0,0,1-.5-.11.85.85,0,0,1-.63-.82,1.29,1.29,0,0,1,.11-.5l2.73-6v0l-6.14-12.72a1,1,0,0,1-.11-.5.84.84,0,0,1,.6-.82,1,1,0,0,1,.5-.11.84.84,0,0,1,.82.57l5.37,11.32,5.12-11.29a.89.89,0,0,1,.83-.6,1.09,1.09,0,0,1,.49.11A.83.83,0,0,1,380.62,120.39Z"/><path class="cls-7" d="M385.14,132.41a2.83,2.83,0,0,1,.51,1.8,6.93,6.93,0,0,1-.38,2.16,5.79,5.79,0,0,1-1,1.9A1.66,1.66,0,0,1,383,139c-.39,0-.58-.18-.58-.55a1.13,1.13,0,0,1,.11-.48,2.29,2.29,0,0,1,.36-.54,5.18,5.18,0,0,0,.41-.71,1.74,1.74,0,0,0,.14-.69,1.57,1.57,0,0,0-.17-.75,3.88,3.88,0,0,0-.49-.68,4.38,4.38,0,0,1-.48-.66,1.47,1.47,0,0,1-.15-.69,1.41,1.41,0,0,1,.45-1.1,1.61,1.61,0,0,1,1.14-.42A1.65,1.65,0,0,1,385.14,132.41Z"/><path class="cls-4" d="M223.76,166.27a5.4,5.4,0,0,1-1.06-3.43V147.15a1,1,0,0,1,.31-.76,1,1,0,0,1,.74-.29,1,1,0,0,1,1.05,1.05v15.69a3.52,3.52,0,0,0,.48,1.93,1.43,1.43,0,0,0,1.22.74h.69a.82.82,0,0,1,.66.29,1.09,1.09,0,0,1,.25.76.93.93,0,0,1-.35.75,1.27,1.27,0,0,1-.89.29h-.36A3.34,3.34,0,0,1,223.76,166.27Z"/><path class="cls-4" d="M240.54,153.36A6.46,6.46,0,0,1,243,156a8.3,8.3,0,0,1,.86,3.82.91.91,0,0,1-.27.7,1,1,0,0,1-.72.27H231.73a5.41,5.41,0,0,0,5.62,5.06,6.08,6.08,0,0,0,2-.34,4.79,4.79,0,0,0,1.61-.87,1.25,1.25,0,0,1,.75-.28,1.06,1.06,0,0,1,.6.22,1,1,0,0,1,.36.75.82.82,0,0,1-.3.63,7.69,7.69,0,0,1-2.31,1.28,8,8,0,0,1-6.64-.47A7,7,0,0,1,230.7,164a8,8,0,0,1-1-3.95,8.35,8.35,0,0,1,.93-4,6.65,6.65,0,0,1,2.56-2.72,7,7,0,0,1,3.72-1A6.78,6.78,0,0,1,240.54,153.36Zm-7.07,2.24a5.58,5.58,0,0,0-1.68,3.41h10.07a5.34,5.34,0,0,0-1.54-3.41,4.65,4.65,0,0,0-3.39-1.29A4.85,4.85,0,0,0,233.47,155.6Z"/><path class="cls-4" d="M266.15,153.15a5.16,5.16,0,0,1,2,2.19,7.28,7.28,0,0,1,.7,3.29v7.93a1,1,0,0,1-.29.75,1,1,0,0,1-.76.29,1,1,0,0,1-.77-.29,1,1,0,0,1-.3-.75v-7.93a4.58,4.58,0,0,0-1-3.1,3.36,3.36,0,0,0-2.63-1.14,3.62,3.62,0,0,0-2.81,1.16,4.15,4.15,0,0,0-1.05,3v8a1,1,0,0,1-1,1,1,1,0,0,1-.77-.29,1,1,0,0,1-.31-.75v-7.93a4.53,4.53,0,0,0-1-3.1,3.34,3.34,0,0,0-2.63-1.14,3.77,3.77,0,0,0-2.81,1.13,4,4,0,0,0-1.1,2.89v8.15a1,1,0,0,1-1,1,1.06,1.06,0,0,1-.78-.29,1,1,0,0,1-.3-.75V153.62a1,1,0,0,1,.3-.77,1.07,1.07,0,0,1,.78-.3,1,1,0,0,1,.75.3,1,1,0,0,1,.29.77v.6a5.44,5.44,0,0,1,1.83-1.36,5.51,5.51,0,0,1,2.3-.48,5.43,5.43,0,0,1,2.73.69,5.16,5.16,0,0,1,1.92,1.93,5.58,5.58,0,0,1,2.08-1.93,6,6,0,0,1,2.88-.69A5.38,5.38,0,0,1,266.15,153.15Z"/><path class="cls-4" d="M276.42,166.75a7.07,7.07,0,0,1-2.74-2.74,7.79,7.79,0,0,1-1-3.92,7.92,7.92,0,0,1,1-3.94,7.1,7.1,0,0,1,2.74-2.75,7.82,7.82,0,0,1,3.92-1,7.73,7.73,0,0,1,3.91,1,7.24,7.24,0,0,1,2.74,2.75,8.26,8.26,0,0,1,0,7.86,7.07,7.07,0,0,1-2.74,2.74,8.26,8.26,0,0,1-7.84,0Zm6.79-1.68a5.34,5.34,0,0,0,2-2,6.08,6.08,0,0,0,.71-2.93,6.14,6.14,0,0,0-.71-3,5.28,5.28,0,0,0-2-2,5.83,5.83,0,0,0-5.72,0,5.35,5.35,0,0,0-2,2,6,6,0,0,0-.72,3,6,6,0,0,0,.72,2.93,5.42,5.42,0,0,0,2,2,5.9,5.9,0,0,0,5.72,0Z"/><path class="cls-4" d="M302.76,153.21a5.94,5.94,0,0,1,2.44,2.4,7.78,7.78,0,0,1,.88,3.79v7.16a1,1,0,0,1-.3.74,1,1,0,0,1-.75.3,1,1,0,0,1-.77-.3,1,1,0,0,1-.3-.74V159.4a4.87,4.87,0,0,0-1.36-3.73,5,5,0,0,0-3.57-1.28,5.48,5.48,0,0,0-2.43.52,4.23,4.23,0,0,0-1.72,1.45,3.48,3.48,0,0,0-.64,2v8.15a1,1,0,0,1-1,1,1,1,0,0,1-.77-.29,1,1,0,0,1-.31-.75V153.62a1,1,0,0,1,.31-.77,1,1,0,0,1,.77-.3,1,1,0,0,1,.75.3,1,1,0,0,1,.29.77v.94a6.4,6.4,0,0,1,2.2-1.6,6.76,6.76,0,0,1,2.81-.58A7.39,7.39,0,0,1,302.76,153.21Z"/><path class="cls-7" d="M320.8,167.16a6.39,6.39,0,0,1-2.53-1.62.94.94,0,0,1,.17-1.46,1.11,1.11,0,0,1,.69-.25,1,1,0,0,1,.79.39,4.34,4.34,0,0,0,1.75,1.18,6.66,6.66,0,0,0,2.41.41,5.15,5.15,0,0,0,2.89-.66,2.09,2.09,0,0,0,1-1.73,2,2,0,0,0-1-1.65,7.68,7.68,0,0,0-3.06-1,8.66,8.66,0,0,1-4-1.53,3.29,3.29,0,0,1-1.33-2.63,3.57,3.57,0,0,1,1.55-3.11,6.56,6.56,0,0,1,3.9-1.1,7.4,7.4,0,0,1,3.16.62,5.56,5.56,0,0,1,2.18,1.72,1.32,1.32,0,0,1,.22.63.83.83,0,0,1-.45.74.8.8,0,0,1-.52.14,1.28,1.28,0,0,1-1-.41,4.64,4.64,0,0,0-3.69-1.54,4.16,4.16,0,0,0-2.42.62,1.83,1.83,0,0,0-.06,3.13,7.71,7.71,0,0,0,3,.95,8.61,8.61,0,0,1,4.21,1.61,3.54,3.54,0,0,1,1.27,2.77,3.61,3.61,0,0,1-.76,2.26,5,5,0,0,1-2.1,1.54,8,8,0,0,1-3.06.55A9.33,9.33,0,0,1,320.8,167.16Z"/><path class="cls-7" d="M348.16,166.56a.76.76,0,0,1,0,.24V173a1.08,1.08,0,0,1-.29.77,1,1,0,0,1-.76.3A1,1,0,0,1,346,173V164.9a6.67,6.67,0,0,1-2.45,2.08,7,7,0,0,1-3.28.76,7.28,7.28,0,0,1-3.78-1,7.2,7.2,0,0,1-2.67-2.75,7.83,7.83,0,0,1-1-3.89,7.75,7.75,0,0,1,1-3.91,7.18,7.18,0,0,1,2.75-2.77,8.09,8.09,0,0,1,7.79,0,7.32,7.32,0,0,1,2.75,2.77,7.74,7.74,0,0,1,1,3.91Zm-4-2.12a5.58,5.58,0,0,0,1.81-3.53.25.25,0,0,1,0-.13c0-.15,0-.38,0-.69a5.87,5.87,0,0,0-.73-2.93,5.42,5.42,0,0,0-2-2.07,5.49,5.49,0,0,0-2.84-.76,5.58,5.58,0,0,0-2.85.76,5.47,5.47,0,0,0-2,2.07,6.32,6.32,0,0,0,0,5.86,5.42,5.42,0,0,0,2,2,5.66,5.66,0,0,0,2.85.74A5.34,5.34,0,0,0,344.21,164.44Z"/><path class="cls-7" d="M366.5,152.83a1,1,0,0,1,.3.76v12.94a1,1,0,0,1-.3.77,1.06,1.06,0,0,1-.77.3,1,1,0,0,1-.76-.3,1.08,1.08,0,0,1-.29-.77v-.94a6.54,6.54,0,0,1-2.2,1.6,6.93,6.93,0,0,1-2.81.58,7.39,7.39,0,0,1-3.51-.83,5.9,5.9,0,0,1-2.44-2.41,7.71,7.71,0,0,1-.88-3.78v-7.16a1,1,0,0,1,.31-.74,1,1,0,0,1,.74-.3,1,1,0,0,1,.77.3,1,1,0,0,1,.3.74v7.16a4.89,4.89,0,0,0,1.37,3.73,5,5,0,0,0,3.56,1.28,5.56,5.56,0,0,0,2.44-.53,4.34,4.34,0,0,0,1.72-1.44,3.55,3.55,0,0,0,.63-2v-8.15a1.06,1.06,0,0,1,.29-.76,1,1,0,0,1,.76-.28A1.09,1.09,0,0,1,366.5,152.83Z"/><path class="cls-7" d="M381.77,153.36a6.46,6.46,0,0,1,2.44,2.63,8.18,8.18,0,0,1,.87,3.82.92.92,0,0,1-.28.7,1,1,0,0,1-.72.27H373a5.42,5.42,0,0,0,5.62,5.06,6.14,6.14,0,0,0,2-.34,5,5,0,0,0,1.61-.87,1.2,1.2,0,0,1,.74-.28,1.06,1.06,0,0,1,.6.22,1,1,0,0,1,.36.75.82.82,0,0,1-.3.63,7.69,7.69,0,0,1-2.31,1.28,8,8,0,0,1-6.64-.47,7,7,0,0,1-2.71-2.72,8,8,0,0,1-1-3.95,8.35,8.35,0,0,1,.92-4,6.72,6.72,0,0,1,2.56-2.72,7,7,0,0,1,3.73-1A6.75,6.75,0,0,1,381.77,153.36Zm-7.07,2.24A5.58,5.58,0,0,0,373,159h10.07a5.34,5.34,0,0,0-1.54-3.41,4.64,4.64,0,0,0-3.38-1.29A4.87,4.87,0,0,0,374.7,155.6Z"/><path class="cls-7" d="M398.12,153.36a6.46,6.46,0,0,1,2.44,2.63,8.18,8.18,0,0,1,.87,3.82.92.92,0,0,1-.28.7,1,1,0,0,1-.71.27H389.32a5.46,5.46,0,0,0,1.76,3.66,5.51,5.51,0,0,0,3.85,1.4,6.14,6.14,0,0,0,2-.34,4.89,4.89,0,0,0,1.61-.87,1.2,1.2,0,0,1,.74-.28,1.11,1.11,0,0,1,.61.22,1,1,0,0,1,.35.75.82.82,0,0,1-.3.63,7.69,7.69,0,0,1-2.31,1.28,8,8,0,0,1-6.64-.47,7,7,0,0,1-2.71-2.72,8,8,0,0,1-1-3.95,8.35,8.35,0,0,1,.92-4,6.72,6.72,0,0,1,2.56-2.72,7,7,0,0,1,3.73-1A6.72,6.72,0,0,1,398.12,153.36Zm-7.07,2.24a5.58,5.58,0,0,0-1.68,3.41h10.07a5.34,5.34,0,0,0-1.54-3.41,4.64,4.64,0,0,0-3.38-1.29A4.87,4.87,0,0,0,391.05,155.6Z"/><path class="cls-7" d="M416.46,166.64a.86.86,0,0,1-1,1H405.28a.85.85,0,0,1-1-1,1,1,0,0,1,.19-.69l9-11.48h-8.37a1,1,0,0,1,0-1.92h10.21a.86.86,0,0,1,1,1,1.08,1.08,0,0,1-.23.71l-8.94,11.46h8.31A.86.86,0,0,1,416.46,166.64Z"/><path class="cls-7" d="M432.53,153.43a1.24,1.24,0,0,1-.11.49l-8.92,19.6a.83.83,0,0,1-.8.63,1,1,0,0,1-.49-.11.85.85,0,0,1-.63-.82,1.13,1.13,0,0,1,.11-.5l2.72-6v0L418.27,154a1.15,1.15,0,0,1-.11-.5.84.84,0,0,1,.61-.82,1.1,1.1,0,0,1,.49-.11.85.85,0,0,1,.83.58l5.37,11.31,5.12-11.29a.87.87,0,0,1,.82-.6,1.29,1.29,0,0,1,.5.11A.83.83,0,0,1,432.53,153.43Z"/><path class="cls-7" d="M434.57,167.57a1.49,1.49,0,0,1-.47-1.12,1.62,1.62,0,0,1,1.6-1.63,1.5,1.5,0,0,1,1.12.48,1.57,1.57,0,0,1,.47,1.15,1.59,1.59,0,0,1-2.72,1.12Z"/></svg>